<svg width="70" height="70" viewBox="0 0 70 70" fill="none" xmlns="http://www.w3.org/2000/svg">
<path d="M35 70C54.33 70 70 54.33 70 35C70 15.67 54.33 0 35 0C15.67 0 0 15.67 0 35C0 54.33 15.67 70 35 70Z" fill="#2765DF"/>
<path d="M45 15.0069V22.1486H40.7143C40.0386 21.6401 39.1429 21.9286 39.2857 22.1486C38.8617 22.499 38.5156 22.9341 38.2696 23.426C38.0236 23.9179 37.8831 24.4558 37.8571 25.0052V29.2902H45L43.5714 36.4318H37.8571V55H30.7143V36.4318H25V29.2902H30.7143V25.0052C30.9029 21.4244 31.7057 19.1134 33.5714 17.8636C34.2006 16.9391 35.0561 16.1912 36.0564 15.6911C37.0567 15.191 38.1685 14.9555 39.2857 15.0069C41.9914 15.0069 43.75 15.1026 45 15.0069Z" fill="white"/>
</svg>
