<svg width="70" height="70" viewBox="0 0 70 70" fill="none" xmlns="http://www.w3.org/2000/svg">
<path d="M35 70C54.33 70 70 54.33 70 35C70 15.67 54.33 0 35 0C15.67 0 0 15.67 0 35C0 54.33 15.67 70 35 70Z" fill="#139AFF"/>
<path d="M23.0344 52.0025V45.9674C21.2423 44.4324 19.7635 42.5658 18.6792 40.47C17.6101 38.4425 17.0349 36.1912 17.0004 33.8994C16.9853 31.6411 17.4399 29.4043 18.3352 27.3311C19.2306 25.2578 20.5471 23.3933 22.2014 21.8559C25.7303 18.6593 30.3427 16.9242 35.1035 17.0025C39.5842 17.0047 43.8807 18.7856 47.049 21.9539C50.2173 25.1222 51.9982 29.4187 52.0004 33.8994C51.9952 35.9742 51.5332 38.0223 50.647 39.8984C49.7618 41.7839 48.5216 43.4812 46.9942 44.8975C45.4385 46.356 43.6281 47.5162 41.6532 48.3205C39.6173 49.1571 37.4376 49.5882 35.2365 49.5899H35.107C34.8597 49.5969 34.6217 49.6004 34.3965 49.6004C32.5439 49.6821 30.7036 49.2625 29.0695 48.3859L23.0367 52.0025H23.0344ZM31.4822 35.1057L36.3099 39.9334L45.964 29.0717L37.5162 33.8994L32.6897 29.0717L23.0344 39.9334L31.4822 35.1057Z" fill="white"/>
</svg>
