<svg width="70" height="70" viewBox="0 0 70 70" fill="none" xmlns="http://www.w3.org/2000/svg">
<path d="M35 70C54.33 70 70 54.33 70 35C70 15.67 54.33 0 35 0C15.67 0 0 15.67 0 35C0 54.33 15.67 70 35 70Z" fill="#FF5B7A"/>
<path d="M38.1248 35.8803C38.1248 33.9888 36.5788 32.4496 34.6786 32.4496C32.7786 32.4496 31.2327 33.9888 31.2327 35.8803C31.2327 37.7723 32.7786 39.3112 34.6786 39.3112C36.5788 39.3112 38.1248 37.7723 38.1248 35.8803ZM43.2446 18.0215H25.7546C20.9359 18.0215 17.0156 21.9248 17.0156 26.7224V29.1467H29.8751C31.232 28.1843 32.8892 27.6158 34.6786 27.6158C36.4679 27.6158 38.1254 28.1843 39.4824 29.1467H51.9836V26.7224C51.9836 21.9247 48.0632 18.0215 43.2446 18.0215ZM46.7838 26.2967C46.7838 26.8284 46.347 27.2635 45.8128 27.2635H42.8126C42.2785 27.2635 41.8416 26.8284 41.8416 26.2967V23.3094C41.8416 22.7777 42.2784 22.3426 42.8126 22.3426H45.8128C46.347 22.3426 46.7838 22.7777 46.7838 23.3094V26.2967ZM42.9797 35.8803C42.9797 40.4378 39.2556 44.145 34.6786 44.145C30.1013 44.145 26.3776 40.4378 26.3776 35.8803C26.3776 34.6256 26.6615 33.4357 27.1662 32.3692H17.0156V44.2784C17.0156 49.0764 20.9359 52.9793 25.7546 52.9793H43.2446C48.0633 52.9793 51.9836 49.0763 51.9836 44.2784V32.3692H42.1911C42.6959 33.4357 42.9797 34.6256 42.9797 35.8803Z" fill="white"/>
</svg>
