<svg width="70" height="70" viewBox="0 0 70 70" fill="none" xmlns="http://www.w3.org/2000/svg">
<path d="M35 0C15.6699 0 0 15.6699 0 35C0 54.3301 15.6699 70 35 70C54.3301 70 70 54.3301 70 35C70 15.6699 54.3301 0 35 0Z" fill="#40B3E0"/>
<path d="M52.0308 20.1335L45.7792 51.6524C45.7792 51.6524 44.905 53.8382 42.5007 52.789L28.0747 41.729L22.8291 39.1937L13.9987 36.2209C13.9987 36.2209 12.6435 35.7402 12.5123 34.691C12.381 33.6418 14.0424 33.0736 14.0424 33.0736L49.1452 19.3033C49.1452 19.3033 52.0305 18.0357 52.0305 20.134" fill="white"/>
<path d="M26.9662 51.2976C26.9662 51.2976 26.5451 51.2582 26.0201 49.5968C25.4959 47.9357 22.8291 39.1928 22.8291 39.1928L44.0309 25.7287C44.0309 25.7287 45.2551 24.9855 45.2113 25.7287C45.2113 25.7287 45.4298 25.86 44.7738 26.472C44.1184 27.0842 28.1188 41.4662 28.1188 41.4662" fill="#D2E5F1"/>
<path d="M33.6057 45.9693L27.8999 51.1717C27.8999 51.1717 27.4536 51.5102 26.9658 51.298L28.0585 41.6348" fill="#B5CFE4"/>
</svg>
