<svg width="70" height="70" viewBox="0 0 70 70" fill="none" xmlns="http://www.w3.org/2000/svg">
<path d="M35 70C54.33 70 70 54.33 70 35C70 15.67 54.33 0 35 0C15.67 0 0 15.67 0 35C0 54.33 15.67 70 35 70Z" fill="#4CD964"/>
<path d="M18.0068 53L20.2965 44.306C18.7878 41.6335 17.9951 38.594 18 35.5C18 25.8347 25.582 18 34.9355 18C44.289 18 51.871 25.8347 51.871 35.5C51.871 45.1652 44.289 53 34.9355 53C31.9426 53.005 29.0024 52.1865 26.417 50.6287L18.0068 53ZM28.8235 27.289C28.6048 27.303 28.3911 27.3625 28.1952 27.464C28.0115 27.5715 27.8438 27.7059 27.6973 27.863C27.494 28.0607 27.3789 28.2322 27.2553 28.3985C26.6293 29.2402 26.2927 30.2735 26.2984 31.335C26.3018 32.1925 26.5186 33.0272 26.8573 33.8077C27.5499 35.3862 28.6897 37.0575 30.1953 38.6062C30.5577 38.979 30.9116 39.3535 31.2927 39.7017C33.1613 41.4018 35.3881 42.6278 37.7959 43.2822L38.7595 43.4345C39.0728 43.452 39.3861 43.4275 39.7011 43.4117C40.1944 43.3854 40.676 43.2474 41.1119 43.0075C41.3336 42.8894 41.5501 42.761 41.7605 42.6225C41.7605 42.6225 41.8333 42.5735 41.9722 42.465C42.2008 42.29 42.3414 42.1657 42.5311 41.961C42.6716 41.8105 42.7936 41.6337 42.8867 41.4325C43.0188 41.1472 43.1509 40.603 43.2051 40.1497C43.2457 39.8032 43.2339 39.6142 43.2288 39.497C43.222 39.3097 43.0713 39.1155 42.907 39.0332L41.9214 38.5765C41.9214 38.5765 40.448 37.9132 39.5487 37.4897C39.4539 37.447 39.3523 37.4227 39.249 37.418C39.1331 37.4057 39.016 37.4192 38.9056 37.4575C38.7952 37.4958 38.694 37.5581 38.6088 37.6402V37.6367C38.6003 37.6367 38.4869 37.7365 37.2624 39.2695C37.1922 39.3671 37.0953 39.4408 36.9844 39.4813C36.8734 39.5219 36.7532 39.5273 36.6392 39.497C36.5289 39.4665 36.4208 39.4279 36.3157 39.3815C36.1057 39.2905 36.0329 39.2555 35.889 39.1907L35.8805 39.1872C34.9116 38.7501 34.0146 38.1597 33.2216 37.4372C33.0082 37.2447 32.8101 37.0347 32.6069 36.8317C31.9406 36.1724 31.3599 35.4265 30.8794 34.6127L30.7795 34.4465C30.7078 34.3348 30.6497 34.2143 30.6068 34.0877C30.5424 33.8305 30.7101 33.624 30.7101 33.624C30.7101 33.624 31.1216 33.1585 31.313 32.9065C31.4723 32.6971 31.621 32.4792 31.7584 32.2537C31.9582 31.9212 32.0209 31.58 31.9159 31.3157C31.4417 30.1187 30.9506 28.927 30.4459 27.744C30.346 27.5095 30.0496 27.3415 29.7803 27.3082C29.6889 27.2977 29.5974 27.2872 29.506 27.2802C29.2785 27.2686 29.0506 27.2709 28.8235 27.2872V27.289Z" fill="white"/>
</svg>
