<svg width="21" height="18" viewBox="0 0 21 18" fill="none" xmlns="http://www.w3.org/2000/svg">
<path d="M8.75173 18C8.38918 18 8.0368 17.8817 7.74802 17.6625L0.657396 12.2845C0.306321 12.0184 0.0753934 11.6235 0.0154498 11.1872C-0.0444966 10.7507 0.0714858 10.3084 0.337593 9.95726C0.603703 9.60618 0.998562 9.37525 1.43485 9.31531C1.87142 9.25536 2.31372 9.37108 2.66482 9.63745L8.34852 13.9494L17.1499 0.746966V0.746705C17.3931 0.377908 17.7734 0.120918 18.2065 0.0331038C18.6397 -0.0547302 19.0901 0.0338857 19.4576 0.279144C19.8253 0.524144 20.0802 0.905973 20.1657 1.33944C20.2512 1.77314 20.1602 2.22298 19.9132 2.58942L10.1329 17.2604C9.82513 17.7226 9.30645 17.9999 8.75131 17.9999L8.75173 18Z" fill="#EDEDED"/>
</svg>
