<svg width="30" height="24" viewBox="0 0 30 24" fill="none" xmlns="http://www.w3.org/2000/svg">
<path fill-rule="evenodd" clip-rule="evenodd" d="M11.25 21.375C16.8418 21.375 21.375 16.8418 21.375 11.25C21.375 5.65819 16.8418 1.125 11.25 1.125C5.65819 1.125 1.125 5.65819 1.125 11.25C1.125 16.8418 5.65819 21.375 11.25 21.375ZM11.25 22.5C17.4634 22.5 22.5 17.4634 22.5 11.25C22.5 5.03663 17.4634 0 11.25 0C5.03663 0 0 5.03663 0 11.25C0 17.4634 5.03663 22.5 11.25 22.5Z" fill="black"/>
<path d="M4.5 17.7917C4.5 17.2107 4.93425 16.7196 5.5125 16.6555C9.85219 16.1751 12.6675 16.2184 16.9976 16.6662C17.2139 16.6889 17.4188 16.7741 17.5874 16.9113C17.756 17.0486 17.881 17.232 17.9471 17.4391C18.0132 17.6463 18.0176 17.8682 17.9596 18.0777C17.9017 18.2873 17.784 18.4754 17.6209 18.6192C12.5106 23.0736 9.59006 23.0123 4.86 18.6237C4.62938 18.4099 4.5 18.1062 4.5 17.7923V17.7917Z" fill="black"/>
<path fill-rule="evenodd" clip-rule="evenodd" d="M16.9397 17.2256C12.6439 16.7812 9.86906 16.7396 5.57382 17.2149C5.43243 17.2314 5.30208 17.2994 5.20774 17.406C5.1134 17.5126 5.06168 17.6502 5.0625 17.7926C5.0625 17.9535 5.12944 18.1059 5.2425 18.2117C7.587 20.3863 9.36338 21.369 11.0998 21.3752C12.8424 21.3813 14.7144 20.4065 17.2513 18.1959C17.3319 18.1242 17.3899 18.0306 17.4183 17.9265C17.4467 17.8224 17.4443 17.7123 17.4112 17.6096C17.3782 17.5068 17.3161 17.4159 17.2324 17.3479C17.1487 17.2798 17.047 17.2375 16.9397 17.2262V17.2256ZM5.45063 16.0967C9.83588 15.6112 12.6923 15.6551 17.0561 16.1068C17.3814 16.1407 17.6898 16.2688 17.9434 16.4753C18.197 16.6818 18.3849 16.9577 18.4842 17.2694C18.5834 17.581 18.5896 17.9149 18.502 18.23C18.4144 18.5451 18.2368 18.8278 17.991 19.0436C15.4176 21.2868 13.2744 22.5086 11.0964 22.5002C8.91225 22.4923 6.86363 21.2497 4.47807 19.0363C4.30726 18.8772 4.17111 18.6846 4.0781 18.4705C3.98509 18.2564 3.93723 18.0254 3.9375 17.792C3.93668 17.3726 4.09062 16.9677 4.36982 16.6548C4.64902 16.3418 5.03386 16.1429 5.45063 16.0961V16.0967Z" fill="black"/>
<path d="M15.75 9C15.75 10.1935 15.2759 11.3381 14.432 12.182C13.5881 13.0259 12.4435 13.5 11.25 13.5C10.0565 13.5 8.91193 13.0259 8.06802 12.182C7.22411 11.3381 6.75 10.1935 6.75 9C6.75 7.80653 7.22411 6.66193 8.06802 5.81802C8.91193 4.97411 10.0565 4.5 11.25 4.5C12.4435 4.5 13.5881 4.97411 14.432 5.81802C15.2759 6.66193 15.75 7.80653 15.75 9Z" fill="black"/>
<path fill-rule="evenodd" clip-rule="evenodd" d="M11.25 12.375C12.1451 12.375 13.0036 12.0194 13.6365 11.3865C14.2694 10.7536 14.625 9.8951 14.625 9C14.625 8.10489 14.2694 7.24645 13.6365 6.61351C13.0036 5.98058 12.1451 5.625 11.25 5.625C10.3549 5.625 9.49645 5.98058 8.86351 6.61351C8.23058 7.24645 7.875 8.10489 7.875 9C7.875 9.8951 8.23058 10.7536 8.86351 11.3865C9.49645 12.0194 10.3549 12.375 11.25 12.375ZM11.25 13.5C12.4435 13.5 13.5881 13.0259 14.432 12.182C15.2759 11.3381 15.75 10.1935 15.75 9C15.75 7.80653 15.2759 6.66193 14.432 5.81802C13.5881 4.97411 12.4435 4.5 11.25 4.5C10.0565 4.5 8.91193 4.97411 8.06802 5.81802C7.22411 6.66193 6.75 7.80653 6.75 9C6.75 10.1935 7.22411 11.3381 8.06802 12.182C8.91193 13.0259 10.0565 13.5 11.25 13.5Z" fill="black"/>
<path d="M22.7573 15.09C22.3485 15.09 21.9657 15.2486 21.6759 15.5385C21.3874 15.8283 21.2274 16.2111 21.2274 16.6199C21.2274 17.0287 21.3874 17.4115 21.6759 17.7014C21.9657 17.9898 22.3485 18.1498 22.7573 18.1498C23.1661 18.1498 23.5489 17.9898 23.8387 17.7014C24.1272 17.4115 24.2872 17.0287 24.2872 16.6199C24.2872 16.2111 24.1272 15.8283 23.8387 15.5385C23.6972 15.3958 23.5287 15.2827 23.343 15.2057C23.1574 15.1288 22.9583 15.0894 22.7573 15.09ZM28.3942 18.3098L27.5001 17.5455C27.5425 17.2857 27.5643 17.0205 27.5643 16.7566C27.5643 16.4928 27.5425 16.2262 27.5001 15.9678L28.3942 15.2035C28.4618 15.1457 28.5101 15.0687 28.5328 14.9827C28.5555 14.8967 28.5515 14.8059 28.5214 14.7223L28.5091 14.6867C28.263 13.9986 27.8943 13.3608 27.4208 12.8041L27.3962 12.7754C27.3387 12.7078 27.262 12.6592 27.1764 12.636C27.0907 12.6128 27 12.6161 26.9163 12.6455L25.8061 13.0406C25.396 12.7043 24.9393 12.4391 24.4444 12.2545L24.2298 11.0938C24.2136 11.0063 24.1711 10.9259 24.1081 10.8631C24.0451 10.8003 23.9645 10.7582 23.877 10.7424L23.8401 10.7355C23.1292 10.607 22.38 10.607 21.669 10.7355L21.6321 10.7424C21.5446 10.7582 21.464 10.8003 21.401 10.8631C21.338 10.9259 21.2956 11.0063 21.2794 11.0938L21.0634 12.26C20.5731 12.446 20.1164 12.7106 19.7112 13.0434L18.5928 12.6455C18.5091 12.6159 18.4184 12.6125 18.3327 12.6357C18.2469 12.6589 18.1703 12.7076 18.113 12.7754L18.0884 12.8041C17.6157 13.3614 17.2471 13.999 17.0001 14.6867L16.9878 14.7223C16.9262 14.8932 16.9768 15.0846 17.1149 15.2035L18.02 15.976C17.9776 16.233 17.9571 16.4955 17.9571 16.7553C17.9571 17.0178 17.9776 17.2803 18.02 17.5346L17.1177 18.307C17.0501 18.3649 17.0018 18.4419 16.9791 18.5278C16.9563 18.6138 16.9603 18.7046 16.9905 18.7883L17.0028 18.8238C17.2503 19.5115 17.6153 20.1473 18.0911 20.7064L18.1157 20.7352C18.1732 20.8028 18.2498 20.8514 18.3355 20.8745C18.4212 20.8977 18.5118 20.8944 18.5956 20.865L19.7139 20.4672C20.1214 20.8021 20.5753 21.0674 21.0661 21.2506L21.2821 22.4168C21.2983 22.5042 21.3407 22.5847 21.4037 22.6474C21.4667 22.7102 21.5473 22.7523 21.6348 22.7682L21.6718 22.775C22.3897 22.9042 23.1249 22.9042 23.8428 22.775L23.8798 22.7682C23.9673 22.7523 24.0479 22.7102 24.1109 22.6474C24.1739 22.5847 24.2163 22.5042 24.2325 22.4168L24.4471 21.2561C24.9421 21.0701 25.3987 20.8063 25.8089 20.4699L26.919 20.865C27.0027 20.8947 27.0935 20.8981 27.1792 20.8749C27.2649 20.8517 27.3415 20.8029 27.3989 20.7352L27.4235 20.7064C27.8993 20.1445 28.2643 19.5115 28.5118 18.8238L28.5241 18.7883C28.5829 18.6188 28.5323 18.4287 28.3942 18.3098ZM22.7573 19.0234C21.4298 19.0234 20.3538 17.9475 20.3538 16.6199C20.3538 15.2924 21.4298 14.2164 22.7573 14.2164C24.0848 14.2164 25.1608 15.2924 25.1608 16.6199C25.1608 17.9475 24.0848 19.0234 22.7573 19.0234Z" fill="#4F7DF2"/>
</svg>
