<svg width="20" height="20" viewBox="0 0 20 20" fill="none" xmlns="http://www.w3.org/2000/svg">
<path fill-rule="evenodd" clip-rule="evenodd" d="M10 0C11.6569 0 13 1.34315 13 3V10C13 11.6569 11.6569 13 10 13C8.34315 13 7 11.6569 7 10V3C7 1.34315 8.34315 0 10 0ZM15.25 6.5C14.8358 6.5 14.5 6.83579 14.5 7.25V10C14.5 12.4853 12.4853 14.5 10 14.5C7.51472 14.5 5.5 12.4853 5.5 10V7.25C5.5 6.83579 5.16421 6.5 4.75 6.5C4.33579 6.5 4 6.83579 4 7.25V10C4.00148 13.0226 6.25111 15.5722 9.25 15.95V17.5H7.25C6.83579 17.5 6.5 17.8358 6.5 18.25C6.5 18.6642 6.83579 19 7.25 19H12.75C13.1642 19 13.5 18.6642 13.5 18.25C13.5 17.8358 13.1642 17.5 12.75 17.5H10.75V15.95C13.7489 15.5722 15.9985 13.0226 16 10V7.25C16 6.83579 15.6642 6.5 15.25 6.5Z" fill="#8A8A8F"/>
</svg>
