<svg width="41" height="42" viewBox="0 0 41 42" fill="none" xmlns="http://www.w3.org/2000/svg">
<g filter="url(#filter0_d_6_279)">
<rect x="4.57651" y="3.09827" width="31.4645" height="31.4645" rx="15.7323" fill="#E9E9E9" stroke="white"/>
<path d="M12.7422 16.2686L12.7423 16.2685C13.7402 14.7316 15.288 13.8742 16.6845 13.8742C17.4021 13.8742 17.9917 14.0688 18.6138 14.2901C18.6492 14.3027 18.6848 14.3154 18.7207 14.3283C19.2979 14.5346 19.9394 14.7639 20.6675 14.7639C21.3553 14.7639 21.9263 14.5469 22.4476 14.3488C22.5029 14.3278 22.5577 14.307 22.6119 14.2867C23.1871 14.0714 23.7878 13.8729 24.6366 13.8729C25.7273 13.8729 26.9152 14.3996 27.8607 15.367C24.6996 17.5934 25.2646 22.3475 28.5676 23.9997C28.2162 24.7618 27.9783 25.2088 27.4655 25.9892L27.4654 25.9893C27.0303 26.6517 26.5283 27.3598 25.9622 27.9018C25.3919 28.448 24.8173 28.7672 24.2371 28.7727C23.7218 28.7776 23.4013 28.6312 22.9519 28.426C22.9197 28.4112 22.8868 28.3962 22.8532 28.381C22.3318 28.1442 21.7078 27.8922 20.684 27.8978L20.6839 27.8978C19.6638 27.9035 19.0339 28.1551 18.5071 28.3881C18.4767 28.4015 18.4469 28.4147 18.4177 28.4277C17.9552 28.6332 17.6232 28.7806 17.1005 28.7759C16.5065 28.7703 15.9448 28.4774 15.3994 27.978C14.8535 27.4783 14.3694 26.8131 13.9361 26.1537C12.7545 24.3556 12.1058 22.4064 11.9324 20.6372C11.7582 18.8592 12.0671 17.3077 12.7422 16.2686Z" fill="#535353" stroke="white"/>
<path d="M21.4428 10.4295L21.4429 10.4295C22.0185 9.73021 22.9449 9.16914 23.8016 8.9641C23.7895 9.89101 23.3846 10.7946 22.8475 11.4838L23.2419 11.7912L22.8474 11.4839C22.2786 12.214 21.3635 12.784 20.46 12.908C20.4526 12.0188 20.8864 11.1053 21.4428 10.4295Z" fill="#535353" stroke="white"/>
</g>
<defs>
<filter id="filter0_d_6_279" x="0.0765076" y="0.598267" width="40.4645" height="40.4645" filterUnits="userSpaceOnUse" color-interpolation-filters="sRGB">
<feFlood flood-opacity="0" result="BackgroundImageFix"/>
<feColorMatrix in="SourceAlpha" type="matrix" values="0 0 0 0 0 0 0 0 0 0 0 0 0 0 0 0 0 0 127 0" result="hardAlpha"/>
<feOffset dy="2"/>
<feGaussianBlur stdDeviation="2"/>
<feComposite in2="hardAlpha" operator="out"/>
<feColorMatrix type="matrix" values="0 0 0 0 1 0 0 0 0 1 0 0 0 0 1 0 0 0 1 0"/>
<feBlend mode="normal" in2="BackgroundImageFix" result="effect1_dropShadow_6_279"/>
<feBlend mode="normal" in="SourceGraphic" in2="effect1_dropShadow_6_279" result="shape"/>
</filter>
</defs>
</svg>
