<svg width="72" height="71" viewBox="0 0 72 71" fill="none" xmlns="http://www.w3.org/2000/svg">
<g filter="url(#filter0_d_3_145520)">
<ellipse cx="35.8795" cy="30.5833" rx="25.8795" ry="25.2913" fill="#324396"/>
</g>
<path d="M38.469 35.441C38.1476 35.0004 37.4571 34.9675 37.0881 35.375L36.9492 35.5291L41.4214 41.8108C41.5643 41.7484 41.7031 41.6933 41.842 41.6273C42.2943 41.4033 42.4332 40.8599 42.1476 40.4671L38.469 35.441Z" fill="white"/>
<path d="M32.0891 26.0303C32.626 25.8605 32.8398 25.255 32.5248 24.8118L28.9191 19.7607C28.6351 19.3656 28.0516 19.2844 27.6667 19.5908C27.5461 19.6905 27.4371 19.794 27.3245 19.8936L31.7741 26.1262L32.0891 26.0303Z" fill="white"/>
<path d="M36.7532 36.7023C35.988 37.6068 34.568 37.5312 33.9018 36.5547L29.0558 29.45C28.3896 28.4696 28.8426 27.1335 29.9732 26.7625L30.4302 26.6111L26.2844 20.5244C23.7338 23.3823 23.3417 27.6934 25.5991 31.0017L28.5342 35.3054L29.6839 36.9898L31.1724 39.1777C33.43 42.4896 37.6059 43.7235 41.2267 42.4215L37.138 36.2519L36.7532 36.7023Z" fill="white"/>
<path d="M41.7529 31.7374C41.5165 31.691 41.2888 31.8125 41.2372 32.0056C41.1855 32.1988 41.3274 32.3919 41.5594 32.4349C43.3083 32.7675 44.7949 33.6472 45.7531 34.9133C46.7113 36.1792 47.0163 37.6777 46.6168 39.1299C46.5651 39.323 46.707 39.5161 46.939 39.5591C46.9734 39.5662 47.0035 39.5698 47.0336 39.5698C47.2312 39.5698 47.4074 39.459 47.4504 39.2909C47.9016 37.6494 47.5534 35.9615 46.4749 34.5344C45.401 33.1037 43.7251 32.1095 41.7529 31.7376L41.7529 31.7374Z" fill="white"/>
<path d="M41.6885 32.86C41.481 32.8068 41.2812 32.9459 41.2359 33.167C41.1905 33.3881 41.315 33.6092 41.5187 33.6584C42.601 33.9246 43.5211 34.6369 44.1131 35.6605C44.705 36.684 44.8974 37.896 44.6485 39.0669C44.6032 39.288 44.7276 39.5091 44.9313 39.5583C44.9615 39.5664 44.9879 39.5706 45.0143 39.5706C45.1877 39.5706 45.3424 39.4437 45.3801 39.2513C45.6705 37.8634 45.4479 36.4345 44.7466 35.2267C44.0528 34.0145 42.9667 33.1752 41.6884 32.86L41.6885 32.86Z" fill="white"/>
<path d="M41.5636 35.1002C41.415 35.0469 41.2664 35.1865 41.2333 35.4083C41.2003 35.6302 41.2911 35.8521 41.4397 35.9014C42.3918 36.226 42.9888 37.6434 42.7714 39.0648C42.7384 39.2866 42.8292 39.5085 42.9778 39.5579C42.9998 39.566 43.0191 39.5702 43.0383 39.5702C43.1649 39.5702 43.2778 39.4429 43.3053 39.2498C43.5943 37.3885 42.8128 35.5275 41.5636 35.1003L41.5636 35.1002Z" fill="white"/>
<defs>
<filter id="filter0_d_3_145520" x="0" y="0.291992" width="71.759" height="70.583" filterUnits="userSpaceOnUse" color-interpolation-filters="sRGB">
<feFlood flood-opacity="0" result="BackgroundImageFix"/>
<feColorMatrix in="SourceAlpha" type="matrix" values="0 0 0 0 0 0 0 0 0 0 0 0 0 0 0 0 0 0 127 0" result="hardAlpha"/>
<feOffset dy="5"/>
<feGaussianBlur stdDeviation="5"/>
<feColorMatrix type="matrix" values="0 0 0 0 0.576471 0 0 0 0 0.576471 0 0 0 0 0.576471 0 0 0 0.25 0"/>
<feBlend mode="normal" in2="BackgroundImageFix" result="effect1_dropShadow_3_145520"/>
<feBlend mode="normal" in="SourceGraphic" in2="effect1_dropShadow_3_145520" result="shape"/>
</filter>
</defs>
</svg>
