<svg width="30" height="30" viewBox="0 0 30 30" fill="none" xmlns="http://www.w3.org/2000/svg">
<circle cx="15" cy="15" r="15" fill="#C4C4C4"/>
<path d="M8.25 14.25H23.25C23.4489 14.25 23.6397 14.329 23.7803 14.4697C23.921 14.6103 24 14.8011 24 15C24 15.1989 23.921 15.3897 23.7803 15.5303C23.6397 15.671 23.4489 15.75 23.25 15.75H8.25C8.05109 15.75 7.86032 15.671 7.71967 15.5303C7.57902 15.3897 7.5 15.1989 7.5 15C7.5 14.8011 7.57902 14.6103 7.71967 14.4697C7.86032 14.329 8.05109 14.25 8.25 14.25Z" fill="black"/>
<path d="M8.56049 15L14.781 21.219C14.9218 21.3598 15.0009 21.5508 15.0009 21.75C15.0009 21.9491 14.9218 22.1401 14.781 22.281C14.6402 22.4218 14.4491 22.5009 14.25 22.5009C14.0508 22.5009 13.8598 22.4218 13.719 22.281L6.969 15.531C6.89915 15.4613 6.84374 15.3785 6.80593 15.2874C6.76812 15.1963 6.74866 15.0986 6.74866 15C6.74866 14.9013 6.76812 14.8036 6.80593 14.7125C6.84374 14.6214 6.89915 14.5386 6.969 14.469L13.719 7.71897C13.8598 7.57814 14.0508 7.49902 14.25 7.49902C14.4491 7.49902 14.6402 7.57814 14.781 7.71897C14.9218 7.8598 15.0009 8.05081 15.0009 8.24997C15.0009 8.44913 14.9218 8.64014 14.781 8.78097L8.56049 15Z" fill="black"/>
</svg>
