<svg width="21" height="17" viewBox="0 0 21 17" fill="none" xmlns="http://www.w3.org/2000/svg">
<path d="M18.9583 7.29167H4.62748L9.01373 2.02334C9.21883 1.77658 9.3175 1.45845 9.28805 1.13893C9.25859 0.819418 9.10341 0.524692 8.85665 0.319591C8.60988 0.11449 8.29175 0.0158154 7.97224 0.0452742C7.65272 0.074733 7.358 0.229913 7.1529 0.476674L1.11123 7.72667C1.07058 7.78434 1.03423 7.84492 1.00248 7.90792C1.00248 7.96834 1.00248 8.00459 0.917897 8.06501C0.863127 8.20355 0.83445 8.35103 0.833313 8.50001C0.83445 8.64898 0.863127 8.79646 0.917897 8.93501C0.917897 8.99542 0.917896 9.03167 1.00248 9.09209C1.03423 9.15509 1.07058 9.21567 1.11123 9.27334L7.1529 16.5233C7.26651 16.6597 7.40878 16.7694 7.56959 16.8446C7.73039 16.9198 7.9058 16.9586 8.08331 16.9583C8.36564 16.9589 8.63925 16.8606 8.85665 16.6804C8.979 16.579 9.08014 16.4544 9.15427 16.3138C9.22841 16.1732 9.27408 16.0194 9.28867 15.8611C9.30326 15.7029 9.28649 15.5433 9.23931 15.3915C9.19213 15.2397 9.11547 15.0988 9.01373 14.9767L4.62748 9.70834H18.9583C19.2788 9.70834 19.5861 9.58103 19.8127 9.35443C20.0393 9.12782 20.1666 8.82048 20.1666 8.50001C20.1666 8.17954 20.0393 7.87219 19.8127 7.64559C19.5861 7.41898 19.2788 7.29167 18.9583 7.29167Z" fill="black"/>
</svg>
