<svg width="106" height="106" viewBox="0 0 106 106" fill="none" xmlns="http://www.w3.org/2000/svg">
<path d="M96.7248 79.5003H94.222V76.9976C94.222 76.0995 93.8653 75.2382 93.2302 74.6032C92.5952 73.9682 91.7339 73.6114 90.8359 73.6114H82.4442V51.9109H70.6665V73.6114H58.8887V51.9109H47.1109V73.6114H35.3331V51.9109H23.5553V73.6114H15.1637C14.2656 73.6114 13.4043 73.9682 12.7693 74.6032C12.1343 75.2382 11.7776 76.0995 11.7776 76.9976V79.5003H9.27478C8.37673 79.5003 7.51546 79.8571 6.88044 80.4921C6.24542 81.1271 5.88867 81.9884 5.88867 82.8864V91.2781H100.111V82.8864C100.111 81.9884 99.7541 81.1271 99.1191 80.4921C98.4841 79.8571 97.6228 79.5003 96.7248 79.5003Z" fill="white"/>
<path d="M88.3331 39.7496C85.2153 39.7635 82.1302 39.1144 79.2824 37.8453C76.4346 36.5762 73.8891 34.7162 71.8148 32.3885H65.2192L53.7359 25.793L42.2525 32.3885H32.8009L52.5875 21.023C52.9456 20.8162 53.3518 20.7074 53.7653 20.7074C54.1788 20.7074 54.585 20.8162 54.9431 21.023L69.6653 29.4735C67.4249 25.9437 66.2398 21.8471 66.2498 17.6663V16.253L52.9998 8.59741L7.36087 34.8324C7.009 35.0165 6.69799 35.2698 6.44657 35.5772C6.19514 35.8846 6.00849 36.2397 5.89785 36.6211C5.7872 37.0024 5.75485 37.4023 5.80274 37.7965C5.85062 38.1907 5.97775 38.5712 6.17649 38.915C6.37522 39.2588 6.64145 39.5588 6.95915 39.7971C7.27685 40.0353 7.63947 40.2069 8.02518 40.3013C8.41089 40.3958 8.81173 40.4113 9.20358 40.3468C9.59542 40.2824 9.97019 40.1393 10.3053 39.9263L14.722 37.3352V47.1107H91.2775V39.5141C90.3024 39.658 89.3187 39.7367 88.3331 39.7496Z" fill="white"/>
<path d="M94.0454 38.9848L95.6943 39.927C96.2131 40.2206 96.8089 40.3497 97.4027 40.2974C97.9965 40.2451 98.5605 40.0138 99.02 39.6341C99.4795 39.2543 99.813 38.744 99.9762 38.1707C100.139 37.5973 100.125 36.9879 99.9343 36.4231C98.1076 37.5613 96.1234 38.4244 94.0454 38.9848Z" fill="white"/>
<path d="M88.3335 32.389C96.4644 32.389 103.056 25.7977 103.056 17.6668C103.056 9.53594 96.4644 2.94458 88.3335 2.94458C80.2027 2.94458 73.6113 9.53594 73.6113 17.6668C73.6113 25.7977 80.2027 32.389 88.3335 32.389Z" fill="white"/>
</svg>
