<svg width="22" height="16" viewBox="0 0 22 16" fill="none" xmlns="http://www.w3.org/2000/svg">
<path d="M10.714 15.0025C8.36433 15.0056 6.07297 14.2711 4.163 12.9025C2.27377 11.5518 0.825531 9.67323 0 7.5025C0.825374 5.33168 2.27365 3.45306 4.163 2.1025C6.07337 0.735189 8.36374 0 10.713 0C13.0623 0 15.3526 0.735189 17.263 2.1025C19.1519 3.45325 20.5998 5.33184 21.425 7.5025C20.5998 9.67313 19.1519 11.5517 17.263 12.9025C15.3536 14.2707 13.063 15.0052 10.714 15.0025ZM10.714 2.5025C9.40571 2.52147 8.15834 3.05848 7.24541 3.99578C6.33248 4.93308 5.82851 6.19416 5.844 7.5025C5.82851 8.81083 6.33248 10.0719 7.24541 11.0092C8.15834 11.9465 9.40571 12.4835 10.714 12.5025C12.0225 12.4838 13.2701 11.9469 14.1832 11.0096C15.0964 10.0722 15.6005 8.811 15.585 7.5025C15.6005 6.19399 15.0964 4.93276 14.1832 3.99543C13.2701 3.0581 12.0225 2.5212 10.714 2.5025ZM10.714 10.5025C10.1176 10.518 9.53008 10.3553 9.02658 10.0353C8.52308 9.71519 8.12645 9.25225 7.88738 8.70562C7.64831 8.15899 7.57766 7.55349 7.68445 6.96651C7.79125 6.37952 8.07064 5.83771 8.48693 5.41031C8.90321 4.98292 9.43748 4.68935 10.0214 4.56713C10.6054 4.44491 11.2126 4.49959 11.7653 4.72418C12.318 4.94877 12.7913 5.33307 13.1245 5.82797C13.4577 6.32286 13.6358 6.90587 13.636 7.5025C13.6453 8.28751 13.343 9.04419 12.7952 9.60658C12.2474 10.169 11.499 10.4912 10.714 10.5025Z" fill="black"/>
</svg>
