<svg width="35" height="35" viewBox="0 0 35 35" fill="none" xmlns="http://www.w3.org/2000/svg">
<path d="M17.4133 34.2759C26.8783 34.2759 34.5513 26.603 34.5513 17.1379C34.5513 7.67291 26.8783 0 17.4133 0C7.9483 0 0.275391 7.67291 0.275391 17.1379C0.275391 26.603 7.9483 34.2759 17.4133 34.2759Z" fill="white" fill-opacity="0.2"/>
<path d="M25.1169 11.2622C24.3334 9.95643 22.8971 9.30356 21.3302 9.30356H13.4957C11.9288 9.30356 10.4925 9.95643 9.70903 11.2622C6.70582 15.8323 6.05294 22.7528 8.14214 24.1891C10.2313 25.6254 14.932 19.3578 17.4129 19.3578C19.8939 19.3578 24.464 25.6254 26.6837 24.1891C28.7729 22.7528 28.1201 15.8323 25.1169 11.2622V11.2622ZM14.8014 15.8323H13.4957V17.138H12.19V15.8323H10.8842V14.5265H12.19V13.2208H13.4957V14.5265H14.8014V15.8323ZM21.8525 16.4852C21.8525 17.138 21.3302 17.6603 20.6773 17.6603C20.0244 17.6603 19.5021 17.138 19.5021 16.4852C19.5021 15.8323 20.0244 15.31 20.6773 15.31C21.3302 15.31 21.8525 15.8323 21.8525 16.4852ZM24.3334 13.8737C24.3334 14.5265 23.8111 15.0488 23.1582 15.0488C22.5054 15.0488 21.9831 14.5265 21.9831 13.8737C21.9831 13.2208 22.5054 12.6985 23.1582 12.6985C23.8111 12.6985 24.3334 13.2208 24.3334 13.8737Z" fill="#40B3E0"/>
</svg>
