<svg width="58" height="92" viewBox="0 0 58 92" fill="none" xmlns="http://www.w3.org/2000/svg">
<path d="M0.735352 63.3395C1.59609 74.144 10.1355 82.5588 25.4475 83.5554V91.5286H32.2428V83.4988C48.0985 82.3889 57.3627 73.9175 57.3627 61.618C57.3627 50.4398 50.273 44.6751 37.5998 41.6852L32.2428 40.4167V18.7058C39.0381 19.4759 43.3644 23.1907 44.4064 28.3324H56.3208C55.46 17.9243 46.5356 9.78132 32.2428 8.89794V0.924805H25.4475V9.06782C11.9136 10.3929 2.68333 18.5359 2.68333 30.0539C2.68333 40.2468 9.54657 46.725 20.9513 49.3865L25.4475 50.4964V73.5324C18.4824 72.4791 13.8729 68.6624 12.831 63.3395H0.735352ZM25.3909 38.8085C18.7089 37.2569 15.0847 34.0971 15.0847 29.3404C15.0847 24.0174 18.992 20.0309 25.4475 18.8644V38.7972H25.3909V38.8085ZM33.2281 52.3198C41.3485 54.1998 45.0972 57.2464 45.0972 62.626C45.0972 68.7644 40.4311 72.9775 32.2428 73.7476V52.0933L33.2281 52.3198Z" fill="#0E5BCE"/>
</svg>
