<svg width="51" height="51" viewBox="0 0 51 51" fill="none" xmlns="http://www.w3.org/2000/svg">
<path d="M25.105 50.21C38.9701 50.21 50.21 38.9701 50.21 25.105C50.21 11.2399 38.9701 0 25.105 0C11.2399 0 0 11.2399 0 25.105C0 38.9701 11.2399 50.21 25.105 50.21Z" fill="#4F7DF2"/>
<path d="M36.4623 20.5814V31.2316C36.4623 32.2225 36.0687 33.1727 35.368 33.8733C34.6674 34.5739 33.7172 34.9675 32.7264 34.9675H16.2886C15.2978 34.9675 14.3476 34.5739 13.6469 33.8733C12.9463 33.1727 12.5527 32.2225 12.5527 31.2316V20.5814L24.1279 27.3927C24.2429 27.4605 24.374 27.4963 24.5075 27.4963C24.641 27.4963 24.7721 27.4605 24.8871 27.3927L36.4623 20.5814ZM32.7264 15.541C33.6456 15.5409 34.5327 15.8796 35.2178 16.4925C35.9029 17.1054 36.338 17.9494 36.4398 18.8629L24.5075 25.8819L12.5751 18.8629C12.677 17.9494 13.1121 17.1054 13.7972 16.4925C14.4823 15.8796 15.3694 15.5409 16.2886 15.541H32.7264Z" fill="white"/>
</svg>
