<svg width="33" height="33" viewBox="0 0 33 33" fill="none" xmlns="http://www.w3.org/2000/svg">
<g clip-path="url(#clip0_455_18114)">
<path fill-rule="evenodd" clip-rule="evenodd" d="M32.0265 6.13133C32.3136 6.24592 32.5598 6.44393 32.7334 6.6998C32.9069 6.95567 32.9998 7.25767 33 7.56683V25.4322C32.9998 25.7414 32.9069 26.0434 32.7334 26.2992C32.5598 26.5551 32.3136 26.7531 32.0265 26.8677L17.0734 32.849C16.7046 32.9964 16.2933 32.9964 15.9246 32.849L0.971437 26.8677C0.684686 26.7528 0.438911 26.5546 0.265775 26.2988C0.0926385 26.0429 7.18986e-05 25.7411 0 25.4322L0 7.56683C7.18986e-05 7.25791 0.0926385 6.95608 0.265775 6.70024C0.438911 6.44439 0.684686 6.24625 0.971437 6.13133L15.3512 0.379015L15.3718 0.372828L15.9246 0.150077C16.2939 0.0020575 16.7061 0.0020575 17.0754 0.150077L17.6303 0.372828L17.6509 0.379015L32.0265 6.13133ZM21.4583 4.12452L8.76562 9.20033L3.80737 7.21827L2.0625 7.91745V8.74245L15.4688 14.105V30.4441L16.5 30.8566L17.5312 30.4441V14.107L30.9375 8.74451V7.91951L29.1926 7.22033L16.5 12.2941L11.5417 10.312L24.2344 5.2362L21.4583 4.12452Z" fill="#00CDB3"/>
</g>
<defs>
<clipPath id="clip0_455_18114">
<rect width="33" height="33" fill="white"/>
</clipPath>
</defs>
</svg>
