<svg width="25" height="23" viewBox="0 0 25 23" fill="none" xmlns="http://www.w3.org/2000/svg">
<path d="M12.3042 6.41956C9.64929 6.41956 7.48974 8.57916 7.48974 11.2341C7.48974 13.889 9.64953 16.0486 12.3042 16.0486C14.9588 16.0486 17.1183 13.889 17.1183 11.2341C17.1183 8.57911 14.9587 6.41956 12.3042 6.41956ZM12.3042 13.9088C10.8292 13.9088 9.62933 12.7089 9.62933 11.2341C9.62933 9.75919 10.8292 8.55934 12.3042 8.55934C13.7783 8.55934 14.9788 9.75919 14.9788 11.2341C14.9786 12.7089 13.7782 13.9088 12.3042 13.9088ZM22.4677 2.14001H12.3042C11.7132 2.14001 11.2341 2.61912 11.2341 3.2098C11.2341 3.80068 11.7132 4.2796 12.3042 4.2796L22.4677 4.27978V18.1883H19.701L20.0144 17.8749C20.4325 17.4568 20.4325 16.7799 20.0144 16.3621C19.5963 15.9444 18.9183 15.944 18.5017 16.3621L16.3619 18.502C15.9437 18.9201 15.9437 19.597 16.3619 20.0147L18.5017 22.1545C18.7106 22.3635 18.9845 22.468 19.2581 22.468C19.5318 22.468 19.8057 22.3633 20.0144 22.1545C20.4325 21.7364 20.4325 21.0595 20.0144 20.6418L19.701 20.3282H22.4677C23.6472 20.3282 24.6075 19.3684 24.6075 18.1883V4.27979C24.6075 3.09971 23.6472 2.13996 22.4677 2.13996V2.14001ZM12.3042 18.1883H2.13982V4.27979H4.90654L4.59309 4.59323C4.17498 5.01134 4.17498 5.68824 4.59309 6.10598C4.80168 6.31494 5.07593 6.41942 5.34946 6.41942C5.62317 6.41942 5.89726 6.31475 6.10584 6.10598L8.24566 3.96615C8.66377 3.54804 8.66377 2.87114 8.24566 2.45341L6.10584 0.313583C5.68828 -0.104528 5.01025 -0.104528 4.59309 0.313583C4.17498 0.731695 4.17498 1.40859 4.59309 1.82633L4.90654 2.13977L2.13982 2.13996C0.959938 2.13996 0 3.09971 0 4.27978V18.1883C0 19.3684 0.959938 20.3281 2.13982 20.3281H12.3038C12.8939 20.3281 13.3734 19.849 13.3734 19.2584C13.3736 18.6673 12.8939 18.1884 12.304 18.1884L12.3042 18.1883Z" fill="white"/>
</svg>
