<svg width="90" height="90" viewBox="0 0 90 90" fill="none" xmlns="http://www.w3.org/2000/svg">
<circle cx="45" cy="45" r="45" fill="#67CE67"/>
<path d="M42.5862 60C41.982 60 41.3947 59.8028 40.9134 59.4375L29.0957 50.4741C28.5105 50.0306 28.1257 49.3725 28.0257 48.6454C27.9258 47.9178 28.1191 47.1806 28.5627 46.5954C29.0062 46.0103 29.6643 45.6254 30.3914 45.5255C31.119 45.4256 31.8562 45.6185 32.4414 46.0624L41.9142 53.249L56.5833 31.2449V31.2445C56.9885 30.6298 57.6223 30.2015 58.3443 30.0552C59.0663 29.9088 59.8169 30.0565 60.4294 30.4652C61.0423 30.8736 61.4671 31.51 61.6096 32.2324C61.7521 32.9552 61.6005 33.705 61.1887 34.3157L44.8883 58.7674C44.3752 59.5376 43.5108 59.9998 42.5856 59.9998L42.5862 60Z" fill="white"/>
</svg>
