<svg width="24" height="24" viewBox="0 0 24 24" fill="none" xmlns="http://www.w3.org/2000/svg">
<path d="M14.5714 5.14509H2.57143C2.05714 5.14509 1.71429 5.48795 1.71429 6.00223V18.0022C1.71429 18.5165 1.37143 18.8594 0.857143 18.8594C0.342857 18.8594 0 18.5165 0 18.0022V6.00223C0 4.54509 1.11429 3.4308 2.57143 3.4308H14.5714C15.0857 3.4308 15.4286 3.77366 15.4286 4.28795C15.4286 4.80223 15.0857 5.14509 14.5714 5.14509Z" fill="white"/>
<path d="M23.5714 17.9143C23.3143 18.0857 22.9714 18.0857 22.7143 17.9143L18.8571 15.9429V18C18.8571 19.4571 17.7429 20.5714 16.2857 20.5714H4.62857L1.45714 23.7429C1.11429 24.0857 0.6 24.0857 0.257143 23.7429C-0.0857143 23.4 -0.0857143 22.8857 0.257143 22.5429L22.5429 0.257143C22.7143 0.0857143 22.9714 0 23.1429 0C23.3143 0 23.5714 0.0857143 23.7429 0.257143C24.0857 0.6 24.0857 1.11429 23.7429 1.45714L18.8571 6.34286V8.05714L22.8 6.08571C22.8857 6 22.9714 6 23.1429 6C23.3143 6 23.4857 6 23.5714 6.08571C23.8286 6.25714 24 6.51429 24 6.85714V17.1429C24 17.4 23.8286 17.7429 23.5714 17.9143ZM6.34286 18.8571H16.2857C16.8 18.8571 17.1429 18.5143 17.1429 18V8.05714L6.34286 18.8571ZM22.2857 8.22857L18.8571 9.94286V14.0571L22.2857 15.7714V8.22857Z" fill="white"/>
<path d="M12.972 15.8835C12.8006 15.7121 12.7148 15.5406 12.7148 15.2835C12.7148 15.0263 12.8006 14.8549 12.972 14.6835C13.1434 14.5121 13.3148 14.4263 13.572 14.4263C13.8291 14.4263 14.0006 14.5121 14.172 14.6835C14.3434 14.8549 14.4291 15.1121 14.4291 15.2835C14.4291 15.4549 14.3434 15.7121 14.172 15.8835C13.8291 16.2263 13.3148 16.2263 12.972 15.8835Z" fill="white"/>
</svg>
