<svg width="12" height="15" viewBox="0 0 12 15" fill="none" xmlns="http://www.w3.org/2000/svg">
<path d="M11.6843 3.20777H8.57682C9.21509 2.95319 9.74209 2.38519 10.0358 1.63544C10.0984 1.44831 10.1161 1.24268 10.0871 1.0432C10.0579 0.84373 9.98308 0.659077 9.87162 0.511288C9.60431 0.144291 9.21277 -0.0424186 8.81682 0.00815448C7.69892 0.14182 6.51788 1.98135 6.00001 2.90124C5.48215 1.98135 4.301 0.141834 3.18321 0.00815448C2.78749 -0.0410604 2.39638 0.145523 2.12841 0.511288C2.01695 0.659073 1.94217 0.84374 1.91298 1.0432C1.8839 1.24267 1.90164 1.44831 1.96419 1.63544C2.25794 2.38519 2.78494 2.95318 3.42321 3.20777H0.315763C0.141412 3.20777 0 3.38366 0 3.60081V5.95921C0 6.06354 0.0332621 6.16348 0.0925153 6.23724C0.151771 6.31086 0.232061 6.35226 0.315769 6.35226H4.42106V3.20774H5.05258V6.3524H6.94731L6.94742 3.20774H7.57894V6.3524H11.6842V6.35226C11.7679 6.35226 11.8482 6.31086 11.9075 6.23724C11.9667 6.16348 12 6.06354 12 5.95921V3.60081C12 3.49662 11.9667 3.39654 11.9075 3.32292C11.8482 3.24917 11.7679 3.20777 11.6842 3.20777L11.6843 3.20777ZM4.42106 2.83035C3.26527 2.42155 2.69055 1.83984 2.55795 1.37605C2.51786 1.27104 2.52755 1.1471 2.58317 1.05374C2.7008 0.884981 2.87108 0.787646 3.05049 0.786411C3.07384 0.78504 3.09718 0.787782 3.11998 0.794226C3.64369 0.958464 4.11222 1.32435 4.45894 1.83984C4.67327 2.09318 4.87175 2.36655 5.0526 2.65746C5.14886 2.79305 5.23951 2.9348 5.3242 3.08191C5.22948 3.05833 5.14104 3.04257 5.0526 3.01898C4.82527 2.96401 4.61689 2.90108 4.42107 2.83034L4.42106 2.83035ZM6.94745 3.01899C6.85901 3.04257 6.77057 3.05834 6.67585 3.08192C6.76055 2.93482 6.85119 2.79306 6.94745 2.65747C7.1283 2.36655 7.32677 2.0932 7.54111 1.83984C7.88783 1.32435 8.35636 0.958479 8.88007 0.79423C8.90287 0.787787 8.92622 0.785045 8.94956 0.786416C9.12898 0.78765 9.29925 0.884986 9.41688 1.05375C9.4725 1.14711 9.48219 1.27104 9.4421 1.37605C9.30949 1.83985 8.73479 2.42152 7.57899 2.83035C7.38316 2.90109 7.17477 2.96402 6.94746 3.01913L6.94745 3.01899ZM0.631622 7.13854H4.42112V15H0.947414C0.772953 15 0.63165 14.824 0.63165 14.607L0.631622 7.13854ZM5.0527 7.13854H6.94742V15H5.05259L5.0527 7.13854ZM7.57909 7.13854H11.3686V14.6069H11.3685C11.3685 14.7111 11.3352 14.8111 11.2761 14.8848C11.2168 14.9586 11.1365 15 11.0527 15H7.579L7.57909 7.13854Z" fill="white"/>
</svg>
