<svg width="18" height="18" viewBox="0 0 18 18" fill="none" xmlns="http://www.w3.org/2000/svg">
<path fill-rule="evenodd" clip-rule="evenodd" d="M0.243393 5.55667C-0.14843 2.11503 2.79028 0.157811 3.05147 0.0907973C3.24745 0.0232373 3.57389 -0.381633 4.87995 1.30548C6.12077 2.99259 7.03501 4.34223 6.25137 5.0846C5.40237 5.82697 4.1617 6.77171 4.81471 8.05377C5.33713 9.20104 8.73294 12.6428 9.77793 13.1826C11.084 13.8574 11.933 12.5751 12.6512 11.7654C13.3697 10.8881 14.7409 11.833 16.3736 13.115C18.0062 14.4647 17.6144 14.8021 17.549 15.0721C17.4837 15.2746 15.59 18.3114 12.194 17.9738C8.66751 17.5689 0.569783 9.201 0.243199 5.55695L0.243393 5.55667Z" fill="black"/>
</svg>
