<svg width="60" height="60" viewBox="0 0 60 60" fill="none" xmlns="http://www.w3.org/2000/svg">
<circle cx="30" cy="30" r="30" fill="#324396"/>
<path d="M14.2727 18H35C35.8681 18 36.7003 18.3592 37.3142 18.9985C37.9278 19.638 38.2727 20.5049 38.2727 21.4091V39.5909C38.2727 40.4952 37.9279 41.362 37.3142 42.0015C36.7003 42.6407 35.868 43 35 43H14.2727C13.4046 43 12.5725 42.6408 11.9585 42.0015C11.3449 41.362 11 40.4951 11 39.5909V21.4091C11 20.5048 11.3449 19.638 11.9585 18.9985C12.5725 18.3593 13.4047 18 14.2727 18V18ZM35 40.7273C35.2895 40.7273 35.5668 40.6074 35.7713 40.3944C35.9758 40.1813 36.0909 39.8924 36.0909 39.5909V21.4091C36.0909 21.1076 35.9758 20.8187 35.7713 20.6056C35.5668 20.3926 35.2895 20.2727 35 20.2727H14.2727C13.6703 20.2727 13.1818 20.7816 13.1818 21.4091V39.5909C13.1818 39.8924 13.2969 40.1813 13.5014 40.3944C13.706 40.6074 13.9833 40.7273 14.2727 40.7273H35Z" fill="white"/>
<path d="M36.0909 33.9093V27.1615L44.9335 22.3526C45.6096 22.0006 46.4125 22.038 47.0557 22.4521C47.6985 22.8659 48.0902 23.597 48.0906 24.3844V36.6165C48.0902 37.4038 47.6985 38.1349 47.0557 38.5487C46.4125 38.9628 45.6095 39.0002 44.9335 38.6483H44.9226L36.0909 33.9093ZM38.2728 28.5388V32.5183L45.9091 36.616V24.3839L38.2728 28.5388Z" fill="white"/>
</svg>
