<svg width="61" height="61" viewBox="0 0 61 61" fill="none" xmlns="http://www.w3.org/2000/svg">
<g filter="url(#filter0_d_3_89119)">
<circle cx="30.5" cy="25.5" r="20.5" fill="#324396"/>
</g>
<path d="M33.6037 28.9175C33.2996 28.5857 32.6461 28.561 32.2969 28.8677L32.1655 28.9838L36.3976 33.7129C36.5328 33.666 36.6641 33.6245 36.7955 33.5747C37.2236 33.4061 37.355 32.9971 37.0848 32.7013L33.6037 28.9175Z" fill="white"/>
<path d="M27.5667 21.8321C28.0747 21.7042 28.2771 21.2484 27.979 20.9148L24.5669 17.112C24.2981 16.8146 23.7461 16.7535 23.3817 16.9842C23.2677 17.0592 23.1645 17.1371 23.0579 17.2121L27.2686 21.9043L27.5667 21.8321Z" fill="white"/>
<path d="M31.9804 29.8669C31.2563 30.5479 29.9126 30.491 29.2822 29.7558L24.6964 24.407C24.066 23.6689 24.4947 22.6631 25.5646 22.3838L25.997 22.2698L22.0738 17.6875C19.6602 19.839 19.2892 23.0846 21.4254 25.5752L24.2029 28.8153L25.2908 30.0834L26.6994 31.7305C28.8357 34.2239 32.7874 35.1528 36.2137 34.1726L32.3446 29.5278L31.9804 29.8669Z" fill="white"/>
<path d="M36.7119 26.1285C36.4882 26.0936 36.2728 26.1851 36.2239 26.3305C36.175 26.4759 36.3093 26.6213 36.5288 26.6536C38.1838 26.904 39.5906 27.5663 40.4973 28.5195C41.4041 29.4725 41.6927 30.6006 41.3146 31.6939C41.2658 31.8393 41.4 31.9847 41.6196 32.017C41.6521 32.0224 41.6806 32.0251 41.709 32.0251C41.896 32.0251 42.0628 31.9417 42.1035 31.8151C42.5304 30.5793 42.201 29.3086 41.1804 28.2342C40.1641 27.1571 38.5782 26.4087 36.7119 26.1287L36.7119 26.1285Z" fill="white"/>
<path d="M36.651 26.9734C36.4547 26.9334 36.2656 27.0381 36.2227 27.2045C36.1798 27.371 36.2976 27.5374 36.4903 27.5745C37.5145 27.7749 38.3852 28.3111 38.9454 29.0818C39.5056 29.8523 39.6876 30.7647 39.452 31.6462C39.4091 31.8127 39.5269 31.9791 39.7196 32.0162C39.7482 32.0223 39.7732 32.0254 39.7982 32.0254C39.9623 32.0254 40.1087 31.9299 40.1443 31.785C40.4192 30.7402 40.2085 29.6644 39.5448 28.7551C38.8884 27.8426 37.8606 27.2107 36.6509 26.9734L36.651 26.9734Z" fill="white"/>
<path d="M36.5328 28.6609C36.3922 28.6207 36.2516 28.7258 36.2203 28.8929C36.189 29.0599 36.2749 29.2269 36.4156 29.2641C37.3165 29.5084 37.8815 30.5755 37.6758 31.6456C37.6445 31.8126 37.7304 31.9796 37.8711 32.0168C37.8919 32.0229 37.9101 32.0261 37.9284 32.0261C38.0481 32.0261 38.1549 31.9302 38.1809 31.7848C38.4545 30.3836 37.715 28.9826 36.5328 28.6609L36.5328 28.6609Z" fill="white"/>
<defs>
<filter id="filter0_d_3_89119" x="0" y="0" width="61" height="61" filterUnits="userSpaceOnUse" color-interpolation-filters="sRGB">
<feFlood flood-opacity="0" result="BackgroundImageFix"/>
<feColorMatrix in="SourceAlpha" type="matrix" values="0 0 0 0 0 0 0 0 0 0 0 0 0 0 0 0 0 0 127 0" result="hardAlpha"/>
<feOffset dy="5"/>
<feGaussianBlur stdDeviation="5"/>
<feColorMatrix type="matrix" values="0 0 0 0 0.576471 0 0 0 0 0.576471 0 0 0 0 0.576471 0 0 0 0.25 0"/>
<feBlend mode="normal" in2="BackgroundImageFix" result="effect1_dropShadow_3_89119"/>
<feBlend mode="normal" in="SourceGraphic" in2="effect1_dropShadow_3_89119" result="shape"/>
</filter>
</defs>
</svg>
