<svg width="69" height="69" viewBox="0 0 69 69" fill="none" xmlns="http://www.w3.org/2000/svg">
<g filter="url(#filter0_d_1280_9635)">
<ellipse cx="34.4355" cy="29.5009" rx="24.4355" ry="24.0282" fill="white"/>
</g>
<g filter="url(#filter1_d_1280_9635)">
<path d="M37.1253 33.5318C36.7916 33.0741 36.0743 33.0399 35.6911 33.4632L35.5469 33.6233L40.1918 40.1476C40.3402 40.0828 40.4844 40.0256 40.6286 39.9569C41.0984 39.7243 41.2426 39.16 40.946 38.752L37.1253 33.5318Z" fill="#324396"/>
<path d="M30.4994 23.7569C31.057 23.5805 31.2791 22.9517 30.9519 22.4914L27.207 17.2451C26.912 16.8348 26.306 16.7504 25.9062 17.0687C25.781 17.1722 25.6678 17.2797 25.5508 17.3832L30.1723 23.8566L30.4994 23.7569Z" fill="#324396"/>
<path d="M35.3437 34.8417C34.549 35.7813 33.0742 35.7027 32.3823 34.6884L27.3491 27.3093C26.6572 26.2911 27.1277 24.9034 28.302 24.5181L28.7765 24.3608L24.4706 18.0391C21.8216 21.0073 21.4144 25.4849 23.7589 28.921L26.8074 33.3909L28.0015 35.1404L29.5475 37.4127C31.8922 40.8527 36.2294 42.1342 39.99 40.7819L35.7434 34.374L35.3437 34.8417Z" fill="#324396"/>
<path d="M40.5369 29.6841C40.2914 29.6359 40.0549 29.7621 40.0012 29.9627C39.9476 30.1633 40.0949 30.3638 40.3359 30.4085C42.1524 30.7539 43.6964 31.6676 44.6916 32.9826C45.6868 34.2975 46.0036 35.8538 45.5886 37.3621C45.535 37.5626 45.6823 37.7632 45.9233 37.8079C45.9591 37.8152 45.9903 37.819 46.0215 37.819C46.2268 37.819 46.4098 37.7039 46.4544 37.5293C46.9231 35.8244 46.5615 34.0713 45.4413 32.5891C44.3259 31.1031 42.5852 30.0706 40.5369 29.6843L40.5369 29.6841Z" fill="#324396"/>
<path d="M40.47 30.8497C40.2545 30.7945 40.047 30.9389 39.9999 31.1686C39.9528 31.3982 40.0821 31.6278 40.2936 31.679C41.4177 31.9554 42.3734 32.6952 42.9882 33.7584C43.6031 34.8214 43.8028 36.0802 43.5443 37.2963C43.4972 37.526 43.6265 37.7556 43.838 37.8067C43.8694 37.8152 43.8968 37.8195 43.9242 37.8195C44.1044 37.8195 44.265 37.6877 44.3041 37.4878C44.6058 36.0464 44.3746 34.5623 43.6462 33.3078C42.9257 32.0488 41.7976 31.177 40.47 30.8497L40.47 30.8497Z" fill="#324396"/>
<path d="M40.3403 33.1778C40.186 33.1224 40.0316 33.2674 39.9973 33.4978C39.9629 33.7283 40.0573 33.9587 40.2116 34.01C41.2005 34.3471 41.8206 35.8192 41.5948 37.2955C41.5604 37.5259 41.6548 37.7563 41.8091 37.8076C41.832 37.8161 41.852 37.8204 41.872 37.8204C42.0034 37.8204 42.1206 37.6882 42.1492 37.4876C42.4494 35.5544 41.6378 33.6216 40.3403 33.1779L40.3403 33.1778Z" fill="#324396"/>
</g>
<defs>
<filter id="filter0_d_1280_9635" x="0" y="0.472656" width="68.8711" height="68.0566" filterUnits="userSpaceOnUse" color-interpolation-filters="sRGB">
<feFlood flood-opacity="0" result="BackgroundImageFix"/>
<feColorMatrix in="SourceAlpha" type="matrix" values="0 0 0 0 0 0 0 0 0 0 0 0 0 0 0 0 0 0 127 0" result="hardAlpha"/>
<feOffset dy="5"/>
<feGaussianBlur stdDeviation="5"/>
<feColorMatrix type="matrix" values="0 0 0 0 0.576471 0 0 0 0 0.576471 0 0 0 0 0.576471 0 0 0 0.25 0"/>
<feBlend mode="normal" in2="BackgroundImageFix" result="effect1_dropShadow_1280_9635"/>
<feBlend mode="normal" in="SourceGraphic" in2="effect1_dropShadow_1280_9635" result="shape"/>
</filter>
<filter id="filter1_d_1280_9635" x="18.2188" y="16.875" width="32.4355" height="32.4355" filterUnits="userSpaceOnUse" color-interpolation-filters="sRGB">
<feFlood flood-opacity="0" result="BackgroundImageFix"/>
<feColorMatrix in="SourceAlpha" type="matrix" values="0 0 0 0 0 0 0 0 0 0 0 0 0 0 0 0 0 0 127 0" result="hardAlpha"/>
<feOffset dy="4"/>
<feGaussianBlur stdDeviation="2"/>
<feComposite in2="hardAlpha" operator="out"/>
<feColorMatrix type="matrix" values="0 0 0 0 0 0 0 0 0 0 0 0 0 0 0 0 0 0 0.25 0"/>
<feBlend mode="normal" in2="BackgroundImageFix" result="effect1_dropShadow_1280_9635"/>
<feBlend mode="normal" in="SourceGraphic" in2="effect1_dropShadow_1280_9635" result="shape"/>
</filter>
</defs>
</svg>
