<svg width="20" height="16" viewBox="0 0 20 16" fill="none" xmlns="http://www.w3.org/2000/svg">
<path d="M7.26649 0H4.02661C3.93426 1.4464e-05 3.8433 0.0225169 3.7616 0.0655626C3.6799 0.108608 3.60991 0.170902 3.55768 0.247061L0 5.44406H5.75797L7.26649 0Z" fill="#FF5B7A"/>
<path d="M19.3781 5.44406L15.6179 0.235435C15.5652 0.162494 15.4959 0.103118 15.4157 0.0621879C15.3355 0.0212584 15.2468 -5.51535e-05 15.1568 1.07184e-07H12.0254L13.6201 5.44406H19.3781Z" fill="#D32344"/>
<path d="M9.64506 15.7008L5.75797 5.44531H0L9.58596 15.6843C9.59695 15.6961 9.61031 15.7055 9.62516 15.7119C9.64002 15.7182 9.65604 15.7213 9.67219 15.7211C9.66614 15.7208 9.66032 15.7188 9.65548 15.7151C9.65064 15.7115 9.64701 15.7065 9.64506 15.7008Z" fill="#FF5B7A"/>
<path d="M19.3781 5.44531H13.6211L9.70394 15.7008C9.70179 15.7045 9.69886 15.7077 9.69535 15.7102C9.69184 15.7128 9.68783 15.7145 9.68359 15.7153C9.71125 15.7129 9.73707 15.7005 9.75626 15.6804L19.3781 5.44531Z" fill="#D32344"/>
<path d="M13.6202 5.44406L12.0254 0H7.27021L5.75781 5.44406H13.6202Z" fill="#FE3057"/>
<path d="M9.70303 15.7008L13.6202 5.44531H5.75781L9.6449 15.7008C9.64702 15.7066 9.65083 15.7116 9.65584 15.7152C9.66085 15.7189 9.66682 15.7209 9.673 15.7211H9.68269C9.68747 15.7196 9.69182 15.717 9.69536 15.7134C9.69891 15.7099 9.70154 15.7055 9.70303 15.7008Z" fill="#FE3057"/>
<path d="M6.12171 3.86384L7.30373 2.96667C7.36174 2.923 7.43291 2.90044 7.50549 2.90272C7.57806 2.90501 7.64768 2.932 7.70282 2.97923C7.75797 3.02647 7.79533 3.09111 7.80874 3.16247C7.82214 3.23383 7.81078 3.30763 7.77654 3.37166L7.10608 4.71063C7.07107 4.77935 7.06159 4.85827 7.07933 4.93332C7.09707 5.00838 7.14089 5.0747 7.20297 5.12046L8.40824 5.98663C8.46662 6.02874 8.50925 6.08917 8.52933 6.1583C8.54942 6.22742 8.5458 6.30129 8.51907 6.36812C8.49233 6.43496 8.44401 6.49094 8.38179 6.52715C8.31957 6.56336 8.24703 6.57772 8.17571 6.56795L6.72241 6.33251C6.64682 6.31996 6.56924 6.33522 6.50404 6.37548C6.43884 6.41574 6.39044 6.47827 6.36781 6.55148L5.92988 7.9854C5.90965 8.05487 5.86618 8.11529 5.80674 8.15655C5.74731 8.19782 5.6755 8.21742 5.60334 8.21209C5.53118 8.20676 5.46304 8.17681 5.41032 8.12726C5.35759 8.07771 5.32348 8.01155 5.31368 7.93986L5.08406 6.45459C5.07284 6.37851 5.0345 6.30905 4.97609 6.25902C4.91769 6.20898 4.84317 6.18175 4.76627 6.18234L3.29069 6.20172C3.21843 6.20134 3.14838 6.1768 3.09169 6.132C3.035 6.08719 2.99494 6.0247 2.97789 5.95449C2.96084 5.88427 2.96778 5.81037 2.9976 5.74456C3.02742 5.67874 3.07841 5.6248 3.14245 5.59133L4.4572 4.91312C4.52467 4.87723 4.5773 4.81868 4.60583 4.74778C4.63437 4.67689 4.63697 4.5982 4.61319 4.52558L4.14038 3.10425C4.11613 3.03627 4.11574 2.96207 4.13928 2.89384C4.16282 2.82561 4.20888 2.76743 4.26989 2.72886C4.33089 2.69029 4.40321 2.67364 4.47494 2.68165C4.54667 2.68965 4.61354 2.72183 4.66454 2.7729L5.70704 3.83865C5.76122 3.89266 5.83326 3.92502 5.90961 3.92966C5.98597 3.9343 6.06139 3.91089 6.12171 3.86384Z" fill="white"/>
</svg>
