<svg width="34" height="30" viewBox="0 0 34 30" fill="none" xmlns="http://www.w3.org/2000/svg">
<path fill-rule="evenodd" clip-rule="evenodd" d="M29.1698 4.48888C30.3635 4.4705 31.5116 4.94652 32.3421 5.8041C33.2012 6.63386 33.6788 7.78208 33.6615 8.97636V24.679C33.6615 25.8703 33.1883 27.0128 32.3459 27.8551C31.5036 28.6975 30.3611 29.1707 29.1698 29.1707H4.48799C3.29434 29.1891 2.14621 28.7131 1.31574 27.8555C0.458148 27.025 -0.0178662 25.8769 0.000513173 24.6832V8.97636C-0.0167665 7.78208 0.460811 6.63386 1.31995 5.8041C2.15042 4.94652 3.29855 4.4705 4.4922 4.48888H8.41401L9.30813 2.10267C9.55642 1.49795 9.98095 0.98196 10.5265 0.621818C11.0512 0.229178 11.6862 0.0116291 12.3414 0H21.3122C21.9674 0.0116291 22.6024 0.229178 23.1271 0.621818C23.6726 0.98196 24.0972 1.49795 24.3455 2.10267L25.2396 4.48888H29.1698ZM16.8276 24.6833C18.916 24.7142 20.9243 23.88 22.3762 22.3785C23.852 20.9094 24.6816 18.9129 24.6816 16.8305C24.6816 14.7482 23.852 12.7517 22.3762 11.2826C20.9243 9.78108 18.916 8.9469 16.8276 8.97779C14.7391 8.9469 12.7309 9.78108 11.2789 11.2826C9.8035 12.7519 8.97409 14.7483 8.97409 16.8305C8.97409 18.9127 9.8035 20.9092 11.2789 22.3785C12.7309 23.88 14.7391 24.7142 16.8276 24.6833Z" fill="#5B5B5B"/>
<path d="M16.8295 11.7765C14.4182 11.7731 12.3404 13.4738 11.8673 15.8382C11.3942 18.2027 12.6576 20.5719 14.8846 21.4966C17.1115 22.4212 19.6815 21.6435 21.0223 19.6393C22.363 17.6351 22.1008 14.9628 20.3961 13.2574C19.4627 12.2925 18.1718 11.7566 16.8295 11.7765Z" fill="#5B5B5B"/>
</svg>
