<svg viewBox="0 0 28 21" xmlns="http://www.w3.org/2000/svg">
    <path fill-rule="evenodd" d="M8.82572 11.3113C8.82572 14.0525 11.048 16.2749 13.7893 16.2749C16.5306 16.2749 18.7529 14.0525 18.7529 11.3113C18.7529 8.56998 16.5306 6.34766 13.7893 6.34766C11.048 6.34766 8.82572 8.56998 8.82572 11.3113Z" />
    <path fill-rule="evenodd" d="M1.65445 3.30912H6.57959C6.94784 3.30912 7.29257 3.12467 7.49731 2.81819L9.04835 0.49136C9.2531 0.183807 9.59762 0 9.96628 0H17.6098C17.9781 0 18.3228 0.184233 18.5276 0.49136L20.0786 2.81819C20.2833 3.12467 20.6279 3.30912 20.9965 3.30912H25.9212C26.8351 3.30912 27.5757 4.05033 27.5757 4.96357V18.7515C27.5757 19.6652 26.8351 20.4057 25.9212 20.4057H1.65445C0.740557 20.4057 1.90735e-06 19.6652 1.90735e-06 18.7515V4.96357C-0.000211716 4.05033 0.740339 3.30912 1.65423 3.30912H1.65445ZM13.7878 17.9287C17.4374 17.9287 20.4061 14.9603 20.4061 11.3105C20.4061 7.66217 17.4374 4.69229 13.7878 4.69229C10.1383 4.69229 7.16962 7.66223 7.16962 11.3105C7.16962 14.9601 10.1383 17.9287 13.7878 17.9287ZM5.51507 5.80189C5.51507 6.10346 5.75936 6.3469 6.06114 6.3469H6.07226C6.37383 6.3469 6.61855 6.10325 6.61855 5.80189V5.79035C6.61855 5.48879 6.37404 5.24428 6.07226 5.24428H6.06114C5.75958 5.24428 5.51507 5.48879 5.51507 5.79035V5.80189Z" />
    <path fill-rule="evenodd" d="M24.2661 1.10352H22.06V2.20677H24.2661V1.10352Z" />
</svg>
