<svg width="32" height="20" viewBox="0 0 32 20" fill="none" xmlns="http://www.w3.org/2000/svg">
<path d="M29.2893 0H1.90646C0.866546 0 0 0.866545 0 1.90646V18.0935C0 19.1335 0.866546 20 1.90646 20H29.2893C30.3292 20 31.1958 19.1335 31.1958 18.0935V1.94112C31.1958 0.866669 30.3292 0.000123724 29.2893 0.000123724V0ZM1.90646 0.693174H29.2893C29.9825 0.693174 30.5026 1.24782 30.5026 1.90646V2.53025H0.693423V1.90646C0.693423 1.24783 1.21349 0.693174 1.90671 0.693174H1.90646ZM29.2893 19.3412H1.90646C1.21329 19.3412 0.693175 18.7866 0.693175 18.128V7.59075H30.5024V18.128C30.5024 18.7866 29.9823 19.3412 29.2891 19.3412H29.2893Z" fill="black"/>
<path d="M3.085 11.2993H17.5737C17.747 11.2993 17.9204 11.1607 17.9204 10.9525V9.18485C17.9204 9.01149 17.7818 8.83813 17.5737 8.83813L3.085 8.83838C2.91164 8.83838 2.73828 8.97692 2.73828 9.18509V10.9528C2.73828 11.1261 2.91164 11.2993 3.085 11.2993Z" fill="black"/>
<path d="M3.085 13.4146H16.1525C16.3259 13.4146 16.4992 13.2761 16.4992 13.0679C16.4992 12.86 16.3607 12.7212 16.1525 12.7212L3.085 12.7214C2.91164 12.7214 2.73828 12.86 2.73828 13.0682C2.73828 13.2761 2.91164 13.4146 3.085 13.4146Z" fill="black"/>
<path d="M19.1334 14.5217H3.085C2.91164 14.5217 2.73828 14.6603 2.73828 14.8684C2.73828 15.0764 2.87682 15.2152 3.085 15.2152H19.1334C19.3068 15.2152 19.4801 15.0766 19.4801 14.8684C19.4799 14.6603 19.3068 14.5217 19.1334 14.5217Z" fill="black"/>
<path d="M27.4176 14.1416C26.967 14.1416 26.5511 14.2801 26.1698 14.5575C25.8231 14.2801 25.3727 14.1416 24.922 14.1416C23.7781 14.1416 22.8076 15.0775 22.8076 16.256C22.8076 17.3998 23.7435 18.3703 24.922 18.3703C25.3727 18.3703 25.7885 18.2318 26.1698 17.9545C26.5165 18.2318 26.967 18.3703 27.4176 18.3703C28.5615 18.3703 29.532 17.4344 29.532 16.256C29.532 15.0775 28.5615 14.1416 27.4176 14.1416Z" fill="black"/>
</svg>
