<svg width="375" height="440" viewBox="0 0 375 440" fill="none" xmlns="http://www.w3.org/2000/svg">
<path style="mix-blend-mode:screen" d="M233.322 437.202L198.347 219.993L266.562 427.382L233.322 437.202ZM181.142 439.781H215.553L198.347 219.993L181.142 439.781ZM163.373 437.202L198.347 219.993L130.132 427.382L163.373 437.202ZM113.574 419.821L198.347 219.993L83.773 400.849L113.574 419.819V419.821ZM69.5542 388.821L198.347 219.993L45.2203 361.992L69.5542 388.821ZM34.3113 346.315L198.347 219.993L17.1056 313.458L34.3113 346.315ZM10.2459 295.202L198.347 219.993L1.33916 258.553L10.2459 295.202ZM-1 238.963L198.347 219.993L-1 201.023V238.963ZM1.33916 181.432L198.347 219.993L10.2459 144.783L1.33916 181.432ZM17.1032 126.528L198.347 219.993L34.3113 93.6704L17.1056 126.528H17.1032ZM45.2203 77.9937L198.347 219.993L69.5542 51.1647L45.2203 77.9937ZM83.773 39.1371L198.347 219.993L113.574 20.1671L83.773 39.1371ZM130.132 12.6041L198.347 219.993L163.373 2.78409L130.132 12.6041ZM181.142 0.205078L198.347 219.993L215.553 0.205078H181.142ZM233.322 2.78409L198.347 219.993L266.562 12.6041L233.322 2.78409ZM283.12 20.1645L198.347 219.993L312.922 39.1371L283.12 20.1671V20.1645ZM327.14 51.1647L198.347 219.993L351.474 77.9937L327.14 51.1647ZM362.383 93.6704L198.347 219.993L379.589 126.528L362.383 93.6704ZM386.449 144.783L198.347 219.993L395.355 181.432L386.449 144.783ZM397.695 201.023L198.347 219.993L397.695 238.963V201.023ZM395.355 258.553L198.347 219.993L386.449 295.202L395.355 258.553ZM379.591 313.458L198.35 219.993L362.386 346.315L379.591 313.458ZM351.474 361.992L198.347 219.993L327.14 388.821L351.474 361.992ZM312.922 400.849L198.347 219.993L283.12 419.819L312.922 400.849Z" fill="url(#paint0_radial_455_10520)" fill-opacity="0.87"/>
<defs>
<radialGradient id="paint0_radial_455_10520" cx="0" cy="0" r="1" gradientUnits="userSpaceOnUse" gradientTransform="translate(197.41 222.73) scale(183.105 201.88)">
<stop stop-color="white"/>
<stop offset="0.18" stop-color="#D5D5D5"/>
<stop offset="0.59" stop-color="#6D6D6D"/>
<stop offset="1"/>
</radialGradient>
</defs>
</svg>
