<svg width="30" height="29" viewBox="0 0 30 29" fill="none" xmlns="http://www.w3.org/2000/svg">
<path d="M14.9999 28.7331C12.1743 28.7333 9.41212 27.8956 7.06264 26.3259C4.71317 24.7562 2.88194 22.5251 1.80055 19.9146C0.719148 17.3042 0.436153 14.4316 0.98735 11.6603C1.53855 8.88902 2.89918 6.3434 4.89717 4.34541C6.89516 2.34742 9.44078 0.986789 12.2121 0.435592C14.9834 -0.115605 17.8559 0.16739 20.4664 1.24879C23.0768 2.33018 25.308 4.16141 26.8777 6.51089C28.4474 8.86036 29.2851 11.6226 29.2849 14.4481C29.2809 18.2355 27.7746 21.8667 25.0965 24.5448C22.4184 27.2229 18.7873 28.7292 14.9999 28.7331ZM15.0299 16.1021L17.9759 19.0771C18.0846 19.1858 18.2136 19.272 18.3556 19.3308C18.4975 19.3896 18.6497 19.4199 18.8034 19.4199C18.9571 19.4199 19.1093 19.3896 19.2512 19.3308C19.3932 19.272 19.5222 19.1858 19.6309 19.0771C19.7396 18.9685 19.8258 18.8395 19.8846 18.6975C19.9434 18.5555 19.9737 18.4033 19.9737 18.2496C19.9737 18.096 19.9434 17.9438 19.8846 17.8018C19.8258 17.6598 19.7396 17.5308 19.6309 17.4221L16.6839 14.4481L19.6599 11.5011C19.7741 11.3914 19.8652 11.2599 19.928 11.1145C19.9908 10.9691 20.0239 10.8126 20.0255 10.6543C20.027 10.4959 19.997 10.3388 19.9371 10.1922C19.8772 10.0455 19.7887 9.91234 19.6767 9.80035C19.5647 9.68835 19.4315 9.59982 19.2849 9.53993C19.1382 9.48005 18.9811 9.45 18.8228 9.45157C18.6644 9.45313 18.5079 9.48627 18.3625 9.54904C18.2171 9.61181 18.0857 9.70296 17.9759 9.81714L15.0289 12.7931L12.0839 9.81614C11.8606 9.59256 11.5576 9.46685 11.2416 9.46666C10.9256 9.46648 10.6225 9.59183 10.3989 9.81514C10.1753 10.0385 10.0496 10.3414 10.0494 10.6574C10.0492 10.9734 10.1746 11.2766 10.3979 11.5001L13.3739 14.4471L10.3979 17.3941C10.2873 17.5048 10.1996 17.6362 10.1398 17.7808C10.0801 17.9254 10.0493 18.0804 10.0494 18.2368C10.0495 18.3933 10.0804 18.5482 10.1404 18.6928C10.2004 18.8373 10.2882 18.9686 10.3989 19.0791C10.5096 19.1897 10.641 19.2774 10.7856 19.3372C10.9302 19.397 11.0851 19.4277 11.2416 19.4276C11.3981 19.4275 11.553 19.3966 11.6975 19.3366C11.842 19.2767 11.9733 19.1888 12.0839 19.0781L15.0289 16.1031L15.0299 16.1021Z" fill="white"/>
</svg>
