<svg width="28" height="26" viewBox="0 0 28 26" fill="none" xmlns="http://www.w3.org/2000/svg">
<path d="M1.50222 11.5556H10.5156C10.914 11.5556 11.2961 11.4034 11.5778 11.1325C11.8595 10.8616 12.0178 10.4942 12.0178 10.1111V1.44444C12.0178 1.06135 11.8595 0.693954 11.5778 0.423068C11.2961 0.152182 10.914 0 10.5156 0H1.50222C1.10381 0 0.721712 0.152182 0.439991 0.423068C0.158269 0.693954 0 1.06135 0 1.44444V10.1111C0 10.4942 0.158269 10.8616 0.439991 11.1325C0.721712 11.4034 1.10381 11.5556 1.50222 11.5556ZM16.5244 11.5556H25.5378C25.9362 11.5556 26.3183 11.4034 26.6 11.1325C26.8817 10.8616 27.04 10.4942 27.04 10.1111V1.44444C27.04 1.06135 26.8817 0.693954 26.6 0.423068C26.3183 0.152182 25.9362 0 25.5378 0H16.5244C16.126 0 15.7439 0.152182 15.4622 0.423068C15.1805 0.693954 15.0222 1.06135 15.0222 1.44444V10.1111C15.0222 10.4942 15.1805 10.8616 15.4622 11.1325C15.7439 11.4034 16.126 11.5556 16.5244 11.5556ZM1.50222 26H10.5156C10.914 26 11.2961 25.8478 11.5778 25.5769C11.8595 25.306 12.0178 24.9386 12.0178 24.5556V15.8889C12.0178 15.5058 11.8595 15.1384 11.5778 14.8675C11.2961 14.5966 10.914 14.4444 10.5156 14.4444H1.50222C1.10381 14.4444 0.721712 14.5966 0.439991 14.8675C0.158269 15.1384 0 15.5058 0 15.8889V24.5556C0 24.9386 0.158269 25.306 0.439991 25.5769C0.721712 25.8478 1.10381 26 1.50222 26ZM21.0311 26C24.345 26 27.04 23.4087 27.04 20.2222C27.04 17.0358 24.345 14.4444 21.0311 14.4444C17.7172 14.4444 15.0222 17.0358 15.0222 20.2222C15.0222 23.4087 17.7172 26 21.0311 26Z" fill="#324396"/>
</svg>
