<svg width="22" height="23" viewBox="0 0 22 23" fill="none" xmlns="http://www.w3.org/2000/svg">
<path d="M10.9998 21.6769C12.4742 21.6791 13.9348 21.3935 15.2998 20.8359C15.3288 20.8214 15.3589 20.809 15.3898 20.7989C15.3948 20.7989 15.4008 20.7989 15.4008 20.7939C15.5902 20.7237 15.7907 20.6878 15.9928 20.6879C16.2125 20.6861 16.4304 20.7293 16.6328 20.8149L21.0748 22.4489L19.9058 17.7739C19.9075 17.5033 19.9784 17.2375 20.1118 17.0019C20.1513 16.9324 20.1954 16.8656 20.2438 16.8019C21.3818 15.1066 21.9893 13.1108 21.9888 11.0689C21.9653 9.64984 21.6624 8.24927 21.0973 6.94731C20.5322 5.64536 19.7161 4.46755 18.6955 3.48124C17.6749 2.49492 16.4699 1.71944 15.1494 1.19914C13.8289 0.678838 12.4188 0.423914 10.9998 0.448945C8.13389 0.398898 5.3654 1.48878 3.30275 3.47904C1.2401 5.46931 0.0520697 8.19712 -0.000244141 11.0629C0.0510156 13.9291 1.23872 16.6575 3.3016 18.648C5.36449 20.6385 8.13358 21.7281 10.9998 21.6769Z" fill="#FF2D55"/>
<path d="M6.49976 12.4492C7.32818 12.4492 7.99976 11.7776 7.99976 10.9492C7.99976 10.1208 7.32818 9.44922 6.49976 9.44922C5.67133 9.44922 4.99976 10.1208 4.99976 10.9492C4.99976 11.7776 5.67133 12.4492 6.49976 12.4492Z" fill="white"/>
<path d="M10.4998 12.4492C11.3282 12.4492 11.9998 11.7776 11.9998 10.9492C11.9998 10.1208 11.3282 9.44922 10.4998 9.44922C9.67133 9.44922 8.99976 10.1208 8.99976 10.9492C8.99976 11.7776 9.67133 12.4492 10.4998 12.4492Z" fill="white"/>
<path d="M14.4998 12.4492C15.3282 12.4492 15.9998 11.7776 15.9998 10.9492C15.9998 10.1208 15.3282 9.44922 14.4998 9.44922C13.6713 9.44922 12.9998 10.1208 12.9998 10.9492C12.9998 11.7776 13.6713 12.4492 14.4998 12.4492Z" fill="white"/>
</svg>
