<svg width="23" height="23" viewBox="0 0 23 23" fill="none" xmlns="http://www.w3.org/2000/svg">
<path d="M11.2868 22.572C9.05457 22.5722 6.87243 21.9104 5.01633 20.6703C3.16024 19.4302 1.71356 17.6676 0.859252 15.6053C0.0049432 13.5431 -0.218624 11.2738 0.216824 9.08441C0.652272 6.89507 1.72717 4.88402 3.3056 3.3056C4.88402 1.72717 6.89507 0.652272 9.08441 0.216824C11.2738 -0.218624 13.5431 0.0049432 15.6053 0.859252C17.6676 1.71356 19.4302 3.16024 20.6703 5.01633C21.9104 6.87243 22.5722 9.05457 22.572 11.2868C22.5689 14.2789 21.3789 17.1475 19.2632 19.2632C17.1475 21.3789 14.2789 22.5689 11.2868 22.572ZM11.3105 12.5935L13.6378 14.9437C13.7237 15.0296 13.8256 15.0977 13.9378 15.1441C14.0499 15.1906 14.1702 15.2145 14.2916 15.2145C14.413 15.2145 14.5332 15.1906 14.6454 15.1441C14.7575 15.0977 14.8595 15.0296 14.9453 14.9437C15.0312 14.8579 15.0993 14.756 15.1457 14.6438C15.1922 14.5316 15.2161 14.4114 15.2161 14.29C15.2161 14.1686 15.1922 14.0484 15.1457 13.9362C15.0993 13.824 15.0312 13.7221 14.9453 13.6363L12.6172 11.2868L14.9682 8.95865C15.0584 8.87194 15.1304 8.76811 15.18 8.65323C15.2296 8.53835 15.2558 8.41474 15.257 8.28962C15.2583 8.16451 15.2345 8.0404 15.1872 7.92456C15.1399 7.80873 15.07 7.7035 14.9815 7.61502C14.893 7.52654 14.7878 7.4566 14.6719 7.40929C14.5561 7.36198 14.432 7.33825 14.3069 7.33948C14.1818 7.34072 14.0581 7.3669 13.9433 7.41649C13.8284 7.46608 13.7246 7.53808 13.6378 7.62829L11.3097 9.97934L8.98314 7.6275C8.80673 7.45087 8.56737 7.35156 8.31773 7.35141C8.06809 7.35126 7.82861 7.45029 7.65199 7.62671C7.47536 7.80312 7.37605 8.04248 7.3759 8.29212C7.37575 8.54176 7.47478 8.78124 7.6512 8.95786L10.0022 11.286L7.6512 13.6141C7.56384 13.7016 7.49457 13.8054 7.44734 13.9196C7.4001 14.0339 7.37583 14.1563 7.3759 14.2799C7.37597 14.4035 7.40039 14.5259 7.44776 14.6401C7.49513 14.7542 7.56453 14.858 7.65199 14.9453C7.73944 15.0327 7.84325 15.1019 7.95748 15.1492C8.0717 15.1964 8.19412 15.2207 8.31773 15.2206C8.44134 15.2205 8.56372 15.1961 8.67789 15.1487C8.79207 15.1014 8.89579 15.032 8.98314 14.9445L11.3097 12.5943L11.3105 12.5935Z" fill="#FF5B7A"/>
</svg>
