<svg width="20" height="17" viewBox="0 0 20 17" fill="none" xmlns="http://www.w3.org/2000/svg">
<path d="M16.119 0.703938C16.0646 0.62879 15.9933 0.567589 15.9107 0.525351C15.8281 0.483113 15.7367 0.461039 15.644 0.460938H4.156C4.06068 0.460952 3.96681 0.484178 3.88248 0.528607C3.79815 0.573036 3.72591 0.637332 3.672 0.715937L0 6.07994L9.894 16.6479C9.90535 16.6602 9.91913 16.6698 9.93446 16.6764C9.94979 16.6829 9.96633 16.6862 9.983 16.6859H9.993C10.0215 16.6834 10.0482 16.6706 10.068 16.6499L20 6.07994L16.119 0.703938Z" fill="#FF2D55"/>
<path d="M7.5 0.460938H4.156C4.06068 0.460952 3.96681 0.484178 3.88248 0.528607C3.79815 0.573036 3.72591 0.637332 3.672 0.715937L0 6.07994H5.943L7.5 0.460938Z" fill="#FF5B7A"/>
<path d="M19.9999 6.07994L16.1189 0.703938C16.0644 0.628653 15.9929 0.567369 15.9101 0.525124C15.8274 0.482879 15.7358 0.460881 15.6429 0.460938H12.4109L14.0569 6.07994H19.9999Z" fill="#D32344"/>
<path d="M9.955 16.6651L5.943 6.08008H0L9.894 16.6481C9.90535 16.6603 9.91913 16.67 9.93446 16.6765C9.94979 16.6831 9.96633 16.6863 9.983 16.6861C9.97676 16.6858 9.97075 16.6837 9.96575 16.6799C9.96076 16.6762 9.95701 16.671 9.955 16.6651Z" fill="#FF5B7A"/>
<path d="M19.9999 6.08008H14.0579L10.0149 16.6651C10.0127 16.6689 10.0097 16.6723 10.006 16.6749C10.0024 16.6775 9.99827 16.6792 9.9939 16.6801C10.0224 16.6776 10.0491 16.6648 10.0689 16.6441L19.9999 6.08008Z" fill="#D32344"/>
<path d="M14.0581 6.07994L12.4121 0.460938H7.50412L5.94312 6.07994H14.0581Z" fill="#FE3057"/>
<path d="M10.0151 16.6651L14.0581 6.08008H5.94312L9.95512 16.6651C9.9573 16.6711 9.96124 16.6763 9.9664 16.68C9.97157 16.6838 9.97774 16.6859 9.98412 16.6861H9.99412C9.99905 16.6845 10.0035 16.6818 10.0072 16.6782C10.0109 16.6745 10.0136 16.67 10.0151 16.6651Z" fill="#FE3057"/>
<path d="M6.31898 4.44877L7.53898 3.52277C7.59885 3.47769 7.67232 3.45441 7.74722 3.45676C7.82212 3.45912 7.89398 3.48698 7.9509 3.53573C8.00781 3.58449 8.04638 3.65121 8.06021 3.72486C8.07405 3.79852 8.06233 3.87469 8.02698 3.94077L7.33498 5.32277C7.29884 5.3937 7.28906 5.47515 7.30737 5.55262C7.32568 5.63009 7.37091 5.69854 7.43498 5.74577L8.67898 6.63977C8.73924 6.68323 8.78324 6.7456 8.80397 6.81695C8.8247 6.88831 8.82096 6.96454 8.79337 7.03353C8.76578 7.10251 8.7159 7.16029 8.65168 7.19766C8.58747 7.23503 8.51259 7.24986 8.43898 7.23977L6.93898 6.99677C6.86096 6.98381 6.78088 6.99956 6.71359 7.04112C6.64629 7.08267 6.59634 7.14721 6.57298 7.22277L6.12098 8.70277C6.1001 8.77447 6.05524 8.83684 5.99389 8.87943C5.93254 8.92202 5.85843 8.94225 5.78395 8.93675C5.70947 8.93124 5.63914 8.90033 5.58472 8.84919C5.5303 8.79804 5.49509 8.72976 5.48498 8.65577L5.24798 7.12277C5.2364 7.04424 5.19683 6.97255 5.13655 6.92091C5.07627 6.86927 4.99935 6.84116 4.91998 6.84177L3.39698 6.86177C3.3224 6.86139 3.2501 6.83605 3.19159 6.78981C3.13308 6.74357 3.09173 6.67907 3.07413 6.6066C3.05653 6.53413 3.06369 6.45785 3.09447 6.38992C3.12526 6.32199 3.17789 6.26632 3.24398 6.23177L4.60098 5.53177C4.67061 5.49472 4.72494 5.43429 4.75439 5.36112C4.78384 5.28794 4.78653 5.20673 4.76198 5.13177L4.27398 3.66477C4.24895 3.59461 4.24855 3.51801 4.27284 3.44759C4.29714 3.37717 4.34468 3.31712 4.40765 3.27732C4.47061 3.23751 4.54525 3.22032 4.61929 3.22859C4.69332 3.23685 4.76234 3.27006 4.81498 3.32277L5.89098 4.42277C5.9469 4.47851 6.02125 4.51191 6.10006 4.5167C6.17888 4.52149 6.25672 4.49733 6.31898 4.44877Z" fill="white"/>
</svg>
