<svg width="22" height="16" viewBox="0 0 22 16" fill="none" xmlns="http://www.w3.org/2000/svg">
<path d="M5.34304 0.937818C5.43601 1.03069 5.50977 1.14098 5.56009 1.26238C5.61042 1.38378 5.63632 1.5139 5.63632 1.64532C5.63632 1.77673 5.61042 1.90686 5.56009 2.02826C5.50977 2.14966 5.43601 2.25994 5.34304 2.35282C3.84247 3.85363 2.99949 5.88902 2.99949 8.01132C2.99949 10.1336 3.84247 12.169 5.34304 13.6698C5.43588 13.7627 5.50952 13.873 5.55974 13.9944C5.60996 14.1158 5.63578 14.2458 5.63574 14.3772C5.63569 14.5085 5.60977 14.6386 5.55947 14.7599C5.50916 14.8812 5.43545 14.9915 5.34254 15.0843C5.24963 15.1772 5.13934 15.2508 5.01797 15.301C4.8966 15.3512 4.76653 15.3771 4.63518 15.377C4.50383 15.377 4.37378 15.3511 4.25245 15.3007C4.13111 15.2504 4.02088 15.1767 3.92804 15.0838C0.0220351 11.1778 0.0220351 4.84382 3.92804 0.937818C4.02091 0.844842 4.1312 0.771082 4.25259 0.720758C4.37399 0.670434 4.50412 0.644531 4.63554 0.644531C4.76695 0.644531 4.89708 0.670434 5.01848 0.720758C5.13987 0.771082 5.25016 0.844842 5.34304 0.937818ZM18.074 0.937818C21.98 4.84482 21.98 11.1778 18.074 15.0838C17.8854 15.266 17.6328 15.3668 17.3706 15.3645C17.1084 15.3622 16.8576 15.257 16.6722 15.0716C16.4868 14.8862 16.3816 14.6354 16.3794 14.3732C16.3771 14.111 16.4779 13.8584 16.66 13.6698C18.1606 12.169 19.0036 10.1336 19.0036 8.01132C19.0036 5.88902 18.1606 3.85363 16.66 2.35282C16.4724 2.16531 16.3669 1.91094 16.3668 1.64567C16.3667 1.3804 16.472 1.12596 16.6595 0.938318C16.847 0.750677 17.1014 0.645209 17.3667 0.645115C17.632 0.645022 17.8864 0.75031 18.074 0.937818ZM8.31004 3.81182C8.49751 3.99935 8.60282 4.25365 8.60282 4.51882C8.60282 4.78398 8.49751 5.03829 8.31004 5.22582C7.94599 5.58983 7.65721 6.02198 7.46018 6.49761C7.26316 6.97323 7.16175 7.483 7.16175 7.99782C7.16175 8.51263 7.26316 9.02241 7.46018 9.49803C7.65721 9.97365 7.94599 10.4058 8.31004 10.7698C8.40555 10.8621 8.48173 10.9724 8.53414 11.0944C8.58655 11.2164 8.61413 11.3476 8.61529 11.4804C8.61644 11.6132 8.59114 11.7449 8.54086 11.8678C8.49058 11.9907 8.41632 12.1023 8.32243 12.1962C8.22854 12.2901 8.11689 12.3644 7.99399 12.4146C7.87109 12.4649 7.73941 12.4902 7.60663 12.4891C7.47386 12.4879 7.34263 12.4603 7.22063 12.4079C7.09863 12.3555 6.98828 12.2793 6.89604 12.1838C5.78586 11.0736 5.16218 9.56786 5.16218 7.99782C5.16218 6.42777 5.78586 4.92203 6.89604 3.81182C7.08356 3.62435 7.33787 3.51903 7.60303 3.51903C7.8682 3.51903 8.12251 3.62435 8.31004 3.81182ZM15.269 3.81182C16.3792 4.92203 17.0029 6.42777 17.0029 7.99782C17.0029 9.56786 16.3792 11.0736 15.269 12.1838C15.1762 12.2767 15.066 12.3504 14.9446 12.4007C14.8233 12.4511 14.6932 12.477 14.5619 12.477C14.4305 12.4771 14.3005 12.4512 14.1791 12.401C14.0577 12.3508 13.9474 12.2772 13.8545 12.1843C13.7616 12.0915 13.6879 11.9812 13.6376 11.8599C13.5873 11.7386 13.5614 11.6085 13.5613 11.4772C13.5613 11.3458 13.5871 11.2158 13.6373 11.0944C13.6876 10.973 13.7612 10.8627 13.854 10.7698C14.2181 10.4058 14.5069 9.97365 14.7039 9.49803C14.9009 9.02241 15.0023 8.51263 15.0023 7.99782C15.0023 7.483 14.9009 6.97323 14.7039 6.49761C14.5069 6.02198 14.2181 5.58983 13.854 5.22582C13.6665 5.03818 13.5612 4.78373 13.5613 4.51846C13.5614 4.25319 13.6669 3.99883 13.8545 3.81132C14.0422 3.62381 14.2966 3.51852 14.5619 3.51862C14.8272 3.51871 15.0815 3.62418 15.269 3.81182ZM11.082 6.58182C11.279 6.58182 11.4741 6.62062 11.6561 6.696C11.838 6.77138 12.0034 6.88187 12.1427 7.02116C12.282 7.16045 12.3925 7.3258 12.4679 7.50779C12.5432 7.68978 12.582 7.88483 12.582 8.08182C12.582 8.2788 12.5432 8.47385 12.4679 8.65584C12.3925 8.83783 12.282 9.00319 12.1427 9.14248C12.0034 9.28177 11.838 9.39225 11.6561 9.46764C11.4741 9.54302 11.279 9.58182 11.082 9.58182C10.6842 9.58182 10.3027 9.42378 10.0214 9.14248C9.74007 8.86117 9.58204 8.47964 9.58204 8.08182C9.58204 7.68399 9.74007 7.30246 10.0214 7.02116C10.3027 6.73985 10.6842 6.58182 11.082 6.58182Z" fill="#FE3057"/>
</svg>
