<svg width="62" height="98" viewBox="0 0 62 98" fill="none" xmlns="http://www.w3.org/2000/svg">
<path d="M0 67.5097C0.931 79.1962 10.1675 88.298 26.7295 89.376V98H34.0795V89.3148C51.2295 88.1143 61.25 78.9513 61.25 65.6478C61.25 53.557 53.5815 47.3218 39.8738 44.0877L34.0795 42.7158V19.2325C41.4295 20.0655 46.109 24.0835 47.236 29.645H60.123C59.192 18.3873 49.539 9.5795 34.0795 8.624V0H26.7295V8.80775C12.0908 10.241 2.107 19.0487 2.107 31.507C2.107 42.532 9.5305 49.539 21.8662 52.4178L26.7295 53.6182V78.5348C19.1958 77.3955 14.21 73.2672 13.083 67.5097H0ZM26.6683 40.9762C19.4408 39.298 15.5208 35.8802 15.5208 30.7352C15.5208 24.9777 19.747 20.6658 26.7295 19.404V40.964H26.6683V40.9762ZM35.1453 55.5905C43.9285 57.624 47.9832 60.9193 47.9832 66.738C47.9832 73.3775 42.9362 77.9345 34.0795 78.7675V55.3455L35.1453 55.5905Z" fill="url(#paint0_linear_3_102175)"/>
<defs>
<linearGradient id="paint0_linear_3_102175" x1="0" y1="0" x2="0" y2="98" gradientUnits="userSpaceOnUse">
<stop stop-color="#FF4B1F"/>
<stop offset="1" stop-color="#FF9068"/>
</linearGradient>
</defs>
</svg>
