<svg width="15" height="15" viewBox="0 0 15 15" fill="none" xmlns="http://www.w3.org/2000/svg">
<rect x="0.25" y="0.25" width="14.5" height="14.5" rx="7.25" fill="#F32965"/>
<path fill-rule="evenodd" clip-rule="evenodd" d="M4.30428 9.35118L4.02694 10.238C3.96287 10.4425 4.01497 10.6661 4.16314 10.8204C4.31104 10.975 4.53116 11.0359 4.73675 10.9791L5.67363 10.7212C5.42972 10.0506 4.97435 9.59319 4.30429 9.35119L4.30428 9.35118ZM6.20698 10.4775L9.98224 6.68106L8.33387 5.02343L4.5591 8.81938C5.35913 9.1196 5.90763 9.67327 6.20683 10.4776L6.20698 10.4775ZM8.74608 4.60894L10.3945 6.26657L10.8294 5.82919C10.9386 5.71937 11 5.57017 11 5.41476C11 5.25936 10.9386 5.11017 10.8294 5.00034C10.6007 4.77037 10.2339 4.40153 10.0052 4.17156C9.89603 4.06174 9.74767 4 9.59313 4C9.43859 4 9.29023 4.06174 9.18102 4.17156L8.74608 4.60894Z" fill="white"/>
<rect x="0.25" y="0.25" width="14.5" height="14.5" rx="7.25" stroke="#FF6E00" stroke-width="0.5"/>
</svg>
