<svg width="11" height="8" viewBox="0 0 11 8" fill="none" xmlns="http://www.w3.org/2000/svg">
<path d="M5.49999 1.8125C5.29758 1.81574 5.09668 1.84862 4.90339 1.91016C4.9928 2.07096 5.0404 2.25252 5.04166 2.4375C5.04166 2.58113 5.01399 2.72336 4.96025 2.85606C4.9065 2.98876 4.82773 3.10933 4.72842 3.2109C4.62912 3.31246 4.51122 3.39303 4.38147 3.44799C4.25172 3.50296 4.11265 3.53125 3.97221 3.53125C3.79134 3.52997 3.61382 3.48128 3.45659 3.38984C3.33254 3.82984 3.347 4.29861 3.49791 4.72973C3.64883 5.16086 3.92856 5.5325 4.29747 5.792C4.66638 6.05151 5.10578 6.18572 5.55342 6.17563C6.00106 6.16555 6.43425 6.01167 6.79163 5.7358C7.149 5.45993 7.41246 5.07606 7.54466 4.63855C7.67687 4.20104 7.67112 3.73208 7.52825 3.2981C7.38537 2.86411 7.1126 2.48711 6.74858 2.22048C6.38456 1.95385 5.94774 1.81112 5.49999 1.8125ZM10.9335 3.71484C9.89789 1.64824 7.84761 0.25 5.49999 0.25C3.15237 0.25 1.10152 1.64922 0.0664479 3.71504C0.0227614 3.80342 0 3.90107 0 4.0001C0 4.09913 0.0227614 4.19678 0.0664479 4.28516C1.10209 6.35176 3.15237 7.75 5.49999 7.75C7.84761 7.75 9.89846 6.35078 10.9335 4.28496C10.9772 4.19658 11 4.09893 11 3.9999C11 3.90087 10.9772 3.80322 10.9335 3.71484ZM5.49999 6.8125C3.61605 6.8125 1.8889 5.73828 0.956187 4C1.8889 2.26172 3.61586 1.1875 5.49999 1.1875C7.38412 1.1875 9.11108 2.26172 10.0438 4C9.11127 5.73828 7.38412 6.8125 5.49999 6.8125Z" fill="#F99830"/>
</svg>
