<svg width="60" height="60" viewBox="0 0 60 60" fill="none" xmlns="http://www.w3.org/2000/svg">
<path d="M30 60C46.5685 60 60 46.5685 60 30C60 13.4315 46.5685 0 30 0C13.4315 0 0 13.4315 0 30C0 46.5685 13.4315 60 30 60Z" fill="#2765DF"/>
<path d="M37 16.001V21.001H34C33.527 20.645 32.9 20.847 33 21.001C32.7032 21.2463 32.4609 21.5509 32.2887 21.8953C32.1165 22.2397 32.0182 22.6163 32 23.001V26.001H37L36 31.001H32V44.001H27V31.001H23V26.001H27V23.001C27.132 20.494 27.694 18.876 29 18.001C29.4404 17.3537 30.0393 16.83 30.7395 16.4799C31.4397 16.1298 32.218 15.9649 33 16.001C34.894 16.001 36.125 16.068 37 16.001Z" fill="white"/>
</svg>
