<svg width="19" height="18" viewBox="0 0 19 18" fill="none" xmlns="http://www.w3.org/2000/svg">
<path fill-rule="evenodd" clip-rule="evenodd" d="M13.4198 1.16987C13.19 1.16987 12.9624 1.21514 12.75 1.30311C12.5376 1.39108 12.3447 1.52001 12.1821 1.68255C12.0196 1.84509 11.8906 2.03806 11.8027 2.25043C11.7147 2.4628 11.6694 2.69042 11.6694 2.92028C11.6694 3.15015 11.7147 3.37777 11.8027 3.59014C11.8906 3.80251 12.0196 3.99547 12.1821 4.15801C12.3447 4.32055 12.5376 4.44949 12.75 4.53746C12.9624 4.62542 13.19 4.6707 13.4198 4.6707C13.8841 4.6707 14.3293 4.48628 14.6576 4.15801C14.9858 3.82975 15.1703 3.38452 15.1703 2.92028C15.1703 2.45604 14.9858 2.01082 14.6576 1.68255C14.3293 1.35429 13.8841 1.16987 13.4198 1.16987ZM8.92613 2.33681C9.87729 2.33681 10.6509 1.59507 11.3066 0.90609C11.39 0.818475 11.4791 0.735754 11.5736 0.658526C12.0946 0.232649 12.7469 0 13.4198 0C14.0928 0 14.7451 0.232649 15.2661 0.658526C15.5066 0.855114 15.7123 1.08729 15.8773 1.34518C16.2147 1.87252 16.7287 2.33681 17.3548 2.33681H18.0876C18.4099 2.33681 18.6711 2.59804 18.6711 2.92028C18.6711 3.24253 18.4099 3.50375 18.0876 3.50375H17.3548C16.7287 3.50375 16.2147 3.96804 15.8773 4.49538C15.7123 4.75327 15.5066 4.98545 15.2661 5.18204C14.7451 5.60792 14.0928 5.84057 13.4198 5.84057C12.7469 5.84057 12.0946 5.60792 11.5736 5.18204C11.4791 5.10481 11.39 5.02209 11.3066 4.93448C10.6509 4.2455 9.87729 3.50375 8.92614 3.50375H0.583472C0.26123 3.50375 0 3.24253 0 2.92028C0 2.59804 0.261229 2.33681 0.583471 2.33681H8.92613ZM5.25124 7.00459C4.787 7.00459 4.34178 7.189 4.01351 7.51727C3.68525 7.84554 3.50083 8.29076 3.50083 8.755C3.50083 9.21924 3.68525 9.66446 4.01351 9.99273C4.34178 10.321 4.787 10.5054 5.25124 10.5054C5.71548 10.5054 6.16071 10.321 6.48897 9.99273C6.81724 9.66446 7.00166 9.21924 7.00166 8.755C7.00166 8.29076 6.81724 7.84554 6.48897 7.51727C6.16071 7.189 5.71548 7.00459 5.25124 7.00459ZM1.31633 8.17153C1.94235 8.17153 2.4564 7.70724 2.79376 7.1799C2.95874 6.92201 3.16447 6.68983 3.40499 6.49324C3.92604 6.06737 4.57829 5.83472 5.25124 5.83472C5.92419 5.83472 6.57645 6.06737 7.0975 6.49324C7.19198 6.57047 7.2811 6.65319 7.36449 6.74081C8.02023 7.42979 8.7938 8.17153 9.74495 8.17153H18.0876C18.4099 8.17153 18.6711 8.43276 18.6711 8.755C18.6711 9.07724 18.4099 9.33847 18.0876 9.33847H9.74496C8.7938 9.33847 8.02023 10.0802 7.36449 10.7692C7.2811 10.8568 7.19198 10.9395 7.0975 11.0168C6.57645 11.4426 5.92419 11.6753 5.25124 11.6753C4.57829 11.6753 3.92604 11.4426 3.40499 11.0168C3.16447 10.8202 2.95874 10.588 2.79376 10.3301C2.4564 9.80276 1.94235 9.33847 1.31633 9.33847H0.583471C0.261229 9.33847 0 9.07724 0 8.755C0 8.43276 0.261229 8.17153 0.583471 8.17153H1.31633ZM13.4198 12.8393C12.9556 12.8393 12.5104 13.0237 12.1821 13.352C11.8538 13.6803 11.6694 14.1255 11.6694 14.5897C11.6694 15.054 11.8538 15.4992 12.1821 15.8274C12.5104 16.1557 12.9556 16.3401 13.4198 16.3401C13.8841 16.3401 14.3293 16.1557 14.6576 15.8274C14.9858 15.4992 15.1703 15.054 15.1703 14.5897C15.1703 14.1255 14.9858 13.6803 14.6576 13.352C14.3293 13.0237 13.8841 12.8393 13.4198 12.8393ZM8.92613 14.0062C9.87729 14.0062 10.6509 13.2645 11.3066 12.5755C11.39 12.4879 11.4791 12.4052 11.5736 12.328C12.0946 11.9021 12.7469 11.6694 13.4198 11.6694C14.0928 11.6694 14.7451 11.9021 15.2661 12.328C15.5066 12.5245 15.7123 12.7567 15.8773 13.0146C16.2147 13.542 16.7287 14.0062 17.3548 14.0062H18.0876C18.4099 14.0062 18.6711 14.2675 18.6711 14.5897C18.6711 14.912 18.4099 15.1732 18.0876 15.1732H17.3548C16.7287 15.1732 16.2147 15.6375 15.8773 16.1648C15.7123 16.4227 15.5066 16.6549 15.2661 16.8515C14.7451 17.2774 14.0928 17.51 13.4198 17.51C12.7469 17.51 12.0946 17.2774 11.5736 16.8515C11.4791 16.7742 11.39 16.6915 11.3066 16.6039C10.6509 15.9149 9.87729 15.1732 8.92614 15.1732H0.583472C0.26123 15.1732 0 14.912 0 14.5897C0 14.2675 0.261229 14.0062 0.583471 14.0062H8.92613Z" fill="white"/>
</svg>
