<svg width="12" height="14" viewBox="0 0 12 14" fill="none" xmlns="http://www.w3.org/2000/svg">
<path d="M0.19521 6.788C0.656521 7.3939 1.23457 7.90122 1.89521 8.28C1.89521 8.28 1.06021 1.225 6.49521 0C5.10221 5.114 8.26721 6.556 9.42121 3.854C10.5605 5.2082 10.7451 7.12527 9.88521 8.672C10.6752 8.786 11.3392 7.923 11.3392 7.923C11.3452 8.029 11.3482 8.136 11.3482 8.244C11.3453 10.4457 10.069 12.4469 8.07387 13.378C6.07878 14.3092 3.72514 14.0021 2.03573 12.5903C0.346323 11.1784 -0.373833 8.91673 0.18821 6.788H0.19521Z" fill="#FF6536"/>
<path d="M11.3462 7.923C11.3462 7.923 10.6822 8.786 9.89221 8.672C10.7521 7.12527 10.5675 5.2082 9.42821 3.854C8.27421 6.554 5.10821 5.114 6.50121 0C6.22248 0.0623682 5.94847 0.144236 5.68121 0.245V13.919C8.81504 13.9184 11.3552 11.3778 11.3552 8.244C11.3552 8.136 11.3522 8.029 11.3462 7.923Z" fill="#FF421D"/>
<path d="M3.1922 11.4301C3.19183 12.5735 3.97051 13.5701 5.08004 13.8462C6.18958 14.1224 7.34455 13.6071 7.88019 12.5969C8.41582 11.5867 8.19433 10.3416 7.3432 9.5781C6.3812 10.8851 5.0102 8.9021 6.0782 7.4541C6.0782 7.4581 3.1922 7.8161 3.1922 11.4301Z" fill="#FBBF00"/>
<path d="M8.16919 11.4301C8.16985 10.7232 7.86902 10.0495 7.34219 9.5781C6.38019 10.8851 5.00919 8.9021 6.07719 7.4541C5.94133 7.47639 5.80754 7.50983 5.67719 7.5541V13.9231C6.33852 13.9239 6.97299 13.6615 7.44053 13.1937C7.90807 12.726 8.17025 12.0914 8.16919 11.4301Z" fill="#FFA900"/>
</svg>
