<svg width="50" height="50" viewBox="0 0 50 50" fill="none" xmlns="http://www.w3.org/2000/svg">
<rect width="50" height="50" rx="25" fill="white" fill-opacity="0.16"/>
<path d="M14.3008 36.168H35.6875C37.9727 36.168 39.1445 34.9961 39.1445 32.7461V20.4414C39.1445 18.1797 37.9727 17.0078 35.6875 17.0078H32.2539C31.3164 17.0078 31.0469 16.8789 30.4844 16.2461L29.5117 15.1562C28.9023 14.5 28.3633 14.207 27.1914 14.207H22.6211C21.4492 14.207 20.9102 14.5 20.3125 15.1562L19.3281 16.2461C18.7773 16.8672 18.4961 17.0078 17.5586 17.0078H14.3008C12.0156 17.0078 10.8438 18.1797 10.8438 20.4414V32.7461C10.8438 34.9961 12.0156 36.168 14.3008 36.168ZM20.7227 22.2695C20.4062 21.9414 20.5 21.4727 20.9453 21.1094C21.9883 20.1719 23.5 19.5977 25 19.5977C28.2344 19.5977 30.8125 21.8008 31.3398 25.0234H32.5938C33.0391 25.0234 33.1211 25.4219 32.8867 25.7734L31.1406 28.3047C30.8477 28.7383 30.3789 28.7266 30.0859 28.3047L28.3281 25.7734C28.0703 25.4336 28.1875 25.0234 28.6328 25.0234H29.9688C29.4883 22.7266 27.4727 21.0273 25 21.0273C23.8047 21.0273 22.8203 21.4141 21.8242 22.2695C21.4492 22.5625 21.0508 22.6094 20.7227 22.2695ZM17.0781 26.1719L18.8125 23.6406C19.1172 23.207 19.5859 23.2188 19.8789 23.6406L21.6367 26.1719C21.8828 26.5117 21.7656 26.9219 21.332 26.9219H20.0312C20.5234 29.2188 22.5391 30.918 25.0117 30.918C26.207 30.918 27.1797 30.5195 28.1758 29.6758C28.5508 29.3828 28.9609 29.3359 29.2773 29.6758C29.5938 30.0039 29.5 30.4844 29.0664 30.8359C28.0117 31.7734 26.5 32.3477 25.0117 32.3477C21.7656 32.3477 19.1992 30.1445 18.6602 26.9219H17.3594C16.9141 26.9219 16.832 26.5234 17.0781 26.1719Z" fill="white"/>
</svg>
