<svg viewBox="0 0 25 21" xmlns="http://www.w3.org/2000/svg">
<path fill-rule="evenodd" d="M21.5831 0H3.31281C1.55925 0 0 1.56831 0 3.3081V17.1421C0 18.8828 1.55925 20.4502 3.31281 20.4502H21.5831C23.3366 20.4502 24.8959 18.8828 24.8959 17.1421V3.3081C24.8959 1.56831 23.3366 0 21.5831 0ZM22.6825 13.8303C22.6825 14.4406 22.1878 14.9363 21.5763 14.9363H15.6921C14.911 12.564 12.9924 7.19805 11.618 7.19805C10.6659 7.19805 9.45358 9.77238 8.53846 12.1432C8.83568 12.7249 9.30338 14.0005 9.63196 14.936H8.47141C7.83935 13.1834 6.53916 9.96114 5.53239 9.96114C4.56509 9.96114 3.32745 12.9339 2.67097 14.722C2.39473 14.5212 2.21277 14.1979 2.21277 13.8302L2.21295 3.32776C2.21295 2.71754 2.70844 2.20502 3.31953 2.20502H21.577C22.1881 2.20502 22.6832 2.71699 22.6832 3.32776V13.8302L22.6825 13.8303ZM18.8726 4.41077C17.986 4.41077 17.2664 5.12932 17.2664 6.01468C17.2664 6.90005 17.986 7.6186 18.8726 7.6186C19.76 7.6186 20.4788 6.90005 20.4788 6.01468C20.4788 5.12932 19.76 4.41077 18.8726 4.41077Z"/>
</svg>
