<svg width="30" height="27" viewBox="0 0 30 27" fill="none" xmlns="http://www.w3.org/2000/svg">
<path d="M0.608887 4.125C0.608887 3.13044 0.989865 2.17661 1.66801 1.47335C2.34615 0.770088 3.26592 0.375 4.22496 0.375H25.9214C26.8804 0.375 27.8002 0.770088 28.4783 1.47335C29.1565 2.17661 29.5375 3.13044 29.5375 4.125V22.875C29.5375 23.8696 29.1565 24.8234 28.4783 25.5266C27.8002 26.2299 26.8804 26.625 25.9214 26.625H4.22496C3.26592 26.625 2.34615 26.2299 1.66801 25.5266C0.989865 24.8234 0.608887 23.8696 0.608887 22.875V4.125ZM2.41692 21V22.875C2.41692 23.3723 2.60741 23.8492 2.94648 24.2008C3.28556 24.5525 3.74544 24.75 4.22496 24.75H25.9214C26.4009 24.75 26.8608 24.5525 27.1999 24.2008C27.5389 23.8492 27.7294 23.3723 27.7294 22.875V16.3125L20.9005 12.6619C20.7309 12.5738 20.5389 12.5432 20.3517 12.5745C20.1645 12.6058 19.9915 12.6974 19.8572 12.8363L13.1494 19.7925L8.34005 16.47C8.1664 16.3501 7.95812 16.2962 7.75052 16.3174C7.54291 16.3386 7.34876 16.4336 7.20098 16.5863L2.41692 21ZM11.4571 8.8125C11.4571 8.06658 11.1714 7.35121 10.6628 6.82376C10.1542 6.29632 9.46433 6 8.74505 6C8.02577 6 7.33594 6.29632 6.82734 6.82376C6.31873 7.35121 6.03299 8.06658 6.03299 8.8125C6.03299 9.55842 6.31873 10.2738 6.82734 10.8012C7.33594 11.3287 8.02577 11.625 8.74505 11.625C9.46433 11.625 10.1542 11.3287 10.6628 10.8012C11.1714 10.2738 11.4571 9.55842 11.4571 8.8125Z" fill="#324396"/>
</svg>
