<svg width="42" height="42" viewBox="0 0 42 42" fill="none" xmlns="http://www.w3.org/2000/svg">
<path d="M21.0002 42C32.5982 42 42.0002 32.598 42.0002 21C42.0002 9.40202 32.5982 0 21.0002 0C9.40226 0 0.000244141 9.40202 0.000244141 21C0.000244141 32.598 9.40226 42 21.0002 42Z" fill="#FE3057"/>
<path d="M30.4404 13.8004C29.4804 12.2004 27.7204 11.4004 25.8004 11.4004H16.2004C14.2804 11.4004 12.5204 12.2004 11.5604 13.8004C7.88044 19.4004 7.08044 27.8804 9.64044 29.6404C12.2004 31.4004 17.9604 23.7204 21.0004 23.7204C24.0404 23.7204 29.6404 31.4004 32.3604 29.6404C34.9204 27.8804 34.1204 19.4004 30.4404 13.8004ZM17.8004 19.4004H16.2004V21.0004H14.6004V19.4004H13.0004V17.8004H14.6004V16.2004H16.2004V17.8004H17.8004V19.4004ZM26.4404 20.2004C26.4404 21.0004 25.8004 21.6404 25.0004 21.6404C24.2004 21.6404 23.5604 21.0004 23.5604 20.2004C23.5604 19.4004 24.2004 18.7604 25.0004 18.7604C25.8004 18.7604 26.4404 19.4004 26.4404 20.2004ZM29.4804 17.0004C29.4804 17.8004 28.8404 18.4404 28.0404 18.4404C27.2404 18.4404 26.6004 17.8004 26.6004 17.0004C26.6004 16.2004 27.2404 15.5604 28.0404 15.5604C28.8404 15.5604 29.4804 16.2004 29.4804 17.0004Z" fill="white"/>
</svg>
