<svg width="8" height="11" viewBox="0 0 8 11" fill="none" xmlns="http://www.w3.org/2000/svg">
<path d="M7.71107 3.69726C7.71107 1.88512 6.01104 0.416016 3.91388 0.416016C1.81672 0.416016 0.116699 1.88505 0.116699 3.69726C0.116699 5.23974 1.3499 6.52976 3.00979 6.881V7.60352H2.64816C2.24891 7.60352 1.92488 7.88352 1.92488 8.22852V8.54102C1.92488 8.88602 2.24891 9.16602 2.64816 9.16602H3.00979V9.79102C3.00979 10.136 3.33382 10.416 3.73307 10.416H4.0947C4.49395 10.416 4.81798 10.136 4.81798 9.79102V9.16602H5.17961C5.57886 9.16602 5.90288 8.88602 5.90288 8.54102V8.22852C5.90288 7.88352 5.57886 7.60352 5.17961 7.60352H4.81798V6.88072C6.47787 6.52979 7.71107 5.23974 7.71107 3.69733V3.69726ZM1.56325 3.69726C1.56325 2.57728 2.6178 1.66601 3.91388 1.66601C5.20997 1.66601 6.26452 2.57728 6.26452 3.69726C6.26452 4.81724 5.20997 5.72851 3.91388 5.72851C2.6178 5.72851 1.56325 4.81724 1.56325 3.69726Z" fill="white"/>
</svg>
