<svg width="35" height="35" viewBox="0 0 35 35" fill="none" xmlns="http://www.w3.org/2000/svg">
<path d="M17.6887 34.2759C27.1537 34.2759 34.8266 26.603 34.8266 17.1379C34.8266 7.67291 27.1537 0 17.6887 0C8.2237 0 0.550781 7.67291 0.550781 17.1379C0.550781 26.603 8.2237 34.2759 17.6887 34.2759Z" fill="white" fill-opacity="0.2"/>
<path d="M10.4153 17.1377C10.2675 17.1377 10.4153 25.2986 10.4153 25.2986C10.3977 25.4939 10.4569 25.6883 10.5803 25.8407C10.7038 25.993 10.8816 26.0913 11.0763 26.1147H24.3672C24.5634 26.0943 24.7435 25.997 24.868 25.844C24.9925 25.691 25.0513 25.4949 25.0315 25.2986V17.1377H10.4153Z" fill="white" fill-opacity="0.9"/>
<path d="M24.7641 17.1377H10.6114C10.5329 17.1462 10.4607 17.1851 10.4105 17.2461C10.3603 17.3071 10.3361 17.3854 10.3429 17.4641V18.7699H25.0326V17.4641C25.0395 17.3854 25.0152 17.3071 24.965 17.2461C24.9148 17.1851 24.8427 17.1462 24.7641 17.1377V17.1377Z" fill="#E6DDDC"/>
<path d="M19.0541 15.5055H16.3235C16.1766 15.5055 16.0566 15.5275 16.0566 15.5553V17.0879C16.0566 17.1156 16.1766 17.1377 16.3235 17.1377H19.0541C19.201 17.1377 19.321 17.1156 19.321 17.0879V15.5553C19.321 15.5275 19.201 15.5055 19.0541 15.5055Z" fill="#FFDB57"/>
<path d="M19.0541 17.1376H16.3235C16.1766 17.1376 16.0566 17.9447 16.0566 18.9404V26.1146H19.321V18.9404C19.321 17.9447 19.201 17.1376 19.0541 17.1376Z" fill="#ECCB53"/>
<path d="M25.544 9.72191C25.2763 8.95128 24.8648 8.23846 24.3313 7.62129C24.2461 7.52895 24.1418 7.45635 24.0257 7.40856C23.9095 7.36077 23.7843 7.33895 23.6588 7.34463C22.7791 7.36667 21.3444 8.55245 19.3964 10.8677C19.3469 10.927 19.32 11.0019 19.3205 11.0791V12.7431C19.3178 12.8235 19.3472 12.9018 19.4021 12.9607C19.457 13.0196 19.533 13.0543 19.6135 13.0573H24.1232C24.4572 13.0927 24.7937 13.0175 25.0808 12.8432C25.368 12.669 25.5901 12.4053 25.7129 12.0927C25.9308 11.3065 25.8712 10.4692 25.544 9.72191V9.72191Z" fill="#FFDB57"/>
<path d="M25.7014 10.4586C25.6929 10.4199 25.6792 10.3826 25.6606 10.3476C25.1881 9.46623 24.1688 9.79266 23.3959 10.2276C22.0717 10.9378 20.9633 11.9916 20.1871 13.2782C20.1562 13.339 20.1391 13.4058 20.1369 13.4739C20.1348 13.542 20.1478 13.6098 20.1748 13.6724C20.196 13.7289 20.2333 13.778 20.282 13.8136C20.3307 13.8493 20.3888 13.87 20.449 13.8731H24.0064C24.3027 13.8929 24.5989 13.832 24.8635 13.6969C25.128 13.5618 25.351 13.3576 25.5088 13.106C25.9055 12.2796 25.9743 11.3337 25.7014 10.4586V10.4586Z" fill="#EF9325"/>
<path d="M15.9805 10.8677C14.0325 8.55246 12.5978 7.36668 11.7181 7.34465C11.5926 7.33891 11.4674 7.36071 11.3512 7.4085C11.235 7.45629 11.1307 7.52893 11.0456 7.6213C10.5121 8.23848 10.1006 8.9513 9.8329 9.72192C9.50586 10.4693 9.44621 11.3065 9.66397 12.0927C9.78681 12.4053 10.0089 12.669 10.2961 12.8433C10.5832 13.0175 10.9197 13.0927 11.2537 13.0573H15.7634C15.8439 13.0543 15.9199 13.0196 15.9748 12.9607C16.0297 12.9018 16.0591 12.8236 16.0564 12.7431V11.0791C16.0569 11.0019 16.03 10.927 15.9805 10.8677V10.8677Z" fill="#FFDB57"/>
<path d="M15.1888 13.2783C14.4126 11.9917 13.3042 10.938 11.98 10.2278C11.2071 9.79279 10.1878 9.46635 9.7153 10.3469C9.69663 10.3821 9.6829 10.4198 9.67449 10.4587C9.40126 11.3337 9.46979 12.2797 9.86627 13.1061C10.0241 13.3579 10.2473 13.5622 10.512 13.6972C10.7767 13.8323 11.073 13.8931 11.3695 13.8732H14.9269C14.9874 13.8702 15.0457 13.8495 15.0946 13.8137C15.1434 13.7778 15.1808 13.7285 15.2019 13.6717C15.2287 13.6092 15.2414 13.5415 15.2392 13.4735C15.2369 13.4056 15.2197 13.3389 15.1888 13.2783V13.2783Z" fill="#EF9325"/>
<path d="M18.9273 11.4248H15.6336C15.4165 11.4248 15.2402 11.557 15.2402 11.7202V13.5777C15.2402 13.7409 15.4165 13.8731 15.6336 13.8731H18.9273C19.1444 13.8731 19.3207 13.7409 19.3207 13.5777V11.7202C19.3207 11.557 19.1444 11.4248 18.9273 11.4248Z" fill="#F5BA3D"/>
<path d="M25.9748 12.2412H9.40158C9.20237 12.2593 9.01828 12.355 8.88909 12.5077C8.75989 12.6604 8.69598 12.8579 8.71116 13.0573V16.3217C8.70062 16.421 8.71031 16.5215 8.73966 16.617C8.76901 16.7125 8.81741 16.801 8.88194 16.8773C8.94646 16.9536 9.02577 17.016 9.11509 17.0607C9.2044 17.1055 9.30186 17.1317 9.40158 17.1378H26.382C26.5387 17.1378 26.6652 16.5494 26.6652 16.3217V13.0573C26.5452 12.7085 26.2989 12.4173 25.9748 12.2412V12.2412Z" fill="white"/>
<path d="M19.321 12.2412H16.0566V17.1378H19.321V12.2412Z" fill="#FFDB57"/>
</svg>
