<svg width="62" height="52" viewBox="0 0 62 52" fill="none" xmlns="http://www.w3.org/2000/svg">
<path d="M61.2773 48.394L43.947 24.0661C46.3666 22.8235 48.0015 20.3383 48.0015 17.4611C48.0015 13.4066 44.6664 10.1367 40.6771 10.1367C36.6226 10.1367 33.3527 13.4719 33.3527 17.4611C33.3527 20.1425 34.7263 22.4312 36.7535 23.7395L24.001 40.939L16.1534 32.6991L15.9573 32.5029C15.0417 31.7835 13.6681 31.9144 12.9488 32.83L0.523238 48.328C0.196157 48.786 0 49.1783 0 49.7016C0 50.8785 0.915541 51.8597 2.15812 51.8597H59.5117C59.9697 51.8597 60.362 51.7288 60.6886 51.4017C61.7351 50.6823 61.9964 49.3092 61.2771 48.3937L61.2773 48.394Z" fill="#F9A82F"/>
<path d="M40.6119 7.65092C41.6583 7.65092 42.5082 6.86629 42.5082 5.75463V1.89629C42.5082 0.849828 41.7235 0 40.6119 0C39.5654 0 38.7156 0.78463 38.7156 1.89629V5.82037C38.7808 6.80069 39.5654 7.65104 40.6119 7.65104V7.65092Z" fill="#F9A82F"/>
<path d="M50.5522 17.5257C50.5522 18.5721 51.3369 19.4219 52.4485 19.4219H56.3069C57.3533 19.4219 58.2032 18.6373 58.2032 17.5257C58.2032 16.4792 57.4185 15.6294 56.3069 15.6294L52.449 15.6289C51.3373 15.6289 50.5522 16.4792 50.5522 17.5257V17.5257Z" fill="#F9A82F"/>
<path d="M24.9817 19.4229H28.8401C29.8865 19.4229 30.7364 18.6383 30.7364 17.5266C30.7364 16.4802 29.9517 15.6303 28.8401 15.6303L24.9817 15.6299C23.9353 15.6299 23.0854 16.4145 23.0854 17.5262C23.085 18.5731 23.9353 19.4229 24.9817 19.4229V19.4229Z" fill="#F9A82F"/>
<path d="M50.2906 10.5933L53.0373 7.84662C53.7567 7.12722 53.7567 5.88458 53.0373 5.23095C52.3179 4.51156 51.0753 4.51156 50.4217 5.23095L47.675 7.97765C46.9556 8.69704 46.9556 9.93969 47.7402 10.5933C48.3939 11.247 49.5713 11.247 50.2907 10.5933H50.2906Z" fill="#F9A82F"/>
<path d="M28.2515 27.2706C27.5321 27.99 27.5321 29.2327 28.2515 29.8863C28.6438 30.2786 29.0361 30.4748 29.5593 30.4748C30.0825 30.4748 30.5401 30.2786 30.8671 29.8863L33.6138 27.1396C34.3332 26.4202 34.3332 25.1775 33.6138 24.5239C32.8944 23.8045 31.7175 23.8045 30.9982 24.5239L28.2515 27.2706Z" fill="#F9A82F"/>
<path d="M52.9718 27.2048L50.2251 24.4581C49.5057 23.7388 48.3288 23.7388 47.6094 24.3929C46.89 25.1123 46.8248 26.2892 47.5442 27.0086C47.5442 27.0738 47.6094 27.0738 47.6094 27.0738L50.3561 29.8205C51.0755 30.5399 52.2524 30.6051 52.9718 29.8857C53.7564 29.232 53.8216 28.0551 52.9718 27.2048C53.037 27.2048 52.9718 27.2048 52.9718 27.2048V27.2048Z" fill="#F9A82F"/>
<path d="M30.9982 10.5936C31.7175 11.313 32.9602 11.313 33.6138 10.5283C34.3332 9.80895 34.3332 8.69722 33.6138 7.97785L30.8671 5.16552C30.1477 4.44613 28.9051 4.44613 28.2515 5.16552C27.5321 5.88492 27.5321 7.12756 28.2515 7.78119L30.9982 10.5936Z" fill="#F9A82F"/>
</svg>
