<svg width="37" height="51" viewBox="0 0 37 51" fill="none" xmlns="http://www.w3.org/2000/svg">
<path d="M12.4264 7.4451L7.40062 11.8381C7.08503 12.114 7.05276 12.5939 7.32867 12.9098C7.47886 13.0815 7.68914 13.1694 7.90088 13.1694C8.07815 13.1694 8.25615 13.1075 8.40041 12.9818L13.4261 8.58878C13.7417 8.31287 13.774 7.833 13.4981 7.51704C13.2225 7.20182 12.743 7.16955 12.4264 7.4451V7.4451Z" fill="#FF8B34"/>
<path d="M7.98745 10.0159L10.2878 8.00481C10.6037 7.72853 10.6356 7.24904 10.3597 6.93308C10.0842 6.61823 9.60429 6.58522 9.28796 6.86114L6.98766 8.87227C6.6717 9.14855 6.6398 9.62804 6.91571 9.944C7.0659 10.1157 7.27618 10.2036 7.48792 10.2036C7.66519 10.2036 7.84356 10.1417 7.98745 10.0159V10.0159Z" fill="#FF8B34"/>
<path d="M35.3163 0H0.75949C0.341922 0 0 0.341922 0 0.75949V49.3668C0 49.7844 0.341922 50.1263 0.75949 50.1263H35.3163C35.7338 50.1263 36.0758 49.7844 36.0758 49.3668V0.75949C36.0758 0.341922 35.7338 0 35.3163 0ZM3.65884 21.0521V4.41548C3.65884 3.99605 3.9989 3.65599 4.41833 3.65599H31.6584C32.0778 3.65599 32.4179 3.99605 32.4179 4.41548V21.0521C32.4179 21.4715 32.0778 21.8116 31.6584 21.8116H4.41833C3.9989 21.8116 3.65884 21.4715 3.65884 21.0521ZM23.7644 32.4406C23.7644 33.6659 22.7676 34.6627 21.5424 34.6627C20.3171 34.6627 19.3203 33.6659 19.3203 32.4406C19.3203 31.2154 20.3171 30.2186 21.5424 30.2186C22.7676 30.2186 23.7644 31.2154 23.7644 32.4406ZM7.87876 39.9822V37.7096H5.60655C5.18712 37.7096 4.84706 37.3695 4.84706 36.9501C4.84706 36.5307 5.18712 36.1906 5.60655 36.1906H7.87876V33.9184C7.87876 33.499 8.21882 33.1589 8.63825 33.1589C9.05767 33.1589 9.39773 33.499 9.39773 33.9184V36.1906H11.6703C12.0897 36.1906 12.4298 36.5307 12.4298 36.9501C12.4298 37.3695 12.0897 37.7096 11.6703 37.7096H9.39773V39.9822C9.39773 40.4016 9.05767 40.7417 8.63825 40.7417C8.21882 40.7417 7.87876 40.4016 7.87876 39.9822ZM26.2575 46.8966H9.8183C9.39888 46.8966 9.05881 46.5565 9.05881 46.1371C9.05881 45.7177 9.39888 45.3776 9.8183 45.3776H26.2575C26.6769 45.3776 27.0169 45.7177 27.0169 46.1371C27.0169 46.5565 26.6769 46.8966 26.2575 46.8966ZM25.5032 39.1723C24.2779 39.1723 23.2811 38.1755 23.2811 36.9502C23.2811 35.725 24.2779 34.7281 25.5032 34.7281C26.7284 34.7281 27.7252 35.725 27.7252 36.9502C27.7252 38.1755 26.7284 39.1723 25.5032 39.1723ZM26.5393 30.671C25.314 30.671 24.3172 29.6742 24.3172 28.449C24.3172 27.2241 25.314 26.2273 26.5393 26.2273C27.7645 26.2273 28.7614 27.2241 28.7614 28.449C28.7614 29.6742 27.7645 30.671 26.5393 30.671ZM30.5003 35.1809C29.2751 35.1809 28.2782 34.1841 28.2782 32.9588C28.2782 31.7336 29.2751 30.7367 30.5003 30.7367C31.7256 30.7367 32.7224 31.7336 32.7224 32.9588C32.7224 34.1841 31.7256 35.1809 30.5003 35.1809Z" fill="#FF8B34"/>
</svg>
