<svg viewBox="0 0 21 21" xmlns="http://www.w3.org/2000/svg">
    <path fill-rule="evenodd" d="M19.9121 4.3733H14.6165C15.7042 4.02622 16.6023 3.25185 17.1029 2.22967C17.2095 1.97455 17.2397 1.69421 17.1902 1.42224C17.1404 1.1503 17.013 0.89855 16.823 0.697063C16.3675 0.196719 15.7003 -0.0578313 15.0255 0.0111174C13.1204 0.19335 11.1077 2.70126 10.2251 3.9554C9.34258 2.70126 7.32969 0.19337 5.42478 0.0111174C4.75039 -0.0559795 4.08388 0.198398 3.6272 0.697063C3.43726 0.898545 3.30981 1.15031 3.26007 1.42224C3.21052 1.69419 3.24074 1.97455 3.34735 2.22967C3.84794 3.25185 4.74605 4.02622 5.83377 4.3733H0.538118C0.240992 4.3733 0 4.6131 0 4.90915V8.12447C0 8.26671 0.0566847 8.40296 0.157663 8.50352C0.258646 8.60389 0.395475 8.66033 0.538128 8.66033H7.53429V4.37326H8.61053V8.66052H11.8395L11.8397 4.37326H12.9159V8.66052H19.9121V8.66033C20.0547 8.66033 20.1916 8.60389 20.2925 8.50352C20.3935 8.40296 20.4502 8.26671 20.4502 8.12448V4.90915C20.4502 4.7671 20.3935 4.63067 20.2925 4.5303C20.1916 4.42974 20.0547 4.3733 19.9121 4.3733L19.9121 4.3733ZM7.5343 3.85875C5.56461 3.30142 4.5852 2.50834 4.35922 1.87603C4.29089 1.73286 4.30741 1.5639 4.4022 1.43662C4.60266 1.20654 4.89284 1.07384 5.19859 1.07215C5.23838 1.07028 5.27817 1.07402 5.31702 1.0828C6.20952 1.30672 7.00797 1.80555 7.59885 2.50833C7.96411 2.85374 8.30236 3.22643 8.61056 3.62304C8.7746 3.80789 8.92908 4.00115 9.07342 4.20171C8.912 4.16957 8.76128 4.14807 8.61056 4.11592C8.22315 4.04097 7.86803 3.95518 7.53432 3.85874L7.5343 3.85875ZM11.8397 4.11593C11.689 4.14808 11.5383 4.16957 11.3769 4.20172C11.5212 4.00117 11.6757 3.80791 11.8397 3.62305C12.1479 3.22643 12.4862 2.85375 12.8514 2.50834C13.4423 1.80555 14.2408 1.30674 15.1333 1.08281C15.1721 1.07403 15.2119 1.07029 15.2517 1.07216C15.5575 1.07384 15.8476 1.20654 16.0481 1.43662C16.1429 1.56391 16.1594 1.73287 16.0911 1.87604C15.8651 2.50835 14.8857 3.30138 12.916 3.85875C12.5823 3.9552 12.2271 4.04099 11.8397 4.11612L11.8397 4.11593ZM1.0764 9.7323H7.5344V20.4502H1.61457C1.31725 20.4502 1.07645 20.2102 1.07645 19.9144L1.0764 9.7323ZM8.61073 9.7323H11.8397V20.4502H8.61054L8.61073 9.7323ZM12.9162 9.7323H19.3742V19.9143H19.374C19.374 20.0564 19.3173 20.1926 19.2165 20.2932C19.1155 20.3937 18.9787 20.4502 18.8358 20.4502H12.916L12.9162 9.7323Z"/>
</svg>
