<svg width="18" height="19" viewBox="0 0 18 19" fill="none" xmlns="http://www.w3.org/2000/svg">
<path d="M17.5624 9.29274C17.5624 8.67411 17.5126 8.05547 17.4131 7.44946H8.96338V10.9466H13.8042C13.6051 12.0703 12.958 13.0803 12.0122 13.7116V15.9841H14.8993C16.5917 14.4059 17.5624 12.0703 17.5624 9.29274Z" fill="#4285F4"/>
<path d="M8.9636 18.1811C11.3778 18.1811 13.4187 17.3731 14.8995 15.9843L12.0124 13.7118C11.2036 14.2673 10.1707 14.5829 8.9636 14.5829C6.62407 14.5829 4.64543 12.9795 3.9361 10.8333H0.961914V13.1815C2.48012 16.2495 5.57875 18.1811 8.9636 18.1811Z" fill="#34A853"/>
<path d="M3.93614 10.8334C3.56275 9.70975 3.56275 8.48511 3.93614 7.34884V5.01318H0.961475C-0.320492 7.5761 -0.320492 10.6061 0.961475 13.1691L3.93614 10.8334Z" fill="#FBBC04"/>
<path d="M8.9636 3.59897C10.2454 3.57372 11.4773 4.0661 12.3982 4.96249L14.9617 2.3617C13.3315 0.821431 11.1911 -0.0244568 8.9636 0.000793601C5.57875 0.000793601 2.48012 1.94507 0.961914 5.01299L3.9361 7.36128C4.64543 5.20237 6.62407 3.59897 8.9636 3.59897Z" fill="#EA4335"/>
</svg>
