<svg width="33" height="33" viewBox="0 0 33 33" fill="none" xmlns="http://www.w3.org/2000/svg">
<circle cx="15.8561" cy="15.8564" r="7" fill="white"/>
<path d="M8.06113 24.121C6.46674 22.539 5.37731 20.5197 4.9306 18.3184C4.4839 16.1172 4.69998 13.8329 5.55154 11.7545C6.40309 9.67608 7.85186 7.89687 9.71464 6.64185C11.5774 5.38684 13.7705 4.71241 16.0166 4.70384C18.2627 4.69528 20.4609 5.35297 22.3331 6.59374C24.2054 7.83451 25.6677 9.60263 26.5351 11.6745C27.4025 13.7464 27.636 16.0289 27.2061 18.2335C26.7762 20.4381 25.7022 22.4656 24.1199 24.0598C21.9969 26.1945 19.1138 27.3999 16.1032 27.4114C13.0925 27.4229 10.2003 26.2395 8.06113 24.121ZM15.1507 17.0111L15.1471 20.3392C15.1475 20.4614 15.1721 20.5823 15.2192 20.695C15.2664 20.8076 15.3353 20.9099 15.422 20.996C15.5088 21.082 15.6116 21.1502 15.7246 21.1965C15.8377 21.2428 15.9587 21.2664 16.0809 21.2659C16.203 21.2655 16.3239 21.2409 16.4366 21.1938C16.5493 21.1466 16.6516 21.0777 16.7376 20.991C16.8237 20.9043 16.8918 20.8014 16.9381 20.6884C16.9844 20.5754 17.008 20.4543 17.0076 20.3321L17.0101 17.004L20.3394 17.0076C20.4652 17.0096 20.5903 16.9865 20.7071 16.9396C20.8239 16.8927 20.9303 16.8229 21.0198 16.7344C21.1094 16.646 21.1804 16.5405 21.2287 16.4242C21.277 16.308 21.3017 16.1832 21.3012 16.0573C21.3007 15.9314 21.2751 15.8069 21.2259 15.691C21.1767 15.5751 21.1049 15.4702 21.0147 15.3824C20.9244 15.2946 20.8176 15.2257 20.7004 15.1797C20.5832 15.1337 20.458 15.1115 20.3321 15.1145L17.003 15.1435L17.0083 11.8147C17.0075 11.5635 16.9069 11.323 16.7287 11.1459C16.5505 10.9689 16.3093 10.8699 16.0581 10.8707C15.8069 10.8715 15.5663 10.972 15.3893 11.1502C15.2122 11.3284 15.1132 11.5696 15.114 11.8208L15.143 15.15L11.8137 15.1464C11.6894 15.1469 11.5663 15.172 11.4516 15.2201C11.3369 15.2682 11.2328 15.3384 11.1452 15.4267C11.0577 15.5151 10.9884 15.6198 10.9413 15.7349C10.8942 15.85 10.8702 15.9733 10.8708 16.0977C10.8713 16.2221 10.8964 16.3451 10.9445 16.4598C10.9926 16.5745 11.0628 16.6786 11.1511 16.7662C11.2395 16.8537 11.3442 16.923 11.4593 16.9701C11.5744 17.0172 11.6977 17.0412 11.8221 17.0406L15.1496 17.0111L15.1507 17.0111Z" fill="#00CDB3"/>
</svg>
