<svg width="36" height="35" viewBox="0 0 36 35" fill="none" xmlns="http://www.w3.org/2000/svg">
<path d="M17.9641 34.2759C27.4291 34.2759 35.102 26.603 35.102 17.1379C35.102 7.67291 27.4291 0 17.9641 0C8.49909 0 0.826172 7.67291 0.826172 17.1379C0.826172 26.603 8.49909 34.2759 17.9641 34.2759Z" fill="white" fill-opacity="0.2"/>
<path d="M25.7175 14.0501V21.3205C25.7175 21.9968 25.4488 22.6455 24.9706 23.1238C24.4923 23.6021 23.8436 23.8707 23.1672 23.8707H11.946C11.2696 23.8707 10.6209 23.6021 10.1427 23.1238C9.66438 22.6455 9.39569 21.9968 9.39569 21.3205V14.0501L17.2975 18.6998C17.376 18.7461 17.4655 18.7705 17.5566 18.7705C17.6477 18.7705 17.7372 18.7461 17.8157 18.6998L25.7175 14.0501ZM23.1672 10.6093C23.7948 10.6092 24.4003 10.8404 24.868 11.2588C25.3357 11.6772 25.6327 12.2533 25.7022 12.877L17.5566 17.6684L9.41099 12.877C9.48052 12.2533 9.77754 11.6772 10.2452 11.2588C10.7129 10.8404 11.3185 10.6092 11.946 10.6093H23.1672Z" fill="#8ABC49"/>
</svg>
