<svg width="39" height="39" viewBox="0 0 39 39" fill="none" xmlns="http://www.w3.org/2000/svg">
<circle opacity="0.2" cx="19.5" cy="19.5" r="19.5" fill="#323232"/>
<path fill-rule="evenodd" clip-rule="evenodd" d="M19.329 21.8325C17.8731 21.8325 16.6751 20.7391 16.6751 19.3673V15.9123C16.6751 15.5742 16.4007 15.2998 16.0626 15.2998C15.7246 15.2998 15.4502 15.5742 15.4502 15.9123V19.3673C15.4502 21.395 17.1774 23.0574 19.3289 23.0574C20.3399 23.0574 21.2586 22.6891 21.947 22.0906C22.2019 21.8684 22.2288 21.4814 22.0066 21.2266C21.7853 20.9709 21.3975 20.9448 21.1426 21.1662C20.6666 21.5809 20.0287 21.8325 19.3289 21.8325L19.329 21.8325Z" fill="#323232"/>
<path fill-rule="evenodd" clip-rule="evenodd" d="M23.2079 19.3674V14.0905C23.2079 12.0628 21.4807 10.4004 19.3292 10.4004C17.6437 10.4004 16.2163 11.4228 15.6796 12.8371C15.5596 13.1531 15.7189 13.5067 16.0348 13.6267C16.3509 13.7467 16.7052 13.5874 16.8252 13.2715C17.1911 12.3055 18.1784 11.6253 19.3289 11.6253C20.7849 11.6253 21.9828 12.7187 21.9828 14.0905V19.3674C21.9828 19.7055 22.2572 19.9799 22.5953 19.9799C22.9334 19.9799 23.2077 19.7055 23.2077 19.3674L23.2079 19.3674Z" fill="#323232"/>
<path fill-rule="evenodd" clip-rule="evenodd" d="M19.3292 23.8744C16.7618 23.8744 14.6336 22.1686 14.6336 19.9957V18.3625C14.6336 18.0244 14.3592 17.75 14.0211 17.75C13.6831 17.75 13.4087 18.0244 13.4087 18.3625V19.9957C13.4087 22.7844 16.0332 25.0993 19.3292 25.0993C20.9061 25.0993 22.3359 24.5677 23.3902 23.7119C23.6523 23.4988 23.6924 23.1126 23.4792 22.8504C23.2661 22.5883 22.8807 22.5482 22.6177 22.7614C21.7652 23.4538 20.6048 23.8744 19.3292 23.8744H19.3292Z" fill="#323232"/>
<path fill-rule="evenodd" clip-rule="evenodd" d="M25.1473 20.9421C25.2135 20.6351 25.2486 20.319 25.2486 19.9957V18.3625C25.2486 18.0244 24.9742 17.75 24.6362 17.75C24.2981 17.75 24.0237 18.0244 24.0237 18.3625V19.9957C24.0237 20.23 23.9984 20.4596 23.9502 20.6825C23.8782 21.0124 24.0881 21.3391 24.4189 21.4109C24.7488 21.4828 25.0756 21.2729 25.1473 20.9421L25.1473 20.9421Z" fill="#323232"/>
<path fill-rule="evenodd" clip-rule="evenodd" d="M18.7163 24.4875V27.3456C18.7163 27.6837 18.9907 27.9581 19.3288 27.9581C19.6668 27.9581 19.9412 27.6837 19.9412 27.3456V24.4875C19.9412 24.1494 19.6668 23.875 19.3288 23.875C18.9907 23.875 18.7163 24.1494 18.7163 24.4875Z" fill="#323232"/>
<path fill-rule="evenodd" clip-rule="evenodd" d="M21.7787 26.7314H16.8791C16.541 26.7314 16.2666 27.0058 16.2666 27.3439C16.2666 27.682 16.541 27.9563 16.8791 27.9563H21.7787C22.1167 27.9563 22.3911 27.682 22.3911 27.3439C22.3911 27.0058 22.1167 26.7314 21.7787 26.7314Z" fill="#323232"/>
<path fill-rule="evenodd" clip-rule="evenodd" d="M13.1794 13.8956L24.612 25.3282C24.8504 25.5674 25.2392 25.5674 25.4776 25.3282C25.7168 25.0898 25.7168 24.701 25.4776 24.4626L14.045 13.03C13.8066 12.7908 13.4178 12.7908 13.1794 13.03C12.9402 13.2684 12.9402 13.6572 13.1794 13.8956Z" fill="#323232"/>
</svg>
