<svg width="20" height="20" viewBox="0 0 20 20" fill="none" xmlns="http://www.w3.org/2000/svg">
<g clip-path="url(#clip0_455_23675)">
<path d="M8.14974 7.94401C9.99069 7.94401 11.4831 6.45162 11.4831 4.61068C11.4831 2.76973 9.99069 1.27734 8.14974 1.27734C6.30879 1.27734 4.81641 2.76973 4.81641 4.61068C4.81641 6.45162 6.30879 7.94401 8.14974 7.94401Z" fill="#2F80ED"/>
<path d="M9.13355 17.6782C8.94996 17.4966 8.83015 17.2604 8.79209 17.005C8.75403 16.7496 8.79977 16.4888 8.92244 16.2615L9.21688 15.706L8.61133 15.5226C8.36439 15.4454 8.14941 15.2896 7.99901 15.0791C7.84862 14.8685 7.77102 14.6146 7.778 14.356V13.2171C7.77753 12.9596 7.85992 12.7087 8.01298 12.5016C8.16605 12.2946 8.38167 12.1422 8.628 12.0671L9.23355 11.8838L8.94466 11.3282C8.82558 11.1041 8.78027 10.8481 8.81519 10.5967C8.8501 10.3453 8.96346 10.1114 9.13911 9.9282C8.71171 9.87217 8.28126 9.84248 7.85022 9.83931C6.57706 9.80934 5.31298 10.0607 4.14813 10.5754C2.98328 11.0901 1.94636 11.8556 1.11133 12.8171V17.1226C1.11133 17.27 1.16986 17.4113 1.27405 17.5155C1.37823 17.6197 1.51954 17.6782 1.66688 17.6782H9.13355Z" fill="#2F80ED"/>
<path d="M18.7219 13.033L17.6108 12.6996C17.5338 12.4253 17.4257 12.1606 17.2886 11.9107L17.8442 10.8774C17.8656 10.8391 17.8735 10.7946 17.8664 10.7512C17.8593 10.7078 17.8378 10.6681 17.8053 10.6385L16.9997 9.82742C16.9687 9.79722 16.9291 9.77729 16.8864 9.77034C16.8437 9.76338 16.7998 9.76973 16.7608 9.78853L15.733 10.3441C15.4801 10.2067 15.2139 10.095 14.9386 10.0107L14.5997 8.89964C14.5848 8.85867 14.5576 8.82332 14.5218 8.79845C14.4859 8.77358 14.4433 8.76041 14.3997 8.76075H13.2442C13.2008 8.76196 13.1589 8.77647 13.1242 8.80231C13.0894 8.82815 13.0634 8.86407 13.0497 8.90519L12.7164 10.0163C12.4357 10.098 12.1654 10.2117 11.9108 10.3552L10.9053 9.79964C10.8662 9.77886 10.8215 9.7709 10.7777 9.77688C10.7338 9.78286 10.6929 9.80248 10.6608 9.83297L9.84415 10.633C9.812 10.664 9.79081 10.7046 9.78379 10.7487C9.77678 10.7928 9.78431 10.838 9.80526 10.8774L10.3608 11.8885C10.212 12.1395 10.0909 12.4058 9.99971 12.683L8.8886 13.0219C8.84657 13.034 8.80968 13.0596 8.78359 13.0947C8.7575 13.1298 8.74365 13.1726 8.74415 13.2163V14.3552C8.74365 14.3989 8.7575 14.4416 8.78359 14.4768C8.80968 14.5119 8.84657 14.5375 8.8886 14.5496L9.99971 14.8885C10.083 15.1606 10.1947 15.4232 10.333 15.6719L9.77749 16.7274C9.75654 16.7669 9.749 16.812 9.75602 16.8561C9.76303 16.9003 9.78422 16.9409 9.81638 16.9719L10.6442 17.7774C10.6763 17.8079 10.7171 17.8275 10.761 17.8335C10.8049 17.8395 10.8495 17.8315 10.8886 17.8107L11.9275 17.2552C12.1747 17.3882 12.4355 17.4943 12.7053 17.5719L13.0386 18.7107C13.0526 18.7528 13.0794 18.7893 13.1153 18.8152C13.1512 18.8411 13.1943 18.8551 13.2386 18.8552H14.3775C14.4208 18.854 14.4627 18.8395 14.4975 18.8136C14.5323 18.7878 14.5583 18.7519 14.5719 18.7107L14.9053 17.5719C15.1719 17.4953 15.429 17.3891 15.6719 17.2552L16.7219 17.8107C16.761 17.8315 16.8057 17.8395 16.8495 17.8335C16.8934 17.8275 16.9343 17.8079 16.9664 17.7774L17.7775 16.9719C17.808 16.9398 17.8276 16.8989 17.8336 16.855C17.8396 16.8111 17.8316 16.7665 17.8108 16.7274L17.2553 15.683C17.3882 15.4396 17.4943 15.1825 17.5719 14.9163L18.683 14.5774C18.7248 14.564 18.7615 14.5382 18.7883 14.5035C18.815 14.4688 18.8307 14.4268 18.833 14.383V13.233C18.8344 13.1927 18.8248 13.1528 18.8052 13.1176C18.7856 13.0823 18.7568 13.0531 18.7219 13.033ZM13.8164 15.6552C13.4491 15.6563 13.0898 15.5484 12.784 15.3452C12.4781 15.142 12.2394 14.8525 12.0981 14.5136C11.9568 14.1746 11.9193 13.8014 11.9902 13.4411C12.0612 13.0807 12.2375 12.7496 12.4968 12.4895C12.7561 12.2295 13.0867 12.0522 13.4468 11.9802C13.8069 11.9081 14.1802 11.9445 14.5196 12.0848C14.859 12.2251 15.1491 12.4629 15.3533 12.7682C15.5574 13.0734 15.6664 13.4324 15.6664 13.7996C15.6664 14.2908 15.4716 14.7619 15.1249 15.1098C14.7781 15.4576 14.3075 15.6537 13.8164 15.6552Z" fill="#2F80ED"/>
</g>
<defs>
<clipPath id="clip0_455_23675">
<rect width="20" height="20" fill="white"/>
</clipPath>
</defs>
</svg>
