<svg width="42" height="43" viewBox="0 0 42 43" fill="none" xmlns="http://www.w3.org/2000/svg">
<path d="M20.9998 42.4492C32.5977 42.4492 41.9998 33.0472 41.9998 21.4492C41.9998 9.85124 32.5977 0.449219 20.9998 0.449219C9.40178 0.449219 -0.000244141 9.85124 -0.000244141 21.4492C-0.000244141 33.0472 9.40178 42.4492 20.9998 42.4492Z" fill="#FF8900"/>
<path d="M12.0897 21.4492C11.9087 21.4492 12.0897 31.4492 12.0897 31.4492C12.0682 31.6885 12.1408 31.9267 12.292 32.1134C12.4432 32.3001 12.6612 32.4205 12.8997 32.4492H29.1857C29.4261 32.4242 29.6468 32.3049 29.7994 32.1175C29.952 31.93 30.024 31.6897 29.9997 31.4492V21.4492H12.0897Z" fill="white" fill-opacity="0.9"/>
<path d="M29.6707 21.4492H12.3287C12.2324 21.4596 12.144 21.5073 12.0825 21.5821C12.021 21.6568 11.9913 21.7528 11.9997 21.8492V23.4492H29.9997V21.8492C30.0081 21.7528 29.9784 21.6568 29.9168 21.5821C29.8553 21.5073 29.767 21.4596 29.6707 21.4492V21.4492Z" fill="#E6DDDC"/>
<path d="M22.6728 19.4492H19.3268C19.1468 19.4492 18.9998 19.4762 18.9998 19.5102V21.3882C18.9998 21.4222 19.1468 21.4492 19.3268 21.4492H22.6728C22.8528 21.4492 22.9998 21.4222 22.9998 21.3882V19.5102C22.9998 19.4762 22.8528 19.4492 22.6728 19.4492Z" fill="#FFDB57"/>
<path d="M22.6728 21.4492H19.3268C19.1468 21.4492 18.9998 22.4382 18.9998 23.6582V32.4492H22.9998V23.6582C22.9998 22.4382 22.8528 21.4492 22.6728 21.4492Z" fill="#ECCB53"/>
<path d="M30.6257 12.3623C30.2977 11.418 29.7934 10.5446 29.1397 9.78832C29.0354 9.67518 28.9076 9.58622 28.7652 9.52766C28.6229 9.4691 28.4695 9.44236 28.3157 9.44932C27.2377 9.47632 25.4797 10.9293 23.0927 13.7663C23.0321 13.8389 22.9991 13.9307 22.9997 14.0253V16.0643C22.9965 16.1629 23.0324 16.2588 23.0997 16.331C23.167 16.4031 23.2601 16.4457 23.3587 16.4493H28.8847C29.294 16.4927 29.7063 16.4006 30.0582 16.1871C30.4101 15.9735 30.6822 15.6504 30.8327 15.2673C31.0997 14.304 31.0266 13.2781 30.6257 12.3623Z" fill="#FFDB57"/>
<path d="M30.8187 13.2653C30.8083 13.2179 30.7915 13.1721 30.7687 13.1293C30.1897 12.0493 28.9407 12.4493 27.9937 12.9823C26.3711 13.8525 25.0128 15.1437 24.0617 16.7203C24.0238 16.7947 24.0029 16.8766 24.0003 16.9601C23.9977 17.0436 24.0135 17.1266 24.0467 17.2033C24.0727 17.2725 24.1183 17.3327 24.178 17.3764C24.2377 17.4201 24.3088 17.4454 24.3827 17.4493H28.7417C29.1049 17.4735 29.4678 17.3988 29.7919 17.2333C30.1161 17.0678 30.3893 16.8176 30.5827 16.5093C31.0688 15.4967 31.1531 14.3376 30.8187 13.2653Z" fill="#EF9325"/>
<path d="M18.9066 13.7663C16.5196 10.9293 14.7616 9.47634 13.6836 9.44934C13.5299 9.44232 13.3764 9.46902 13.2341 9.52758C13.0917 9.58615 12.9639 9.67515 12.8596 9.78834C12.2059 10.5446 11.7016 11.4181 11.3736 12.3623C10.9729 13.2781 10.8998 14.304 11.1666 15.2673C11.3172 15.6504 11.5893 15.9736 11.9412 16.1871C12.2931 16.4006 12.7053 16.4927 13.1146 16.4493H18.6406C18.7392 16.4457 18.8324 16.4031 18.8996 16.331C18.9669 16.2588 19.0029 16.1629 18.9996 16.0643V14.0253C19.0002 13.9307 18.9673 13.839 18.9066 13.7663Z" fill="#FFDB57"/>
<path d="M17.9376 16.7204C16.9865 15.1439 15.6282 13.8527 14.0056 12.9824C13.0586 12.4494 11.8096 12.0494 11.2306 13.1284C11.2077 13.1716 11.1909 13.2177 11.1806 13.2654C10.8458 14.3376 10.9298 15.4968 11.4156 16.5094C11.6091 16.8179 11.8825 17.0682 12.2068 17.2338C12.5312 17.3993 12.8943 17.4738 13.2576 17.4494H17.6166C17.6908 17.4457 17.7622 17.4203 17.8221 17.3764C17.882 17.3325 17.9277 17.272 17.9536 17.2024C17.9865 17.1258 18.0021 17.043 17.9993 16.9597C17.9965 16.8764 17.9755 16.7947 17.9376 16.7204Z" fill="#EF9325"/>
<path d="M22.5178 14.4492H18.4818C18.2158 14.4492 17.9998 14.6112 17.9998 14.8112V17.0872C17.9998 17.2872 18.2158 17.4492 18.4818 17.4492H22.5178C22.7838 17.4492 22.9998 17.2872 22.9998 17.0872V14.8112C22.9998 14.6112 22.7838 14.4492 22.5178 14.4492Z" fill="#F5BA3D"/>
<path d="M31.1537 15.4492H10.8457C10.6016 15.4714 10.376 15.5887 10.2177 15.7758C10.0594 15.9629 9.98109 16.2048 9.99969 16.4492V20.4492C9.98677 20.571 9.99865 20.694 10.0346 20.8111C10.0706 20.9281 10.1299 21.0366 10.2089 21.13C10.288 21.2235 10.3852 21.3 10.4946 21.3548C10.6041 21.4097 10.7235 21.4418 10.8457 21.4492H31.6527C31.8447 21.4492 31.9997 20.7282 31.9997 20.4492V16.4492C31.8527 16.0218 31.5508 15.665 31.1537 15.4492V15.4492Z" fill="white"/>
<path d="M22.9998 15.4492H18.9998V21.4492H22.9998V15.4492Z" fill="#FFDB57"/>
</svg>
