<svg width="26" height="18" viewBox="0 0 26 18" fill="none" xmlns="http://www.w3.org/2000/svg">
<path d="M24.0184 9.13377C24.0118 6.67443 23.1738 4.28957 21.6404 2.36677C21.5634 2.26677 21.4784 2.17577 21.3994 2.07877C21.1504 1.76777 21.0714 1.43877 21.4084 1.15377C21.7654 0.853773 22.0484 1.05377 22.2984 1.35377C23.3935 2.62802 24.2012 4.12329 24.6664 5.73777C25.7995 9.47098 25.0367 13.5223 22.6234 16.5878C22.4908 16.7685 22.3411 16.9359 22.1764 17.0878C22.0857 17.1777 21.9627 17.2273 21.835 17.2257C21.7073 17.224 21.5857 17.171 21.4974 17.0788C21.2785 16.9292 21.2122 16.636 21.3454 16.4068C21.4786 16.1967 21.6263 15.9962 21.7874 15.8068C23.2462 13.8891 24.0305 11.5432 24.0184 9.13377Z" fill="#A3A8B4" stroke="#F32965"/>
<path d="M1.00046 9.12986C1.0213 6.33376 2.00522 3.63028 3.78646 1.47486C3.97246 1.24686 4.13646 0.974861 4.50046 1.00186C4.70351 1.0117 4.8839 1.13454 4.96746 1.31986C5.13846 1.63186 4.95046 1.84186 4.77246 2.05386C1.36006 6.03971 1.24898 11.8842 4.50746 15.9969C4.58346 16.0969 4.66646 16.1899 4.74546 16.2869C4.8709 16.3971 4.93888 16.5588 4.92991 16.7255C4.92093 16.8923 4.83601 17.0457 4.69946 17.1419C4.39146 17.3859 4.09946 17.2839 3.85546 16.9909C2.75953 15.6876 1.95 14.1684 1.47946 12.5319C1.15164 11.428 0.990204 10.2814 1.00046 9.12986Z" fill="#A3A8B4" stroke="#F32965"/>
<path d="M7.35439 3.93091C7.5552 3.95696 7.73309 4.07334 7.83739 4.24691C7.96782 4.4718 7.92089 4.75754 7.72539 4.92891C7.09142 5.70754 6.64645 6.62246 6.42539 7.60191C5.96648 9.50062 6.3484 11.505 7.47339 13.1019C7.51539 13.1639 7.56139 13.2239 7.60739 13.2829C7.85539 13.6059 7.90139 13.9529 7.55839 14.2069C7.19939 14.4739 6.90639 14.2709 6.67639 13.9489C5.03806 11.7913 4.62653 8.94194 5.58739 6.40891C5.8557 5.65385 6.24697 4.94834 6.74539 4.32091C6.88081 4.10733 7.10375 3.96457 7.35439 3.93091V3.93091Z" fill="#A3A8B4" stroke="#F32965"/>
<path d="M21.0394 9.22689C21.0502 10.8861 20.5302 12.5052 19.5554 13.8479C19.3274 14.1709 19.0554 14.4869 18.6424 14.2209C18.1834 13.9269 18.3874 13.5579 18.6264 13.1919C20.3904 10.7663 20.3456 7.46864 18.5164 5.09189C18.2784 4.74489 18.1164 4.40589 18.5164 4.11589C18.9164 3.82589 19.2024 4.09389 19.4534 4.41589C20.4901 5.80502 21.0467 7.49363 21.0394 9.22689Z" fill="#A3A8B4" stroke="#F32965"/>
<path d="M16.8315 6.67679L16.6995 6.71879L15.9995 6.78079L15.7995 7.09679L15.6555 7.05079L15.0975 6.55079L15.0165 6.28979L14.9095 6.00779L14.5585 5.69379L14.1445 5.61279L14.1345 5.80179L14.5395 6.20179L14.7395 6.43479L14.5165 6.55079L14.3355 6.49779L14.0635 6.38479L14.0725 6.16579L13.7155 6.01879L13.5975 6.53379L13.2385 6.61479L13.2745 6.90279L13.7425 6.99279L13.8235 6.53379L14.2105 6.59079L14.3905 6.69579H14.6785L14.8785 7.09579L15.4015 7.62679L15.3635 7.83279L14.9415 7.77879L14.2125 8.14679L13.6875 8.77679L13.6195 9.05579H13.4315L13.0805 8.89379L12.7395 9.05579L12.8245 9.41579L12.9725 9.24479L13.2335 9.23679L13.2155 9.55979L13.4315 9.62279L13.6475 9.86479L13.9995 9.76479L14.3995 9.82879L14.8675 9.95479L15.1005 9.98179L15.5005 10.4308L16.2645 10.8798L15.7705 11.8238L15.2485 12.0658L15.0485 12.6048L14.2935 13.1048L14.2135 13.3958C15.611 13.0596 16.7556 12.0608 17.278 10.7216C17.8003 9.38248 17.6343 7.87248 16.8335 6.67879L16.8315 6.67679Z" fill="#A3A8B4"/>
<path d="M13.6845 11.422L13.3645 10.828L13.6585 10.215L13.3645 10.127L13.0345 9.79596L12.3035 9.63196L12.0605 9.12396V9.42396H11.9535L11.3235 8.56996V7.86996L10.8615 7.11896L10.1275 7.24996H9.63351L9.38551 7.08596L9.70251 6.83496L9.38651 6.90796C8.58962 8.26663 8.58132 9.948 9.36476 11.3145C10.1482 12.6809 11.6034 13.5232 13.1785 13.522C13.3631 13.5204 13.5474 13.5077 13.7305 13.484L13.6845 12.951C13.6845 12.951 13.8845 12.16 13.8845 12.133C13.8845 12.106 13.6845 11.422 13.6845 11.422Z" fill="#A3A8B4"/>
<path fill-rule="evenodd" clip-rule="evenodd" d="M10.4165 6.14385L11.1975 6.03485L11.5575 5.83485L11.9625 5.95185L12.6095 5.91585L12.8325 5.56985L13.1555 5.62585L13.9405 5.54985L14.1575 5.31085L14.4625 5.11085L14.8925 5.17185L15.0515 5.14785C13.2356 4.28906 11.0684 4.77451 9.79248 6.32585L10.4165 6.14385ZM13.3655 5.16285L13.8145 4.91585L14.1025 5.08285L13.6855 5.39985L13.2855 5.43985L13.1075 5.32585L13.3655 5.16285ZM12.2355 5.28185L12.0355 5.19885C12.0285 5.25185 11.7475 5.43285 11.7475 5.43285L12.0335 5.60085L12.6335 5.44385L12.4925 5.19885L12.2355 5.28185Z" fill="#A3A8B4"/>
</svg>
