<svg width="61" height="60" viewBox="0 0 61 60" fill="none" xmlns="http://www.w3.org/2000/svg">
<path d="M30.5 60C47.3447 60 61 46.5685 61 30C61 13.4315 47.3447 0 30.5 0C13.6553 0 0 13.4315 0 30C0 46.5685 13.6553 60 30.5 60Z" fill="#FEE998"/>
<path d="M39.4109 45.7422L21.6192 45.7588C17.705 45.7623 14.4999 42.6158 14.4954 38.7658L14.4785 21.2658C14.475 17.4158 17.6739 14.2632 21.5881 14.2588L39.3797 14.2422C43.2939 14.2387 46.4991 17.3852 46.5035 21.2352L46.5204 38.7352C46.5249 42.5861 43.325 45.7387 39.4109 45.7422Z" fill="url(#paint0_radial_455_26350)"/>
<path d="M39.4109 45.7422L21.6192 45.7588C17.705 45.7623 14.4999 42.6158 14.4954 38.7658L14.4785 21.2658C14.475 17.4158 17.6739 14.2632 21.5881 14.2588L39.3797 14.2422C43.2939 14.2387 46.4991 17.3852 46.5035 21.2352L46.5204 38.7352C46.5249 42.5861 43.325 45.7387 39.4109 45.7422Z" fill="url(#paint1_radial_455_26350)"/>
<path d="M30.4998 36.125C27.0669 36.125 24.2727 33.3775 24.2727 30C24.2727 26.6225 27.0669 23.875 30.4998 23.875C33.9327 23.875 36.7269 26.6225 36.7269 30C36.7269 33.3775 33.9327 36.125 30.4998 36.125ZM30.4998 25.625C28.0472 25.625 26.0519 27.5876 26.0519 30C26.0519 32.4124 28.0472 34.375 30.4998 34.375C32.9524 34.375 34.9477 32.4124 34.9477 30C34.9477 27.5876 32.9524 25.625 30.4998 25.625Z" fill="white"/>
<path d="M37.1718 24.75C37.9087 24.75 38.5062 24.1624 38.5062 23.4375C38.5062 22.7126 37.9087 22.125 37.1718 22.125C36.4348 22.125 35.8374 22.7126 35.8374 23.4375C35.8374 24.1624 36.4348 24.75 37.1718 24.75Z" fill="white"/>
<path d="M35.8374 41.375H25.1624C21.7295 41.375 18.9353 38.6275 18.9353 35.25V24.75C18.9353 21.3725 21.7295 18.625 25.1624 18.625H35.8374C39.2703 18.625 42.0645 21.3725 42.0645 24.75V35.25C42.0645 38.6275 39.2703 41.375 35.8374 41.375ZM25.1624 20.375C22.7098 20.375 20.7145 22.3376 20.7145 24.75V35.25C20.7145 37.6624 22.7098 39.625 25.1624 39.625H35.8374C38.29 39.625 40.2853 37.6624 40.2853 35.25V24.75C40.2853 22.3376 38.29 20.375 35.8374 20.375H25.1624Z" fill="white"/>
<defs>
<radialGradient id="paint0_radial_455_26350" cx="0" cy="0" r="1" gradientUnits="userSpaceOnUse" gradientTransform="translate(26.39 45.7816) scale(39.9414 39.2866)">
<stop stop-color="#FFDD55"/>
<stop offset="0.328" stop-color="#FF543F"/>
<stop offset="0.348" stop-color="#FC5245"/>
<stop offset="0.504" stop-color="#E64771"/>
<stop offset="0.643" stop-color="#D53E91"/>
<stop offset="0.761" stop-color="#CC39A4"/>
<stop offset="0.841" stop-color="#C837AB"/>
</radialGradient>
<radialGradient id="paint1_radial_455_26350" cx="0" cy="0" r="1" gradientUnits="userSpaceOnUse" gradientTransform="translate(19.6345 13.8487) scale(26.5211 17.3813)">
<stop stop-color="#4168C9"/>
<stop offset="0.999" stop-color="#4168C9" stop-opacity="0"/>
</radialGradient>
</defs>
</svg>
