<svg viewBox="0 0 19 21" xmlns="http://www.w3.org/2000/svg">
<path fill-rule="evenodd" d="M16.5 13.5H17V13V11.5635C17.1712 11.4644 17.338 11.3582 17.5 11.2452V17.75C17.5 18.1111 17.4289 18.4687 17.2907 18.8024C17.1525 19.136 16.9499 19.4392 16.6945 19.6945C16.4392 19.9499 16.136 20.1525 15.8024 20.2907C15.4687 20.4289 15.1111 20.5 14.75 20.5H3.25C2.88886 20.5 2.53127 20.4289 2.19762 20.2907C1.86398 20.1525 1.56082 19.9499 1.30546 19.6945C1.0501 19.4392 0.847532 19.136 0.709331 18.8024C0.571131 18.4687 0.5 18.1111 0.5 17.75V6.25C0.5 5.52065 0.789731 4.82118 1.30546 4.30546C1.82118 3.78973 2.52065 3.5 3.25 3.5H6.78971C6.74057 3.66498 6.69756 3.83176 6.66079 4H3.25C2.65326 4 2.08097 4.23705 1.65901 4.65901C1.23705 5.08097 1 5.65326 1 6.25V13V13.5H1.5H5.99998C5.99999 13.5 5.99999 13.5 6 13.5C6.06041 13.5 6.11876 13.5219 6.16429 13.5616C6.20669 13.5986 6.23528 13.6487 6.24565 13.7037L6.25006 13.768C6.25478 14.4908 6.54397 15.1831 7.05546 15.6945C7.57118 16.2103 8.27065 16.5 9 16.5C9.72935 16.5 10.4288 16.2103 10.9445 15.6945C11.4603 15.1788 11.75 14.4793 11.75 13.75C11.75 13.6837 11.7763 13.6201 11.8232 13.5732C11.8701 13.5263 11.9337 13.5 12 13.5H16.5ZM14.501 8.504V8.5038L14.5002 6.5H16.503C16.7682 6.5 17.0226 6.39464 17.2101 6.20711C17.3976 6.01957 17.503 5.76521 17.503 5.5C17.503 5.23479 17.3976 4.98043 17.2101 4.79289C17.0226 4.60536 16.7682 4.5 16.503 4.5H14.5V2.5C14.5 2.23478 14.3946 1.98043 14.2071 1.79289C14.0196 1.60536 13.7652 1.5 13.5 1.5C13.2348 1.5 12.9804 1.60536 12.7929 1.79289C12.6054 1.98043 12.5 2.23478 12.5 2.5V4.5H10.496C10.2308 4.5 9.97643 4.60536 9.78889 4.79289C9.60136 4.98043 9.496 5.23478 9.496 5.5C9.496 5.76522 9.60136 6.01957 9.78889 6.20711C9.97643 6.39464 10.2308 6.5 10.496 6.5H12.501V8.504C12.501 8.76922 12.6064 9.02357 12.7939 9.21111C12.9814 9.39864 13.2358 9.504 13.501 9.504C13.7662 9.504 14.0206 9.39864 14.2081 9.21111C14.3956 9.02357 14.501 8.76922 14.501 8.504ZM17.0355 1.96447C17.9732 2.90215 18.5 4.17392 18.5 5.5C18.5 6.82608 17.9732 8.09785 17.0355 9.03553C16.0979 9.97322 14.8261 10.5 13.5 10.5C12.1739 10.5 10.9021 9.97322 9.96447 9.03553C9.02678 8.09785 8.5 6.82608 8.5 5.5C8.5 4.17392 9.02678 2.90215 9.96447 1.96447C10.9021 1.02678 12.1739 0.5 13.5 0.5C14.8261 0.5 16.0979 1.02678 17.0355 1.96447Z"/>
</svg>
