<svg width="43" height="42" viewBox="0 0 43 42" fill="none" xmlns="http://www.w3.org/2000/svg">
<g filter="url(#filter0_d_6_281)">
<path d="M10.7529 9.49881L10.2925 9.30395C10.1658 9.60331 10.1004 9.92456 10.1004 10.2492C10.1004 11.6197 11.2301 12.7109 12.6026 12.7111C12.6027 12.7111 12.6029 12.7111 12.603 12.7111L10.7529 9.49881ZM10.7529 9.49881L10.2925 9.30394C10.4192 9.00461 10.6045 8.73332 10.8375 8.5053C11.0705 8.2773 11.3464 8.097 11.6494 7.97417C11.9523 7.85136 12.2767 7.78827 12.604 7.78827C12.9312 7.78827 13.2556 7.85136 13.5585 7.97417C13.8615 8.097 14.1375 8.27731 14.3704 8.5053C14.6034 8.73332 14.7888 9.0046 14.9154 9.30394C15.0421 9.60317 15.1074 9.92424 15.1075 10.2488L10.7529 9.49881ZM5.39383 12.2944L5.39367 12.3059L5.39298 12.3174C5.29021 14.0363 5.28975 14.5872 5.28606 18.9971L5.28603 19.0377C5.28603 19.0378 5.28603 19.038 5.28603 19.0381C5.28603 23.4801 5.31018 24.0268 5.38964 25.7668L5.38979 25.7668L5.39005 25.7794C5.41675 27.084 5.66747 28.3691 6.13508 29.5881C6.5403 30.6092 7.15859 31.5373 7.95123 32.3131C8.74393 33.089 9.69364 33.6955 10.7402 34.0933C11.988 34.5514 13.3065 34.7986 14.6394 34.8243L14.6489 34.8245L14.6584 34.825C16.4173 34.926 16.9844 34.9261 21.5282 34.9261C26.0654 34.9261 26.6245 34.9025 28.4049 34.8247L28.4049 34.8247L28.4106 34.8245C29.747 34.7815 31.0659 34.5156 32.3105 34.0384L32.3124 34.0377C33.3603 33.6407 34.3112 33.0345 35.1049 32.2583C35.8978 31.4828 36.5162 30.5547 36.9214 29.5336C37.389 28.3126 37.6397 27.0275 37.6664 25.7248L37.6666 25.715L37.6672 25.7051C37.7703 23.9829 37.7704 23.4306 37.7704 18.9831C37.7704 14.5425 37.7463 13.9958 37.6668 12.2539L37.6667 12.2539L37.6664 12.2408C37.6413 10.9406 37.3894 9.65394 36.9214 8.43633C36.517 7.41476 35.899 6.4862 35.1062 5.7103C34.3135 4.93439 33.3635 4.32825 32.3166 3.93118C31.0691 3.47312 29.751 3.22525 28.4184 3.19826L28.4094 3.19808L28.4004 3.19757C26.6413 3.09841 26.0739 3.09827 21.5301 3.09827C16.9925 3.09827 16.4336 3.12009 14.6554 3.19788L14.6554 3.19802L14.6436 3.19826C13.3104 3.22505 11.9917 3.47292 10.7437 3.93117C9.69693 4.32852 8.74705 4.93478 7.95433 5.71066C7.16156 6.48659 6.54341 7.41509 6.13868 8.43659C5.66375 9.67078 5.41177 10.9761 5.39383 12.2944ZM30.6373 18.974C30.6373 23.9083 26.5562 27.8875 21.5413 27.8875C19.1322 27.8875 16.8198 26.951 15.1132 25.2806C13.4062 23.6098 12.4452 21.3415 12.4452 18.974C12.4452 16.6065 13.4062 14.3381 15.1132 12.6674C16.8198 10.997 19.1322 10.0605 21.5413 10.0605C26.5562 10.0605 30.6373 14.0397 30.6373 18.974Z" fill="url(#paint0_linear_6_281)" stroke="white"/>
<path d="M17.7605 19.0122C17.7605 20.8748 19.4089 22.4516 21.5282 22.4516C23.6474 22.4516 25.2958 20.8748 25.2958 19.0122C25.2958 17.1497 23.6474 15.5729 21.5282 15.5729C19.4089 15.5729 17.7605 17.1497 17.7605 19.0122Z" fill="url(#paint1_linear_6_281)" stroke="white"/>
</g>
<defs>
<filter id="filter0_d_6_281" x="0.786026" y="0.598267" width="41.4844" height="40.8279" filterUnits="userSpaceOnUse" color-interpolation-filters="sRGB">
<feFlood flood-opacity="0" result="BackgroundImageFix"/>
<feColorMatrix in="SourceAlpha" type="matrix" values="0 0 0 0 0 0 0 0 0 0 0 0 0 0 0 0 0 0 127 0" result="hardAlpha"/>
<feOffset dy="2"/>
<feGaussianBlur stdDeviation="2"/>
<feComposite in2="hardAlpha" operator="out"/>
<feColorMatrix type="matrix" values="0 0 0 0 1 0 0 0 0 1 0 0 0 0 1 0 0 0 1 0"/>
<feBlend mode="normal" in2="BackgroundImageFix" result="effect1_dropShadow_6_281"/>
<feBlend mode="normal" in="SourceGraphic" in2="effect1_dropShadow_6_281" result="shape"/>
</filter>
<linearGradient id="paint0_linear_6_281" x1="21.5282" y1="2.59827" x2="21.5282" y2="35.4261" gradientUnits="userSpaceOnUse">
<stop stop-color="#FB9988"/>
<stop offset="1" stop-color="#F000D8"/>
</linearGradient>
<linearGradient id="paint1_linear_6_281" x1="21.5282" y1="15.0729" x2="21.5282" y2="22.9516" gradientUnits="userSpaceOnUse">
<stop stop-color="#FB9988"/>
<stop offset="1" stop-color="#F000D8"/>
</linearGradient>
</defs>
</svg>
