<svg width="22" height="21" viewBox="0 0 22 21" fill="none" xmlns="http://www.w3.org/2000/svg">
<path d="M21.7149 7.32766H21.7039C21.6479 3.87966 18.9859 0.805664 15.6859 0.805664C14.7555 0.830955 13.8447 1.0782 13.0292 1.52681C12.2138 1.97541 11.5173 2.61239 10.9979 3.38466C10.4787 2.61266 9.78253 1.97585 8.96744 1.52726C8.15236 1.07867 7.24191 0.83127 6.31189 0.805664C3.01889 0.805664 0.352889 3.87966 0.296889 7.32766H0.285889C0.285889 7.34966 0.285889 7.36866 0.285889 7.38866C0.285889 7.40866 0.285889 7.41966 0.285889 7.43666C0.285889 7.53666 0.308889 7.60666 0.312889 7.69966C0.606889 16.4877 10.9129 20.0907 10.9129 20.0907C10.9129 20.0907 21.3729 16.4907 21.6819 7.71266C21.6879 7.61266 21.7119 7.53766 21.7119 7.43666C21.7119 7.41966 21.7119 7.40366 21.7119 7.38866C21.7119 7.37366 21.7149 7.34866 21.7149 7.32766Z" fill="white"/>
</svg>
