<svg width="226" height="230" viewBox="0 0 226 230" fill="none" xmlns="http://www.w3.org/2000/svg">
<g clip-path="url(#clip0_806_15339)">
<path d="M74.8962 171.482C73.9168 170.312 73.3669 168.89 73.2464 167.215C73.0769 164.691 72.4893 164.301 74.2295 156.741C75.9697 149.181 78.0489 136.39 79.145 133.453C79.8682 131.495 80.5688 129.232 81.2468 126.662C89.6012 92.5678 94.2154 73.3373 95.0893 68.9704C96.3888 62.4085 99.6432 46.4628 101.282 41.7938C102.92 37.1362 103.146 34.796 107.248 34.5436C111.35 34.3027 128.176 39.2814 136.074 41.2087C143.962 43.1474 159.092 47.805 164.053 49.4684C169.014 51.1318 174.37 53.8621 174.189 60.5386C173.997 67.2267 168.392 86.0863 166.675 94.2427C164.957 102.399 162.29 115.305 161.273 122.429C160.256 129.553 157.047 139.614 155.883 144.248C155.107 147.338 154.241 150.887 153.284 154.894C151.702 160.278 150.538 164.454 149.793 167.421C148.674 171.884 147.849 176.702 147.476 177.528C147.114 178.365 145.453 189.436 136.334 188.162C127.215 186.877 111.802 182.587 108.491 181.428C105.169 180.258 81.9248 174.534 79.1224 173.593C77.2541 172.966 75.8454 172.262 74.8962 171.482Z" fill="#CBC0D0"/>
<path d="M100.547 44.2378C101.259 44.0887 102.841 44.0772 107.655 45.4883C112.48 46.8993 129.972 51.6715 136.006 53.5988C142.041 55.5261 150.12 57.0633 154.776 58.5087C157.879 59.4647 163.089 60.8643 170.404 62.7074C168.106 72.5349 166.569 79.3644 165.793 83.196C165.017 87.0352 163.529 93.8915 161.33 103.765C158.354 118.219 156.294 127.519 155.149 131.664C153.431 137.87 150.583 150.455 149.476 154.183C148.73 156.661 146.877 162.959 143.916 173.077C133.95 170.439 126.906 168.531 122.785 167.353C116.616 165.575 99.3606 162.615 95.2022 160.688C91.0325 158.772 80.3653 157.005 78.1956 156.397C76.7492 156 75.3292 155.671 73.9355 155.411L81.0319 126.64C88.9947 95.2222 93.2925 78.2249 93.9253 75.6476C94.8745 71.7701 97.6317 57.4189 98.6374 53.5529C99.6544 49.6984 99.8239 44.3984 100.547 44.2378Z" fill="white"/>
<path d="M39.0524 95.0123C38.6833 90.1482 39.5647 86.2325 41.6966 83.2652C44.8945 78.8026 47.5726 77.8505 54.104 77.013C60.6241 76.1871 79.6646 77.0933 84.953 76.5083C90.2527 75.9232 99.8238 77.4375 102.298 78.7453C104.773 80.0531 106.965 91.8231 106.717 98.5456C106.457 105.268 105.971 119.55 104.445 122.005C102.92 124.472 97.0327 126.548 95.1456 126.502C93.8875 126.472 92.7349 126.575 91.6878 126.812C91.0701 128.762 90.5729 130.303 90.1962 131.435C89.6199 133.133 89.1001 134.831 88.4447 133.271C87.778 131.71 85.6084 128.384 83.9586 127.466C82.3088 126.56 74.2745 127.248 71.9241 127.409C69.5737 127.569 53.0305 128.418 47.5839 123.543C42.126 118.679 42.691 115.352 41.4367 110.74C40.6005 107.673 39.8058 102.431 39.0524 95.0123Z" fill="white"/>
<path d="M63.6758 86.9355C73.8157 86.5607 79.0514 86.4345 79.3828 86.5569C79.88 86.7519 79.8348 88.5301 79.0325 90.2967C78.2302 92.0519 73.2808 101.929 72.2412 103.122C71.2016 104.315 70.8174 106.07 68.0602 100.966C65.303 95.8491 64.2521 91.6274 63.6758 89.8264C63.2916 88.618 63.2916 87.6544 63.6758 86.9355Z" fill="white"/>
<path d="M37.8104 54.7455C37.6672 54.1337 38.5863 53.541 40.5676 52.9674C43.5395 52.0955 52.6586 49.6405 54.5457 50.0421C56.4328 50.4321 56.7379 51.889 57.1108 54.1375C57.495 56.3745 57.8679 60.229 57.1673 61.0665C56.4667 61.9039 54.2632 62.7299 49.6302 64.0262C44.9859 65.3225 42.0592 65.7355 41.2343 65.0472C40.3981 64.3589 38.8726 60.9173 38.737 60.1602C38.639 59.6631 38.3302 57.8582 37.8104 54.7455Z" fill="#FFD2B3"/>
<path d="M76.3094 60.1609C75.6766 60.746 74.9986 61.5834 73.4279 62.0194C71.8685 62.4438 70.1848 60.7919 69.1904 58.7155C68.196 56.6391 68.1734 53.6335 69.1113 52.016C70.0492 50.387 72.4448 48.7809 74.2302 49.2742C76.0269 49.7675 77.4507 51.6489 78.0383 53.9203C78.6259 56.1917 77.575 57.1439 77.2586 57.6601C76.9422 58.1763 76.9309 59.5759 76.3094 60.1609Z" fill="#C0CBE1"/>
<path d="M84.0723 44.536C81.0138 44.6507 78.6257 43.3467 76.9081 40.6241C74.3317 36.5402 74.5577 35.8404 76.377 32.1809C78.2076 28.5214 81.0439 26.0894 85.0667 26.7318C89.1008 27.3742 92.7507 30.919 92.9428 34.1884C93.1349 37.4694 92.6829 39.0639 90.7393 41.2092C88.807 43.3429 87.0442 43.8477 86.1176 44.0542C85.4999 44.1995 84.8181 44.3601 84.0723 44.536Z" fill="#FFB3D0"/>
<path d="M41.6292 31.539C40.8382 28.9922 41.6367 26.0249 44.0248 22.6369C47.5956 17.5434 52.2851 16.6486 57.4718 17.4516C62.6472 18.2546 68.6023 24.633 68.9074 27.8909C69.2125 31.1604 68.1503 35.2443 66.3988 37.8829C64.6473 40.5214 63.4269 42.0586 61.2912 43.0337C59.1555 43.9973 52.9179 45.8099 49.5731 43.5729C46.2396 41.3473 43.4146 38.7203 42.6236 36.2768C42.1038 34.6555 41.7723 33.0762 41.6292 31.539Z" fill="#BAE1FF"/>
<path d="M45.7651 35.6574C45.686 34.9232 45.6521 32.5371 45.799 30.4722C45.9459 28.4072 45.6069 28.0746 46.4092 27.6386C46.9365 27.3404 48.5637 27.1568 51.2908 27.088C51.7654 27.0727 51.9838 26.7094 51.9462 25.9982C51.8897 24.9313 52.0479 21.8683 52.8841 21.0653C53.7316 20.2623 54.9746 20.5376 55.2119 21.6504C55.3625 22.3846 55.5396 23.9103 55.743 26.2276C57.6941 26.2888 59.3062 26.3308 60.5794 26.3538C62.4891 26.3997 63.8564 26.9962 63.7886 29.13C63.7208 31.2522 63.3479 34.9347 62.6473 35.6689C61.9354 36.3916 61.5625 36.449 57.9691 36.5866C55.5735 36.6708 53.2871 36.5254 51.11 36.1507C50.4244 36.4643 49.5732 36.6708 48.5562 36.7702C47.042 36.9078 45.8329 36.3801 45.7651 35.6574Z" fill="white"/>
<path d="M84.0153 41.2328C81.7703 39.4814 80.516 37.8104 80.2524 36.2196C79.8682 33.8335 80.2863 32.7437 81.7214 32.1701C83.1565 31.608 84.2639 32.4569 84.3995 32.9157C84.4899 33.2293 84.7121 33.8794 85.0662 34.8659C85.5935 33.6423 86.2188 32.8049 86.942 32.3536C88.0155 31.6883 89.7896 31.8489 89.6879 32.8584C89.5862 33.8679 90.3659 33.409 88.7726 35.9213C87.168 38.4337 86.5578 39.2367 85.9589 39.7988C85.5521 40.1735 84.9042 40.6515 84.0153 41.2328Z" fill="white"/>
<path fill-rule="evenodd" clip-rule="evenodd" d="M92.0609 127.236C92.0157 127.293 91.9705 127.385 91.9253 127.488C91.801 127.798 91.688 128.211 91.5637 128.67C91.2473 129.92 90.9196 131.526 90.4563 132.582C90.2529 133.029 90.0269 133.396 89.767 133.626C89.4054 133.958 88.9986 134.084 88.5353 133.97C88.2528 133.901 88.0042 133.729 87.7782 133.431C87.5635 133.144 87.3714 132.708 87.1793 132.192C86.9081 131.503 86.6369 130.654 86.2075 129.851C85.6199 128.762 84.7498 127.764 83.1452 127.534C79.5179 127.018 75.4951 127.844 71.8678 128.027C67.0427 128.257 60.8842 128.509 55.3811 127.339C51.6408 126.536 48.1943 125.091 45.6518 122.567C41.4595 118.426 40.9397 112.013 39.8436 106.598C38.7701 101.275 37.7418 93.0614 39.6063 86.6716C40.8832 82.2665 43.5161 78.7332 48.3412 77.4598C53.5957 76.0717 59.6299 76.5765 65.0087 76.3815C75.2126 76.0144 85.8798 75.5784 96.0159 76.8403C96.2532 76.8748 96.4453 77.0468 96.5018 77.2533C96.5696 77.0239 96.7956 76.8633 97.0442 76.8633C100.107 76.8633 103.417 77.8269 104.773 80.9587C106.355 84.6067 107.203 93.1647 107.226 101.734C107.259 110.315 106.468 118.884 104.875 122.578C104.107 124.345 102.638 125.435 100.92 126.089C99.2929 126.708 97.4397 126.938 95.8125 127.041C94.5582 127.121 93.4395 127.11 92.6824 127.156C92.4338 127.167 92.1513 127.213 92.0609 127.236ZM96.4905 77.5745C96.4114 77.8269 96.1515 77.999 95.8803 77.9646C85.8007 76.7141 75.2013 77.1386 65.0539 77.5172C59.7542 77.7007 53.8104 77.1845 48.635 78.5496C44.2393 79.7083 41.8663 82.9663 40.7024 86.9814C38.8944 93.1991 39.9227 101.195 40.9623 106.369C41.5047 109.019 41.8889 111.91 42.646 114.651C43.3805 117.301 44.4766 119.814 46.4541 121.764C48.8497 124.138 52.1041 125.481 55.6297 126.226C61.0311 127.385 67.0766 127.133 71.8113 126.892C75.5064 126.708 79.6083 125.894 83.3034 126.421C86.151 126.823 87.2358 129.106 87.9477 130.987C88.1511 131.538 88.3206 132.054 88.5127 132.433C88.5692 132.559 88.637 132.673 88.7048 132.754C88.7387 132.811 88.7613 132.868 88.8178 132.88C88.9421 132.903 89.0212 132.788 89.1116 132.651C89.3376 132.352 89.5184 131.893 89.6879 131.366C90.0834 130.127 90.3659 128.567 90.6936 127.546C90.8744 127.006 91.0778 126.593 91.2925 126.387C91.4281 126.249 91.7445 126.112 92.2417 126.054C92.9875 125.985 94.2644 125.997 95.7447 125.917C97.2589 125.825 98.9878 125.618 100.513 125.033C101.937 124.483 103.18 123.611 103.824 122.131C105.384 118.529 106.118 110.131 106.084 101.746C106.062 93.3597 105.271 84.9738 103.723 81.4061C102.559 78.7102 99.6658 77.9875 97.0442 77.9875C96.7843 77.9875 96.5583 77.8154 96.4905 77.5745Z" fill="#6D4B5C"/>
<path d="M49.2003 86.8101C49.5167 86.7872 49.7879 87.0281 49.8105 87.3378C49.9122 88.8177 48.5901 95.9302 48.5562 100.255C48.5449 101.276 48.6127 102.136 48.8048 102.698C48.8425 102.806 48.8877 102.897 48.9404 102.974C48.963 103.008 48.9743 103.043 49.0082 103.054C50.1608 103.329 51.6072 102.939 52.7711 102.939C53.0875 102.939 53.3361 103.192 53.3361 103.502C53.3361 103.811 53.0875 104.064 52.7711 104.064C51.5168 104.064 49.9687 104.454 48.737 104.144C48.3076 104.041 47.946 103.685 47.72 103.066C47.5053 102.423 47.4036 101.437 47.4149 100.244C47.4488 95.9416 48.7709 88.8865 48.6692 87.4066C48.6466 87.0969 48.8839 86.833 49.2003 86.8101Z" fill="#6D4B5C"/>
<path d="M58.9526 87.0844C59.269 87.0729 59.5402 87.3253 59.5515 87.635C59.7436 92.3729 59.4724 97.1337 59.4724 101.86C59.4724 102.181 59.2125 102.434 58.8961 102.434C58.5797 102.434 58.3311 102.181 58.3311 101.86C58.3311 97.1566 58.591 92.4073 58.4102 87.6809C58.3989 87.3597 58.6362 87.1073 58.9526 87.0844Z" fill="#6D4B5C"/>
<path fill-rule="evenodd" clip-rule="evenodd" d="M63.7211 86.0979C63.8228 86.0405 63.9358 86.0061 64.0714 86.0176C65.2353 86.1094 74.1058 85.1801 78.0834 85.5817C78.8631 85.662 79.4733 85.7996 79.8462 85.9832C80.0948 86.1094 80.2756 86.27 80.366 86.4306C80.4677 86.5912 80.5242 86.7977 80.5355 87.0615C80.5468 87.463 80.4338 88.0596 80.2078 88.7708C79.0439 92.4532 74.8855 99.9213 73.8685 101.436C73.586 101.849 72.7159 103.696 71.8119 104.567C71.2243 105.13 70.5915 105.313 70.0378 105.038C69.857 104.946 69.6197 104.751 69.3937 104.453C68.9756 103.936 68.4784 103.042 67.9473 101.94C66.2636 98.4185 64.2296 92.74 63.6307 91.1799C63.5968 91.0881 63.5855 90.9848 63.5516 90.8816C63.5403 90.8242 63.5403 90.7554 63.5177 90.6981C63.4838 90.6292 63.4386 90.5604 63.4047 90.4801C63.3821 90.4457 62.6363 88.5528 62.625 87.4286C62.625 86.5912 63.0092 86.0979 63.6872 86.0979C63.7023 86.0979 63.7136 86.0979 63.7211 86.0979ZM79.3829 87.0271C79.3151 86.9927 79.1004 86.9009 78.9196 86.855C78.2981 86.7059 77.3941 86.6371 76.3206 86.6141C71.9475 86.5338 65.0432 87.2221 63.981 87.1418C63.9283 87.1801 63.868 87.2068 63.8002 87.2221C63.7889 87.3368 63.7776 87.6236 63.8115 87.8301C63.9471 88.7937 64.4443 90.0098 64.4556 90.0442C64.4895 90.1245 64.546 90.2162 64.5799 90.308C64.6251 90.3998 64.6364 90.503 64.659 90.6063C64.6816 90.6636 64.6816 90.721 64.7042 90.7784C65.2918 92.327 67.3145 97.9597 68.9869 101.459C69.405 102.33 69.7892 103.065 70.1395 103.558C70.2977 103.787 70.422 103.971 70.5576 104.028C70.5915 104.051 70.6367 104.028 70.6706 104.005C70.7309 103.982 70.7874 103.948 70.8401 103.902C71.0096 103.776 71.1678 103.604 71.3373 103.397C72.0605 102.491 72.682 101.137 72.9193 100.805C73.7894 99.5198 77.0099 93.7495 78.5693 89.9065C78.9648 88.9543 79.2473 88.1284 79.349 87.5319C79.3829 87.3712 79.3942 87.2221 79.3942 87.1074C79.3942 87.0845 79.3942 87.05 79.3829 87.0271Z" fill="#6D4B5C"/>
<path d="M85.5976 102.63C86.3321 103.055 87.1683 102.894 88.0045 102.894C89.5413 102.894 91.4623 102.619 92.92 102.137C93.2251 102.045 93.5415 102.206 93.6432 102.504C93.7449 102.791 93.5867 103.112 93.2816 103.215C91.7109 103.732 89.6543 104.018 88.0045 104.018C86.9536 104.018 85.914 104.133 84.9874 103.582C84.8292 103.491 84.671 103.33 84.5467 103.089C84.3659 102.745 84.219 102.183 84.1286 101.518C83.8574 99.5099 83.9591 96.4126 83.9817 95.816C84.106 92.8678 83.8348 89.8278 84.1286 86.891C84.1625 86.5813 84.445 86.3518 84.7614 86.3862C85.0665 86.4092 85.3038 86.6845 85.2699 86.9942C84.9761 89.9195 85.2473 92.9366 85.123 95.8619C85.1004 96.4355 84.9987 99.4296 85.2586 101.357C85.3151 101.747 85.3829 102.08 85.462 102.343C85.5072 102.458 85.575 102.596 85.5976 102.63Z" fill="#6D4B5C"/>
<path d="M92.7616 93.4863C92.9424 93.4519 93.1232 93.5093 93.2701 93.6469C93.4848 93.8649 93.4848 94.2205 93.2701 94.4385C93.2362 94.4729 93.1571 94.5532 92.9876 94.5876C92.965 94.5991 92.8746 94.6105 92.7051 94.622C91.5412 94.7138 85.8234 95.0694 85.3262 95.012C85.0098 94.9661 84.7838 94.6908 84.829 94.3811C84.8629 94.0714 85.1454 93.8534 85.4618 93.8878C85.9364 93.9452 91.4847 93.5896 92.6147 93.4978C92.6712 93.4978 92.739 93.4863 92.7616 93.4863Z" fill="#6D4B5C"/>
<path d="M84.2299 86.5579C84.2864 86.2597 84.5802 86.0417 84.8966 86.0991C85.2469 86.1564 85.7215 86.0647 86.2074 85.9729C86.795 85.8467 87.3939 85.709 87.8572 85.6861C88.9533 85.6173 90.0607 85.9155 91.1681 85.9155C91.4732 85.9155 91.7331 86.1794 91.7331 86.4891C91.7331 86.7989 91.4732 87.0512 91.1681 87.0512C90.0833 87.0512 88.9985 86.753 87.9137 86.8103C87.4052 86.8333 86.7272 87.0283 86.0831 87.143C85.5746 87.2348 85.0887 87.2807 84.7045 87.2118C84.3881 87.1659 84.1847 86.8677 84.2299 86.5579Z" fill="#6D4B5C"/>
<path d="M57.6073 109.569C57.5056 109.867 57.1779 110.017 56.8841 109.913C56.24 109.695 55.5959 109.443 54.9066 109.569C54.3755 109.649 53.4489 110.235 52.8613 110.911C52.6805 111.118 52.5336 111.336 52.4432 111.554C52.3867 111.703 52.3641 111.852 52.398 111.99C52.5562 112.483 52.9065 112.816 53.3246 113.068C53.8444 113.378 54.4659 113.584 55.0761 113.814C56.5677 114.353 58.0028 114.995 58.4209 116.636C58.8164 118.219 57.7768 119.515 56.4208 120.02C55.0648 120.536 53.4376 120.238 52.737 118.747C52.6014 118.46 52.7257 118.127 53.0082 118.001C53.2907 117.863 53.641 117.989 53.7653 118.265C54.1947 119.16 55.2004 119.274 56.014 118.965C56.8502 118.655 57.5508 117.886 57.3022 116.911C56.9971 115.661 55.8219 115.282 54.6919 114.869C54.0026 114.628 53.302 114.376 52.737 114.032C52.0703 113.63 51.5505 113.102 51.3132 112.322C51.0985 111.646 51.3923 110.865 51.9912 110.177C52.7709 109.282 54.0139 108.56 54.7145 108.445C55.6072 108.307 56.4321 108.56 57.257 108.846C57.5621 108.95 57.7203 109.271 57.6073 109.569Z" fill="#6D4B5C"/>
<path d="M62.6921 108.584C63.0085 108.607 63.2458 108.871 63.2345 109.181C63.1893 110.362 63.4153 114.137 63.3588 116.672C63.3362 117.876 63.2232 118.817 63.0424 119.184C62.9068 119.46 62.5565 119.574 62.274 119.437C61.9915 119.299 61.8785 118.955 62.0254 118.68C62.1723 118.381 62.1949 117.613 62.2175 116.649C62.2627 114.102 62.048 110.317 62.0932 109.124C62.1045 108.814 62.3757 108.573 62.6921 108.584Z" fill="#6D4B5C"/>
<path d="M60.0712 109.765C59.9243 109.489 60.026 109.145 60.2972 108.996C61.5176 108.342 63.1787 108.354 64.5347 108.354C64.8511 108.354 65.111 108.606 65.111 108.916C65.111 109.225 64.8511 109.478 64.5347 109.478C63.3595 109.478 61.9018 109.42 60.8509 109.994C60.5684 110.143 60.2181 110.04 60.0712 109.765Z" fill="#6D4B5C"/>
<path d="M68.7271 108.468C69.0435 108.491 69.2808 108.755 69.2582 109.076C69.0435 112.254 68.987 115.569 68.987 118.747C68.987 119.057 68.7271 119.309 68.422 119.309C68.1056 119.309 67.8457 119.057 67.8457 118.747C67.8457 115.546 67.9022 112.197 68.1169 108.996C68.1395 108.686 68.4107 108.445 68.7271 108.468Z" fill="#6D4B5C"/>
<path d="M69.9023 114.457C69.8458 114.468 69.7215 114.491 69.665 114.491C69.5633 114.491 69.4729 114.468 69.4051 114.434C69.2017 114.342 69.0548 114.181 69.0548 113.895C69.0548 113.654 69.1678 113.447 69.4051 113.298C69.5068 113.241 69.6537 113.183 69.8232 113.149C70.0492 113.103 70.3204 113.103 70.3995 113.092C71.6764 112.908 72.8064 112.048 73.0098 110.694C73.0776 110.212 73.0098 109.845 72.8064 109.593C72.603 109.329 72.2753 109.18 71.9137 109.088C71.021 108.87 69.8797 109.019 69.0887 109.249C68.7836 109.329 68.4672 109.157 68.3768 108.847C68.2977 108.549 68.4672 108.239 68.7723 108.159C69.7328 107.895 71.1114 107.734 72.1849 107.998C72.8177 108.147 73.3488 108.446 73.7104 108.893C74.072 109.352 74.2641 109.983 74.1398 110.855C73.9251 112.357 72.8855 113.447 71.5747 113.952C71.7442 114.055 71.8911 114.17 71.9928 114.285C72.5126 114.847 72.8516 115.581 73.1793 116.304C73.4618 116.9 73.7217 117.497 74.1624 117.933C74.3771 118.151 74.3771 118.506 74.1624 118.724C73.9364 118.954 73.5748 118.954 73.3488 118.724C72.8177 118.208 72.4787 117.497 72.1397 116.763C71.8572 116.155 71.586 115.524 71.1453 115.053C70.8967 114.778 70.3091 114.48 69.9023 114.457Z" fill="#6D4B5C"/>
<path d="M78.3093 118.368C78.3319 118.38 78.3997 118.414 78.4562 118.426C78.6257 118.471 78.8404 118.494 79.089 118.517C80.3885 118.621 82.3434 118.426 82.8519 118.426C83.1683 118.426 83.4282 118.678 83.4282 118.988C83.4282 119.297 83.1683 119.55 82.8519 119.55C82.3321 119.55 80.332 119.745 78.9986 119.642C78.524 119.607 78.1172 119.527 77.8573 119.412C77.6652 119.332 77.5296 119.217 77.4279 119.102C77.281 118.907 77.1341 118.598 77.0437 118.185C76.942 117.703 76.8855 117.06 76.8742 116.338C76.829 113.642 77.2923 109.696 77.3262 108.686C77.3375 108.376 77.5974 108.135 77.9138 108.147C78.2302 108.147 78.4788 108.411 78.4675 108.72C78.4449 109.73 77.9703 113.642 78.0155 116.315C78.0268 116.957 78.072 117.531 78.1624 117.955C78.2076 118.127 78.2415 118.276 78.3093 118.368Z" fill="#6D4B5C"/>
<path d="M77.5629 113.368C77.5742 113.058 77.8454 112.817 78.1505 112.829C79.2692 112.874 80.4218 113.196 81.5292 112.978C81.8343 112.92 82.1394 113.115 82.1959 113.425C82.2637 113.723 82.0603 114.022 81.7552 114.09C80.5574 114.32 79.3031 114.01 78.1053 113.964C77.7889 113.941 77.5516 113.677 77.5629 113.368Z" fill="#6D4B5C"/>
<path d="M77.5067 108.629C77.4163 108.32 77.5971 108.01 77.9022 107.93C79.0435 107.608 80.23 107.505 81.3713 107.826C81.6764 107.918 81.8459 108.228 81.7668 108.526C81.6764 108.824 81.36 109.008 81.0549 108.916C80.117 108.652 79.1452 108.756 78.2186 109.008C77.9135 109.1 77.5971 108.928 77.5067 108.629Z" fill="#6D4B5C"/>
<path d="M86.5241 108.939C86.5015 108.962 86.4827 108.985 86.4676 109.008C86.3094 109.226 86.2981 109.352 86.2755 109.627C86.1173 111.084 85.9704 112.484 85.9704 113.952C85.9704 115.478 86.0156 116.981 86.219 118.495C86.2642 118.805 86.0495 119.092 85.7331 119.126C85.4167 119.172 85.1342 118.954 85.089 118.644C84.8743 117.084 84.8291 115.524 84.8291 113.952C84.8291 112.449 84.976 111.015 85.1342 109.513C85.1907 108.985 85.2472 108.756 85.541 108.343C85.8122 107.975 86.1173 107.815 86.3885 107.78C86.6823 107.746 86.9761 107.838 87.2586 108.079C87.5185 108.297 87.7897 108.675 88.0383 109.18C89.2248 111.578 90.2192 117.061 90.2192 118.025C90.2192 118.346 89.9593 118.598 89.6429 118.598C89.3265 118.598 89.0779 118.346 89.0779 118.025C89.0779 117.107 88.1287 111.933 87.01 109.673C86.8857 109.421 86.7614 109.203 86.6371 109.054C86.6032 109.019 86.558 108.973 86.5241 108.939Z" fill="#6D4B5C"/>
<path d="M84.9192 114.732C84.8853 114.422 85.1226 114.147 85.439 114.124C85.7893 114.09 86.1283 113.975 86.4673 113.872C86.8967 113.746 87.3487 113.631 87.8233 113.631C88.1397 113.631 88.3996 113.883 88.3996 114.193C88.3996 114.503 88.1397 114.755 87.8233 114.755C87.4617 114.755 87.1227 114.858 86.795 114.95C86.3769 115.076 85.9701 115.214 85.5407 115.248C85.2243 115.271 84.9418 115.042 84.9192 114.732Z" fill="#6D4B5C"/>
<path d="M96.265 109.834C96.4119 109.49 96.5814 109.123 96.7735 108.778C97.2481 107.907 97.8809 107.161 98.638 106.84C99.1578 106.622 99.6889 106.828 100.051 107.585C100.819 109.203 100.988 114.067 100.955 114.881C100.909 115.707 100.593 116.648 100.593 117.428C100.593 117.738 100.333 117.99 100.017 117.99C99.7002 117.99 99.4516 117.738 99.4516 117.428C99.4516 116.625 99.768 115.673 99.8132 114.824C99.8471 114.159 99.7341 110.591 99.2369 108.687C99.1578 108.411 99.0109 108.102 98.9318 107.952C98.525 108.182 98.1973 108.618 97.9035 109.1C97.3385 110.029 96.9656 111.165 96.7509 111.773C96.6605 112.036 96.5701 112.231 96.5249 112.312C96.4345 112.438 96.3441 112.507 96.2763 112.541C96.1407 112.599 96.0277 112.61 95.9373 112.599C95.7942 112.583 95.6699 112.522 95.5644 112.415C95.5079 112.358 95.4401 112.266 95.4175 112.128C95.3949 112.059 95.3949 111.922 95.3836 111.853C95.3497 111.543 95.2254 110.017 94.8751 108.939C94.796 108.698 94.7056 108.469 94.5926 108.308C94.57 108.274 94.5135 108.216 94.4909 108.193C94.1293 108.331 93.892 108.641 93.7112 109.042C93.4852 109.547 93.3609 110.189 93.3044 110.878C93.1236 113.138 93.6208 115.96 93.8016 117.199C93.8468 117.509 93.6321 117.795 93.327 117.841C93.0106 117.887 92.7168 117.669 92.6716 117.359C92.4456 115.845 91.8015 112.082 92.3326 109.627C92.6038 108.388 93.1801 107.459 94.118 107.127C94.7621 106.897 95.3384 107.218 95.7226 107.998C95.9712 108.492 96.1407 109.18 96.265 109.834Z" fill="#6D4B5C"/>
<path fill-rule="evenodd" clip-rule="evenodd" d="M93.1011 75.9575C93.1576 75.6363 93.1802 75.3151 93.248 74.9939C93.4514 74.0073 93.7 72.9978 93.8469 71.9768C94.2989 68.822 95.282 65.6903 95.96 62.5585C96.5928 59.6561 97.0448 56.6734 97.6889 53.7825C98.0844 52.0503 98.8189 50.341 99.1127 48.5973C99.9037 43.9512 101.068 38.8234 103.825 34.923C104.006 34.6591 104.356 34.6017 104.616 34.7738C104.876 34.9574 104.944 35.313 104.763 35.5654C102.096 39.3396 101 44.2954 100.243 48.7923C99.9489 50.5475 99.2031 52.2797 98.8076 54.0235C98.1635 56.9143 97.7115 59.897 97.0787 62.7994C96.4007 65.8967 95.4289 69.0056 94.9769 72.1374C94.83 73.1813 94.5701 74.2138 94.3667 75.2233C94.3102 75.533 94.2763 75.8428 94.2198 76.164C94.2198 76.1984 94.1407 76.4967 94.0842 76.6343C94.0277 76.772 93.9599 76.8523 93.926 76.8867C93.7 77.1161 93.4514 77.0817 93.2819 77.0014C93.2028 76.967 92.9316 76.8523 92.9316 76.4508C92.9316 76.3131 92.9768 76.1984 93.0559 76.0951L93.1011 75.9575ZM94.0842 76.4049V76.4164V76.4049ZM94.0842 76.3819V76.3705V76.3819Z" fill="#6D4B5C"/>
<path d="M80.9418 126.629C81.2469 126.675 81.4616 126.962 81.4164 127.272C80.8853 130.702 79.3937 134.029 78.7044 137.424C77.258 144.594 74.8963 151.73 74.0714 159.014C73.9245 160.299 73.0996 163.144 73.077 165.45C73.077 166.15 73.1448 166.792 73.3482 167.308C73.5177 167.733 73.7776 168.077 74.207 168.238C74.5008 168.352 74.6477 168.685 74.5234 168.972C74.4104 169.27 74.0714 169.408 73.7776 169.293C72.4329 168.754 71.9244 167.262 71.9357 165.438C71.9583 163.087 72.7945 160.196 72.9414 158.888C73.7663 151.569 76.128 144.399 77.5857 137.195C78.2637 133.822 79.7666 130.507 80.2864 127.1C80.3316 126.79 80.6254 126.584 80.9418 126.629Z" fill="#6D4B5C"/>
<path d="M169.884 52.3948C170.156 52.2457 170.506 52.349 170.653 52.6128C172.054 55.1595 171.964 59.1403 171.195 63.4422C170.088 69.6713 167.613 76.5888 166.766 80.5007C161.387 105.337 156.313 130.174 149.759 154.758C148.832 158.256 146.29 168.466 143.872 175.579C142.798 178.699 141.747 181.234 140.866 182.393C140.143 183.345 138.968 183.953 137.826 184.183C137.521 184.24 137.216 184.045 137.16 183.735C137.092 183.437 137.295 183.139 137.6 183.07C138.482 182.898 139.397 182.45 139.951 181.716C140.787 180.603 141.77 178.183 142.787 175.223C145.205 168.134 147.725 157.958 148.663 154.471C155.194 129.898 160.268 105.085 165.647 80.2598C166.494 76.3594 168.958 69.4649 170.065 63.2357C170.777 59.232 170.958 55.5266 169.647 53.1635C169.5 52.8881 169.602 52.544 169.884 52.3948Z" fill="#6D4B5C"/>
<path d="M104.729 34.9696C104.672 34.6599 104.864 34.3616 105.169 34.2928C107.621 33.7766 110.198 34.1092 112.74 34.6943C115.204 35.2564 117.633 36.048 119.916 36.5068C127.916 38.0899 135.544 40.522 143.375 42.7704C146.392 43.6423 149.262 44.8698 152.347 45.5466C153.951 45.9022 161.093 47.7262 165.76 49.3093C167.873 50.0206 169.478 50.7204 169.964 51.2022C170.189 51.4201 170.189 51.7758 169.964 51.9937C169.738 52.2232 169.376 52.2232 169.15 51.9937C169.003 51.8446 168.698 51.684 168.291 51.489C167.568 51.1563 166.562 50.7777 165.387 50.3762C160.765 48.8161 153.68 46.992 152.109 46.6479C148.991 45.9711 146.087 44.7321 143.047 43.8602C135.261 41.6118 127.668 39.1912 119.69 37.6081C117.407 37.1607 114.955 36.3577 112.48 35.7956C110.107 35.2449 107.7 34.9237 105.407 35.3941C105.101 35.4629 104.796 35.2679 104.729 34.9696Z" fill="#6D4B5C"/>
<path d="M100.537 44.2718C100.514 43.9621 100.751 43.6867 101.068 43.6638C102.096 43.595 104.006 43.9047 106.277 44.4439C111.43 45.6599 118.47 47.9542 120.956 48.849C123.329 49.7094 125.86 49.8356 128.222 50.6157C135.759 53.0936 143.635 55.0668 151.341 57.1202C155.703 58.2789 160.065 59.426 164.449 60.5159C166.269 60.9633 168.111 61.9269 169.941 61.9269C170.258 61.9269 170.518 62.1793 170.518 62.489C170.518 62.7987 170.258 63.0511 169.941 63.0511C168.02 63.0511 166.088 62.0875 164.178 61.6057C159.783 60.5273 155.409 59.3802 151.048 58.21C143.318 56.1566 135.42 54.172 127.86 51.6826C125.487 50.9025 122.956 50.7648 120.572 49.9159C118.108 49.0326 111.125 46.7497 106.017 45.5452C103.893 45.0404 102.107 44.7192 101.147 44.788C100.83 44.811 100.559 44.5815 100.537 44.2718Z" fill="#6D4B5C"/>
<path d="M143.103 173.698C142.979 173.675 142.696 173.618 142.527 173.583C142.267 173.537 142.03 173.491 141.928 173.434C141.6 173.273 141.171 173.228 140.741 173.17C140.199 173.113 139.634 173.067 139.148 172.918C135.08 171.713 130.831 170.853 126.809 169.534C120.82 167.56 114.661 165.782 108.548 164.199C105.519 163.408 102.31 163.178 99.3157 162.306C96.9879 161.63 94.7053 160.654 92.3436 160.115C86.6145 158.785 80.8515 157.798 75.1676 156.376C74.8625 156.295 74.6817 155.985 74.7608 155.687C74.8286 155.389 75.145 155.205 75.4501 155.274C81.1227 156.697 86.8857 157.683 92.6035 159.014C94.9878 159.565 97.293 160.54 99.6321 161.217C102.627 162.088 105.824 162.318 108.842 163.098C114.977 164.693 121.159 166.482 127.17 168.455C131.182 169.786 135.419 170.635 139.476 171.839C139.996 171.989 140.617 172.012 141.182 172.092C141.634 172.149 142.064 172.241 142.414 172.413C142.448 172.413 142.685 172.47 142.855 172.493C143.16 172.539 143.476 172.608 143.657 172.688C143.996 172.837 144.098 173.101 144.098 173.319C144.098 173.629 143.849 173.881 143.533 173.881C143.363 173.881 143.205 173.813 143.103 173.698Z" fill="#6D4B5C"/>
<path d="M74.6024 169.246C74.7041 168.948 75.0318 168.799 75.3256 168.914C75.9471 169.132 76.4669 169.556 77.0884 169.763C78.2862 170.164 79.5631 170.199 80.7609 170.589C84.8854 171.942 89.089 172.963 93.3265 173.904C95.8803 174.489 98.2872 175.441 100.83 176.095C103.078 176.669 105.35 177.116 107.61 177.632C110.988 178.412 114.277 179.548 117.622 180.489C123.396 182.129 130.402 183.38 136.391 183.38C136.707 183.38 136.967 183.632 136.967 183.942C136.967 184.251 136.707 184.504 136.391 184.504C130.3 184.504 123.181 183.242 117.305 181.579C113.983 180.638 110.717 179.514 107.35 178.734C105.079 178.206 102.796 177.77 100.536 177.185C98.016 176.531 95.6204 175.579 93.0666 175.017C88.8065 174.053 84.5577 173.032 80.3993 171.655C79.2015 171.265 77.9246 171.231 76.7268 170.841C76.094 170.623 75.5629 170.199 74.9414 169.969C74.6363 169.866 74.4894 169.533 74.6024 169.246Z" fill="#6D4B5C"/>
<path d="M169.975 52.154C170.099 51.8672 170.438 51.741 170.732 51.8672C173.093 52.8767 174.178 55.6529 174.382 59.2321C174.822 67.0559 171.206 78.8144 170.223 82.3248C165.997 97.3758 163.217 112.977 160.471 128.35C159.002 136.609 156.019 144.617 154.245 152.784C153.036 158.348 151.488 163.763 149.985 169.235C149.555 170.772 149.533 172.413 148.798 173.847C148.663 174.133 148.312 174.237 148.03 174.099C147.747 173.961 147.634 173.629 147.781 173.342C148.471 171.977 148.471 170.405 148.877 168.937C150.38 163.488 151.928 158.096 153.126 152.544C154.9 144.387 157.883 136.391 159.352 128.155C162.098 112.748 164.878 97.1004 169.116 82.0265C170.088 78.562 173.681 66.9985 173.24 59.3009C173.15 57.7064 172.89 56.2953 172.393 55.1596C171.918 54.1157 171.24 53.3127 170.268 52.8997C169.986 52.7735 169.85 52.4408 169.975 52.154Z" fill="#6D4B5C"/>
<path d="M72.8963 168.26C73.1788 168.122 73.5178 168.237 73.6647 168.512C74.1054 169.407 74.7156 170.714 75.5066 171.345C76.4106 172.057 78.3429 172.825 80.6933 173.594C86.3658 175.452 94.4905 177.242 97.6432 178.079C104.615 179.915 111.633 181.521 118.627 183.345C121.904 184.194 128.526 186.408 134.334 187.016C138.029 187.406 141.386 187.177 143.216 185.375C145.341 183.265 147.273 177.483 147.996 174.626C148.064 174.328 148.38 174.145 148.685 174.225C148.99 174.294 149.183 174.603 149.103 174.902C148.346 177.907 146.267 183.953 144.018 186.178C141.996 188.175 138.301 188.565 134.21 188.14C128.334 187.521 121.644 185.295 118.345 184.435C111.35 182.611 104.322 181.005 97.3494 179.169C94.1854 178.332 86.0269 176.531 80.3317 174.672C77.8118 173.846 75.7665 172.997 74.7947 172.217C73.8907 171.506 73.1449 170.038 72.6364 169.017C72.4895 168.741 72.6138 168.397 72.8963 168.26Z" fill="#6D4B5C"/>
<path d="M57.7429 17.6466C57.6977 17.9564 57.4152 18.1743 57.0988 18.1284C53.2794 17.6122 50.2171 18.2202 47.8667 19.5509C43.1998 22.2009 41.4144 27.7418 42.228 32.8926C43.0303 38.0434 46.4429 42.8272 52.2398 43.9744C54.5902 44.4332 56.5564 43.9858 58.7373 43.3664C62.7375 42.2421 65.1444 40.1313 66.7264 36.0588C68.0824 32.5829 68.6587 30.4377 68.331 28.4874C68.0033 26.5372 66.7603 24.7935 64.602 22.1206C62.9748 20.113 60.6583 18.897 58.161 18.0711C57.8672 17.9793 57.6977 17.6581 57.7994 17.3598C57.9011 17.0616 58.2288 16.901 58.5226 17.0042C61.2233 17.8875 63.7319 19.2412 65.4947 21.4208C67.8225 24.3003 69.0994 26.1931 69.461 28.2924C69.8113 30.3918 69.2463 32.7205 67.7886 36.4603C66.0597 40.9229 63.4268 43.2172 59.0537 44.4562C56.692 45.1215 54.5563 45.5804 52.0138 45.0756C45.7084 43.8367 41.9681 38.6629 41.098 33.0647C40.2166 27.455 42.2167 21.4552 47.3017 18.5644C49.8329 17.1304 53.1325 16.4536 57.257 17.0157C57.5621 17.0501 57.7881 17.3369 57.7429 17.6466Z" fill="#6D4B5C"/>
<path fill-rule="evenodd" clip-rule="evenodd" d="M46.6015 26.9266C46.658 26.9266 46.9292 26.938 47.1326 26.9036C47.8106 26.8119 48.7259 26.5824 49.5395 26.4906C50.0706 26.4333 50.5678 26.4333 50.952 26.5251C51.4944 26.6627 51.8786 26.961 52.0481 27.4657C52.1837 27.8673 52.1837 28.3491 52.1272 28.8424C52.0594 29.4389 51.9012 30.0698 51.8673 30.5516C51.7769 31.8938 51.9125 33.0754 51.8673 34.0276C51.8221 34.8995 51.6187 35.6107 51.1215 36.1384C50.6356 36.6546 49.8446 37.0332 48.5225 37.1594C48.127 37.2053 47.2682 37.2053 46.6354 37.0676C46.2625 36.9758 45.9687 36.8382 45.7879 36.6661C45.4941 36.3793 45.2794 35.9778 45.1664 35.4616C45.0195 34.8306 45.0082 34.0276 45.0647 33.1672C45.1777 31.2055 45.6749 28.8997 45.4602 27.8328C45.4037 27.6034 45.5054 27.374 45.6975 27.2478C45.7201 27.1445 45.7653 27.0528 45.8444 26.9725C46.0478 26.7774 46.3755 26.7545 46.6015 26.9266ZM46.6354 28.0623C46.7032 29.3127 46.319 31.4235 46.206 33.236C46.1608 33.867 46.1608 34.4521 46.2286 34.9453C46.2851 35.3354 46.3755 35.6566 46.5789 35.8516C46.6806 35.9434 46.884 35.9663 47.0987 36.0007C47.5846 36.0696 48.1383 36.0581 48.4095 36.0352C49.3474 35.9434 49.935 35.7369 50.2853 35.3698C50.613 35.0256 50.6921 34.5438 50.726 33.9702C50.7712 33.0066 50.6356 31.825 50.726 30.4828C50.7486 30.0584 50.8729 29.5307 50.952 29.003C51.0198 28.5785 51.0763 28.1655 50.9633 27.8214C50.8955 27.6493 50.7034 27.6149 50.4887 27.5919C50.0593 27.546 49.5395 27.6263 49.0197 27.7181C48.1609 27.8673 47.3021 28.0623 46.7484 28.0737C46.7107 28.0737 46.6731 28.0699 46.6354 28.0623Z" fill="#6D4B5C"/>
<path d="M56.1839 26.0318C56.3082 26.0318 56.4438 26.0203 56.5907 26.0089C57.2461 25.9515 58.0823 25.8024 58.9524 25.6762C59.879 25.55 60.8282 25.4468 61.6079 25.5271C62.2294 25.5844 62.7492 25.7565 63.1221 26.0433C63.7549 26.548 64.1052 27.2708 64.2521 28.0853C64.4555 29.1407 64.3312 30.3567 64.2408 31.2629C64.0826 32.7887 64.0035 34.7504 63.0204 36.0467C62.8057 36.3335 62.478 36.5629 62.0373 36.735C61.5062 36.9415 60.8056 37.0677 59.992 37.125C57.0879 37.3315 52.7826 36.6891 51.2232 36.6891C50.9068 36.6891 50.6582 36.4367 50.6582 36.1155C50.6582 35.8058 50.9068 35.5534 51.2232 35.5534C52.7713 35.5534 57.0427 36.2073 59.9129 36.0008C60.4779 35.9664 60.9864 35.8861 61.4045 35.7599C61.7096 35.6681 61.9695 35.5534 62.1051 35.3698C62.9639 34.2341 62.9639 32.4904 63.0995 31.1482C63.1673 30.4599 63.269 29.5766 63.2012 28.7506C63.1334 28.0394 62.9526 27.3511 62.4102 26.9266C62.1955 26.7545 61.8678 26.6857 61.5062 26.6513C60.8056 26.5825 59.9468 26.6742 59.1219 26.8004C58.0597 26.9496 57.0427 27.1331 56.3421 27.1446C55.9353 27.156 55.6076 27.0987 55.3929 26.9954C55.3025 26.9496 55.1217 26.8348 55.0652 26.5366C54.9974 26.2268 55.0765 24.8043 54.9522 23.4277C54.8844 22.7509 54.7827 22.0741 54.5567 21.6037C54.4324 21.3399 54.2855 21.1219 54.0143 21.1678C53.438 21.2596 53.1555 21.6267 53.0086 22.097C52.8843 22.51 52.8391 22.9918 52.8165 23.4966C52.7826 24.3455 52.8052 25.2403 52.6583 25.9859C52.5453 26.5825 52.3306 27.0872 51.9577 27.4543C51.7317 27.6723 51.3701 27.6608 51.1441 27.4428C50.9294 27.2134 50.9294 26.8578 51.1554 26.6398C51.4266 26.3874 51.517 25.9745 51.5848 25.5156C51.6978 24.6093 51.63 23.5195 51.743 22.5903C51.9125 21.294 52.4323 20.2845 53.8335 20.055C54.5002 19.9403 55.0087 20.2156 55.3816 20.7548C55.6641 21.1563 55.8449 21.7414 55.9692 22.3953C56.1839 23.5998 56.1952 25.3435 56.1839 26.0318Z" fill="#6D4B5C"/>
<path fill-rule="evenodd" clip-rule="evenodd" d="M83.7555 44.8242C83.6764 44.8816 83.5973 44.9275 83.4956 44.9389C81.6537 45.2487 79.8005 44.503 78.2637 43.2067C76.015 41.3253 74.4443 38.3197 74.4443 36.0827C74.4443 33.5245 75.563 31.907 76.9642 29.9453C78.162 28.2704 80.2751 26.5152 82.3769 26.0334C85.4392 25.3222 88.6258 26.5956 90.8519 28.8325C93.078 31.0695 94.3436 34.2472 93.6317 37.2873C92.9537 40.1781 90.2304 43.1264 87.4393 44.2277C86.4449 44.6292 85.3488 44.5948 84.3092 44.9389C84.1058 45.0078 83.9024 44.9619 83.7555 44.8242ZM83.7781 43.9638C83.8233 43.9179 83.8798 43.8873 83.9476 43.8721C84.9646 43.5279 86.0381 43.5738 87.0099 43.1837C89.4846 42.2086 91.9142 39.5931 92.5131 37.0349C93.1346 34.3619 91.9932 31.5858 90.0383 29.6241C88.0947 27.6739 85.3149 26.5152 82.6368 27.1347C80.7949 27.5477 78.953 29.1308 77.9021 30.5992C76.6365 32.3659 75.5969 33.7884 75.5969 36.0827C75.5969 38.0559 77.0207 40.6944 78.9982 42.3463C80.2751 43.4132 81.778 44.09 83.3035 43.8262C83.4843 43.7918 83.6538 43.8491 83.7781 43.9638Z" fill="#6D4B5C"/>
<path fill-rule="evenodd" clip-rule="evenodd" d="M85.0331 33.695C85.3043 33.2476 85.5981 32.7773 85.6433 32.7085C86.0727 32.1578 86.9089 31.6187 87.7677 31.3663C88.3779 31.1827 88.9994 31.1598 89.5192 31.3319C89.8695 31.4466 90.1068 31.7334 90.2198 32.1119C90.3328 32.4561 90.3328 32.8805 90.3328 33.1215C90.3328 35.152 89.474 36.7465 88.2988 38.1346C87.2818 39.3392 86.0162 40.3831 84.9088 41.45C84.841 41.622 84.6941 41.7482 84.5246 41.8056C84.2986 41.9547 83.9935 41.9318 83.7901 41.7368C83.7449 41.6909 83.7072 41.6412 83.6771 41.5876C81.9369 40.7043 79.9707 38.3411 79.3831 36.0926C78.9085 34.3031 79.2701 32.6052 81.0329 31.6531C81.9256 31.1713 82.6262 31.1483 83.1799 31.3433C83.9822 31.6187 84.5133 32.3987 84.841 33.2018C84.9088 33.3624 84.9653 33.5344 85.0331 33.695ZM89.1124 32.3873C88.796 32.307 88.4344 32.3528 88.0841 32.4446C87.4626 32.6282 86.8637 32.9953 86.5473 33.3968C86.4569 33.523 85.6207 35.0143 85.3834 35.2782C85.0896 35.5994 84.7619 35.4961 84.6489 35.4388C84.5359 35.3814 84.4003 35.2781 84.2986 35.0717C84.1743 34.8193 84.0274 34.2342 83.7788 33.6262C83.5754 33.1215 83.3155 32.5823 82.807 32.4102C82.4906 32.2955 82.0951 32.3643 81.5866 32.6396C80.3323 33.3165 80.1515 34.544 80.4905 35.8059C80.999 37.7561 82.6827 39.8324 84.1743 40.5666C85.2478 39.5571 86.4456 38.5591 87.4174 37.4119C88.4344 36.2188 89.1915 34.8652 89.1915 33.1215C89.1915 32.9838 89.1915 32.7429 89.1576 32.5364C89.1463 32.4905 89.1237 32.4217 89.1124 32.3873Z" fill="#6D4B5C"/>
<path fill-rule="evenodd" clip-rule="evenodd" d="M77.2247 58.2799C77.3716 58.2914 77.5072 58.3487 77.6089 58.452C77.8349 58.6699 77.8349 59.0256 77.6089 59.2435C77.0213 59.8286 76.4902 60.4825 75.88 61.0217C75.202 61.6182 74.4449 62.1 73.4392 62.2721C71.4504 62.6162 69.5746 61.2855 68.5011 59.2206C66.9643 56.2609 67.0886 51.8787 70.7611 49.504C73.1341 47.9668 75.8009 48.9189 77.4394 50.8118C79.0666 52.7046 79.6316 55.5037 77.9366 57.626C77.6993 57.9243 77.462 58.1422 77.2247 58.2799ZM73.7895 53.8059C73.8799 53.7486 73.9929 53.7141 74.1172 53.7141C74.3884 53.7256 74.6257 53.9206 74.6709 54.1845C74.7236 54.5133 74.7688 54.7581 74.8065 54.9187C74.9082 55.4464 75.2472 56.4215 75.7557 57.0295C75.9252 57.236 76.106 57.4081 76.332 57.4195C76.558 57.431 76.7727 57.2589 77.0326 56.9262C78.3773 55.2514 77.8462 53.0373 76.5693 51.546C75.2924 50.0661 73.2358 49.2631 71.3826 50.4562C68.2638 52.4637 68.2186 56.2035 69.5181 58.7044C70.343 60.2875 71.7103 61.4232 73.2471 61.1593C74.0155 61.0217 74.5918 60.6431 75.1229 60.1727C75.6879 59.668 76.1964 59.06 76.7614 58.4979C76.5806 58.5438 76.4224 58.5552 76.2642 58.5552C75.7557 58.5208 75.2698 58.2225 74.8743 57.7522C74.6257 57.4539 74.411 57.0868 74.2302 56.7083C74.072 57.4539 73.846 58.2684 73.5409 58.7617C73.2697 59.1862 72.942 59.4271 72.5804 59.473C72.3205 59.5189 72.0267 59.4615 71.7103 59.2435C71.5069 59.1059 71.3487 58.8879 71.2583 58.6126C71.1679 58.3258 71.1453 57.9472 71.1905 57.5113C71.3374 56.0659 72.2414 53.9665 72.8064 53.3929C73.0211 53.175 73.3827 53.1635 73.6087 53.3815C73.733 53.4962 73.7895 53.6568 73.7895 53.8059ZM73.507 54.3222C73.0437 54.9302 72.4335 56.5133 72.3205 57.626C72.3092 57.8096 72.2979 57.9816 72.3205 58.1193C72.3318 58.1996 72.3657 58.3029 72.377 58.3258C72.392 58.3334 72.4033 58.3411 72.4109 58.3487C72.4448 58.3258 72.5013 58.2684 72.5239 58.2226C72.6143 58.1078 72.6934 57.9472 72.7612 57.7752C73.1793 56.7083 73.3375 55.0678 73.4053 54.7695L73.507 54.3222Z" fill="#6D4B5C"/>
<path fill-rule="evenodd" clip-rule="evenodd" d="M39.132 53.1411C39.1998 53.0378 39.3015 52.969 39.4258 52.9346C41.2225 52.361 46.8386 50.2502 50.8388 49.4931C51.9123 49.298 52.8728 49.1948 53.6299 49.2292C54.2175 49.2636 54.6921 49.3783 55.0311 49.5848C55.4605 49.8372 55.9125 50.124 56.2402 50.5026C56.421 50.732 56.647 51.1679 56.8617 51.753C57.3024 52.969 57.7544 54.8733 58.0369 56.5941C58.229 57.7642 58.3307 58.8655 58.2968 59.6111C58.2855 60.0012 58.229 60.3109 58.1386 60.5174C57.9239 61.0451 57.3363 61.6302 56.5905 62.1349C55.5735 62.8232 54.2966 63.3968 53.5621 63.5689C51.9123 63.9819 47.3697 65.3241 44.1718 65.783C42.6576 66.0009 41.4146 65.9894 40.8157 65.6912C40.6801 65.6223 40.5332 65.5076 40.375 65.3241C40.149 65.0602 39.8891 64.6014 39.6292 64.0278C38.8382 62.2726 37.9455 59.2785 37.4822 57.1677C37.2336 56.0778 37.1093 55.206 37.1432 54.8274C37.1658 54.5521 37.2675 54.38 37.3579 54.2997C37.6856 53.967 38.115 53.3934 38.6235 53.1411C38.793 53.0608 38.9851 53.0608 39.132 53.1411ZM38.2732 54.9766C38.2732 55.3207 38.3975 56.032 38.5896 56.9268C39.0529 58.9687 39.9117 61.8596 40.6801 63.5689C40.827 63.9131 40.9739 64.1998 41.1208 64.4178C41.1999 64.544 41.2564 64.6473 41.3242 64.6817C41.4824 64.762 41.7197 64.7964 42.0022 64.8079C42.5446 64.8308 43.2339 64.7734 44.0136 64.6587C47.1663 64.2113 51.6637 62.8806 53.2909 62.4791C53.9237 62.3185 55.0537 61.8137 55.9464 61.2057C56.4775 60.8501 56.9295 60.4715 57.0764 60.1044C57.1555 59.9209 57.1668 59.6341 57.1668 59.2555C57.1555 58.5902 57.0651 57.7068 56.9069 56.7776C56.647 55.1257 56.2063 53.3017 55.7882 52.143C55.63 51.7186 55.4944 51.3859 55.3588 51.2253C55.1215 50.9385 54.7599 50.7435 54.4435 50.5485C54.2401 50.4223 53.935 50.3764 53.5734 50.3534C52.8954 50.319 52.0253 50.4223 51.0535 50.6058C47.0985 51.3515 41.5502 53.4393 39.7761 54.0015C39.6292 54.0588 39.471 54.0359 39.3467 53.9785C39.294 54.0473 39.2262 54.1047 39.1433 54.1506C38.793 54.3227 38.5105 54.7012 38.2732 54.9766Z" fill="#6D4B5C"/>
<path d="M37.6626 55.2168C37.6739 54.907 37.9338 54.6547 38.2502 54.6776C39.9226 54.7464 41.8323 55.9969 43.742 57.0523C44.6234 57.5226 45.4935 57.9585 46.341 58.165C47.1094 58.3601 47.8552 58.3601 48.5558 58.0159C49.053 57.7635 49.5389 57.2702 50.0135 56.6622C50.7932 55.6527 51.539 54.3449 52.217 53.1863C52.7029 52.3718 53.1549 51.6376 53.573 51.1099C53.912 50.6854 54.2397 50.3872 54.5448 50.238C54.8273 50.1004 55.1663 50.2151 55.3132 50.4904C55.4488 50.7657 55.3358 51.1099 55.0533 51.2475C54.8047 51.3737 54.5674 51.672 54.2849 52.062C53.7651 52.7733 53.2114 53.7599 52.6125 54.7579C51.539 56.5705 50.3186 58.406 49.0643 59.0254C47.245 59.9202 45.1997 59.1401 43.1883 58.0389C41.4368 57.0752 39.7192 55.8592 38.205 55.8018C37.8886 55.7904 37.64 55.5265 37.6626 55.2168Z" fill="#6D4B5C"/>
<path d="M121.124 87.8202C120.672 87.6443 120.68 87.1548 121.147 86.3518C121.836 85.1358 122.537 84.9866 122.616 84.1148C122.695 83.2315 122.356 82.417 122.887 80.8912C123.407 79.3769 124.424 78.7689 124.729 78.5395C125.034 78.3101 128.571 77.1285 129.656 75.0062C130.729 72.8839 131.238 71.622 131.746 70.1651C132.255 68.7082 132.413 67.561 133.905 66.6433C135.396 65.714 136.379 65.9779 136.775 66.0467C137.039 66.1003 137.374 66.192 137.781 66.3221C138.685 64.846 139.8 63.9933 141.125 63.7638C143.114 63.4312 147.182 63.5803 149.51 66.345C151.827 69.1097 151.917 70.0733 151.94 72.3103C151.962 74.5473 151.499 76.4057 152.708 77.6332C153.928 78.8607 157.386 81.0748 157.228 84.2524C157.07 87.4301 156.787 88.2217 156.143 89.0591C155.499 89.8966 154.584 90.9176 155.375 92.4892C156.154 94.0608 158.505 96.1372 158.008 98.684C157.51 101.242 156.945 102.435 155.375 103.732C154.328 104.596 153.081 105.288 151.634 105.808C145.638 111.1 141.472 114.201 139.137 115.112C135.645 116.477 133.238 114.24 132.515 112.289C132.033 110.989 129.404 106.844 124.627 99.8541C123.317 96.7796 122.609 94.9174 122.503 94.2673C122.398 93.6172 121.938 91.4682 121.124 87.8202Z" fill="#C7A6B6"/>
<path d="M130.594 96.9627C131.144 95.1731 131.724 94.5078 132.334 94.9666C136.206 96.6568 138.387 97.4216 138.877 97.261C139.367 97.0927 139.596 97.0774 139.566 97.2151C138.632 99.3794 137.924 101.525 137.442 103.651C137.171 104.89 135.724 105.945 135.318 106.886C134.854 107.987 134.73 109.421 134.515 109.823C133.928 110.932 131.155 118.556 126.198 132.697L122.831 131.963C127.457 110.419 130.044 98.7523 130.594 96.9627Z" fill="white"/>
<path d="M97.3945 167.767C98.0725 164.44 98.6564 161.813 99.146 159.886C99.8692 156.995 100.977 152.383 102.073 149.779C102.796 148.051 103.643 146.342 104.615 144.651L121.769 127.008L129.125 129.05C131.95 144.514 133.264 153.309 133.069 155.435C132.786 158.624 131.973 162.662 131.148 166.413C130.59 168.914 129.656 172.356 128.345 176.738L115.316 173.469C115.61 171.847 115.802 169.828 115.893 167.411C116.017 163.775 116.774 159.37 117.045 157.775C117.234 156.704 117.23 155.553 117.034 154.322C116.311 154.077 115.584 155.045 114.853 157.224C114.122 159.412 113.132 162.008 111.881 165.014L109.813 171.541C107.455 171.518 105.406 171.178 103.666 170.52C101.926 169.863 99.8353 168.945 97.3945 167.767Z" fill="#A89EB4"/>
<path d="M115.09 100.864C115.226 100.646 115.576 99.407 117.079 97.8927C118.582 96.3669 120.887 95.2312 122.854 94.7265C124.831 94.2332 125.859 94.8641 127.148 94.715C128.006 94.6079 129.788 94.4894 132.492 94.3594C132.289 95.476 132.104 96.3058 131.939 96.8488C131.69 97.6632 128.108 111.372 127.035 115.949C125.961 120.526 125.193 125.425 124.537 127.57C123.871 129.704 122.458 133.306 119.949 137.436C117.452 141.566 115.136 147.256 114.096 148.437C113.068 149.607 112.378 150.422 111.102 150.089C109.813 149.745 105 146.877 103.146 144.938C101.304 142.988 99.5529 140.614 100.717 138.962C101.5 137.853 104.212 135.551 108.853 132.056C107.271 130.067 106.71 127.696 107.169 124.943C107.847 120.825 111.215 109.812 112.559 106.577C113.904 103.33 114.955 101.082 115.09 100.864Z" fill="#D8DCFF"/>
<path fill-rule="evenodd" clip-rule="evenodd" d="M134.346 110.821C134.752 111.77 135.144 112.347 135.521 112.554C136.086 112.875 136.594 114.194 137.024 114.446C137.453 114.71 137.894 114.446 138.233 113.747C138.572 113.047 139.284 111.383 139.419 109.789C139.555 108.183 139.103 106.451 141.476 104.764C143.849 103.066 145.521 102.321 146.165 102.08C146.595 101.919 147.115 101.583 147.725 101.07C148.516 101.613 148.987 102.03 149.137 102.321C149.363 102.757 152.267 105.636 151.974 109.72C151.68 113.804 150.651 121.456 150.086 123.945C149.533 126.434 148.267 132.101 147.51 135.99C146.742 139.879 146.482 146.143 146.143 148.105C145.909 149.405 145.585 151.229 145.171 153.577C145.201 154.242 144.565 154.548 143.261 154.494C141.966 154.441 140.116 154.005 137.713 153.187C136.613 153.668 135.882 154.013 135.521 154.219C134.978 154.517 133.442 155.366 131.554 155.447C129.667 155.527 122.481 154.93 121.644 153.29C120.797 151.638 122.153 146.2 123.079 142.759C124.006 139.317 125.859 130.335 126.323 129.188C126.775 128.052 129.927 120.871 131.374 117.681C132.338 115.555 133.329 113.269 134.346 110.821ZM139.928 124.484C139.438 124.813 138.941 125.234 138.436 125.746C137.679 126.526 136.945 127.582 136.639 129.211C136.334 130.851 137.769 137.814 138.052 138.354C138.24 138.713 138.866 134.09 139.928 124.484Z" fill="#D8DCFF"/>
<path d="M138.515 74.707C139.306 76.4163 140.538 76.4048 141.725 76.8063C142.911 77.2193 144.041 77.7126 144.358 78.3321C144.663 78.963 144.606 79.2727 144.403 80.6494C144.211 82.0374 144.64 82.9322 144.764 83.9762C144.9 85.0201 142.956 86.5114 142.369 87.1883C141.969 87.6395 141.879 88.0295 142.098 88.3584C142.105 88.7331 142.003 89.0888 141.792 89.4253C141.476 89.9415 140.696 89.8497 139.86 90.951C139.303 91.6852 138.998 93.6469 138.945 96.836C138.666 97.1649 138.384 97.3981 138.097 97.5358C137.668 97.7423 136.572 97.7194 135.148 97.3293C134.191 97.0693 133.355 96.3733 132.639 95.2415C133.099 94.3314 133.4 93.6431 133.543 93.1765C133.747 92.4882 133.803 91.559 133.905 90.9625C133.995 90.366 133.995 90.0333 133.566 89.345C133.125 88.6567 132.786 88.301 132.165 86.1788C131.532 84.045 133.769 75.6132 134.097 74.5693C134.436 73.5254 134.967 72.2176 135.238 71.8734C135.419 71.6364 136.161 71.189 137.465 70.5312C137.63 72.1755 137.981 73.5674 138.515 74.707Z" fill="white"/>
<path d="M117.328 104.431C118.134 102.84 118.488 101.739 118.39 101.127C118.194 99.9033 118.066 98.9167 118.006 98.1672C117.915 97.043 118.311 96.217 118.763 94.9207C119.226 93.6244 119.147 91.8118 119.362 90.7679C119.565 89.724 119.825 89.5978 120.028 89.8157C120.22 90.0222 120.797 90.7564 120.887 90.3549C120.977 89.9534 121.35 88.3015 121.542 87.8426C121.723 87.3837 122.04 87.9917 122.175 88.68C122.311 89.3683 122.322 90.9056 122.48 90.3664C122.638 89.8157 122.932 87.7049 123.237 87.4181C123.554 87.1313 123.78 87.8082 123.927 88.7374C124.025 89.3569 123.987 90.5423 123.814 92.2936C124.296 91.0088 124.59 90.2287 124.695 89.9534C124.853 89.5519 125.373 88.703 125.667 88.6342C125.961 88.5653 125.904 89.3683 125.735 90.5155C125.554 91.6627 124.853 93.0278 124.718 94.4045C124.62 95.3222 124.586 96.1979 124.616 97.0315C125.392 96.1749 125.931 95.6128 126.232 95.3451C126.673 94.9551 127.69 94.37 128.153 94.1062C128.616 93.8423 128.876 93.8194 129.113 94.2783C129.351 94.7486 128.537 95.6893 127.803 96.4235C127.079 97.1577 126.763 97.6739 125.893 99.0161C125.305 99.9109 124.431 100.932 123.271 102.079L120.616 112.885C120.277 113.184 119.942 113.436 119.61 113.643C119.124 113.941 118.627 113.861 116.525 113.264C115.132 112.859 114.401 112.228 114.333 111.371C115.516 108.343 116.514 106.029 117.328 104.431Z" fill="white"/>
<path d="M136.492 154.069C136.568 153.97 136.956 153.648 137.656 153.105C138.545 153.564 139.14 153.836 139.442 153.92C139.75 154.004 140.805 154.237 142.606 154.62L142.267 156.673C141.144 161.805 140.583 164.902 140.583 165.965C140.583 167.56 140.967 169.269 140.854 170.348C140.73 171.426 140.662 172.642 139.837 173.801C139.023 174.971 138.752 175.384 137.792 176.278C136.82 177.173 136.696 177.185 135.532 177.586C134.368 177.988 132.063 177.942 132.571 177.219C133.068 176.496 134.085 174.867 134.379 173.812C134.568 173.108 134.797 171.965 135.068 170.382C134.745 171.032 134.379 171.609 133.972 172.114C133.362 172.871 132.82 173.594 132.741 173.032C132.65 172.47 132.933 171.483 133.001 170.875C133.057 170.256 134.865 165.529 135.294 164.382C135.724 163.224 136.119 161.572 136.119 160.252C136.131 158.933 136.379 154.23 136.492 154.069Z" fill="white"/>
<path d="M135.476 82.5547L136.606 83.1168C136.839 84.111 137.227 84.7305 137.77 84.9753C138.583 85.3424 139.001 85.3997 139.612 85.067C140.018 84.8376 140.388 84.4934 140.719 84.0346L141.623 84.0001C141.676 84.6579 141.472 85.2429 141.013 85.7553C140.335 86.524 138.775 87.3729 137.815 87.0976C136.843 86.8222 135.77 86.0766 135.329 84.7573C135.043 83.8778 135.092 83.1436 135.476 82.5547Z" fill="#C67795"/>
<path d="M132.764 79.8927C132.707 79.7894 132.707 79.6518 132.775 79.537C132.944 79.2617 133.272 79.1241 133.668 79.147C134.131 79.1585 134.651 79.3764 134.865 79.5715C135.374 80.0303 135.261 80.8678 134.911 81.384C134.504 81.969 133.769 82.1182 133.125 81.992C133.103 81.992 132.899 81.9805 132.786 81.9576C132.684 81.9346 132.605 81.9002 132.538 81.8543C132.402 81.7549 132.342 81.6249 132.357 81.4643C132.357 81.3381 132.447 81.2234 132.56 81.166C132.56 81.0742 132.583 80.9481 132.583 80.8792C132.594 80.776 132.696 80.1795 132.764 79.8927ZM144.662 83.3112C144.696 83.3801 144.696 83.4604 144.674 83.5292C144.64 83.6898 144.493 83.8504 144.233 83.9078C143.973 83.9766 143.566 83.9651 143.442 83.9537C142.617 83.9078 141.894 83.1277 141.837 82.3132C141.804 81.9346 141.984 81.602 142.267 81.361C142.64 81.0398 143.216 80.8907 143.634 80.9481C143.736 80.9595 144.075 81.0169 144.244 81.1087C144.357 81.189 144.436 81.2807 144.459 81.384C144.493 81.4758 144.493 81.579 144.459 81.6823C144.425 81.7511 144.38 81.8084 144.323 81.8543C144.323 82.0035 144.278 82.1411 144.222 82.2903C144.244 82.3056 144.263 82.3247 144.278 82.3476C144.323 82.405 144.38 82.5082 144.335 82.6688C144.335 82.6994 144.327 82.7262 144.312 82.7491C144.342 82.7491 144.376 82.7491 144.414 82.7491C144.606 82.7835 144.742 82.9671 144.708 83.1736C144.7 83.2195 144.685 83.2654 144.662 83.3112Z" fill="#FFB8D4"/>
<path d="M133.543 89.5977C133.498 89.5404 133.148 89.1962 133.046 89.0585C132.221 88.0376 131.656 86.7871 131.645 85.4679C131.577 80.9021 132.899 76.084 134.696 71.9197C134.775 71.7362 134.99 71.6559 135.171 71.7362C135.363 71.805 135.442 72.0229 135.363 72.2065C133.611 76.279 132.312 80.9939 132.38 85.4564C132.391 86.6151 132.899 87.7163 133.623 88.6111C133.713 88.7259 133.928 88.9209 134.063 89.07C134.176 89.1962 134.233 89.3224 134.255 89.4142C134.425 90.1942 134.142 91.3299 134.052 92.1215C133.95 93.0851 133.747 94.1176 133.091 94.8747C132.956 95.0239 132.719 95.0353 132.572 94.9092C132.413 94.7715 132.402 94.5421 132.538 94.3929C133.103 93.7505 133.238 92.8557 133.329 92.0412C133.408 91.3185 133.679 90.309 133.543 89.5977Z" fill="#6D4B5C"/>
<path d="M142.459 88.7597C142.561 88.9317 142.482 89.1497 142.312 89.2415C142.21 89.2988 142.131 89.425 142.041 89.5512C141.894 89.7462 141.758 89.9527 141.612 90.0789C141.386 90.2854 141.092 90.4116 140.809 90.5493C140.606 90.641 140.391 90.7328 140.256 90.8934C140.165 90.9852 140.097 91.1802 140.018 91.4211C139.871 91.857 139.736 92.4536 139.634 93.096C139.442 94.2432 139.318 95.5395 139.329 96.4228C139.34 96.7555 139.363 97.0193 139.408 97.1685C139.476 97.3635 139.374 97.57 139.182 97.6388C139.001 97.6962 138.787 97.6044 138.719 97.4094C138.651 97.2144 138.606 96.8702 138.594 96.4343C138.583 95.528 138.707 94.1629 138.911 92.9813C139.046 92.1668 139.216 91.4326 139.397 90.9622C139.498 90.7213 139.6 90.5263 139.702 90.4116C139.905 90.1822 140.199 90.033 140.493 89.8954C140.719 89.7921 140.945 89.7004 141.114 89.5397C141.261 89.4136 141.386 89.1956 141.521 89.012C141.668 88.84 141.815 88.6794 141.973 88.5991C142.143 88.5073 142.369 88.5761 142.459 88.7597Z" fill="#6D4B5C"/>
<path d="M133.701 75.2932C133.69 75.0867 133.836 74.9146 134.04 74.8917C134.537 74.8458 134.842 74.7425 135.113 74.6852C135.599 74.5819 135.983 74.5819 136.842 75.0867C137.023 75.1785 137.08 75.4079 136.978 75.58C136.876 75.7521 136.65 75.8094 136.469 75.7062C135.746 75.2932 135.509 75.3391 135.057 75.4423C134.808 75.4997 134.514 75.58 134.108 75.6144C133.904 75.6373 133.723 75.4882 133.701 75.2932Z" fill="#6D4B5C"/>
<path d="M140.787 77.3224C140.798 77.1274 140.968 76.9783 141.171 76.9898C141.781 77.0127 142.312 76.8406 142.798 76.8062C143.42 76.7603 143.996 76.8636 144.595 77.5748C144.719 77.724 144.708 77.9534 144.55 78.0796C144.391 78.2058 144.165 78.1943 144.03 78.0337C143.555 77.4716 143.092 77.483 142.583 77.5634C142.131 77.6322 141.657 77.7354 141.126 77.7125C140.922 77.701 140.775 77.5289 140.787 77.3224Z" fill="#6D4B5C"/>
<path d="M133.882 78.4354C133.769 78.2634 133.803 78.0454 133.973 77.9307C134.572 77.5292 134.99 77.3915 135.396 77.403C135.781 77.4259 136.165 77.598 136.696 77.8848C136.877 77.9766 136.945 78.1945 136.843 78.3666C136.741 78.5502 136.526 78.6075 136.346 78.5157C135.939 78.2978 135.656 78.1372 135.363 78.1257C135.08 78.1142 134.809 78.2519 134.391 78.5272C134.221 78.6419 133.995 78.596 133.882 78.4354Z" fill="#6D4B5C"/>
<path fill-rule="evenodd" clip-rule="evenodd" d="M141.544 79.5019C141.668 79.4675 141.849 79.4102 141.928 79.3872C142.64 79.1578 143.454 79.2496 143.781 80.0296C143.86 80.2132 143.77 80.4312 143.578 80.5115C143.397 80.5803 143.182 80.5 143.103 80.305C142.934 79.9149 142.504 79.9608 142.143 80.0755C142.018 80.1099 141.747 80.2132 141.6 80.2361C141.51 80.2591 141.431 80.2591 141.386 80.2476C141.227 80.2247 141.148 80.1214 141.115 80.0411C141.081 79.9723 141.002 79.7658 141.239 79.5708C141.329 79.5019 141.442 79.479 141.544 79.5019ZM141.725 80.1214H141.713H141.725Z" fill="#6D4B5C"/>
<path d="M135.035 82.3356C135.103 82.152 135.317 82.0488 135.51 82.1291C136.719 82.588 137.973 83.2074 139.261 83.4139C139.6 83.4713 139.984 83.4369 140.369 83.4139C140.809 83.391 141.25 83.368 141.612 83.4598C141.804 83.5172 141.928 83.7122 141.871 83.9072C141.826 84.1022 141.623 84.217 141.431 84.1711C141.126 84.0908 140.775 84.1137 140.414 84.1367C139.973 84.1596 139.532 84.194 139.148 84.1252C137.803 83.9072 136.504 83.2763 135.238 82.8059C135.058 82.7256 134.956 82.5191 135.035 82.3356Z" fill="#6D4B5C"/>
<path d="M135.509 82.1071C135.679 82.1989 135.746 82.4168 135.645 82.6004C135.419 83.0134 135.475 83.6214 135.498 84.0803C135.645 86.1567 137.588 87.1318 139.509 86.5926C139.634 86.5582 139.803 86.4434 139.995 86.2828C140.323 86.019 140.673 85.6404 140.933 85.2504C141.08 85.0439 141.193 84.8374 141.272 84.6424C141.329 84.4932 141.362 84.3556 141.34 84.2523C141.295 84.0573 141.419 83.8623 141.611 83.8164C141.814 83.7705 142.007 83.8967 142.052 84.0917C142.142 84.5047 141.927 85.0898 141.543 85.6519C141.012 86.432 140.176 87.1547 139.701 87.2924C137.328 87.9577 134.955 86.7073 134.774 84.1376C134.729 83.5411 134.707 82.7839 135.012 82.2448C135.102 82.0727 135.328 82.0039 135.509 82.1071Z" fill="#6D4B5C"/>
<path d="M136.64 82.796C136.843 82.8189 136.979 83.0025 136.956 83.1975C136.843 84.0464 137.634 84.5856 138.459 84.7691C138.888 84.8609 139.34 84.8609 139.713 84.7347C140.03 84.62 140.278 84.425 140.357 84.0923C140.414 83.8973 140.606 83.7825 140.809 83.8284C141.002 83.8743 141.126 84.0808 141.069 84.2758C140.787 85.3656 139.499 85.7442 138.29 85.4689C137.103 85.205 136.075 84.3217 136.233 83.1057C136.256 82.9107 136.436 82.7616 136.64 82.796Z" fill="#6D4B5C"/>
<path d="M135.306 71.9545C135.17 71.8054 135.182 71.5759 135.329 71.4383C135.668 71.1285 136.131 70.8876 136.572 70.6238C136.933 70.4058 137.272 70.1764 137.476 69.8208C137.566 69.6487 137.792 69.5799 137.973 69.6716C138.142 69.7749 138.21 69.9928 138.12 70.1649C137.86 70.6238 137.43 70.9565 136.956 71.2433C136.56 71.4842 136.131 71.7021 135.826 71.9775C135.679 72.1151 135.442 72.1036 135.306 71.9545Z" fill="#6D4B5C"/>
<path d="M137.95 69.5787C138.153 69.6131 138.289 69.7966 138.266 69.9917C138.221 70.267 138.13 70.5423 138.051 70.8062C137.983 71.0241 137.916 71.2421 137.916 71.4715C137.938 73.089 138.548 74.9819 140.029 75.8537C140.831 76.3355 142.244 76.542 143.34 77.0009C144.198 77.3565 144.854 77.8728 145.057 78.6643C145.227 79.3526 145.125 79.9721 144.978 80.5916C144.854 81.1193 144.707 81.6355 144.752 82.2091C144.786 82.5877 145.001 82.9433 145.125 83.2989C145.295 83.7922 145.351 84.2855 144.989 84.8017C144.65 85.295 143.294 86.3848 142.65 87.3714C142.515 87.5664 142.424 87.75 142.379 87.922C142.345 88.0482 142.345 88.1515 142.39 88.2547C142.447 88.335 142.537 88.4153 142.662 88.4842C142.842 88.5759 142.922 88.7939 142.831 88.966C142.741 89.1495 142.515 89.2184 142.334 89.1266C141.927 88.9201 141.724 88.6448 141.656 88.3465C141.554 87.9565 141.701 87.4746 142.029 86.9699C142.684 85.9833 144.052 84.8935 144.391 84.3887C144.639 84.0216 144.492 83.6775 144.345 83.3219C144.21 82.9777 144.052 82.6336 144.018 82.2665C143.961 81.624 144.119 81.0275 144.266 80.431C144.379 79.9147 144.481 79.41 144.345 78.8364C144.255 78.4922 144.029 78.2399 143.735 78.0334C143.396 77.7925 142.955 77.6089 142.503 77.4598C141.486 77.1156 140.345 76.8862 139.645 76.4732C137.961 75.4752 137.215 73.3299 137.192 71.483C137.181 71.1733 137.26 70.875 137.351 70.5882C137.418 70.3588 137.498 70.1293 137.543 69.8884C137.565 69.6934 137.757 69.5557 137.95 69.5787Z" fill="#6D4B5C"/>
<path d="M132.763 94.6342C132.967 94.6571 133.102 94.8407 133.069 95.0357C133.035 95.2766 133.17 95.4946 133.362 95.7011C133.622 95.9764 134.007 96.2288 134.447 96.4353C135.283 96.8368 136.312 97.1121 137.182 97.1695C137.69 97.2039 138.142 97.1695 138.425 97.0089C138.594 96.9056 138.82 96.963 138.922 97.135C139.024 97.3071 138.967 97.5251 138.798 97.6283C138.425 97.8463 137.826 97.9381 137.125 97.8922C136.176 97.8234 135.046 97.5251 134.131 97.0892C133.487 96.7794 132.956 96.3894 132.65 95.9764C132.402 95.6437 132.3 95.2996 132.345 94.9325C132.379 94.7374 132.56 94.5998 132.763 94.6342Z" fill="#6D4B5C"/>
<path d="M148.233 100.966C148.154 101.058 147.781 101.448 147.51 101.723C147.25 101.998 146.979 102.216 146.764 102.285C144.086 103.214 140.865 104.935 139.871 107.803C139.6 108.595 139.735 109.34 139.702 110.143C139.679 110.751 139.193 112.782 138.538 113.963C138.357 114.307 138.153 114.583 137.95 114.755C137.758 114.915 137.566 114.996 137.374 115.007C136.99 115.03 136.696 114.858 136.47 114.571C136.232 114.285 136.086 113.86 135.927 113.631C135.724 113.332 135.453 113.069 135.193 112.793C134.888 112.472 134.617 112.128 134.47 111.715C133.566 109.203 134.922 106.426 136.345 104.396C137.272 103.054 137.43 102.423 137.577 101.643C137.679 101.081 137.781 100.45 138.097 99.4745C138.221 99.0844 138.492 98.6485 138.752 98.224C138.967 97.8684 139.17 97.5128 139.227 97.1916C139.261 96.9966 139.453 96.8704 139.645 96.8933C139.848 96.9277 139.984 97.1113 139.95 97.3178C139.894 97.639 139.735 97.9946 139.521 98.3502C139.261 98.8091 138.933 99.2794 138.798 99.7039C138.481 100.633 138.402 101.241 138.3 101.769C138.142 102.629 137.973 103.329 136.944 104.797C135.656 106.667 134.334 109.18 135.159 111.474C135.272 111.795 135.498 112.048 135.735 112.3C136.018 112.61 136.323 112.908 136.538 113.229C136.662 113.413 136.786 113.734 136.956 113.998C137.046 114.147 137.148 114.296 137.329 114.285C137.396 114.273 137.464 114.216 137.532 114.147C137.656 114.009 137.781 113.837 137.894 113.619C138.492 112.529 138.944 110.671 138.967 110.109C139.012 109.248 138.877 108.434 139.182 107.574C140.244 104.499 143.657 102.595 146.527 101.597C146.64 101.562 146.775 101.436 146.922 101.287C147.216 101 147.51 100.645 147.691 100.473C147.815 100.358 147.928 100.3 147.984 100.277C148.075 100.255 148.143 100.266 148.199 100.277C148.403 100.323 148.516 100.53 148.47 100.713C148.436 100.84 148.346 100.931 148.233 100.966Z" fill="#6D4B5C"/>
<path d="M128.763 94.2776C128.752 94.2776 128.729 94.2776 128.718 94.2776C128.65 94.2891 128.582 94.3005 128.526 94.3235C127.068 94.7938 125.735 96.2622 125 97.5241C124.898 97.6962 124.684 97.7535 124.503 97.6618C124.322 97.5585 124.266 97.3406 124.367 97.1685C125.181 95.7689 126.684 94.1514 128.3 93.6352C128.763 93.486 129.294 93.4746 129.464 94.0596C129.577 94.4382 129.452 94.8856 129.181 95.3101C128.865 95.8148 128.367 96.3081 128.141 96.6408C127.656 97.3291 126.978 97.9142 126.537 98.6369C125.87 99.7267 125.215 101.103 124.22 101.941C123.949 102.159 123.588 102.296 123.305 102.526C123.147 102.641 122.921 102.618 122.797 102.468C122.672 102.308 122.695 102.078 122.853 101.952C123.124 101.734 123.475 101.608 123.746 101.379C124.695 100.599 125.283 99.2908 125.904 98.2583C126.356 97.5241 127.045 96.9391 127.531 96.2278C127.757 95.9066 128.243 95.4248 128.56 94.9315C128.695 94.7021 128.819 94.4726 128.763 94.2776Z" fill="#6D4B5C"/>
<path d="M125.622 89.2073C125.339 89.6432 125.158 90.1594 124.944 90.6297C124.718 91.1345 124.469 91.6393 124.311 92.1784C124.085 92.947 123.96 93.7615 123.757 94.5416C123.712 94.7366 123.509 94.8513 123.316 94.8055C123.113 94.7596 123 94.5531 123.057 94.3581C123.26 93.5665 123.373 92.752 123.61 91.9719C123.78 91.4098 124.028 90.8707 124.277 90.3315C124.548 89.7464 124.763 89.1155 125.17 88.5878C125.441 88.2322 125.667 88.083 125.791 88.0486C125.949 88.0027 126.062 88.0371 126.164 88.0945C126.243 88.1519 126.322 88.2322 126.367 88.3469C126.401 88.4386 126.424 88.5763 126.413 88.7599C126.401 89.0466 126.333 89.4711 126.22 89.9759C125.859 91.5245 125.113 93.7615 125.079 93.9221C124.898 94.8858 124.932 95.9412 124.684 96.8818C124.638 97.0769 124.435 97.1916 124.243 97.1342C124.04 97.0883 123.927 96.8933 123.972 96.6983C124.22 95.7691 124.175 94.7366 124.367 93.7845C124.401 93.6124 125.249 91.0542 125.576 89.494C125.591 89.3946 125.607 89.299 125.622 89.2073Z" fill="#6D4B5C"/>
<path d="M123.498 87.7622C123.452 87.8425 123.407 87.9343 123.385 88.0146C122.684 89.9878 122.582 92.133 122.051 94.152C122.006 94.347 121.803 94.4617 121.611 94.4159C121.418 94.3585 121.294 94.1635 121.351 93.9685C121.882 91.938 121.983 89.7583 122.695 87.7737C122.786 87.5099 122.978 87.2001 123.204 87.028C123.419 86.8674 123.611 86.8674 123.78 86.9363C123.938 87.0051 124.096 87.1886 124.187 87.4869C124.402 88.1867 124.345 89.678 124.334 89.8501C124.277 90.3778 124.187 90.8711 124.108 91.3988C123.961 92.2821 123.814 93.1884 123.724 94.0717C123.712 94.2667 123.532 94.4159 123.328 94.3929C123.125 94.3815 122.978 94.1979 123 94.0029C123.091 93.0966 123.238 92.1789 123.373 91.2841C123.464 90.7793 123.554 90.2975 123.599 89.7813C123.611 89.6551 123.656 88.6456 123.554 87.9687C123.543 87.9114 123.52 87.8311 123.498 87.7622Z" fill="#6D4B5C"/>
<path d="M121.509 88.4629C121.068 90.023 120.571 93.304 120.379 94.0267C120.334 94.2217 120.13 94.3364 119.938 94.2905C119.735 94.2332 119.622 94.0381 119.667 93.8431C119.871 93.0745 120.413 89.4953 120.865 88.0499C120.955 87.7402 121.057 87.5222 121.136 87.396C121.238 87.2584 121.351 87.201 121.453 87.1895C121.588 87.1551 121.825 87.201 121.972 87.4878C122.142 87.8205 122.3 88.7153 122.334 88.8988C122.583 90.2181 122.379 92.8566 121.995 94.1185C121.927 94.302 121.724 94.4167 121.532 94.3594C121.34 94.2905 121.227 94.0955 121.294 93.9005C121.656 92.7304 121.848 90.264 121.611 89.0365C121.599 88.9562 121.554 88.7153 121.509 88.4629Z" fill="#6D4B5C"/>
<path d="M119.926 90.424C119.791 91.1238 119.621 91.9727 119.599 92.1906C119.452 93.4296 118.785 95.7354 118.503 97.7659C118.333 99.0278 118.288 100.175 118.695 100.852C118.796 101.024 118.74 101.253 118.559 101.357C118.39 101.448 118.164 101.391 118.062 101.219C117.599 100.439 117.576 99.1196 117.779 97.6741C118.062 95.6436 118.729 93.3493 118.864 92.1103C118.909 91.7432 119.169 90.0454 119.384 89.3571C119.441 89.1392 119.52 89.0015 119.576 88.9441C119.644 88.8638 119.723 88.8294 119.791 88.8179C119.949 88.7835 120.085 88.8294 120.198 88.9327C120.299 89.013 120.378 89.185 120.424 89.3112C120.932 90.7567 120.638 92.7413 120.311 94.2097C120.265 94.4047 120.073 94.5309 119.881 94.485C119.678 94.4506 119.554 94.2556 119.599 94.0605C119.825 92.9822 120.073 91.617 119.926 90.424Z" fill="#6D4B5C"/>
<path d="M118.3 101.506C118.492 101.575 118.593 101.781 118.537 101.965C117.418 105.234 115.904 108.424 114.559 111.59C114.48 111.773 114.266 111.865 114.085 111.785C113.893 111.716 113.814 111.498 113.881 111.314C115.215 108.16 116.729 104.982 117.836 101.736C117.904 101.552 118.108 101.449 118.3 101.506Z" fill="#6D4B5C"/>
<path d="M123.079 102.033C123.272 102.079 123.396 102.262 123.351 102.457C122.955 104.213 122.345 105.899 121.961 107.654C121.531 109.57 121.283 111.543 120.786 113.436C120.74 113.631 120.537 113.746 120.345 113.7C120.153 113.654 120.028 113.459 120.085 113.264C120.571 111.371 120.819 109.409 121.238 107.493C121.633 105.738 122.243 104.052 122.639 102.308C122.684 102.113 122.876 101.987 123.079 102.033Z" fill="#6D4B5C"/>
<path d="M114.118 111.314C114.287 111.211 114.513 111.257 114.626 111.429C115.248 112.381 116.536 113.161 117.824 113.379C118.661 113.517 119.485 113.437 120.118 112.978C120.276 112.863 120.514 112.897 120.627 113.07C120.751 113.23 120.706 113.448 120.548 113.574C119.757 114.136 118.728 114.274 117.7 114.09C116.208 113.838 114.728 112.932 114.005 111.819C113.903 111.647 113.948 111.418 114.118 111.314Z" fill="#6D4B5C"/>
<path d="M113.757 111.188C113.745 111.188 113.7 111.2 113.689 111.211C113.621 111.234 113.564 111.268 113.497 111.314C113.418 111.372 113.338 111.452 113.293 111.532C113.022 111.945 112.344 113.127 111.96 114.022C111.813 114.354 111.7 114.653 111.689 114.825C111.666 115.134 111.858 115.387 112.084 115.605C112.378 115.903 112.74 116.167 112.999 116.408C113.892 117.257 115.429 117.945 116.932 118.117C117.904 118.22 118.864 118.129 119.621 117.681C119.836 117.555 120.062 117.28 120.243 117.131C120.39 116.993 120.627 117.016 120.751 117.165C120.887 117.314 120.876 117.544 120.717 117.681C120.514 117.853 120.243 118.163 119.994 118.312C119.113 118.817 117.994 118.966 116.853 118.828C115.18 118.645 113.485 117.876 112.491 116.924C112.175 116.626 111.7 116.305 111.372 115.903C111.101 115.582 110.932 115.203 110.954 114.779C110.965 114.561 111.09 114.171 111.282 113.735C111.689 112.794 112.389 111.567 112.672 111.131C112.853 110.855 113.248 110.546 113.598 110.477C113.937 110.408 114.254 110.511 114.435 110.89C114.514 111.073 114.435 111.291 114.254 111.372C114.073 111.464 113.847 111.383 113.768 111.2C113.768 111.2 113.764 111.196 113.757 111.188Z" fill="#6D4B5C"/>
<path d="M120.661 112.966C120.672 112.966 120.751 112.966 120.797 112.977C120.91 112.977 121.034 112.989 121.147 113.012C121.316 113.046 121.441 113.126 121.531 113.241C121.712 113.482 121.78 113.929 121.735 114.469C121.633 115.478 121.17 116.878 121.034 117.394C120.977 117.589 120.774 117.704 120.582 117.658C120.39 117.612 120.266 117.405 120.322 117.222C120.458 116.706 120.91 115.375 121 114.4C121.023 114.216 121.023 114.044 121.011 113.895C121 113.826 120.989 113.769 120.966 113.711C120.932 113.711 120.853 113.7 120.797 113.7C120.638 113.689 120.492 113.677 120.39 113.631C120.209 113.562 120.119 113.344 120.198 113.161C120.266 112.977 120.48 112.897 120.661 112.966Z" fill="#6D4B5C"/>
<path d="M129.724 95.1043C129.555 95.1846 129.351 95.1158 129.249 94.9551C129.148 94.7831 129.204 94.5651 129.385 94.4618C129.43 94.4274 129.6 94.3815 129.86 94.3357C130.628 94.2095 132.334 94.0144 132.752 93.98C132.956 93.9686 133.069 94.0259 133.069 94.0374C133.25 94.1406 133.295 94.3586 133.193 94.5307C133.125 94.6454 133.001 94.7028 132.877 94.7028H132.82C132.459 94.7372 131.125 94.8748 130.3 95.001C130.029 95.0354 129.758 95.0928 129.724 95.1043Z" fill="#6D4B5C"/>
<path d="M124.662 94.6002C124.684 94.3937 124.865 94.256 125.068 94.279C125.351 94.3134 125.667 94.2675 125.972 94.2331C126.357 94.1872 126.741 94.1643 127.08 94.2446C127.283 94.3019 127.396 94.4969 127.351 94.692C127.295 94.887 127.102 95.0017 126.899 94.9443C126.639 94.887 126.345 94.9099 126.052 94.9443C125.69 94.9902 125.317 95.0361 124.978 95.0017C124.775 94.9788 124.639 94.7952 124.662 94.6002Z" fill="#6D4B5C"/>
<path d="M118.469 96.5621C118.627 96.6883 118.639 96.9177 118.514 97.0669C117.972 97.6978 117.204 98.1108 116.695 98.7762C115.407 100.463 114.571 102.608 113.814 104.558C111.497 110.512 109.203 116.695 108.028 123.005C107.734 124.599 107.486 126.32 107.61 127.892C107.779 130.14 108.729 132.09 111.497 132.801C111.701 132.847 111.814 133.042 111.768 133.237C111.712 133.432 111.508 133.547 111.316 133.501C108.164 132.698 107.068 130.507 106.875 127.949C106.751 126.308 107 124.53 107.305 122.878C108.491 116.523 110.797 110.294 113.124 104.294C113.915 102.287 114.785 100.084 116.119 98.3402C116.627 97.6634 117.407 97.2389 117.949 96.5965C118.085 96.4474 118.322 96.4245 118.469 96.5621Z" fill="#6D4B5C"/>
<path d="M120.932 117.291C121.124 117.349 121.237 117.544 121.192 117.739C120.265 121.272 118.57 127.708 116.548 130.794C115.836 131.895 114.762 132.446 113.677 133.076C113.011 133.478 112.028 133.914 111.214 133.707C111.022 133.662 110.898 133.467 110.954 133.271C110.999 133.076 111.203 132.962 111.395 133.008C111.689 133.088 112.016 133.031 112.333 132.916C112.683 132.801 113.033 132.618 113.305 132.457C114.288 131.883 115.282 131.402 115.937 130.392C117.915 127.375 119.576 121.031 120.48 117.555C120.525 117.36 120.729 117.245 120.932 117.291Z" fill="#6D4B5C"/>
<path d="M111.486 114.744C111.678 114.802 111.779 115.008 111.723 115.203C111.339 116.419 110.728 117.945 110.118 119.058C110.017 119.23 109.802 119.299 109.621 119.195C109.44 119.104 109.372 118.886 109.474 118.714C110.062 117.635 110.649 116.155 111.022 114.985C111.079 114.79 111.293 114.687 111.486 114.744Z" fill="#6D4B5C"/>
<path d="M108.931 131.756C109.078 131.894 109.089 132.123 108.943 132.272C107.835 133.465 105.496 135.037 103.564 136.563C102.343 137.538 101.281 138.478 100.886 139.293C100.411 140.28 100.886 141.507 101.79 142.769C103.168 144.685 105.541 146.646 107.632 147.989C108.999 148.872 110.242 149.491 110.988 149.629C111.316 149.686 111.632 149.629 111.937 149.526C112.287 149.4 112.626 149.228 112.977 149.09C113.157 149.01 113.372 149.101 113.451 149.285C113.53 149.468 113.44 149.686 113.259 149.755C112.491 150.065 111.711 150.501 110.852 150.34C110.05 150.191 108.705 149.549 107.236 148.597C105.067 147.208 102.615 145.167 101.191 143.182C100.106 141.668 99.6539 140.165 100.23 138.983C100.66 138.1 101.778 137.056 103.112 136.001C105.01 134.498 107.315 132.949 108.411 131.779C108.547 131.63 108.773 131.63 108.931 131.756Z" fill="#6D4B5C"/>
<path d="M132.843 95.185C132.832 95.2309 132.617 95.7586 132.436 96.3322C131.566 99.1772 129.961 105.865 129.589 107.288C128.56 111.2 127.374 115.123 126.571 119.092C126.029 121.754 124.854 128.82 123.611 131.092C122.142 133.765 120.549 136.541 119.26 139.328C118.876 140.189 116.288 145.489 114.831 147.84C114.424 148.494 114.062 148.93 113.87 149.045C113.701 149.148 113.475 149.091 113.373 148.919C113.26 148.747 113.328 148.529 113.497 148.425C113.576 148.38 113.678 148.242 113.814 148.047C114.085 147.68 114.424 147.118 114.786 146.475C116.255 143.894 118.255 139.776 118.594 139.03C119.882 136.231 121.486 133.432 122.967 130.747C124.187 128.51 125.328 121.559 125.848 118.943C126.651 114.974 127.848 111.039 128.877 107.116C129.25 105.682 130.865 98.9821 131.736 96.1257C131.894 95.6094 132.029 95.2079 132.131 94.99C132.199 94.8294 132.267 94.7376 132.312 94.6917C132.459 94.554 132.696 94.554 132.832 94.7032C132.967 94.8294 132.967 95.0473 132.843 95.185Z" fill="#6D4B5C"/>
<path d="M134.187 110.592C134.379 110.649 134.481 110.856 134.425 111.039C132.752 116.144 129.972 120.928 127.893 125.884C125.712 131.057 124.661 136.816 123.554 142.3C122.898 145.535 121.802 148.953 121.622 152.234C121.588 152.98 122.254 153.508 123.192 153.921C125.69 155.045 130.176 155.24 131.577 155.091C133.306 154.907 135.329 154.368 136.718 153.267C136.877 153.141 137.103 153.163 137.227 153.324C137.351 153.473 137.329 153.703 137.17 153.829C135.679 155.01 133.521 155.618 131.656 155.813C130.187 155.974 125.509 155.756 122.887 154.586C121.622 154.024 120.842 153.209 120.898 152.188C121.079 148.885 122.175 145.432 122.831 142.162C123.949 136.621 125.012 130.828 127.215 125.597C129.294 120.664 132.063 115.903 133.724 110.821C133.78 110.626 133.995 110.523 134.187 110.592Z" fill="#6D4B5C"/>
<path d="M149.374 103.537C149.397 103.743 149.261 103.927 149.058 103.95C148.255 104.053 147.577 104.741 146.967 105.602C145.984 107.001 145.25 108.883 144.832 109.881C144.753 110.064 144.538 110.156 144.357 110.076C144.165 109.995 144.075 109.789 144.154 109.605C144.594 108.573 145.351 106.634 146.368 105.189C147.103 104.145 147.984 103.353 148.956 103.227C149.159 103.204 149.34 103.342 149.374 103.537Z" fill="#6D4B5C"/>
<path d="M144.334 111.256C144.526 111.313 144.639 111.52 144.572 111.715C144.199 112.942 143.758 114.181 143.611 115.466C143.385 117.382 143.442 119.573 142.583 121.34C141.961 122.602 140.605 123.921 139.351 125.252C138.187 126.491 137.114 127.741 136.967 128.991C136.56 132.697 138.176 137.354 138.436 141.083C138.56 142.803 138.537 144.501 138.583 146.222C138.617 147.243 138.854 149.136 138.741 150.753C138.662 151.935 138.368 152.967 137.746 153.518C137.6 153.656 137.362 153.644 137.227 153.495C137.091 153.346 137.102 153.117 137.261 152.979C137.758 152.531 137.939 151.671 138.006 150.707C138.119 149.113 137.882 147.243 137.848 146.245C137.803 144.536 137.826 142.849 137.713 141.14C137.441 137.366 135.825 132.662 136.244 128.911C136.368 127.798 137.125 126.663 138.097 125.561C139.441 124.013 141.204 122.487 141.927 121.018C142.752 119.321 142.662 117.221 142.877 115.386C143.035 114.055 143.487 112.77 143.871 111.497C143.939 111.302 144.142 111.199 144.334 111.256Z" fill="#6D4B5C"/>
<path d="M140.266 123.806C140.459 123.864 140.56 124.07 140.504 124.265C140.142 125.298 140.097 126.617 139.905 127.695C139.261 131.321 138.684 135.083 138.651 138.777C138.651 138.984 138.481 139.144 138.289 139.133C138.086 139.133 137.916 138.972 137.916 138.777C137.95 135.049 138.538 131.24 139.182 127.569C139.374 126.456 139.442 125.103 139.803 124.036C139.871 123.841 140.074 123.738 140.266 123.806Z" fill="#6D4B5C"/>
<path d="M147.578 101.105C147.646 100.921 147.86 100.818 148.053 100.887C148.572 101.07 148.877 101.46 149.149 101.873C149.341 102.172 149.51 102.493 149.793 102.676C151.194 103.571 151.849 105.212 152.087 107.093C152.426 109.766 151.94 112.898 151.861 114.813C151.759 116.878 151.318 119.001 150.911 121.031C150.527 122.855 150.358 124.725 149.951 126.549C149.024 130.828 147.838 135.107 147.126 139.42C146.674 142.197 146.538 144.984 146.324 147.783C146.199 149.24 145.657 152.384 145.747 153.691C145.759 153.886 145.6 154.058 145.408 154.07C145.205 154.093 145.024 153.944 145.013 153.737C144.922 152.406 145.476 149.217 145.589 147.726C145.815 144.904 145.939 142.105 146.403 139.306C147.126 134.981 148.301 130.679 149.239 126.4C149.635 124.576 149.815 122.717 150.188 120.893C150.595 118.897 151.036 116.81 151.126 114.779C151.205 112.898 151.691 109.812 151.363 107.185C151.149 105.533 150.629 104.076 149.397 103.284C149.024 103.043 148.787 102.653 148.527 102.263C148.346 101.977 148.154 101.701 147.804 101.575C147.612 101.506 147.51 101.3 147.578 101.105Z" fill="#6D4B5C"/>
<path d="M137.961 153.187C138.029 153.003 138.244 152.9 138.425 152.957C139.374 153.278 141.024 153.978 142.515 154.116C143.408 154.208 144.233 154.104 144.753 153.519C144.888 153.37 145.114 153.347 145.273 153.485C145.419 153.611 145.442 153.841 145.306 153.99C144.64 154.747 143.589 154.953 142.448 154.839C140.899 154.689 139.171 153.978 138.187 153.646C137.995 153.577 137.894 153.37 137.961 153.187Z" fill="#6D4B5C"/>
<path d="M138.662 147.485C138.718 147.302 138.922 147.187 139.114 147.233C141.159 147.806 143.238 148.529 145.306 147.68C145.498 147.611 145.713 147.692 145.792 147.887C145.86 148.07 145.77 148.277 145.589 148.357C143.363 149.263 141.114 148.552 138.922 147.933C138.718 147.887 138.605 147.68 138.662 147.485Z" fill="#6D4B5C"/>
<path d="M103.858 145.075C104.05 145.132 104.174 145.327 104.118 145.522C103.745 146.956 102.875 148.436 102.321 149.824C101.666 151.464 101.18 153.208 100.671 154.894C99.3832 159.105 98.9425 163.452 97.8351 167.662C97.7899 167.858 97.5865 167.972 97.3944 167.926C97.191 167.88 97.078 167.685 97.1232 167.49C98.2306 163.257 98.6826 158.898 99.9708 154.676C100.491 152.979 100.976 151.212 101.643 149.56C102.186 148.195 103.044 146.749 103.406 145.338C103.462 145.143 103.655 145.029 103.858 145.075Z" fill="#6D4B5C"/>
<path d="M116.842 154.585C116.834 154.6 116.823 154.612 116.808 154.619C116.616 154.837 116.458 155.078 116.424 155.113C115.52 156.34 114.876 157.958 114.39 159.392C114.345 159.518 114.333 159.655 114.288 159.77C112.819 163.464 111.215 167.135 110.254 170.99C110.209 171.185 110.005 171.299 109.813 171.253C109.61 171.208 109.497 171.013 109.542 170.818C110.514 166.929 112.119 163.223 113.61 159.506C113.655 159.403 113.655 159.277 113.701 159.162C114.198 157.659 114.887 155.962 115.836 154.688C115.87 154.642 116.119 154.287 116.367 154.034C116.503 153.885 116.65 153.77 116.763 153.725C116.91 153.656 117.045 153.667 117.147 153.713C117.237 153.747 117.328 153.805 117.384 153.908C117.554 154.195 117.622 154.768 117.588 155.48C117.509 156.914 117.09 158.921 117.011 159.598C116.74 161.858 116.356 164.152 116.277 166.447C116.209 168.443 116.345 170.932 115.847 172.871C115.791 173.055 115.588 173.181 115.395 173.123C115.203 173.077 115.079 172.882 115.136 172.687C115.621 170.806 115.486 168.363 115.554 166.424C115.633 164.107 116.017 161.801 116.288 159.518C116.367 158.852 116.785 156.856 116.853 155.445C116.876 155.113 116.876 154.814 116.842 154.585Z" fill="#6D4B5C"/>
<path d="M133.159 155.078C133.363 155.078 133.521 155.25 133.521 155.445C133.419 158.956 132.334 162.259 131.634 165.667C130.877 169.303 129.826 172.882 128.888 176.484C128.831 176.679 128.639 176.794 128.436 176.737C128.244 176.691 128.131 176.496 128.176 176.301C129.114 172.722 130.165 169.143 130.911 165.517C131.611 162.156 132.696 158.887 132.786 155.434C132.786 155.227 132.956 155.078 133.159 155.078Z" fill="#6D4B5C"/>
<path d="M134.605 171.769C134.345 172.274 134.04 172.733 133.645 173.123C133.532 173.238 133.261 173.387 133.057 173.41C132.876 173.433 132.718 173.376 132.616 173.261C132.503 173.123 132.413 172.951 132.368 172.733C132.323 172.481 132.323 172.148 132.357 171.792C132.503 170.542 133.159 168.798 133.34 168.248C133.758 167.009 134.289 165.839 134.786 164.645C135.543 162.867 136.199 155.915 136.176 153.988C136.165 153.793 136.334 153.633 136.538 153.621C136.73 153.621 136.899 153.782 136.899 153.988C136.933 155.961 136.233 163.097 135.464 164.921C134.967 166.102 134.447 167.25 134.04 168.477C133.859 169.005 133.227 170.68 133.091 171.873C133.057 172.114 133.057 172.32 133.08 172.504C133.08 172.55 133.087 172.592 133.102 172.63C133.117 172.622 133.129 172.615 133.136 172.607C133.826 171.93 134.187 170.989 134.526 170.095C134.571 169.991 134.888 168.867 134.978 168.684C135.046 168.546 135.136 168.5 135.17 168.489C135.272 168.443 135.374 168.454 135.453 168.477C135.521 168.511 135.588 168.546 135.645 168.638C135.735 168.787 135.792 169.005 135.792 169.292C135.803 169.613 135.758 170.049 135.656 170.53C135.306 172.343 134.345 174.936 133.973 175.59C133.803 175.876 133.521 176.209 133.272 176.542C133.091 176.817 132.91 177.092 132.91 177.368C132.91 177.402 132.91 177.437 132.91 177.471C132.967 177.448 133.046 177.414 133.102 177.379C133.306 177.241 133.509 177.058 133.6 176.943C134.006 176.427 134.481 175.957 134.786 175.349C135.114 174.672 135.532 174.064 135.814 173.353C135.882 173.158 136.097 173.066 136.278 173.135C136.47 173.215 136.572 173.421 136.492 173.605C136.21 174.339 135.781 174.97 135.442 175.658C135.125 176.324 134.617 176.829 134.187 177.391C134.029 177.586 133.622 177.953 133.272 178.113C132.989 178.24 132.729 178.24 132.537 178.148C132.357 178.045 132.176 177.827 132.176 177.368C132.176 177.024 132.323 176.679 132.526 176.347C132.786 175.945 133.148 175.567 133.34 175.234C133.611 174.764 134.187 173.238 134.605 171.769Z" fill="#6D4B5C"/>
<path d="M132.899 177.85C133.001 177.678 133.227 177.621 133.396 177.724C133.442 177.747 133.509 177.724 133.577 177.712C133.747 177.666 133.928 177.586 134.12 177.483C135.148 176.909 136.481 175.67 136.775 175.211C137.137 174.672 137.295 174.03 137.464 173.399C137.51 173.204 137.713 173.089 137.905 173.135C138.109 173.192 138.222 173.387 138.176 173.582C137.996 174.282 137.792 174.993 137.397 175.613C137.069 176.106 135.6 177.494 134.481 178.114C134.154 178.286 133.86 178.401 133.611 178.435C133.374 178.469 133.182 178.435 133.024 178.343C132.854 178.251 132.798 178.022 132.899 177.85Z" fill="#6D4B5C"/>
<path d="M134.255 177.93C134.233 177.724 134.38 177.54 134.572 177.517C137.397 177.15 138.12 175.326 138.764 172.86C138.809 172.665 139.013 172.55 139.205 172.596C139.408 172.653 139.521 172.848 139.476 173.043C138.753 175.82 137.86 177.827 134.673 178.24C134.47 178.263 134.289 178.125 134.255 177.93Z" fill="#6D4B5C"/>
<path d="M142.809 154.402C143.001 154.459 143.125 154.654 143.069 154.849C142.323 157.453 142.029 160.195 141.566 162.845C141.385 163.935 140.945 165.128 140.933 166.206C140.911 169.017 141.385 171.988 139.826 174.615C139.453 175.246 138.865 175.716 138.436 176.313C138.312 176.473 138.086 176.508 137.916 176.381C137.758 176.267 137.724 176.037 137.837 175.877C138.266 175.315 138.831 174.856 139.193 174.248C140.685 171.735 140.176 168.89 140.199 166.206C140.21 165.082 140.651 163.854 140.854 162.73C141.317 160.046 141.611 157.281 142.357 154.654C142.414 154.459 142.617 154.344 142.809 154.402Z" fill="#6D4B5C"/>
<path d="M138.165 66.264C138.131 66.4591 137.939 66.5967 137.747 66.5623C136.685 66.3787 135.883 66.1378 135.08 66.3673C134.56 66.5049 134.052 66.8606 133.453 67.5259C132.583 68.524 132.12 69.7744 131.69 71.0592C131.238 72.4129 130.831 73.8125 130.086 75.0514C129.283 76.3936 128.052 77.0934 126.797 77.7473C125.645 78.3438 124.458 78.906 123.622 80.0073C123.114 80.6726 123.001 81.3609 122.955 82.0607C122.91 82.8523 122.944 83.6553 122.729 84.4927C122.605 84.9287 122.13 85.4105 121.735 85.8808C121.611 86.03 121.498 86.1791 121.419 86.3282C121.351 86.4773 121.317 86.615 121.396 86.7641C121.498 86.9362 121.441 87.1542 121.272 87.2574C121.091 87.3607 120.876 87.3033 120.763 87.1312C120.481 86.6609 120.616 86.1791 120.955 85.6973C121.147 85.4334 121.396 85.1696 121.622 84.9057C121.803 84.6992 121.961 84.5042 122.017 84.3092C122.221 83.5176 122.176 82.7605 122.221 82.0148C122.277 81.1774 122.436 80.3744 123.046 79.5713C123.95 78.3783 125.204 77.7473 126.458 77.1049C127.6 76.5084 128.718 75.9003 129.453 74.6843C130.176 73.4913 130.56 72.1376 131.001 70.8298C131.453 69.4532 131.961 68.1225 132.899 67.0556C133.623 66.2411 134.255 65.8396 134.877 65.6675C135.781 65.4151 136.685 65.6445 137.871 65.851C138.063 65.8855 138.199 66.069 138.165 66.264Z" fill="#6D4B5C"/>
<path d="M137.758 66.379C137.577 66.2758 137.521 66.0578 137.622 65.8857C139.272 63.144 142.086 62.5818 144.821 63.2587C147.499 63.924 150.086 65.8054 151.363 67.9392C152.233 69.3846 152.403 72.264 152.335 73.9389C152.301 74.6043 152.109 75.4417 152.301 76.0841C152.663 77.2772 153.623 78.0458 154.561 78.8259C155.623 79.6863 156.674 80.5696 157.092 81.8774C157.748 83.9423 157.759 86.7644 156.64 88.7031C156.222 89.4258 155.567 90.2518 155.454 91.0892C155.341 91.9611 155.872 92.7297 156.46 93.4868C157.149 94.3702 157.929 95.242 158.222 96.1712C158.776 97.9149 158.279 100.106 157.172 101.964C156.064 103.811 154.369 105.314 152.584 105.693C152.38 105.739 152.188 105.612 152.143 105.417C152.109 105.222 152.233 105.027 152.426 104.982C154.041 104.649 155.544 103.261 156.539 101.597C157.533 99.9225 158.019 97.9608 157.522 96.3892C157.251 95.5288 156.516 94.7487 155.883 93.9342C155.16 93.005 154.584 92.0528 154.731 90.9974C154.844 90.0682 155.544 89.139 155.996 88.3475C157.025 86.5693 156.991 83.9882 156.392 82.0953C156.019 80.9137 155.047 80.1566 154.098 79.3765C153.036 78.5161 151.996 77.6213 151.601 76.2906C151.386 75.5679 151.567 74.6387 151.601 73.9045C151.668 72.3443 151.544 69.6599 150.731 68.3063C149.544 66.3216 147.137 64.5779 144.651 63.9584C142.222 63.3619 139.713 63.8323 138.255 66.2528C138.154 66.4249 137.928 66.4822 137.758 66.379Z" fill="#6D4B5C"/>
<path d="M87.2926 152.969L82.1285 151.375C81.2471 150.64 81.3225 150.136 82.3545 149.86C83.3866 149.585 85.172 149.788 87.7107 150.468C88.901 149.91 89.8916 149.631 90.6826 149.631C91.8578 149.631 92.9991 150.354 93.3155 151.581C93.6432 152.82 93.3946 153.657 92.5245 154.323C91.6657 154.988 90.1967 156.101 89.1119 154.908C88.3887 154.112 87.7823 153.466 87.2926 152.969Z" fill="#E57CA4"/>
<path d="M93.3154 151.58C100.856 153.523 105.858 154.781 108.322 155.354C112.028 156.215 126.165 160.276 128.571 160.792C130.978 161.32 134.301 162.146 136.549 162.949C138.798 163.763 140.99 164.428 141.216 165.243C141.453 166.046 141.114 166.883 140.561 167.067C140.018 167.25 137.408 166.482 135.216 165.782C133.035 165.071 124.006 163.339 118.322 160.803C114.541 159.121 109.64 157.756 103.621 156.708L93.1572 154.035L93.3154 151.58Z" fill="#DBD7D7"/>
<path fill-rule="evenodd" clip-rule="evenodd" d="M90.2988 155.492C90.2084 155.573 90.0954 155.607 89.9598 155.607C88.8411 155.63 87.9371 154.816 87.4851 153.703C86.841 152.12 87.1687 149.986 88.8863 149.183C90.1632 148.598 91.5983 148.931 92.6153 149.78C93.621 150.617 94.1973 151.959 93.8131 153.313C93.5645 154.15 93.1012 154.586 92.5249 154.919C92.0842 155.171 91.5757 155.332 91.0898 155.653C90.8299 155.825 90.4796 155.756 90.2988 155.492ZM90.4344 154.735C90.4419 154.728 90.4495 154.72 90.457 154.712C90.8751 154.437 91.3045 154.265 91.7113 154.07C92.1407 153.852 92.5362 153.611 92.7057 153.003C92.9769 152.097 92.5588 151.202 91.8695 150.64C91.1915 150.066 90.231 149.814 89.3835 150.204C88.2196 150.743 88.1179 152.212 88.5473 153.29C88.8185 153.944 89.2931 154.494 89.9485 154.483C90.1519 154.483 90.3214 154.575 90.4344 154.735Z" fill="#6D4B5C"/>
<path d="M82.4336 151.363C83.2133 151.696 86.4112 152.177 87.1118 152.235C87.4282 152.258 87.6655 152.521 87.6429 152.831C87.6203 153.141 87.3491 153.382 87.0327 153.359C86.253 153.302 82.5918 152.705 81.8686 152.349C81.6426 152.246 81.4618 152.04 81.3488 151.741C81.2471 151.455 81.2132 151.076 81.2471 150.709C81.2923 150.342 81.4053 149.975 81.5635 149.711C81.7217 149.458 81.9364 149.286 82.1624 149.206C82.8178 148.988 83.6088 149.046 84.445 149.218C85.4846 149.436 86.6033 149.837 87.496 149.837C87.8124 149.837 88.061 150.089 88.061 150.399C88.061 150.709 87.8124 150.961 87.496 150.961C86.6824 150.961 85.6993 150.675 84.7388 150.445C83.9478 150.25 83.1794 150.078 82.5692 150.262C82.5466 150.284 82.524 150.33 82.5127 150.353C82.4449 150.491 82.3997 150.663 82.3884 150.824C82.3658 151.007 82.4223 151.294 82.4336 151.363Z" fill="#6D4B5C"/>
<path d="M93.1568 152.004C93.1907 151.694 93.4732 151.465 93.7896 151.488C95.5637 151.671 97.27 152.429 99.0328 152.738C104.694 153.725 110.265 155.239 115.779 156.834C117.881 157.43 120.062 157.774 122.164 158.36C125.362 159.254 128.673 160.7 131.938 161.159C132.255 161.205 132.56 161.319 132.865 161.457C133.08 161.549 133.283 161.652 133.509 161.686C135.747 162.053 137.961 163.051 140.176 163.671C140.764 163.832 141.363 164.348 141.668 164.956C142.018 165.633 142.018 166.424 141.397 167.032C141.182 167.25 140.82 167.25 140.594 167.032C140.368 166.803 140.368 166.447 140.594 166.229C140.82 166 140.775 165.713 140.651 165.461C140.481 165.128 140.176 164.841 139.86 164.761C137.69 164.141 135.521 163.166 133.317 162.799C133.001 162.742 132.707 162.627 132.402 162.489C132.198 162.398 131.995 162.306 131.78 162.271C128.458 161.801 125.102 160.356 121.859 159.449C119.746 158.864 117.565 158.52 115.463 157.912C109.994 156.34 104.446 154.826 98.8407 153.851C97.1005 153.553 95.4168 152.784 93.6766 152.612C93.3602 152.589 93.1342 152.314 93.1568 152.004Z" fill="#6D4B5C"/>
<path d="M92.5357 153.967C92.6713 153.692 93.0216 153.577 93.3041 153.715C95.1573 154.621 98.2083 154.701 100.254 155.298C105.327 156.778 110.446 158.143 115.61 159.324C118.56 160.001 121.486 161.286 124.368 162.238C125.656 162.663 127.012 162.835 128.323 163.19C130.244 163.707 132.12 164.337 134.041 164.808C135.092 165.072 136.165 165.508 137.239 165.898C138.233 166.242 139.239 166.552 140.244 166.552C140.561 166.552 140.809 166.804 140.809 167.114C140.809 167.423 140.561 167.676 140.244 167.676C138.052 167.676 135.871 166.425 133.758 165.909C131.826 165.427 129.95 164.796 128.029 164.28C126.684 163.913 125.317 163.741 124.006 163.305C121.159 162.364 118.277 161.091 115.362 160.426C110.164 159.244 105.034 157.867 99.9259 156.376C97.8354 155.768 94.694 155.653 92.7956 154.724C92.5131 154.586 92.4001 154.254 92.5357 153.967Z" fill="#6D4B5C"/>
</g>
<defs>
<clipPath id="clip0_806_15339">
<rect width="226" height="229.436" fill="white" transform="translate(0 0.564453)"/>
</clipPath>
</defs>
</svg>
