<svg width="77" height="28" viewBox="0 0 77 28" fill="none" xmlns="http://www.w3.org/2000/svg">
<rect width="77" height="28" rx="14" fill="#2F88FF"/>
<path d="M35.992 8.768V20H42.312V17.888H38.728V8.768H35.992ZM43.617 20H46.353V8.768H43.617V20ZM53.1838 17.248L50.3998 8.768H47.4878L51.4718 20H54.8958L58.8798 8.768H55.9838L53.1838 17.248ZM66.9033 8.768H60.0233V20H66.9033V17.808H62.7593V15.344H66.4233V13.232H62.7593V10.96H66.9033V8.768Z" fill="white"/>
<path d="M14.343 6.93782C14.436 7.03069 14.5098 7.14098 14.5601 7.26238C14.6104 7.38378 14.6363 7.5139 14.6363 7.64532C14.6363 7.77673 14.6104 7.90686 14.5601 8.02826C14.5098 8.14966 14.436 8.25994 14.343 8.35282C12.8425 9.85363 11.9995 11.889 11.9995 14.0113C11.9995 16.1336 12.8425 18.169 14.343 19.6698C14.4359 19.7627 14.5095 19.873 14.5597 19.9944C14.61 20.1158 14.6358 20.2458 14.6357 20.3772C14.6357 20.5085 14.6098 20.6386 14.5595 20.7599C14.5092 20.8812 14.4354 20.9915 14.3425 21.0843C14.2496 21.1772 14.1393 21.2508 14.018 21.301C13.8966 21.3512 13.7665 21.3771 13.6352 21.377C13.5038 21.377 13.3738 21.3511 13.2524 21.3007C13.1311 21.2504 13.0209 21.1767 12.928 21.0838C9.02204 17.1778 9.02204 10.8438 12.928 6.93782C13.0209 6.84484 13.1312 6.77108 13.2526 6.72076C13.374 6.67043 13.5041 6.64453 13.6355 6.64453C13.767 6.64453 13.8971 6.67043 14.0185 6.72076C14.1399 6.77108 14.2502 6.84484 14.343 6.93782ZM27.074 6.93782C30.98 10.8448 30.98 17.1778 27.074 21.0838C26.8854 21.266 26.6328 21.3668 26.3706 21.3645C26.1084 21.3622 25.8576 21.257 25.6722 21.0716C25.4868 20.8862 25.3816 20.6354 25.3794 20.3732C25.3771 20.111 25.4779 19.8584 25.66 19.6698C27.1606 18.169 28.0036 16.1336 28.0036 14.0113C28.0036 11.889 27.1606 9.85363 25.66 8.35282C25.4724 8.16531 25.3669 7.91094 25.3668 7.64567C25.3667 7.3804 25.472 7.12596 25.6595 6.93832C25.847 6.75068 26.1014 6.64521 26.3667 6.64512C26.632 6.64502 26.8864 6.75031 27.074 6.93782ZM17.31 9.81182C17.4975 9.99935 17.6028 10.2537 17.6028 10.5188C17.6028 10.784 17.4975 11.0383 17.31 11.2258C16.946 11.5898 16.6572 12.022 16.4602 12.4976C16.2632 12.9732 16.1618 13.483 16.1618 13.9978C16.1618 14.5126 16.2632 15.0224 16.4602 15.498C16.6572 15.9737 16.946 16.4058 17.31 16.7698C17.4055 16.8621 17.4817 16.9724 17.5341 17.0944C17.5865 17.2164 17.6141 17.3476 17.6153 17.4804C17.6164 17.6132 17.5911 17.7449 17.5409 17.8678C17.4906 17.9907 17.4163 18.1023 17.3224 18.1962C17.2285 18.2901 17.1169 18.3644 16.994 18.4146C16.8711 18.4649 16.7394 18.4902 16.6066 18.4891C16.4739 18.4879 16.3426 18.4603 16.2206 18.4079C16.0986 18.3555 15.9883 18.2793 15.896 18.1838C14.7859 17.0736 14.1622 15.5679 14.1622 13.9978C14.1622 12.4278 14.7859 10.922 15.896 9.81182C16.0836 9.62435 16.3379 9.51903 16.603 9.51903C16.8682 9.51903 17.1225 9.62435 17.31 9.81182ZM24.269 9.81182C25.3792 10.922 26.0029 12.4278 26.0029 13.9978C26.0029 15.5679 25.3792 17.0736 24.269 18.1838C24.1762 18.2767 24.066 18.3504 23.9446 18.4007C23.8233 18.4511 23.6932 18.477 23.5619 18.477C23.4305 18.4771 23.3005 18.4512 23.1791 18.401C23.0577 18.3508 22.9474 18.2772 22.8545 18.1843C22.7616 18.0915 22.6879 17.9812 22.6376 17.8599C22.5873 17.7386 22.5614 17.6085 22.5613 17.4772C22.5613 17.3458 22.5871 17.2158 22.6373 17.0944C22.6876 16.973 22.7612 16.8627 22.854 16.7698C23.2181 16.4058 23.5069 15.9737 23.7039 15.498C23.9009 15.0224 24.0023 14.5126 24.0023 13.9978C24.0023 13.483 23.9009 12.9732 23.7039 12.4976C23.5069 12.022 23.2181 11.5898 22.854 11.2258C22.6665 11.0382 22.5612 10.7837 22.5613 10.5185C22.5614 10.2532 22.6669 9.99883 22.8545 9.81132C23.0422 9.62381 23.2966 9.51852 23.5619 9.51862C23.8272 9.51871 24.0815 9.62418 24.269 9.81182ZM20.082 12.5818C20.279 12.5818 20.4741 12.6206 20.6561 12.696C20.838 12.7714 21.0034 12.8819 21.1427 13.0212C21.282 13.1604 21.3925 13.3258 21.4679 13.5078C21.5432 13.6898 21.582 13.8848 21.582 14.0818C21.582 14.2788 21.5432 14.4739 21.4679 14.6558C21.3925 14.8378 21.282 15.0032 21.1427 15.1425C21.0034 15.2818 20.838 15.3923 20.6561 15.4676C20.4741 15.543 20.279 15.5818 20.082 15.5818C19.6842 15.5818 19.3027 15.4238 19.0214 15.1425C18.7401 14.8612 18.582 14.4796 18.582 14.0818C18.582 13.684 18.7401 13.3025 19.0214 13.0212C19.3027 12.7399 19.6842 12.5818 20.082 12.5818Z" fill="white"/>
</svg>
