<svg width="50" height="50" viewBox="0 0 50 50" fill="none" xmlns="http://www.w3.org/2000/svg">
<rect width="50" height="50" rx="25" fill="white" fill-opacity="0.16"/>
<path d="M25 12.332C22.7383 12.332 21.2383 14.0078 21.2031 16.3633V17.4062L28.7031 24.9062C28.7617 24.707 28.7852 24.5078 28.7852 24.2852V16.4453C28.7852 14.043 27.2852 12.332 25 12.332ZM33.5898 33.5664C33.8594 33.8359 34.3164 33.8359 34.5859 33.5664C34.8555 33.2852 34.8555 32.8398 34.5859 32.5703L16.8438 14.8516C16.5742 14.582 16.1289 14.5703 15.8477 14.8516C15.5781 15.1211 15.5781 15.5781 15.8477 15.8359L33.5898 33.5664ZM16.9258 24.5898C16.9258 29.0195 19.8789 32.1484 24.3086 32.4414V35.6406H19.7617C19.375 35.6406 19.0703 35.9453 19.0703 36.3203C19.0703 36.707 19.375 37.0117 19.7617 37.0117H30.2266C30.6133 37.0117 30.918 36.707 30.918 36.3203C30.918 35.9453 30.6133 35.6406 30.2266 35.6406H25.6797V32.4414C27.1328 32.3594 28.4219 31.9492 29.4883 31.2812L28.5156 30.3086C27.543 30.8594 26.3594 31.1758 25 31.1758C20.9336 31.1758 18.2969 28.4805 18.2969 24.543V22.3047C18.2969 21.918 17.9922 21.6133 17.6172 21.6133C17.2305 21.6133 16.9258 21.918 16.9258 22.3047V24.5898ZM31.1406 27.332L32.1953 28.3867C32.7578 27.2969 33.0625 26.0078 33.0625 24.5898V22.3047C33.0625 21.918 32.7578 21.6133 32.3828 21.6133C31.9961 21.6133 31.6914 21.918 31.6914 22.3047V24.543C31.6914 25.5742 31.5039 26.5117 31.1406 27.332ZM25 28.4102C25.4922 28.4102 25.9492 28.3164 26.3477 28.1406L21.2031 22.9961V24.2852C21.2031 26.6875 22.7148 28.4102 25 28.4102Z" fill="white"/>
</svg>
