<svg width="50" height="50" viewBox="0 0 50 50" fill="none" xmlns="http://www.w3.org/2000/svg">
<rect width="50" height="50" rx="25" fill="white" fill-opacity="0.16"/>
<path d="M17 24.9766C17 29.4062 19.9531 32.5352 24.3828 32.8281V36.0273H19.8359C19.4492 36.0273 19.1445 36.332 19.1445 36.707C19.1445 37.0938 19.4492 37.3984 19.8359 37.3984H30.3008C30.6875 37.3984 30.9922 37.0938 30.9922 36.707C30.9922 36.332 30.6875 36.0273 30.3008 36.0273H25.7539V32.8281C27.207 32.7461 28.4961 32.3359 29.5625 31.668L28.5898 30.6953C27.6172 31.2461 26.4336 31.5625 25.0742 31.5625C21.0078 31.5625 18.3711 28.8672 18.3711 24.9297V22.6914C18.3711 22.3047 18.0664 22 17.6914 22C17.3047 22 17 22.3047 17 22.6914V24.9766Z" fill="white"/>
<path d="M32.9922 24.9766C32.9922 29.4062 30.0391 32.5352 25.6094 32.8281V36.0273H30.1562C30.543 36.0273 30.8477 36.332 30.8477 36.707C30.8477 37.0938 30.543 37.3984 30.1562 37.3984H19.6914C19.3047 37.3984 19 37.0938 19 36.707C19 36.332 19.3047 36.0273 19.6914 36.0273H24.2383V32.8281C22.7852 32.7461 21.4961 32.3359 20.4297 31.668L21.4023 30.6953C22.375 31.2461 23.5586 31.5625 24.918 31.5625C28.9844 31.5625 31.6211 28.8672 31.6211 24.9297V22.6914C31.6211 22.3047 31.9258 22 32.3008 22C32.6875 22 32.9922 22.3047 32.9922 22.6914V24.9766Z" fill="white"/>
<rect x="21" y="13" width="8" height="17" rx="4" fill="white"/>
</svg>
