<svg width="25" height="22" viewBox="0 0 25 22" fill="none" xmlns="http://www.w3.org/2000/svg">
<g filter="url(#filter0_d_3_88887)">
<path d="M13.9748 9.16212C13.7514 8.9104 13.2714 8.89159 13.015 9.12437L12.9185 9.21243L16.0268 12.8009C16.1261 12.7653 16.2226 12.7338 16.3191 12.6961C16.6335 12.5681 16.73 12.2577 16.5315 12.0334L13.9748 9.16212Z" fill="#324396"/>
<path d="M9.54099 3.78519C9.91413 3.68818 10.0627 3.34228 9.84381 3.08911L7.33768 0.203576C7.14028 -0.022108 6.73479 -0.0685196 6.46721 0.106564C6.38345 0.163471 6.30765 0.222611 6.22937 0.279517L9.32207 3.84L9.54099 3.78519Z" fill="#324396"/>
<path d="M12.7832 9.88244C12.2513 10.3992 11.2644 10.356 10.8014 9.79812L7.43318 5.73947C6.97016 5.1794 7.28506 4.41616 8.07087 4.20423L8.38845 4.11773L5.50696 0.640625C3.7342 2.27321 3.46171 4.73598 5.03068 6.62591L7.0707 9.08447L7.86979 10.0467L8.90436 11.2965C10.4734 13.1886 13.3759 13.8934 15.8925 13.1497L13.0507 9.62515L12.7832 9.88244Z" fill="#324396"/>
<path d="M16.2596 7.04472C16.0953 7.01819 15.9371 7.08761 15.9012 7.19793C15.8653 7.30826 15.9639 7.41859 16.1251 7.44315C17.3407 7.63314 18.3739 8.13568 19.0399 8.85896C19.7059 9.58215 19.9179 10.4382 19.6402 11.2677C19.6043 11.3781 19.7029 11.4884 19.8642 11.513C19.8881 11.517 19.909 11.5191 19.9299 11.5191C20.0673 11.5191 20.1898 11.4558 20.2196 11.3597C20.5332 10.422 20.2912 9.45776 19.5416 8.64252C18.7952 7.82519 17.6304 7.25728 16.2596 7.04481L16.2596 7.04472Z" fill="#324396"/>
<path d="M16.2148 7.68616C16.0706 7.6558 15.9318 7.73526 15.9003 7.86157C15.8688 7.98787 15.9553 8.11418 16.0968 8.14229C16.8491 8.29433 17.4886 8.70123 17.9 9.28603C18.3115 9.87071 18.4452 10.5631 18.2722 11.232C18.2407 11.3583 18.3272 11.4846 18.4687 11.5127C18.4897 11.5173 18.5081 11.5197 18.5264 11.5197C18.6469 11.5197 18.7545 11.4472 18.7806 11.3373C18.9825 10.5445 18.8278 9.72817 18.3403 9.03818C17.8582 8.34571 17.1033 7.86622 16.2148 7.68619L16.2148 7.68616Z" fill="#324396"/>
<path d="M16.1281 8.96743C16.0248 8.93696 15.9215 9.0167 15.8985 9.14344C15.8755 9.27018 15.9387 9.39692 16.0419 9.42513C16.7037 9.61054 17.1187 10.4203 16.9675 11.2322C16.9446 11.359 17.0077 11.4857 17.111 11.5139C17.1263 11.5186 17.1397 11.5209 17.1531 11.5209C17.241 11.5209 17.3195 11.4482 17.3386 11.3379C17.5395 10.2746 16.9963 9.21153 16.128 8.96746L16.1281 8.96743Z" fill="#324396"/>
</g>
<defs>
<filter id="filter0_d_3_88887" x="0" y="0" width="24.3535" height="21.4414" filterUnits="userSpaceOnUse" color-interpolation-filters="sRGB">
<feFlood flood-opacity="0" result="BackgroundImageFix"/>
<feColorMatrix in="SourceAlpha" type="matrix" values="0 0 0 0 0 0 0 0 0 0 0 0 0 0 0 0 0 0 127 0" result="hardAlpha"/>
<feOffset dy="4"/>
<feGaussianBlur stdDeviation="2"/>
<feComposite in2="hardAlpha" operator="out"/>
<feColorMatrix type="matrix" values="0 0 0 0 0 0 0 0 0 0 0 0 0 0 0 0 0 0 0.25 0"/>
<feBlend mode="normal" in2="BackgroundImageFix" result="effect1_dropShadow_3_88887"/>
<feBlend mode="normal" in="SourceGraphic" in2="effect1_dropShadow_3_88887" result="shape"/>
</filter>
</defs>
</svg>
