<svg width="20" height="20" viewBox="0 0 20 20" fill="none" xmlns="http://www.w3.org/2000/svg">
<path d="M14.6034 6.16448C15.6519 5.93167 17.0175 4.89104 17.2253 4.37854C17.3472 4.07854 16.7394 3.60979 16.5769 3.42073C16.205 2.98948 16.355 2.77698 16.4987 2.26292C16.6628 1.67854 16.2737 1.03323 15.7222 0.780106C15.1706 0.526981 14.5112 0.606669 13.9565 0.853543C13.4019 1.10042 12.9284 1.49729 12.4644 1.88792C12.1253 1.67386 11.5847 0.728543 10.7097 1.34261C10.105 1.76604 10.0503 2.68792 10.1284 3.42386C10.3112 5.12229 10.73 6.00354 11.519 6.24104C12.5159 6.54104 13.619 6.38323 14.6034 6.16448Z" fill="#FFCA28"/>
<path d="M16.3067 1.2793C16.1738 3.56836 13.941 5.08711 12.8817 5.75586L13.5692 6.34648C13.5692 6.34648 14.0051 6.35586 14.602 6.16523C15.6254 5.84023 17.1207 4.92148 17.2238 4.3793C17.3754 3.59023 16.566 3.76211 16.3832 3.13867C16.2879 2.80898 16.8473 2.18555 16.3067 1.2793ZM12.466 1.89023C12.466 1.89023 12.0676 1.48242 11.7723 1.29648C11.6254 1.57305 11.5207 1.87305 11.4692 2.18242C11.377 2.72617 11.4692 3.49805 11.6863 4.07305C11.7207 4.16211 11.8488 4.14805 11.8629 4.0543C12.0504 2.81836 12.466 1.89023 12.466 1.89023Z" fill="#E2A610"/>
<path d="M9.68176 5.9632C9.68176 5.9632 4.80833 6.48976 2.60989 10.721C0.411453 14.9523 2.2802 17.5179 4.25833 18.4523C6.23645 19.3866 11.2208 19.7163 14.463 18.9476C17.7052 18.1788 18.5161 16.5851 18.3646 15.046C18.1443 12.7991 16.0568 11.4179 16.0568 11.4179C16.0568 11.4179 16.1396 8.64288 13.9865 6.84132C12.0755 5.24132 9.68176 5.9632 9.68176 5.9632Z" fill="#FFCA28"/>
<path d="M11.681 13.0825C10.6357 11.7637 9.40136 11.5872 9.00604 11.1137C8.79042 10.8559 8.66386 10.595 8.71229 10.2715C8.76386 9.92778 9.16229 9.69028 9.47167 9.63247C9.83261 9.56372 10.6935 9.59966 11.417 10.2887C11.5889 10.4512 11.5264 10.7043 11.5217 10.9309C11.5092 11.4168 12.2045 11.8887 12.767 11.4825C13.331 11.0747 12.8982 10.1668 12.5342 9.72622C12.2592 9.39341 11.2623 8.6606 10.0232 8.54497C9.6748 8.51216 8.27323 8.30435 7.46386 9.84341C7.23104 10.2856 7.14511 11.3543 8.36386 12.2575C8.61854 12.4465 9.94042 13.1184 10.3076 13.5543C10.9435 14.309 10.5076 14.9731 10.0107 15.0606C8.65604 15.2981 7.88886 14.5653 7.74667 14.1637C7.64511 13.8778 7.75136 13.5684 7.62011 13.2997C7.48573 13.0231 7.21073 12.9137 6.92011 13.0059C5.96698 13.309 6.27011 14.3512 6.69198 14.9247C7.14354 15.5387 7.69823 15.909 8.32167 16.1122C10.6482 16.87 11.767 15.6731 11.9623 14.7965C12.106 14.1543 12.0904 13.5981 11.681 13.0825Z" fill="#6B4B46"/>
<path d="M11.1191 7.6543C9.13945 11.8824 8.79883 17.2215 8.79883 17.2215" stroke="#6B4B46" stroke-width="0.976562" stroke-miterlimit="10"/>
<path d="M12.7612 4.99383C14.08 5.42352 14.3722 6.61571 14.2768 6.94071C14.1628 7.32196 12.7018 5.83758 10.53 5.92665C9.7706 5.9579 9.99091 5.49227 10.3425 5.22352C10.8065 4.86883 11.5862 4.61258 12.7612 4.99383Z" fill="#6D4C41"/>
<path d="M12.7612 4.99383C14.08 5.42352 14.3722 6.61571 14.2768 6.94071C14.1628 7.32196 12.7018 5.83758 10.53 5.92665C9.7706 5.9579 9.99091 5.49227 10.3425 5.22352C10.8065 4.86883 11.5862 4.61258 12.7612 4.99383Z" fill="#6B4B46"/>
<path d="M15.0768 9.19646C15.2424 9.0824 15.7986 9.27927 15.9549 10.3683C16.0314 10.9011 16.0549 11.4168 16.0549 11.4168C16.0549 11.4168 15.3986 10.8277 15.1814 10.4136C14.908 9.89021 14.8018 9.38396 15.0768 9.19646Z" fill="#E2A610"/>
</svg>
