<svg width="24" height="25" viewBox="0 0 24 25" fill="none" xmlns="http://www.w3.org/2000/svg">
<path d="M17.5245 7.9003C18.7826 7.62093 20.4214 6.37218 20.6707 5.75718C20.817 5.39718 20.0876 4.83468 19.8926 4.60781C19.4464 4.09031 19.6264 3.83531 19.7989 3.21843C19.9957 2.51718 19.5289 1.74281 18.867 1.43906C18.2051 1.13531 17.4139 1.23093 16.7482 1.52718C16.0826 1.82343 15.5145 2.29968 14.9576 2.76843C14.5507 2.51156 13.902 1.37718 12.852 2.11406C12.1264 2.62218 12.0607 3.72843 12.1545 4.61156C12.3739 6.64968 12.8764 7.70718 13.8232 7.99218C15.0195 8.35218 16.3432 8.1628 17.5245 7.9003Z" fill="#FFCA28"/>
<path d="M19.5684 2.03711C19.409 4.78398 16.7296 6.60648 15.4584 7.40898L16.2834 8.11773C16.2834 8.11773 16.8065 8.12898 17.5227 7.90023C18.7509 7.51023 20.5452 6.40773 20.669 5.75711C20.8509 4.81023 19.8796 5.01648 19.6602 4.26836C19.5459 3.87273 20.2171 3.12461 19.5684 2.03711ZM14.9596 2.77023C14.9596 2.77023 14.4815 2.28086 14.1271 2.05773C13.9509 2.38961 13.8252 2.74961 13.7634 3.12086C13.6527 3.77336 13.7634 4.69961 14.024 5.38961C14.0652 5.49648 14.219 5.47961 14.2359 5.36711C14.4609 3.88398 14.9596 2.77023 14.9596 2.77023Z" fill="#E2A610"/>
<path d="M11.6185 7.65779C11.6185 7.65779 5.77039 8.28966 3.13226 13.3672C0.494134 18.4447 2.73663 21.5234 5.11038 22.6447C7.48414 23.7659 13.4654 24.1615 17.356 23.239C21.2466 22.3165 22.2198 20.404 22.0379 18.5572C21.7735 15.8609 19.2685 14.2034 19.2685 14.2034C19.2685 14.2034 19.3679 10.8734 16.7841 8.71154C14.491 6.79154 11.6185 7.65779 11.6185 7.65779Z" fill="#FFCA28"/>
<path d="M14.018 16.2025C12.7637 14.62 11.2824 14.4081 10.808 13.84C10.5493 13.5306 10.3974 13.2175 10.4555 12.8294C10.5174 12.4169 10.9955 12.1319 11.3668 12.0625C11.7999 11.98 12.833 12.0231 13.7012 12.85C13.9074 13.045 13.8324 13.3487 13.8268 13.6206C13.8118 14.2037 14.6462 14.77 15.3212 14.2825C15.998 13.7931 15.4787 12.7037 15.0418 12.175C14.7118 11.7756 13.5155 10.8962 12.0287 10.7575C11.6105 10.7181 9.92866 10.4687 8.95741 12.3156C8.67803 12.8462 8.57491 14.1287 10.0374 15.2125C10.343 15.4394 11.9293 16.2456 12.3699 16.7687C13.133 17.6744 12.6099 18.4712 12.0137 18.5762C10.388 18.8612 9.46741 17.9819 9.29679 17.5C9.17491 17.1569 9.30241 16.7856 9.14491 16.4631C8.98366 16.1312 8.65366 16 8.30491 16.1106C7.16116 16.4744 7.52491 17.725 8.03116 18.4131C8.57304 19.15 9.23866 19.5944 9.98678 19.8381C12.7787 20.7475 14.1212 19.3112 14.3555 18.2594C14.528 17.4887 14.5093 16.8212 14.018 16.2025Z" fill="#6B4B46"/>
<path d="M13.343 9.68945C10.9673 14.7632 10.5586 21.1701 10.5586 21.1701" stroke="#6B4B46" stroke-width="0.976562" stroke-miterlimit="10"/>
<path d="M15.3135 6.49553C16.896 7.01115 17.2466 8.44178 17.1322 8.83178C16.9953 9.28928 15.2422 7.50803 12.636 7.6149C11.7247 7.6524 11.9891 7.09365 12.411 6.77115C12.9678 6.34553 13.9035 6.03803 15.3135 6.49553Z" fill="#6D4C41"/>
<path d="M15.3135 6.49553C16.896 7.01115 17.2466 8.44178 17.1322 8.83178C16.9953 9.28928 15.2422 7.50803 12.636 7.6149C11.7247 7.6524 11.9891 7.09365 12.411 6.77115C12.9678 6.34553 13.9035 6.03803 15.3135 6.49553Z" fill="#6B4B46"/>
<path d="M18.0913 11.5381C18.2901 11.4012 18.9576 11.6375 19.1451 12.9443C19.237 13.5837 19.2651 14.2025 19.2651 14.2025C19.2651 14.2025 18.4776 13.4956 18.217 12.9987C17.8888 12.3706 17.7613 11.7631 18.0913 11.5381Z" fill="#E2A610"/>
</svg>
