<svg width="69" height="69" viewBox="0 0 69 69" fill="none" xmlns="http://www.w3.org/2000/svg">
<g filter="url(#filter0_d_455_18864)">
<circle cx="34.9716" cy="29.5009" r="24.0282" fill="white"/>
</g>
<g filter="url(#filter1_d_455_18864)">
<path d="M35.352 16.8762C38.2104 16.8791 40.9769 17.8838 43.171 19.7157C45.3649 21.5475 46.8468 24.0902 47.359 26.9015C47.8712 29.7128 47.3811 32.6148 45.9742 35.1021L47.5691 40.4355C47.6305 40.6452 47.5871 40.8717 47.4525 41.0438C47.3182 41.2161 47.1089 41.3129 46.8905 41.304C46.8276 41.3139 46.7633 41.3139 46.7004 41.304L41.3656 39.7365L41.3658 39.7367C39.1885 40.9605 36.6883 41.4877 34.2021 41.2474C31.7158 41.0069 29.363 40.0105 27.4608 38.3923C25.5584 36.774 24.198 34.6116 23.5627 32.1965C22.9274 29.7814 23.0478 27.2296 23.9078 24.885C24.7676 22.5405 26.3258 20.5157 28.3719 19.0838C30.4182 17.6519 32.8543 16.8812 35.3522 16.876L35.352 16.8762ZM41.4605 31.1258C42.0004 31.1258 42.5184 30.9112 42.9003 30.5295C43.2821 30.1477 43.4967 29.63 43.4967 29.0901C43.4967 28.5501 43.2821 28.0325 42.9003 27.6506C42.5184 27.2689 42.0004 27.0544 41.4605 27.0544C40.9204 27.0544 40.4024 27.269 40.0207 27.6506C39.6387 28.0325 39.4243 28.5501 39.4243 29.0901C39.4243 29.63 39.6387 30.1477 40.0207 30.5295C40.4024 30.9112 40.9204 31.1258 41.4605 31.1258ZM35.352 31.1258C35.8921 31.1258 36.4099 30.9112 36.7918 30.5295C37.1736 30.1477 37.3882 29.63 37.3882 29.0901C37.3882 28.5501 37.1736 28.0325 36.7918 27.6506C36.4099 27.2689 35.8921 27.0544 35.352 27.0544C34.8119 27.0544 34.2941 27.269 33.9122 27.6506C33.5304 28.0325 33.3158 28.5501 33.3158 29.0901C33.3158 29.63 33.5304 30.1477 33.9122 30.5295C34.2941 30.9112 34.8119 31.1258 35.352 31.1258ZM29.2435 31.1258C29.7836 31.1258 30.3015 30.9112 30.6833 30.5295C31.0653 30.1477 31.2797 29.63 31.2797 29.0901C31.2797 28.5501 31.0653 28.0325 30.6833 27.6506C30.3015 27.2689 29.7836 27.0544 29.2435 27.0544C28.7036 27.0544 28.1856 27.269 27.8037 27.6506C27.4219 28.0325 27.2073 28.5501 27.2073 29.0901C27.2073 29.63 27.4219 30.1477 27.8037 30.5295C28.1856 30.9112 28.7036 31.1258 29.2435 31.1258Z" fill="#324396"/>
</g>
<defs>
<filter id="filter0_d_455_18864" x="0.943359" y="0.472656" width="68.0564" height="68.0564" filterUnits="userSpaceOnUse" color-interpolation-filters="sRGB">
<feFlood flood-opacity="0" result="BackgroundImageFix"/>
<feColorMatrix in="SourceAlpha" type="matrix" values="0 0 0 0 0 0 0 0 0 0 0 0 0 0 0 0 0 0 127 0" result="hardAlpha"/>
<feOffset dy="5"/>
<feGaussianBlur stdDeviation="5"/>
<feColorMatrix type="matrix" values="0 0 0 0 0.576471 0 0 0 0 0.576471 0 0 0 0 0.576471 0 0 0 0.25 0"/>
<feBlend mode="normal" in2="BackgroundImageFix" result="effect1_dropShadow_455_18864"/>
<feBlend mode="normal" in="SourceGraphic" in2="effect1_dropShadow_455_18864" result="shape"/>
</filter>
<filter id="filter1_d_455_18864" x="19.1609" y="16.876" width="32.4355" height="32.4355" filterUnits="userSpaceOnUse" color-interpolation-filters="sRGB">
<feFlood flood-opacity="0" result="BackgroundImageFix"/>
<feColorMatrix in="SourceAlpha" type="matrix" values="0 0 0 0 0 0 0 0 0 0 0 0 0 0 0 0 0 0 127 0" result="hardAlpha"/>
<feOffset dy="4"/>
<feGaussianBlur stdDeviation="2"/>
<feComposite in2="hardAlpha" operator="out"/>
<feColorMatrix type="matrix" values="0 0 0 0 0 0 0 0 0 0 0 0 0 0 0 0 0 0 0.25 0"/>
<feBlend mode="normal" in2="BackgroundImageFix" result="effect1_dropShadow_455_18864"/>
<feBlend mode="normal" in="SourceGraphic" in2="effect1_dropShadow_455_18864" result="shape"/>
</filter>
</defs>
</svg>
