<svg width="36" height="44" viewBox="0 0 36 44" fill="none" xmlns="http://www.w3.org/2000/svg">
<path d="M31.8703 23.7623V5.41443C31.8695 5.31581 31.8367 5.22012 31.7769 5.14167C31.7172 5.06322 31.6336 5.00622 31.5388 4.97919C26.4035 3.56878 18.4013 1.42862 13.2656 0.0192151C13.2 -0.00159644 13.1301 -0.00557752 13.0626 0.00763782C12.995 0.0208532 12.9319 0.0508409 12.8789 0.0948442C12.7702 0.165966 12.6931 0.283166 12.6931 0.454458C12.7086 6.37256 12.7247 12.2887 12.7392 18.2068C10.0316 16.2519 5.025 16.7493 3.78488 20.1015C3.00505 22.2136 3.54998 24.6443 5.21032 26.1368C6.97733 27.727 9.7696 27.6965 11.8917 26.9978C13.8856 26.3402 15.5009 24.5862 15.8069 22.4996C15.9607 21.4508 15.84 20.3149 15.84 19.2616V9.98523C19.1867 10.9158 25.3963 12.5762 28.7445 13.5113C28.749 16.6571 28.7615 19.9427 28.768 22.718C27.0361 21.4238 24.6215 21.3642 22.588 22.0548C19.941 22.9509 19.1231 25.5528 19.654 28.1317C20.9061 34.1971 31.0189 32.5953 31.8368 27.0233C31.9906 25.9675 31.8703 24.8246 31.8703 23.7648" fill="#27AAE1"/>
<path d="M6.74716 34.1907C7.1417 33.8289 7.04951 33.0899 6.54091 32.5391C6.03466 31.9875 5.30263 31.8336 4.9081 32.1969L3.24248 33.7344C2.84873 34.0969 2.9456 34.8367 3.45263 35.3891C3.95732 35.9399 4.68779 36.0922 5.08154 35.7289L6.74716 34.1907ZM32.1058 41.4235C32.5003 41.0602 32.4073 40.3211 31.8987 39.7711C31.3917 39.2203 30.6604 39.0664 30.2667 39.4282L28.6003 40.968C28.2065 41.3282 28.3034 42.0703 28.8097 42.6219C29.3159 43.1727 30.0456 43.3235 30.4394 42.9625L32.1058 41.4235Z" fill="#E7E6E6"/>
</svg>
