<svg width="27" height="27" viewBox="0 0 27 27" fill="none" xmlns="http://www.w3.org/2000/svg">
<path d="M13.5 3.74902C11.8037 3.74902 10.6787 5.00586 10.6523 6.77246V7.55469L16.2773 13.1797C16.3213 13.0303 16.3389 12.8809 16.3389 12.7139V6.83398C16.3389 5.03223 15.2139 3.74902 13.5 3.74902ZM19.9424 19.6748C20.1445 19.877 20.4873 19.877 20.6895 19.6748C20.8916 19.4639 20.8916 19.1299 20.6895 18.9277L7.38281 5.63867C7.18066 5.43652 6.84668 5.42773 6.63574 5.63867C6.43359 5.84082 6.43359 6.18359 6.63574 6.37695L19.9424 19.6748ZM7.44434 12.9424C7.44434 16.2646 9.65918 18.6113 12.9814 18.8311V21.2305H9.57129C9.28125 21.2305 9.05273 21.459 9.05273 21.7402C9.05273 22.0303 9.28125 22.2588 9.57129 22.2588H17.4199C17.71 22.2588 17.9385 22.0303 17.9385 21.7402C17.9385 21.459 17.71 21.2305 17.4199 21.2305H14.0098V18.8311C15.0996 18.7695 16.0664 18.4619 16.8662 17.9609L16.1367 17.2314C15.4072 17.6445 14.5195 17.8818 13.5 17.8818C10.4502 17.8818 8.47266 15.8604 8.47266 12.9072V11.2285C8.47266 10.9385 8.24414 10.71 7.96289 10.71C7.67285 10.71 7.44434 10.9385 7.44434 11.2285V12.9424ZM18.1055 14.999L18.8965 15.79C19.3184 14.9727 19.5469 14.0059 19.5469 12.9424V11.2285C19.5469 10.9385 19.3184 10.71 19.0371 10.71C18.7471 10.71 18.5186 10.9385 18.5186 11.2285V12.9072C18.5186 13.6807 18.3779 14.3838 18.1055 14.999ZM13.5 15.8076C13.8691 15.8076 14.2119 15.7373 14.5107 15.6055L10.6523 11.7471V12.7139C10.6523 14.5156 11.7861 15.8076 13.5 15.8076Z" fill="black"/>
</svg>
