<svg width="16" height="18" viewBox="0 0 16 18" fill="none" xmlns="http://www.w3.org/2000/svg">
<path d="M9.78381 13.5623C9.78381 14.6508 8.90137 15.5333 7.81281 15.5333C6.72426 15.5333 5.84181 14.6508 5.84181 13.5623C5.84181 13.5233 5.85081 13.4863 5.85281 13.4473H4.01381C4.01381 13.4863 4.00781 13.5233 4.00781 13.5623C4.00781 15.6637 5.71137 17.3673 7.81281 17.3673C9.91426 17.3673 11.6178 15.6637 11.6178 13.5623C11.6178 13.5233 11.6178 13.4853 11.6118 13.4473H9.77181C9.77481 13.4843 9.78381 13.5213 9.78381 13.5623Z" fill="#F32965"/>
<path fill-rule="evenodd" clip-rule="evenodd" d="M13.701 11.671H14.701H14.706C15.2124 11.671 15.623 12.0816 15.623 12.588C15.623 13.0944 15.2124 13.505 14.706 13.505H0.917C0.410555 13.505 0 13.0944 0 12.588C0 12.0816 0.410555 11.671 0.917 11.671H1.917V5.892C1.917 2.63794 4.55494 0 7.809 0C11.0631 0 13.701 2.63794 13.701 5.892V11.671ZM3.756 5.892V11.671H11.872V5.892C11.872 3.65083 10.0552 1.834 7.814 1.834C5.57283 1.834 3.756 3.65083 3.756 5.892Z" fill="#F32965"/>
</svg>
