<?xml version="1.0" encoding="utf-8"?>
<!-- Generator: Adobe Illustrator 16.0.0, SVG Export Plug-In . SVG Version: 6.00 Build 0)  -->
<!DOCTYPE svg PUBLIC "-//W3C//DTD SVG 1.1//EN" "http://www.w3.org/Graphics/SVG/1.1/DTD/svg11.dtd">
<svg version="1.1" id="Layer_1" xmlns="http://www.w3.org/2000/svg" xmlns:xlink="http://www.w3.org/1999/xlink" x="0px" y="0px"
	 width="17px" height="18px" viewBox="0 0 17 18" enable-background="new 0 0 17 18" xml:space="preserve">
<path fill="none" stroke="#fff" stroke-width="0.8942" stroke-miterlimit="10" d="M10.799,14.748c0,0.61-0.242,1.195-0.674,1.626
	c-0.431,0.432-1.016,0.674-1.626,0.674c-0.61,0-1.194-0.242-1.626-0.674C6.441,15.943,6.2,15.358,6.2,14.748H10.799z M14.248,13.599
	H1.715c-0.184,0-0.358-0.072-0.488-0.201c-0.13-0.131-0.202-0.306-0.202-0.489c0-0.183,0.072-0.357,0.202-0.487
	c0.13-0.129,0.304-0.202,0.488-0.202H2.75V7.851c0-2.783,1.978-5.105,4.605-5.634c-0.016-0.16,0.001-0.321,0.052-0.474
	C7.458,1.59,7.539,1.449,7.647,1.33s0.239-0.214,0.386-0.279s0.306-0.099,0.466-0.099s0.32,0.033,0.467,0.099
	c0.147,0.065,0.279,0.16,0.386,0.279c0.108,0.119,0.189,0.26,0.24,0.413c0.051,0.152,0.067,0.313,0.052,0.474
	c1.3,0.264,2.467,0.969,3.308,1.996c0.838,1.026,1.297,2.312,1.297,3.638v4.368h1.037c0.183,0,0.356,0.073,0.487,0.202
	c0.129,0.13,0.202,0.305,0.202,0.487c0,0.184-0.073,0.358-0.202,0.489c-0.131,0.129-0.305,0.201-0.487,0.201H14.248z"/>
</svg>
