<svg width="98" height="112" viewBox="0 0 98 112" fill="none" xmlns="http://www.w3.org/2000/svg">
<g clip-path="url(#clip0_3_102143)">
<path d="M63.9996 123.941C95.6787 123.941 121.36 98.2598 121.36 66.5807C121.36 34.9017 95.6787 9.2207 63.9996 9.2207C32.3206 9.2207 6.63965 34.9017 6.63965 66.5807C6.63965 98.2598 32.3206 123.941 63.9996 123.941Z" fill="#D68F30"/>
<path d="M10.54 81.4807V87.3407C11.14 88.8907 11.81 90.4207 12.54 91.9007V81.4807H10.54ZM17.08 92.5107V99.5507C17.88 100.681 18.71 101.791 19.58 102.861V92.5107H17.08ZM25.74 101.711V109.301C26.71 110.171 27.71 111.001 28.74 111.801V101.711H25.74ZM36.4 108.701V116.861C37.38 117.401 38.38 117.911 39.4 118.401V108.701H36.4ZM48.49 113.151V121.791C49.48 122.071 50.48 122.321 51.49 122.551V113.151H48.49ZM62.64 114.691V123.901C63.09 123.911 63.54 123.931 64 123.931C64.55 123.931 65.1 123.901 65.64 123.891V114.691H62.64ZM76.79 113.081V122.481C77.8 122.251 78.8 121.991 79.79 121.711V113.081H76.79ZM88.85 108.571V118.281C89.87 117.791 90.87 117.261 91.85 116.711V108.571H88.85ZM99.48 101.521V111.621C100.509 110.816 101.51 109.976 102.48 109.101V101.521H99.48ZM111.09 92.2907H108.59V102.641C109.46 101.561 110.3 100.451 111.09 99.3107V92.2907ZM117.59 81.2207H115.59V91.6607C116.32 90.1507 116.99 88.6007 117.59 87.0307V81.2207Z" fill="#BC6F00"/>
<path d="M63.9996 118.781C95.6787 118.781 121.36 93.0996 121.36 61.4205C121.36 29.7415 95.6787 4.06055 63.9996 4.06055C32.3206 4.06055 6.63965 29.7415 6.63965 61.4205C6.63965 93.0996 32.3206 118.781 63.9996 118.781Z" fill="#FFF176"/>
<path d="M64 113.67C92.8569 113.67 116.25 90.2768 116.25 61.4199C116.25 32.563 92.8569 9.16992 64 9.16992C35.1431 9.16992 11.75 32.563 11.75 61.4199C11.75 90.2768 35.1431 113.67 64 113.67Z" fill="#F2BC1A"/>
<path d="M11.6504 63.4203C11.2804 56.5403 12.4704 49.5603 14.8704 43.0203C17.3704 36.5003 21.2004 30.4703 26.0304 25.3503C35.7304 15.0903 49.8104 9.14031 64.0004 9.07031C78.1904 9.15031 92.2804 15.0903 101.96 25.3603C106.8 30.4703 110.62 36.5103 113.12 43.0203C115.53 49.5703 116.72 56.5403 116.34 63.4203H116.14C116.121 56.5569 114.762 49.7633 112.14 43.4203C109.514 37.0845 105.68 31.3206 100.85 26.4503C96.0183 21.5849 90.2758 17.718 83.9504 15.0703C77.6271 12.4302 70.8428 11.0707 63.9904 11.0707C57.138 11.0707 50.3537 12.4302 44.0304 15.0703C37.705 17.718 31.9625 21.5849 27.1304 26.4503C22.298 31.3179 18.4629 37.0825 15.8404 43.4203C13.2188 49.7633 11.8601 56.5569 11.8404 63.4203H11.6504Z" fill="#E08F00"/>
<path d="M63.9996 4.07031C32.3196 4.07031 6.63965 29.7503 6.63965 61.4303C6.63965 93.1103 32.3196 118.79 63.9996 118.79C95.6796 118.79 121.36 93.1103 121.36 61.4303C121.36 29.7503 95.6796 4.07031 63.9996 4.07031ZM63.9996 113.68C35.1396 113.68 11.7496 90.2903 11.7496 61.4303C11.7496 32.5603 35.1396 9.17031 63.9996 9.17031C92.8596 9.17031 116.25 32.5603 116.25 61.4203C116.25 90.2803 92.8596 113.68 63.9996 113.68Z" fill="#FFF176"/>
<path d="M37.9899 21.3496L39.2599 25.2796L43.3999 23.6996V25.2796L40.0499 27.7096L41.3299 30.0496V31.6396L37.9899 29.2096L34.6399 31.6396V30.0496L35.9199 27.7096L32.5799 25.2796V23.6996L36.7099 25.2796L37.9899 21.3496ZM22.0099 43.9096L23.2899 47.8396L27.4199 46.2596V47.8396L24.0799 50.2696L25.3599 52.6196V54.1996L22.0099 51.7696L18.6699 54.1996V52.6196L19.9499 50.2696L16.5999 47.8396V46.2596L20.7399 47.8396L22.0099 43.9096ZM21.5399 71.7196L22.8199 75.6496L26.9499 74.0696V75.6496L23.6099 78.0796L24.8899 80.4296V82.0096L21.5399 79.5796L18.1999 82.0096V80.4296L19.4799 78.0796L16.1299 75.6496V74.0696L20.2699 75.6496L21.5399 71.7196ZM38.5999 93.7996L39.8799 97.7296L44.0099 96.1496V97.7296L40.6699 100.16L41.9499 102.5V104.09L38.5999 101.66L35.2599 104.09V102.5L36.5399 100.16L33.1899 97.7296V96.1496L37.3299 97.7296L38.5999 93.7996ZM90.0099 21.3496L88.7399 25.2796L84.5999 23.6996V25.2796L87.9499 27.7096L86.6699 30.0496V31.6396L90.0099 29.2096L93.3599 31.6396V30.0496L92.0799 27.7096L95.4199 25.2796V23.6996L91.2899 25.2796L90.0099 21.3496ZM105.99 43.9096L104.71 47.8396L100.58 46.2596V47.8396L103.92 50.2696L102.64 52.6196V54.1996L105.99 51.7696L109.33 54.1996V52.6196L108.05 50.2696L111.4 47.8396V46.2596L107.26 47.8396L105.99 43.9096ZM106.46 71.7196L105.18 75.6496L101.05 74.0696V75.6496L104.39 78.0796L103.11 80.4296V82.0096L106.46 79.5796L109.8 82.0096V80.4296L108.52 78.0796L111.87 75.6496V74.0696L107.73 75.6496L106.46 71.7196ZM89.3999 93.7996L88.1199 97.7296L83.9899 96.1496V97.7296L87.3299 100.16L86.0499 102.5V104.09L89.3999 101.66L92.7399 104.09V102.5L91.4599 100.16L94.8099 97.7296V96.1496L90.6699 97.7296L89.3999 93.7996Z" fill="#D38200"/>
<path d="M89.4002 92.2098L90.6702 96.1398H94.8102L91.4602 98.5698L92.7402 102.5L89.4002 100.07L86.0502 102.5L87.3302 98.5698L83.9902 96.1398H88.1202L89.4002 92.2098ZM106.46 70.1398L107.73 74.0698H111.87L108.52 76.4998L109.8 80.4298L106.46 77.9998L103.11 80.4298L104.39 76.4998L101.05 74.0698H105.18L106.46 70.1398ZM105.99 42.3298L107.26 46.2598H111.4L108.05 48.6898L109.33 52.6198L105.99 50.1898L102.64 52.6198L103.92 48.6898L100.58 46.2598H104.71L105.99 42.3298ZM90.0102 19.7598L91.2902 23.6898H95.4202L92.0802 26.1198L93.3602 30.0498L90.0102 27.6198L86.6702 30.0498L87.9502 26.1198L84.6002 23.6898H88.7402L90.0102 19.7598Z" fill="#FFF176"/>
<path d="M64.0497 102.5L65.3297 106.43L69.4596 104.85V106.43L66.1197 108.86L67.3997 111.21V112.79L64.0497 110.36L60.7096 112.79V111.21L61.9897 108.86L58.6396 106.43V104.85L62.7796 106.43L64.0497 102.5Z" fill="#D38200"/>
<path d="M64.0497 100.4L65.3297 104.33H69.4596L66.1197 106.76L67.3997 110.69L64.0497 108.26L60.7096 110.69L61.9897 106.76L58.6396 104.33H62.7796L64.0497 100.4Z" fill="#FFF176"/>
<path d="M64.0497 12.8906L65.3297 16.8206L69.4596 15.2406V16.8206L66.1197 19.2506L67.3997 21.6006V23.1806L64.0497 20.7506L60.7096 23.1806V21.6006L61.9897 19.2506L58.6396 16.8206V15.2406L62.7796 16.8206L64.0497 12.8906Z" fill="#D38200"/>
<path d="M64.0499 11.3105L65.3299 15.2405H69.4599L66.1199 17.6705L67.3999 21.6005L64.0499 19.1705L60.7099 21.6005L61.9899 17.6705L58.6399 15.2405H62.7799L64.0499 11.3105ZM38.5999 92.2105L37.3299 96.1405H33.1899L36.5399 98.5705L35.2599 102.501L38.5999 100.071L41.9499 102.501L40.6699 98.5705L44.0099 96.1405H39.8799L38.5999 92.2105ZM21.5399 70.1405L20.2699 74.0705H16.1299L19.4799 76.5005L18.1999 80.4305L21.5399 78.0005L24.8899 80.4305L23.6099 76.5005L26.9499 74.0705H22.8199L21.5399 70.1405ZM22.0099 42.3305L20.7399 46.2605H16.5999L19.9499 48.6905L18.6699 52.6205L22.0099 50.1905L25.3599 52.6205L24.0799 48.6905L27.4199 46.2605H23.2899L22.0099 42.3305ZM37.9899 19.7605L36.7099 23.6905H32.5799L35.9199 26.1205L34.6399 30.0505L37.9899 27.6205L41.3299 30.0505L40.0499 26.1205L43.3999 23.6905H39.2599L37.9899 19.7605Z" fill="#FFF176"/>
<path d="M95.2195 48.2005C95.2195 47.8505 32.8395 48.2005 32.8395 48.2005L32.2795 49.8805V52.7505C32.2795 53.2705 32.6995 53.6905 33.2195 53.6905H94.7794C95.2994 53.6905 95.7195 53.2705 95.7195 52.7505V49.9605L95.2195 48.2005ZM95.3094 85.5005H33.0995L28.9395 87.5905L28.9895 90.2805C28.9995 90.5705 29.2395 90.8105 29.5395 90.8105H98.4695C98.7595 90.8105 99.0094 90.5805 99.0194 90.2805L99.0695 87.6405L95.3094 85.5005Z" fill="#D38200"/>
<path d="M43.1304 77.3196H39.5504C38.9604 77.3196 38.4804 75.4596 38.4804 74.8696L44.1903 74.6896C44.1903 75.2796 43.7104 77.3196 43.1304 77.3196ZM44.3503 58.0096H38.3204C37.8704 58.0096 37.4803 57.7096 37.3503 57.2796L36.8804 53.3496H45.7104L45.3104 57.2796C45.1904 57.7096 44.8003 58.0096 44.3503 58.0096ZM38.3204 78.5096H44.3503C44.8003 78.5096 45.6904 78.7896 45.8104 79.2196C45.8104 79.2196 45.7803 81.0896 45.7803 81.8296C45.7803 82.5696 45.4804 83.1096 44.8104 83.1096H37.8604C37.1904 83.1096 36.8904 82.5096 36.8904 81.8296C36.8904 81.1496 36.8604 79.2396 36.8604 79.2396C36.9904 78.8096 37.8704 78.5096 38.3204 78.5096ZM89.6303 77.3196H86.0504C85.4604 77.3196 84.9804 75.4596 84.9804 74.8696L90.6904 74.6896C90.6904 75.2796 90.2203 77.3196 89.6303 77.3196ZM90.8503 58.0096H84.8204C84.3703 58.0096 83.9804 57.7096 83.8503 57.2796L83.3803 53.3496H92.2104L91.8103 57.2796C91.6903 57.7096 91.3004 58.0096 90.8503 58.0096ZM84.8204 78.5096H90.8503C91.3004 78.5096 92.1903 78.7896 92.3103 79.2196C92.3103 79.2196 92.2803 81.0896 92.2803 81.8296C92.2803 82.5696 91.9803 83.1096 91.3103 83.1096H84.3604C83.6904 83.1096 83.3904 82.5096 83.3904 81.8296C83.3904 81.1496 83.3604 79.2396 83.3604 79.2396C83.4904 78.8096 84.3703 78.5096 84.8204 78.5096ZM74.1303 77.3196H70.5504C69.9604 77.3196 69.4804 75.4596 69.4804 74.8696L75.1904 74.6896C75.1904 75.2796 74.7203 77.3196 74.1303 77.3196ZM75.3503 58.0096H69.3204C68.8703 58.0096 68.4803 57.7096 68.3503 57.2796L67.8803 53.3496H76.7104L76.3103 57.2796C76.1903 57.7096 75.8004 58.0096 75.3503 58.0096ZM69.3204 78.5096H75.3503C75.8004 78.5096 76.6903 78.7896 76.8103 79.2196C76.8103 79.2196 76.7803 81.0896 76.7803 81.8296C76.7803 82.5696 76.4803 83.1096 75.8103 83.1096H68.8604C68.1904 83.1096 67.8904 82.5096 67.8904 81.8296C67.8904 81.1496 67.8604 79.2396 67.8604 79.2396C67.9904 78.8096 68.8703 78.5096 69.3204 78.5096ZM58.6304 77.3196H55.0504C54.4604 77.3196 53.9804 75.4596 53.9804 74.8696L59.6903 74.6896C59.6903 75.2796 59.2204 77.3196 58.6304 77.3196ZM59.8503 58.0096H53.8204C53.3703 58.0096 52.9803 57.7096 52.8503 57.2796L52.3804 53.3496H61.2104L60.8104 57.2796C60.6904 57.7096 60.3004 58.0096 59.8503 58.0096ZM53.8204 78.5096H59.8503C60.3004 78.5096 61.1904 78.7896 61.3104 79.2196C61.3104 79.2196 61.2803 81.0896 61.2803 81.8296C61.2803 82.5696 60.9804 83.1096 60.3104 83.1096H53.3604C52.6904 83.1096 52.3904 82.5096 52.3904 81.8296C52.3904 81.1496 52.3604 79.2396 52.3604 79.2396C52.4904 78.8096 53.3703 78.5096 53.8204 78.5096Z" fill="#D38200"/>
<path d="M95.6703 45.5205C95.6703 45.1705 95.4903 44.8405 95.2203 44.6805L64.0403 26.9805L32.8203 44.6605C32.5203 44.8405 32.3303 45.1705 32.3303 45.5205L32.2803 49.8905C32.2803 50.4405 32.7303 50.8905 33.2803 50.8905H94.7103C95.2603 50.8905 95.7103 50.4405 95.7103 49.8905L95.6703 45.5205Z" fill="#FFF176"/>
<path d="M87.8402 44.3298L64.0002 30.7998L40.1602 44.3298H87.8402Z" fill="#F2BC1A"/>
<path d="M79.07 42.6801L64 34.1201L48.93 42.6801H79.07ZM93.39 82.0201H34.61C34.03 82.0201 33.48 82.2701 33.09 82.7001L29.05 87.2101C28.77 87.5201 28.99 88.0101 29.41 88.0101H98.59C99 88.0101 99.22 87.5201 98.95 87.2101L94.9 82.7001C94.52 82.2701 93.96 82.0201 93.39 82.0201ZM89.63 75.5101H86.05C85.46 75.5101 84.98 75.0301 84.98 74.4401V58.4601C84.98 57.8701 85.46 57.3901 86.05 57.3901H89.63C90.22 57.3901 90.7 57.8701 90.7 58.4601V74.4501C90.7 75.0401 90.22 75.5101 89.63 75.5101ZM90.86 56.2001H84.83C84.38 56.2001 83.99 55.9001 83.86 55.4701L83.4 53.8801C83.21 53.2401 83.7 52.6001 84.37 52.6001H91.32C91.99 52.6001 92.47 53.2401 92.29 53.8801L91.83 55.4701C91.7 55.9001 91.3 56.2001 90.86 56.2001ZM84.82 76.7101H90.85C91.3 76.7101 91.69 77.0101 91.82 77.4401L92.28 79.0301C92.47 79.6701 91.98 80.3101 91.31 80.3101H84.36C83.69 80.3101 83.21 79.6701 83.39 79.0301L83.85 77.4401C83.98 77.0001 84.38 76.7101 84.82 76.7101ZM43.13 75.5101H39.55C38.96 75.5101 38.48 75.0301 38.48 74.4401V58.4601C38.48 57.8701 38.96 57.3901 39.55 57.3901H43.13C43.72 57.3901 44.2 57.8701 44.2 58.4601V74.4501C44.19 75.0401 43.71 75.5101 43.13 75.5101ZM44.35 56.2001H38.32C37.87 56.2001 37.48 55.9001 37.35 55.4701L36.89 53.8801C36.7 53.2401 37.19 52.6001 37.86 52.6001H44.81C45.48 52.6001 45.96 53.2401 45.78 53.8801L45.32 55.4701C45.19 55.9001 44.8 56.2001 44.35 56.2001ZM38.32 76.7101H44.35C44.8 76.7101 45.19 77.0101 45.32 77.4401L45.78 79.0301C45.97 79.6701 45.48 80.3101 44.81 80.3101H37.86C37.19 80.3101 36.71 79.6701 36.89 79.0301L37.35 77.4401C37.48 77.0001 37.87 76.7101 38.32 76.7101ZM58.63 75.5101H55.05C54.46 75.5101 53.98 75.0301 53.98 74.4401V58.4601C53.98 57.8701 54.46 57.3901 55.05 57.3901H58.63C59.22 57.3901 59.7 57.8701 59.7 58.4601V74.4501C59.6974 74.7322 59.5835 75.0018 59.3831 75.2003C59.1827 75.3988 58.9121 75.5101 58.63 75.5101ZM59.85 56.2001H53.82C53.37 56.2001 52.98 55.9001 52.85 55.4701L52.39 53.8801C52.2 53.2401 52.69 52.6001 53.36 52.6001H60.31C60.98 52.6001 61.46 53.2401 61.28 53.8801L60.82 55.4701C60.69 55.9001 60.3 56.2001 59.85 56.2001ZM53.82 76.7101H59.85C60.3 76.7101 60.69 77.0101 60.82 77.4401L61.28 79.0301C61.47 79.6701 60.98 80.3101 60.31 80.3101H53.36C52.69 80.3101 52.21 79.6701 52.39 79.0301L52.85 77.4401C52.98 77.0001 53.37 76.7101 53.82 76.7101ZM74.13 75.5101H70.55C69.96 75.5101 69.48 75.0301 69.48 74.4401V58.4601C69.48 57.8701 69.96 57.3901 70.55 57.3901H74.13C74.72 57.3901 75.2 57.8701 75.2 58.4601V74.4501C75.1974 74.7322 75.0835 75.0018 74.8831 75.2003C74.6827 75.3988 74.4121 75.5101 74.13 75.5101ZM75.35 56.2001H69.32C68.87 56.2001 68.48 55.9001 68.35 55.4701L67.89 53.8801C67.7 53.2401 68.19 52.6001 68.86 52.6001H75.81C76.48 52.6001 76.96 53.2401 76.78 53.8801L76.32 55.4701C76.19 55.9001 75.8 56.2001 75.35 56.2001ZM69.32 76.7101H75.35C75.8 76.7101 76.19 77.0101 76.32 77.4401L76.78 79.0301C76.97 79.6701 76.48 80.3101 75.81 80.3101H68.86C68.19 80.3101 67.71 79.6701 67.89 79.0301L68.35 77.4401C68.48 77.0001 68.88 76.7101 69.32 76.7101Z" fill="#FFF176"/>
</g>
<defs>
<clipPath id="clip0_3_102143">
<path d="M0 0H98V102C98 107.523 93.5229 112 88 112H0V0Z" fill="white"/>
</clipPath>
</defs>
</svg>
