<svg width="18" height="18" viewBox="0 0 18 18" fill="none" xmlns="http://www.w3.org/2000/svg">
<path d="M16.2119 6.67648H16.151C16.151 2.99683 12.9411 0 8.99987 0C5.05863 0 1.84875 2.99683 1.84875 6.67648H1.78782C0.792312 6.67648 0 7.4351 0 8.34563V16.3308C0 17.2603 0.812555 18 1.78782 18H16.2119C17.2075 18 17.9998 17.2414 17.9998 16.3308L17.9996 8.34529C18.02 7.41596 17.2073 6.67627 16.212 6.67627L16.2119 6.67648ZM10.5032 14.8324C10.5439 14.9652 10.5032 15.1169 10.422 15.2308C10.3204 15.3446 10.1783 15.4015 10.036 15.4015L7.96375 15.4013C7.80121 15.4013 7.67934 15.3444 7.57772 15.2306C7.47611 15.1169 7.45584 14.9651 7.49652 14.8323L8.16682 12.4235C7.59799 12.1391 7.21199 11.5889 7.21199 10.9441C7.21199 10.0146 8.02454 9.27493 8.9998 9.27493C9.97492 9.27493 10.7876 10.0335 10.7876 10.9441C10.7876 11.5889 10.4016 12.1391 9.83278 12.4235L10.5032 14.8324ZM13.7131 6.67648H4.28662C4.28662 4.24867 6.39938 2.27607 8.99986 2.27607C11.6003 2.27607 13.7131 4.24873 13.7131 6.67648Z" fill="black"/>
</svg>
