<svg width="22" height="22" viewBox="0 0 22 22" fill="none" xmlns="http://www.w3.org/2000/svg">
<g clip-path="url(#clip0_455_23630)">
<path d="M2.57884 14.178L1.41773 19.1891C1.37767 19.3723 1.37905 19.5621 1.42175 19.7447C1.46445 19.9273 1.5474 20.098 1.66453 20.2445C1.78167 20.3909 1.93004 20.5093 2.0988 20.591C2.26756 20.6728 2.45244 20.7158 2.63995 20.7169C2.72732 20.7257 2.81536 20.7257 2.90273 20.7169L7.94439 19.5558L17.6244 9.91246L12.2222 4.52246L2.57884 14.178Z" fill="#828282"/>
<path d="M20.6679 5.08415L17.0623 1.4786C16.8253 1.24275 16.5045 1.11035 16.1701 1.11035C15.8357 1.11035 15.5149 1.24275 15.2779 1.4786L13.2734 3.48304L18.6695 8.87915L20.674 6.87471C20.7913 6.75681 20.8842 6.61694 20.9474 6.46311C21.0106 6.30927 21.0428 6.14448 21.0422 5.97817C21.0417 5.81186 21.0083 5.64729 20.9441 5.49388C20.8798 5.34048 20.786 5.20125 20.6679 5.08415Z" fill="#828282"/>
</g>
<defs>
<clipPath id="clip0_455_23630">
<rect width="22" height="22" fill="white"/>
</clipPath>
</defs>
</svg>
