<svg width="16" height="14" viewBox="0 0 16 14" fill="none" xmlns="http://www.w3.org/2000/svg">
<path d="M12.8952 0.816898C12.8517 0.75678 12.7946 0.707819 12.7286 0.674028C12.6625 0.640238 12.5894 0.622578 12.5152 0.622498H3.3248C3.24855 0.62251 3.17344 0.64109 3.10598 0.676633C3.03852 0.712176 2.98073 0.763613 2.9376 0.826498L0 5.1177L7.9152 13.5721C7.92428 13.5819 7.9353 13.5896 7.94757 13.5949C7.95984 13.6001 7.97306 13.6027 7.9864 13.6025H7.9944C8.01723 13.6005 8.03856 13.5903 8.0544 13.5737L16 5.1177L12.8952 0.816898Z" fill="#FF2D55"/>
<path d="M6 0.622498H3.3248C3.24855 0.62251 3.17344 0.64109 3.10598 0.676633C3.03852 0.712176 2.98073 0.763613 2.9376 0.826498L0 5.1177H4.7544L6 0.622498Z" fill="#FF5B7A"/>
<path d="M15.9993 5.1177L12.8945 0.816898C12.851 0.75667 12.7937 0.707642 12.7275 0.673847C12.6613 0.640051 12.5881 0.622452 12.5137 0.622498H9.92813L11.2449 5.1177H15.9993Z" fill="#57BAE5"/>
<path d="M7.964 13.5858L4.7544 5.11781H0L7.9152 13.5722C7.92428 13.582 7.9353 13.5897 7.94757 13.595C7.95984 13.6002 7.97306 13.6028 7.9864 13.6026C7.98141 13.6024 7.9766 13.6007 7.9726 13.5977C7.9686 13.5947 7.96561 13.5905 7.964 13.5858Z" fill="#FF5B7A"/>
<path d="M16.0001 5.11781H11.2465L8.0121 13.5858C8.01033 13.5889 8.00791 13.5916 8.00501 13.5936C8.00211 13.5957 7.9988 13.5971 7.9953 13.5978C8.01813 13.5958 8.03946 13.5856 8.0553 13.569L16.0001 5.11781Z" fill="#57BAE5"/>
<path d="M11.2467 5.1177L9.9299 0.622498H6.0035L4.7547 5.1177H11.2467Z" fill="#FE3057"/>
<path d="M8.0123 13.5858L11.2467 5.11781H4.7547L7.9643 13.5858C7.96605 13.5906 7.9692 13.5948 7.97333 13.5978C7.97746 13.6008 7.9824 13.6024 7.9875 13.6026H7.9955C7.99945 13.6014 8.00304 13.5992 8.00597 13.5963C8.00889 13.5934 8.01107 13.5898 8.0123 13.5858Z" fill="#FE3057"/>
<path d="M5.055 3.81276L6.031 3.07196C6.07889 3.0359 6.13766 3.01727 6.19759 3.01915C6.25751 3.02104 6.31499 3.04333 6.36053 3.08233C6.40606 3.12133 6.43691 3.17471 6.44798 3.23363C6.45905 3.29255 6.44967 3.35349 6.4214 3.40636L5.8678 4.51196C5.83888 4.5687 5.83106 4.63386 5.84571 4.69584C5.86036 4.75781 5.89654 4.81257 5.9478 4.85036L6.943 5.56556C6.99121 5.60033 7.0264 5.65022 7.04298 5.7073C7.05957 5.76439 7.05658 5.82537 7.03451 5.88056C7.01243 5.93575 6.97253 5.98197 6.92116 6.01187C6.86978 6.04177 6.80989 6.05363 6.751 6.04556L5.551 5.85116C5.48858 5.84079 5.42452 5.85339 5.37068 5.88664C5.31685 5.91988 5.27688 5.97151 5.25819 6.03196L4.8966 7.21596C4.87989 7.27332 4.844 7.32321 4.79492 7.35728C4.74584 7.39135 4.68656 7.40754 4.62697 7.40314C4.56739 7.39874 4.51113 7.37401 4.46759 7.33309C4.42405 7.29218 4.39588 7.23755 4.3878 7.17836L4.1982 5.95196C4.18893 5.88914 4.15727 5.83178 4.10905 5.79047C4.06083 5.74916 3.99929 5.72667 3.9358 5.72716L2.7174 5.74316C2.65773 5.74285 2.59989 5.72258 2.55308 5.68559C2.50628 5.64859 2.4732 5.597 2.45912 5.53902C2.44504 5.48104 2.45076 5.42002 2.47539 5.36568C2.50002 5.31133 2.54212 5.26679 2.595 5.23916L3.6806 4.67916C3.7363 4.64952 3.77976 4.60117 3.80332 4.54263C3.82688 4.4841 3.82903 4.41912 3.8094 4.35916L3.419 3.18556C3.39897 3.12943 3.39865 3.06815 3.41809 3.01182C3.43752 2.95548 3.47555 2.90744 3.52593 2.87559C3.5763 2.84375 3.63601 2.83 3.69524 2.83661C3.75447 2.84322 3.80968 2.86979 3.8518 2.91196L4.71259 3.79196C4.75733 3.83655 4.81681 3.86327 4.87986 3.8671C4.94291 3.87093 5.00519 3.85161 5.055 3.81276Z" fill="white"/>
</svg>
