<svg width="10" height="12" viewBox="0 0 10 12" fill="none" xmlns="http://www.w3.org/2000/svg">
<circle cx="0.432121" cy="7.93014" r="0.333" fill="#FF4B4E"/>
<circle cx="1.97607" cy="4.06214" r="0.333" fill="#FFCA54"/>
<circle cx="6.54711" cy="3.25915" r="0.333" fill="#00CDB3"/>
<circle cx="9.36913" cy="7.93015" r="0.333" fill="#57BAE5"/>
<circle cx="3.29711" cy="1.57215" r="0.333" fill="#57BAE5"/>
<path d="M9.01807 5.62714L6.19207 5.21614L4.92907 2.65414C4.87556 2.54623 4.76552 2.47797 4.64507 2.47797C4.52462 2.47797 4.41458 2.54623 4.36107 2.65414L3.09707 5.21514L0.271071 5.62614C0.151912 5.64359 0.0529328 5.72706 0.0156134 5.84156C-0.0217059 5.95606 0.00908054 6.08182 0.0950712 6.16614L2.14007 8.15914L1.65707 10.9731C1.63674 11.092 1.68567 11.2122 1.78329 11.2831C1.8809 11.354 2.01029 11.3633 2.11707 11.3071L4.64407 9.97814C7.39407 11.4241 7.20807 11.3431 7.31907 11.3431C7.41232 11.343 7.50076 11.3018 7.56087 11.2305C7.62099 11.1592 7.64666 11.0651 7.63107 10.9731L7.14807 8.15914L9.19307 6.16614C9.27842 6.08189 9.30892 5.9567 9.27189 5.84264C9.23486 5.72858 9.13663 5.64518 9.01807 5.62714Z" fill="#FFCA54"/>
<path d="M1.59719 3.13115C1.40519 3.09415 1.07319 2.85515 1.18619 2.21015C1.22719 1.97515 1.17619 1.95515 0.900188 1.89315C0.624188 1.83115 0.221188 1.73915 0.191188 1.16715C0.184142 1.10021 0.214614 1.03485 0.270414 0.997211C0.326214 0.959573 0.39823 0.955804 0.457655 0.987411C0.517079 1.01902 0.554208 1.08084 0.554188 1.14815C0.569188 1.43315 0.703188 1.47615 0.980188 1.53915C1.22919 1.59615 1.64619 1.69015 1.54419 2.27415C1.46619 2.71615 1.66319 2.77415 1.66519 2.77415C1.73208 2.78301 1.78859 2.82815 1.81199 2.89144C1.8354 2.95473 1.82186 3.02578 1.77683 3.07603C1.7318 3.12629 1.66266 3.1475 1.59719 3.13115Z" fill="#F99830"/>
<circle cx="0.543129" cy="3.59315" r="0.236" fill="#57BAE5"/>
<circle cx="8.34415" cy="8.40214" r="0.236" fill="#00CDB3"/>
<circle cx="0.75309" cy="9.86915" r="0.236" fill="#FFCA54"/>
<path d="M7.69001 3.28815C7.61919 3.21712 7.61919 3.10218 7.69001 3.03115L7.94301 2.77115C8.01394 2.70529 8.12402 2.70647 8.19352 2.77384C8.26303 2.84121 8.26763 2.9512 8.20401 3.02415L7.95101 3.28415C7.91728 3.31993 7.87051 3.34055 7.82135 3.3413C7.77219 3.34205 7.72481 3.32288 7.69001 3.28815Z" fill="#FF4B4E"/>
<path d="M2.777 3.18814L2.441 3.05214C2.35373 3.01099 2.31375 2.90889 2.34985 2.81942C2.38596 2.72995 2.48562 2.6842 2.577 2.71514L2.913 2.85114C3.00027 2.8923 3.04026 2.9944 3.00415 3.08387C2.96804 3.17334 2.86839 3.21909 2.777 3.18814Z" fill="#FF4B4E"/>
<path d="M1.11807 9.15714L0.782066 9.02114C0.694799 8.97999 0.65481 8.87789 0.690918 8.78841C0.727025 8.69894 0.82668 8.65319 0.918066 8.68414L1.25407 8.82014C1.34133 8.86129 1.38132 8.96339 1.34522 9.05287C1.30911 9.14234 1.20945 9.18808 1.11807 9.15714Z" fill="#00CDB3"/>
<path d="M8.78311 9.77715L8.44711 9.64115C8.35984 9.6 8.31985 9.4979 8.35596 9.40842C8.39206 9.31895 8.49172 9.2732 8.58311 9.30415L8.91911 9.44015C9.00637 9.4813 9.04636 9.5834 9.01025 9.67288C8.97415 9.76235 8.87449 9.8081 8.78311 9.77715Z" fill="#57BAE5"/>
<path d="M6.6251 0.141144C6.60336 0.0468041 6.51156 -0.0139991 6.41621 0.00278014C6.32086 0.0195594 6.25534 0.108048 6.2671 0.204144C6.3171 0.485144 6.1961 0.556144 5.9391 0.680144C5.7091 0.791144 5.3241 0.980144 5.5541 1.52214C5.7291 1.93714 5.5481 2.03714 5.5481 2.03714C5.4971 2.07114 5.3361 2.13014 5.4051 2.29414C5.5241 2.57714 6.2601 2.25914 5.8881 1.38014C5.7951 1.16014 5.8401 1.13014 6.0961 1.00614C6.47395 0.90375 6.7061 0.524145 6.6251 0.141144Z" fill="#F99830"/>
<path d="M9.39313 2.78914C9.3108 2.73187 9.19766 2.75199 9.14013 2.83414C9.02833 3.0215 8.96572 3.23409 8.95813 3.45214C8.91913 3.79714 8.90413 3.92614 8.54313 3.90314C8.2262 3.85317 7.90338 3.94577 7.66113 4.15614C7.42913 4.39414 7.43713 4.72214 7.65613 4.72514C7.83813 4.72514 7.85013 4.53414 7.85013 4.53414C7.85013 4.53414 7.88813 4.22514 8.52013 4.26514C9.52013 4.32814 9.19713 3.38614 9.43713 3.04114C9.49392 2.95926 9.47431 2.84693 9.39313 2.78914Z" fill="#F99830"/>
<path d="M3.90017 4.85515L4.95617 2.71515L4.92917 2.66015C4.87566 2.55224 4.76562 2.48398 4.64517 2.48398C4.52472 2.48398 4.41468 2.55224 4.36117 2.66015L3.09717 5.22115L3.52517 5.14515C3.68755 5.11008 3.82538 5.00349 3.90017 4.85515Z" fill="#F99830"/>
<path d="M2.33805 10.8531L2.76805 8.34714C2.798 8.17392 2.75048 7.99628 2.63805 7.86114L0.778048 6.04614C0.707777 5.97654 0.674018 5.87813 0.686768 5.78005C0.699519 5.68197 0.757317 5.59546 0.843048 5.54614L0.272048 5.62914C0.152888 5.64659 0.0539093 5.73006 0.01659 5.84456C-0.0207294 5.95907 0.0100571 6.08483 0.0960478 6.16914L2.14105 8.16214L1.65805 10.9761C1.63772 11.0951 1.68664 11.2152 1.78426 11.2861C1.88188 11.357 2.01127 11.3663 2.11805 11.3101L2.43905 11.1421C2.35785 11.0696 2.31969 10.9604 2.33805 10.8531Z" fill="#F99830"/>
</svg>
