<svg width="13" height="13" viewBox="0 0 13 13" fill="none" xmlns="http://www.w3.org/2000/svg">
<path d="M1.18341 6.78247C1.0811 6.78247 1.18341 12.4348 1.18341 12.4348C1.17127 12.57 1.21228 12.7047 1.29775 12.8102C1.38322 12.9157 1.50643 12.9838 1.64124 13H10.8466C10.9825 12.9859 11.1072 12.9184 11.1934 12.8125C11.2797 12.7065 11.3204 12.5707 11.3067 12.4348V6.78247H1.18341Z" fill="#F32965"/>
<path d="M11.1213 6.78247H1.31907C1.26466 6.78833 1.21471 6.81529 1.17994 6.85755C1.14517 6.89982 1.12836 6.95404 1.13311 7.00856V7.91293H11.3072V7.00856C11.312 6.95404 11.2952 6.89982 11.2604 6.85755C11.2256 6.81529 11.1757 6.78833 11.1213 6.78247V6.78247Z" fill="#F32965"/>
<path d="M7.16666 5.65308H5.27541C5.17366 5.65308 5.09058 5.66834 5.09058 5.68756V6.74906C5.09058 6.76827 5.17366 6.78353 5.27541 6.78353H7.16666C7.2684 6.78353 7.35149 6.76827 7.35149 6.74906V5.68756C7.35149 5.66834 7.2684 5.65308 7.16666 5.65308Z" fill="#FFDB57"/>
<path d="M7.16666 6.78247H5.27541C5.17366 6.78247 5.09058 7.34148 5.09058 8.03106V13H7.35149V8.03106C7.35149 7.34148 7.2684 6.78247 7.16666 6.78247Z" fill="#ECCB53"/>
<path d="M11.6614 1.64712C11.476 1.11338 11.191 0.61968 10.8214 0.192223C10.7625 0.128273 10.6902 0.0779876 10.6098 0.044889C10.5293 0.0117903 10.4426 -0.00332207 10.3557 0.000610077C9.74638 0.0158713 8.75271 0.837149 7.40351 2.4407C7.36923 2.48175 7.3506 2.53362 7.35094 2.5871V3.7396C7.34911 3.79533 7.36944 3.84952 7.40747 3.89031C7.4455 3.93109 7.49813 3.95515 7.55386 3.95721H10.6773C10.9087 3.98174 11.1417 3.92967 11.3406 3.80898C11.5395 3.68829 11.6933 3.50565 11.7784 3.28911C11.9293 2.74461 11.888 2.16473 11.6614 1.64712Z" fill="#FFDB57"/>
<path d="M11.7704 2.1567C11.7645 2.12991 11.755 2.10404 11.7421 2.07983C11.4149 1.46938 10.7089 1.69548 10.1736 1.99674C9.25647 2.48862 8.48875 3.21846 7.95113 4.10957C7.92973 4.15165 7.91788 4.19794 7.91641 4.24513C7.91495 4.29231 7.92391 4.33925 7.94266 4.38257C7.95734 4.42172 7.98314 4.45573 8.01687 4.48043C8.05061 4.50513 8.09082 4.51944 8.13257 4.52162H10.5964C10.8017 4.53529 11.0068 4.49311 11.19 4.39956C11.3732 4.30601 11.5277 4.16459 11.637 3.99031C11.9117 3.41797 11.9594 2.76278 11.7704 2.1567Z" fill="#EF9325"/>
<path d="M5.03806 2.44071C3.68886 0.83716 2.69519 0.0158826 2.08587 0.000621447C1.99896 -0.00334933 1.91224 0.0117454 1.83178 0.0448465C1.75132 0.0779476 1.67908 0.128253 1.62012 0.192234C1.25062 0.619692 0.965599 1.11339 0.780193 1.64713C0.553687 2.16476 0.512369 2.74461 0.663191 3.28912C0.748274 3.50566 0.902072 3.6883 1.10098 3.80899C1.29988 3.92968 1.5329 3.98175 1.76426 3.95722H4.88771C4.94344 3.95516 4.99608 3.9311 5.03411 3.89032C5.07214 3.84954 5.09246 3.79534 5.09063 3.73961V2.58711C5.09097 2.53363 5.07235 2.48176 5.03806 2.44071Z" fill="#FFDB57"/>
<path d="M4.48974 4.10966C3.95213 3.21855 3.18441 2.48871 2.26726 1.99683C1.73199 1.69556 1.02602 1.46947 0.698748 2.07935C0.685817 2.10375 0.676308 2.1298 0.670487 2.15679C0.481244 2.76279 0.528708 3.418 0.803315 3.99039C0.912657 4.16476 1.06721 4.30625 1.25053 4.3998C1.43386 4.49336 1.63911 4.53548 1.84447 4.52171H4.3083C4.35022 4.51959 4.3906 4.50524 4.42445 4.48043C4.4583 4.45562 4.48415 4.42143 4.49878 4.3821C4.51736 4.3388 4.52617 4.29195 4.52461 4.24487C4.52305 4.19779 4.51114 4.15162 4.48974 4.10966Z" fill="#EF9325"/>
<path d="M7.07861 2.82739H4.79734C4.64699 2.82739 4.5249 2.91896 4.5249 3.03201V4.31847C4.5249 4.43151 4.64699 4.52308 4.79734 4.52308H7.07861C7.22896 4.52308 7.35105 4.43151 7.35105 4.31847V3.03201C7.35105 2.91896 7.22896 2.82739 7.07861 2.82739Z" fill="#F5BA3D"/>
<path d="M11.9597 3.39307H0.481047C0.343075 3.40559 0.21557 3.47189 0.126091 3.57766C0.0366128 3.68343 -0.0076525 3.82016 0.00286294 3.9583V6.21921C-0.00444347 6.28802 0.00227027 6.35759 0.0225988 6.42373C0.0429273 6.48987 0.0764489 6.55121 0.12114 6.60403C0.16583 6.65686 0.220763 6.70008 0.282621 6.73109C0.344479 6.7621 0.41198 6.78024 0.481047 6.78444H12.2418C12.3503 6.78444 12.4379 6.37691 12.4379 6.21921V3.9583C12.3548 3.71671 12.1842 3.51504 11.9597 3.39307V3.39307Z" fill="#2F80ED"/>
<path d="M7.35149 3.39307H5.09058V6.78444H7.35149V3.39307Z" fill="#FFDB57"/>
</svg>
