<svg width="17" height="18" viewBox="0 0 17 18" fill="none" xmlns="http://www.w3.org/2000/svg">
<path fill-rule="evenodd" clip-rule="evenodd" d="M0 7.03105C0 10.4552 2.77583 13.2311 6.2 13.2311C9.62188 13.2255 12.3945 10.4529 12.4 7.03105C12.4 3.60689 9.62417 0.831055 6.2 0.831055C2.77583 0.831055 0 3.60689 0 7.03105ZM2.065 7.02806C2.065 4.74436 3.9163 2.89305 6.2 2.89305C8.48278 2.89526 10.3328 4.74527 10.335 7.02806C10.335 9.31175 8.4837 11.1631 6.2 11.1631C3.9163 11.1631 2.065 9.31175 2.065 7.02806Z" fill="white"/>
<path d="M15.5039 17.3672C15.2301 17.3683 14.9671 17.2603 14.7729 17.0672L9.60394 11.8982C9.21398 11.4922 9.22046 10.8489 9.61853 10.4508C10.0166 10.0527 10.6599 10.0463 11.0659 10.4362L16.2349 15.6052C16.429 15.799 16.5381 16.062 16.5381 16.3362C16.5381 16.6105 16.429 16.8734 16.2349 17.0672C16.0419 17.262 15.7782 17.3702 15.5039 17.3672Z" fill="white"/>
</svg>
