<svg width="16" height="16" viewBox="0 0 16 16" fill="none" xmlns="http://www.w3.org/2000/svg">
<path fill-rule="evenodd" clip-rule="evenodd" d="M6.51001 12.0098C3.47241 12.0098 1.01001 9.54736 1.01001 6.50977C1.01001 3.47217 3.47241 1.00977 6.51001 1.00977C9.54761 1.00977 12.01 3.47217 12.01 6.50977C12.01 7.80469 11.5625 8.99561 10.8136 9.93506C10.8451 9.95166 10.8755 9.97119 10.9044 9.99316C10.9271 10.0103 10.9489 10.0293 10.9696 10.0503L14.788 13.8687C15.0419 14.1226 15.0419 14.5342 14.788 14.7881C14.5342 15.0415 14.1226 15.0415 13.8688 14.7881L10.0504 10.9697C10.0032 10.9224 9.9646 10.8696 9.93494 10.8135C8.99524 11.5625 7.80493 12.0098 6.51001 12.0098ZM11.01 6.50977C11.01 8.99512 8.99524 11.0098 6.51001 11.0098C4.02478 11.0098 2.01001 8.99512 2.01001 6.50977C2.01001 4.02441 4.02478 2.00977 6.51001 2.00977C8.99524 2.00977 11.01 4.02441 11.01 6.50977Z" fill="#8E8E93"/>
</svg>
