<svg width="17" height="18" viewBox="0 0 17 18" fill="none" xmlns="http://www.w3.org/2000/svg">
<path fill-rule="evenodd" clip-rule="evenodd" d="M1.83325 6.45413C1.94154 6.72505 2.11095 6.96786 2.32853 7.16397C2.54611 7.36009 2.80609 7.50432 3.08859 7.58563L9.30169 9L3.14701 10.3359C2.858 10.4143 2.59133 10.5581 2.36806 10.756C2.14479 10.9539 1.97103 11.2006 1.86051 11.4764L0.383183 16.5862C0.302352 16.7844 0.285894 17.0027 0.336096 17.2106C0.386298 17.4185 0.500666 17.6058 0.663298 17.7464C0.82593 17.8869 1.02874 17.9738 1.24354 17.995C1.45834 18.0161 1.67444 17.9704 1.86181 17.8643L16.1574 9.90005C16.3197 9.8111 16.455 9.6807 16.5492 9.52242C16.6435 9.36413 16.6932 9.18374 16.6932 9C16.6932 8.81625 16.6435 8.63586 16.5492 8.47758C16.455 8.3193 16.3197 8.1889 16.1574 8.09995L1.86181 0.135749C1.67444 0.0295983 1.45834 -0.0160905 1.24354 0.00503504C1.02874 0.0261606 0.82593 0.113051 0.663298 0.253624C0.500666 0.394198 0.386298 0.581469 0.336096 0.7894C0.285894 0.997331 0.302352 1.21559 0.383183 1.41383L1.83325 6.45413Z" fill="white"/>
</svg>
