<svg width="7" height="9" viewBox="0 0 7 9" fill="none" xmlns="http://www.w3.org/2000/svg">
<path d="M6.49218 2.93783C6.49218 1.5399 5.18073 0.406586 3.56292 0.406586C1.94511 0.406586 0.633667 1.53984 0.633667 2.93783C0.633667 4.12774 1.58499 5.1229 2.86548 5.39386V5.95123H2.5865C2.27851 5.95123 2.02855 6.16723 2.02855 6.43338V6.67445C2.02855 6.94059 2.27851 7.15659 2.5865 7.15659H2.86548V7.63873C2.86548 7.90487 3.11544 8.12087 3.42343 8.12087H3.70241C4.0104 8.12087 4.26037 7.90487 4.26037 7.63873V7.15659H4.53934C4.84733 7.15659 5.0973 6.94059 5.0973 6.67445V6.43338C5.0973 6.16723 4.84733 5.95123 4.53934 5.95123H4.26037V5.39364C5.54085 5.12293 6.49218 4.12774 6.49218 2.93789V2.93783ZM1.74957 2.93783C1.74957 2.07385 2.56309 1.37087 3.56292 1.37087C4.56276 1.37087 5.37627 2.07385 5.37627 2.93783C5.37627 3.80182 4.56276 4.50479 3.56292 4.50479C2.56309 4.50479 1.74957 3.80182 1.74957 2.93783Z" fill="white"/>
</svg>
