<svg width="12" height="10" viewBox="0 0 12 10" fill="none" xmlns="http://www.w3.org/2000/svg">
<path d="M4.26653 0H2.36423C2.31 8.49254e-06 2.2566 0.0132208 2.20863 0.0384951C2.16066 0.0637694 2.11956 0.100345 2.08889 0.145062L0 3.19648H3.3808L4.26653 0Z" fill="#FF5B7A"/>
<path d="M11.3777 3.19648L9.16992 0.138236C9.13894 0.0954085 9.09825 0.0605455 9.05117 0.0365137C9.0041 0.0124819 8.95199 -3.23834e-05 8.89914 6.29331e-08H7.06055L7.99691 3.19648H11.3777Z" fill="#D32344"/>
<path d="M5.66311 9.21778L3.3808 3.19629H0L5.6284 9.20811C5.63486 9.21506 5.6427 9.22057 5.65142 9.2243C5.66014 9.22802 5.66955 9.22987 5.67903 9.22973C5.67548 9.22957 5.67206 9.22835 5.66922 9.22622C5.66638 9.22409 5.66425 9.22115 5.66311 9.21778Z" fill="#FF5B7A"/>
<path d="M11.3774 3.19629H7.99719L5.69725 9.21778C5.69599 9.21998 5.69427 9.22188 5.69221 9.22335C5.69014 9.22482 5.68779 9.22584 5.6853 9.22632C5.70154 9.2249 5.7167 9.21762 5.72797 9.20584L11.3774 3.19629Z" fill="#D32344"/>
<path d="M7.99749 3.19648L7.06113 0H4.26911L3.3811 3.19648H7.99749Z" fill="#FE3057"/>
<path d="M5.69754 9.21778L7.99749 3.19629H3.3811L5.66341 9.21778C5.66466 9.22119 5.66689 9.22415 5.66983 9.22628C5.67277 9.22841 5.67628 9.22961 5.67991 9.22973H5.6856C5.68841 9.22885 5.69096 9.22731 5.69304 9.22523C5.69512 9.22315 5.69667 9.22059 5.69754 9.21778Z" fill="#FE3057"/>
<path d="M3.59443 2.26852L4.28845 1.74175C4.32251 1.7161 4.3643 1.70286 4.40691 1.7042C4.44952 1.70554 4.4904 1.72139 4.52278 1.74912C4.55516 1.77685 4.5771 1.81481 4.58497 1.85671C4.59284 1.89861 4.58617 1.94194 4.56606 1.97953L4.1724 2.76571C4.15184 2.80606 4.14628 2.8524 4.15669 2.89647C4.16711 2.94054 4.19284 2.97947 4.22929 3.00634L4.93696 3.51491C4.97125 3.53964 4.99627 3.57512 5.00806 3.61571C5.01986 3.6563 5.01773 3.69967 5.00204 3.73891C4.98634 3.77816 4.95797 3.81102 4.92144 3.83228C4.8849 3.85354 4.84231 3.86198 4.80043 3.85624L3.94713 3.718C3.90275 3.71063 3.85719 3.71959 3.81891 3.74323C3.78063 3.76687 3.75221 3.80358 3.73892 3.84657L3.48179 4.68849C3.46992 4.72929 3.44439 4.76476 3.4095 4.78899C3.3746 4.81322 3.33244 4.82473 3.29007 4.8216C3.2477 4.81847 3.20769 4.80088 3.17673 4.77179C3.14577 4.74269 3.12574 4.70385 3.11999 4.66176L2.98517 3.78968C2.97858 3.74501 2.95607 3.70422 2.92178 3.67485C2.88749 3.64547 2.84373 3.62948 2.79858 3.62983L1.93219 3.6412C1.88977 3.64099 1.84863 3.62658 1.81535 3.60027C1.78207 3.57396 1.75854 3.53727 1.74853 3.49604C1.73852 3.45482 1.74259 3.41143 1.7601 3.37278C1.77761 3.33414 1.80755 3.30247 1.84515 3.28282L2.61711 2.88461C2.65672 2.86353 2.68763 2.82915 2.70438 2.78753C2.72113 2.7459 2.72266 2.6997 2.7087 2.65706L2.43109 1.82253C2.41685 1.78261 2.41662 1.73904 2.43044 1.69898C2.44426 1.65892 2.47131 1.62476 2.50713 1.60211C2.54295 1.57947 2.58541 1.56969 2.62752 1.57439C2.66964 1.57909 2.7089 1.59799 2.73885 1.62797L3.35095 2.25373C3.38276 2.28544 3.42506 2.30444 3.46989 2.30716C3.51473 2.30989 3.55901 2.29614 3.59443 2.26852Z" fill="white"/>
</svg>
