<svg width="14" height="12" viewBox="0 0 14 12" fill="none" xmlns="http://www.w3.org/2000/svg">
<path d="M13.3341 4.05828H13.3272C13.2924 1.91278 11.636 0 9.58258 0C9.00366 0.015737 8.43689 0.169585 7.92948 0.448728C7.42206 0.72787 6.9887 1.12422 6.66549 1.60477C6.3424 1.12439 5.90924 0.728142 5.40206 0.449009C4.89487 0.169875 4.32835 0.0159333 3.74965 0C1.7006 0 0.0416904 1.91278 0.0068447 4.05828H0C0 4.07197 0 4.0838 0 4.09624C0 4.10869 0 4.11553 0 4.12611C0 4.18833 0.0143116 4.23189 0.0168006 4.28976C0.199741 9.75805 6.6126 12 6.6126 12C6.6126 12 13.1213 9.75992 13.3136 4.29785C13.3173 4.23562 13.3322 4.18895 13.3322 4.12611C13.3322 4.11553 13.3322 4.10557 13.3322 4.09624C13.3322 4.08691 13.3341 4.07135 13.3341 4.05828Z" fill="#FE3057"/>
</svg>
