<svg width="14" height="11" viewBox="0 0 14 11" fill="none" xmlns="http://www.w3.org/2000/svg">
<path d="M1.15143 0H8.27465C8.9126 0 9.42608 0.703409 9.42608 1.57695V9.42288C9.42608 10.2966 8.91247 10.9998 8.27465 10.9998L1.15143 11C0.513476 11 0 10.2966 0 9.42305V1.57712C0 0.703405 0.513604 0.000170315 1.15143 0.000170315V0Z" fill="#324396"/>
<path d="M12.7113 1.16336C12.6332 1.16745 12.5569 1.20543 12.4891 1.27424L10.2212 3.58642V7.4139L12.4891 9.72609V9.72592C12.6357 9.87512 12.8163 9.87495 12.9628 9.72558C13.1094 9.57604 13.1997 9.29996 13.1999 9.00107V1.99924C13.1997 1.77289 13.1476 1.55626 13.0555 1.39886C12.9635 1.24146 12.8394 1.1565 12.7113 1.16348L12.7113 1.16336Z" fill="#324396"/>
</svg>
