<svg width="13" height="9" viewBox="0 0 13 9" fill="none" xmlns="http://www.w3.org/2000/svg">
<path d="M6.50091 8.99999C5.07521 9.00185 3.68488 8.56121 2.52597 7.7402C1.37965 6.92992 0.500906 5.80297 0 4.50075C0.50081 3.19847 1.37958 2.07149 2.52597 1.26129C3.68513 0.44104 5.07485 0 6.5003 0C7.92576 0 9.31548 0.44104 10.4746 1.26129C11.6208 2.0716 12.4993 3.19857 13 4.50075C12.4993 5.80291 11.6208 6.92986 10.4746 7.7402C9.31606 8.56097 7.9262 9.0016 6.50091 8.99999ZM6.50091 1.50125C5.70708 1.51263 4.95022 1.83478 4.39628 2.39707C3.84235 2.95935 3.53655 3.71588 3.54595 4.50075C3.53655 5.28561 3.84235 6.04214 4.39628 6.60442C4.95022 7.16671 5.70708 7.48886 6.50091 7.50025C7.29484 7.48902 8.05186 7.16694 8.60593 6.60463C9.16 6.04233 9.46588 5.28572 9.45648 4.50075C9.46588 3.71578 9.16 2.95916 8.60593 2.39686C8.05186 1.83456 7.29484 1.51247 6.50091 1.50125ZM6.50091 6.30045C6.13902 6.30975 5.78254 6.21216 5.47704 6.02015C5.17153 5.82814 4.93087 5.55043 4.78581 5.2225C4.64075 4.89458 4.59788 4.53134 4.66268 4.17921C4.72748 3.82707 4.89701 3.50204 5.14959 3.24565C5.40218 2.98925 5.72636 2.81314 6.08069 2.73982C6.43503 2.6665 6.80342 2.6993 7.13881 2.83404C7.47419 2.96877 7.76133 3.19931 7.96351 3.4962C8.1657 3.79308 8.27376 4.14283 8.27389 4.50075C8.27956 4.97168 8.09609 5.42561 7.76372 5.76299C7.43135 6.10037 6.97722 6.29365 6.50091 6.30045Z" fill="white"/>
</svg>
