<svg width="16" height="16" viewBox="0 0 16 16" fill="none" xmlns="http://www.w3.org/2000/svg">
<path d="M15.5 5.75H9.775L8 0.5L6.225 5.75H0.5L5.125 9L3.35 14.25L8 11L12.625 14.25L10.85 9L15.5 5.75Z" fill="#FFCE31"/>
<path d="M11.55 5.07501L12.55 2.22501L9.925 4.02501L10.3 5.07501H11.55ZM6.975 12.5L8 15.5L9.025 12.5L8 11.8L6.975 12.5ZM12.675 8.57501L11.725 9.22501L12.125 10.425H15.35L12.675 8.57501ZM6.075 4.02501L3.44999 2.22501L4.44999 5.07501H5.7L6.075 4.02501ZM3.32499 8.57501L0.649994 10.425H3.87499L4.27499 9.22501L3.32499 8.57501Z" fill="#FFDF85"/>
</svg>
