<svg width="35" height="35" viewBox="0 0 35 35" fill="none" xmlns="http://www.w3.org/2000/svg">
<path d="M17.14 34.28C26.6062 34.28 34.28 26.6062 34.28 17.14C34.28 7.67384 26.6062 0 17.14 0C7.67384 0 0 7.67384 0 17.14C0 26.6062 7.67384 34.28 17.14 34.28Z" fill="white" fill-opacity="0.2"/>
<path d="M15.8673 16.219L17.2769 14.9275C17.6623 14.5737 17.9332 14.1127 18.0548 13.6038C18.1764 13.095 18.1432 12.5613 17.9594 12.0715L17.3583 10.4663C17.1337 9.86703 16.6891 9.37594 16.115 9.09306C15.541 8.81018 14.8807 8.7568 14.2686 8.9438C12.0164 9.63286 10.2852 11.7263 10.8181 14.2122C11.1685 15.8475 11.8392 17.9003 13.1097 20.0843C14.3828 22.2735 15.8371 23.8905 17.0839 25.0272C18.9661 26.74 21.6567 26.3121 23.3879 24.6977C23.8519 24.2651 24.1335 23.6717 24.1752 23.0386C24.2169 22.4055 24.0156 21.7803 23.6123 21.2905L22.5098 19.9517C22.1773 19.5469 21.7312 19.2508 21.2291 19.1016C20.7269 18.9523 20.1915 18.9568 19.6919 19.1144L17.8701 19.6879C17.3997 19.2024 16.9874 18.6637 16.6416 18.0827C16.3079 17.4952 16.0478 16.8688 15.8673 16.2177V16.219Z" fill="#FF5B7A"/>
</svg>
