<svg width="35" height="35" viewBox="0 0 35 35" fill="none" xmlns="http://www.w3.org/2000/svg">
<path d="M17.14 34.28C26.6062 34.28 34.28 26.6062 34.28 17.14C34.28 7.67384 26.6062 0 17.14 0C7.67384 0 0 7.67384 0 17.14C0 26.6062 7.67384 34.28 17.14 34.28Z" fill="white" fill-opacity="0.2"/>
<g clip-path="url(#clip0_1_266)">
<path d="M25.037 15.0301L19.4255 10.1845C18.9344 9.76027 18.1602 10.1046 18.1602 10.7636V13.3159C13.039 13.3745 8.97809 14.4009 8.97809 19.2542C8.97809 21.2131 10.24 23.1537 11.6349 24.1683C12.0702 24.485 12.6906 24.0876 12.5301 23.5743C11.0844 18.951 13.2158 17.7235 18.1602 17.6524V20.4554C18.1602 21.1153 18.935 21.4582 19.4255 21.0345L25.037 16.1883C25.39 15.8835 25.3904 15.3354 25.037 15.0301Z" fill="#40B3E0"/>
</g>
<defs>
<clipPath id="clip0_1_266">
<rect width="16.3238" height="16.3238" fill="white" transform="translate(8.97809 8.97769)"/>
</clipPath>
</defs>
</svg>
