<svg width="35" height="35" viewBox="0 0 35 35" fill="none" xmlns="http://www.w3.org/2000/svg">
<path d="M17.1379 34.2759C26.603 34.2759 34.2759 26.603 34.2759 17.1379C34.2759 7.67291 26.603 0 17.1379 0C7.67291 0 0 7.67291 0 17.1379C0 26.603 7.67291 34.2759 17.1379 34.2759Z" fill="white" fill-opacity="0.2"/>
<g clip-path="url(#clip0_1_242)">
<path d="M13.0564 10.6099C10.8032 10.6099 8.97594 12.4184 8.97594 14.6495C8.97594 16.4507 9.69002 20.7254 16.719 25.0466C16.8449 25.1232 16.9895 25.1637 17.1369 25.1637C17.2842 25.1637 17.4288 25.1232 17.5547 25.0466C24.5837 20.7254 25.2978 16.4507 25.2978 14.6495C25.2978 12.4184 23.4705 10.6099 21.2173 10.6099C18.9641 10.6099 17.1369 13.0582 17.1369 13.0582C17.1369 13.0582 15.3096 10.6099 13.0564 10.6099Z" stroke="white" stroke-width="2" stroke-linecap="round" stroke-linejoin="round"/>
</g>
<defs>
<clipPath id="clip0_1_242">
<rect width="19.5862" height="19.5862" fill="white" transform="translate(7.34375 8.16162)"/>
</clipPath>
</defs>
</svg>
