<svg width="50" height="50" viewBox="0 0 50 50" fill="none" xmlns="http://www.w3.org/2000/svg">
<rect width="50" height="50" rx="25" fill="white" fill-opacity="0.16"/>
<path d="M15 20.8402H19.7131L26.8033 15.0615V34.9386L19.7131 29.1599H15V20.8402ZM29.4672 19.8976C30.8606 21.2911 31.571 22.985 31.5984 24.9796C31.5984 26.8921 30.888 28.5315 29.4672 29.8976L28.0328 28.4222C29.0164 27.4386 29.5082 26.2774 29.5082 24.9386C29.5082 23.5725 29.0164 22.384 28.0328 21.373L29.4672 19.8976ZM31.9262 17.4796C33.9754 19.5288 35 22.0014 35 24.8976C35 27.7938 33.9754 30.2801 31.9262 32.3566L30.4098 30.8402C32.0492 29.2282 32.8689 27.2542 32.8689 24.9181C32.8689 22.5821 32.0492 20.5944 30.4098 18.955L31.9262 17.4796Z" fill="white"/>
</svg>
