<svg width="10" height="12" viewBox="0 0 10 12" fill="none" xmlns="http://www.w3.org/2000/svg">
<circle cx="0.431938" cy="7.92968" r="0.333" fill="#FF4B4E"/>
<circle cx="1.97594" cy="4.06249" r="0.333" fill="#FFCA54"/>
<circle cx="6.54693" cy="3.25878" r="0.333" fill="#00CDB3"/>
<circle cx="9.36895" cy="7.93066" r="0.333" fill="#57BAE5"/>
<circle cx="3.29693" cy="1.57226" r="0.333" fill="#57BAE5"/>
<path d="M9.01795 5.62671L6.19195 5.21571L4.92895 2.65371C4.87544 2.5458 4.7654 2.47754 4.64495 2.47754C4.5245 2.47754 4.41446 2.5458 4.36095 2.65371L3.09695 5.21471L0.270949 5.62571C0.15179 5.64316 0.0528107 5.72663 0.0154913 5.84113C-0.021828 5.95563 0.00895847 6.08139 0.0949492 6.16571L2.13995 8.15871L1.65695 10.9727C1.63662 11.0916 1.68554 11.2118 1.78316 11.2826C1.88078 11.3535 2.01017 11.3629 2.11695 11.3067L4.64395 9.97771C7.39395 11.4237 7.20795 11.3427 7.31895 11.3427C7.4122 11.3426 7.50064 11.3013 7.56075 11.2301C7.62086 11.1588 7.64654 11.0646 7.63095 10.9727L7.14795 8.15871L9.19295 6.16571C9.2783 6.08147 9.3088 5.95627 9.27177 5.84221C9.23473 5.72815 9.13651 5.64475 9.01795 5.62671Z" fill="#FFCA54"/>
<path d="M1.59694 3.13087C1.40494 3.09387 1.07294 2.85487 1.18594 2.20987C1.22694 1.97487 1.17594 1.95487 0.899944 1.89287C0.623944 1.83087 0.220944 1.73887 0.190944 1.16687C0.183898 1.09994 0.21437 1.03457 0.27017 0.996937C0.32597 0.959299 0.397986 0.955529 0.457411 0.987136C0.516835 1.01874 0.553964 1.08057 0.553944 1.14787C0.568944 1.43287 0.702944 1.47587 0.979944 1.53887C1.22894 1.59587 1.64594 1.68987 1.54394 2.27387C1.46594 2.71587 1.66294 2.77387 1.66494 2.77387C1.73184 2.78273 1.78834 2.82788 1.81175 2.89117C1.83515 2.95446 1.82162 3.0255 1.77659 3.07576C1.73155 3.12601 1.66241 3.14722 1.59694 3.13087Z" fill="#F99830"/>
<circle cx="0.542946" cy="3.59342" r="0.236" fill="#57BAE5"/>
<circle cx="8.34397" cy="8.40202" r="0.236" fill="#00CDB3"/>
<circle cx="0.752968" cy="9.86881" r="0.236" fill="#FFCA54"/>
<path d="M7.68995 3.28748C7.61913 3.21645 7.61913 3.10151 7.68995 3.03048L7.94295 2.77048C8.01388 2.70461 8.12396 2.7058 8.19346 2.77317C8.26297 2.84054 8.26757 2.95053 8.20395 3.02348L7.95095 3.28348C7.91722 3.31926 7.87045 3.33988 7.82129 3.34063C7.77213 3.34138 7.72475 3.32221 7.68995 3.28748Z" fill="#FF4B4E"/>
<path d="M2.77694 3.18767L2.44094 3.05167C2.35367 3.01052 2.31368 2.90842 2.34979 2.81895C2.3859 2.72947 2.48555 2.68373 2.57694 2.71467L2.91294 2.85067C3.00021 2.89182 3.0402 2.99393 3.00409 3.0834C2.96798 3.17287 2.86833 3.21862 2.77694 3.18767Z" fill="#FF4B4E"/>
<path d="M1.11794 9.1574L0.781944 9.0214C0.694677 8.98025 0.654688 8.87814 0.690796 8.78867C0.726903 8.6992 0.826558 8.65345 0.917944 8.6844L1.25394 8.8204C1.34121 8.86155 1.3812 8.96365 1.34509 9.05312C1.30899 9.1426 1.20933 9.18834 1.11794 9.1574Z" fill="#00CDB3"/>
<path d="M8.78292 9.77752L8.44692 9.64152C8.35966 9.60036 8.31967 9.49826 8.35577 9.40879C8.39188 9.31932 8.49154 9.27357 8.58292 9.30452L8.91892 9.44052C9.00619 9.48167 9.04618 9.58377 9.01007 9.67324C8.97396 9.76271 8.87431 9.80846 8.78292 9.77752Z" fill="#57BAE5"/>
<path d="M6.62492 0.141144C6.60317 0.0468041 6.51138 -0.0139991 6.41603 0.00278014C6.32068 0.0195594 6.25516 0.108048 6.26692 0.204144C6.31692 0.485144 6.19592 0.556144 5.93892 0.680144C5.70892 0.791144 5.32392 0.980144 5.55392 1.52214C5.72892 1.93714 5.54792 2.03714 5.54792 2.03714C5.49692 2.07114 5.33592 2.13014 5.40492 2.29414C5.52392 2.57714 6.25992 2.25914 5.88792 1.38014C5.79492 1.16014 5.83992 1.13014 6.09592 1.00614C6.47377 0.90375 6.70592 0.524145 6.62492 0.141144Z" fill="#F99830"/>
<path d="M9.39295 2.78944C9.31062 2.73218 9.19748 2.7523 9.13995 2.83444C9.02815 3.0218 8.96554 3.23439 8.95795 3.45244C8.91895 3.79744 8.90395 3.92644 8.54295 3.90344C8.22602 3.85347 7.9032 3.94607 7.66095 4.15644C7.42895 4.39444 7.43695 4.72244 7.65595 4.72544C7.83795 4.72544 7.84995 4.53444 7.84995 4.53444C7.84995 4.53444 7.88795 4.22544 8.51995 4.26544C9.51995 4.32844 9.19695 3.38644 9.43695 3.04144C9.49374 2.95956 9.47413 2.84723 9.39295 2.78944Z" fill="#F99830"/>
<path d="M3.89992 4.85555L4.95592 2.71555L4.92892 2.66055C4.87541 2.55264 4.76537 2.48438 4.64492 2.48438C4.52448 2.48438 4.41443 2.55264 4.36092 2.66055L3.09692 5.22155L3.52492 5.14555C3.68731 5.11047 3.82514 5.00389 3.89992 4.85555Z" fill="#F99830"/>
<path d="M2.33793 10.8529L2.76793 8.3469C2.79788 8.17368 2.75036 7.99603 2.63793 7.8609L0.777926 6.0459C0.707654 5.9763 0.673896 5.87789 0.686646 5.77981C0.699397 5.68173 0.757195 5.59522 0.842926 5.5459L0.271926 5.6289C0.152766 5.64635 0.0537873 5.72982 0.0164679 5.84432C-0.0208515 5.95882 0.00993504 6.08458 0.0959257 6.1689L2.14093 8.1619L1.65793 10.9759C1.63759 11.0948 1.68652 11.215 1.78414 11.2858C1.88176 11.3567 2.01115 11.366 2.11793 11.3099L2.43893 11.1419C2.35773 11.0694 2.31957 10.9602 2.33793 10.8529Z" fill="#F99830"/>
</svg>
