<svg width="28" height="26" viewBox="0 0 28 26" fill="none" xmlns="http://www.w3.org/2000/svg">
<path d="M12.125 19.4375L17.1 16.5875C17.9375 16.1125 17.9375 14.9 17.1 14.4125L12.125 11.5625C11.2875 11.0875 10.25 11.7 10.25 12.65V18.3375C10.25 19.3 11.2875 19.9125 12.125 19.4375ZM25.25 5.5H15.7625L19.4375 1.825C19.6875 1.575 19.6875 1.1875 19.4375 0.9375C19.1875 0.6875 18.8 0.6875 18.55 0.9375L14 5.4875L9.45 0.9375C9.2 0.6875 8.8125 0.6875 8.5625 0.9375C8.3125 1.1875 8.3125 1.575 8.5625 1.825L12.2375 5.5H2.75C2.08696 5.5 1.45107 5.76339 0.982233 6.23223C0.513392 6.70107 0.25 7.33696 0.25 8V23C0.25 24.375 1.375 25.5 2.75 25.5H25.25C26.625 25.5 27.75 24.375 27.75 23V8C27.75 7.33696 27.4866 6.70107 27.0178 6.23223C26.5489 5.76339 25.913 5.5 25.25 5.5ZM24 23H4C3.3125 23 2.75 22.4375 2.75 21.75V9.25C2.75 8.5625 3.3125 8 4 8H24C24.6875 8 25.25 8.5625 25.25 9.25V21.75C25.25 22.4375 24.6875 23 24 23Z" fill="white"/>
</svg>
