<svg width="16" height="18" viewBox="0 0 16 18" fill="none" xmlns="http://www.w3.org/2000/svg">
<path d="M15.1653 16.9607L11.1912 11.6799C12.2985 10.6367 13.0221 9.24273 13.2429 7.72756C13.4637 6.21228 13.1687 4.66611 12.4063 3.34318C11.6439 2.0204 10.4595 1.00004 9.04819 0.449916C7.63689 -0.10021 6.08283 -0.147241 4.64141 0.316515C3.20017 0.780271 1.95778 1.72729 1.11872 3.00149C0.279656 4.2757 -0.105941 5.80133 0.0250376 7.32736C0.156176 8.85328 0.796268 10.2885 1.83996 11.3967C2.88379 12.505 4.26897 13.2204 5.7675 13.425C6.06696 13.4634 6.36855 13.4827 6.67044 13.483C7.91399 13.4824 9.13241 13.1275 10.1864 12.459L14.1605 17.7465C14.2627 17.8821 14.4137 17.9712 14.5806 17.9942C14.7475 18.017 14.9165 17.972 15.0506 17.8688C15.1855 17.7643 15.2733 17.6095 15.2949 17.439C15.3163 17.2684 15.2696 17.0963 15.165 16.9607L15.1653 16.9607ZM5.93972 12.1436C4.51592 11.9561 3.22459 11.2019 2.35116 10.0477C1.47776 8.89368 1.09427 7.43459 1.28545 5.99342C1.46257 4.67841 2.10478 3.47305 3.09285 2.60133C4.08091 1.72961 5.34772 1.25065 6.65812 1.25352C6.90266 1.25482 7.1469 1.27207 7.38932 1.30498C9.30088 1.56733 10.9291 2.84253 11.6606 4.65049C12.3921 6.4583 12.1157 8.52408 10.9358 10.0697C9.75569 11.6153 7.85121 12.4058 5.93968 12.1436L5.93972 12.1436Z" fill="#8E8E93" fill-opacity="0.85"/>
</svg>
