<svg width="21" height="20" viewBox="0 0 21 20" fill="none" xmlns="http://www.w3.org/2000/svg">
<path d="M20.6325 9.28057L18.7286 7.31271L19.1116 4.60191C19.1896 4.04995 18.8156 3.53599 18.2667 3.43899L15.5699 2.96603L14.287 0.548205C14.027 0.0572411 13.422 -0.139745 12.9221 0.105237L10.4622 1.30715L8.00241 0.105237C7.50245 -0.139745 6.8975 0.057241 6.63651 0.549205L5.35361 2.96803L2.65681 3.44099C2.10785 3.53699 1.73387 4.05095 1.81187 4.60291L2.19484 7.31371L0.290979 9.28156C-0.0969929 9.68254 -0.0969929 10.3175 0.290979 10.7185L2.19484 12.6863L1.81187 15.3971C1.73387 15.9491 2.10785 16.463 2.65681 16.56L5.35361 17.033L6.63651 19.4508C6.8975 19.9428 7.50245 20.1398 8.00342 19.8948L10.4622 18.6919L12.9221 19.8938C13.423 20.1388 14.027 19.9418 14.289 19.4498L15.5719 17.032L18.2687 16.559C18.8176 16.463 19.1916 15.9481 19.1136 15.3961L18.7306 12.6853L20.6345 10.7175C21.0195 10.3175 21.0195 9.68154 20.6325 9.28057ZM9.46231 14.4132L5.75558 10.7065L7.16948 9.29256L9.46231 11.5854L14.7549 6.29278L16.1688 7.70668L9.46231 14.4132Z" fill="#4ABC4F"/>
</svg>
