<svg width="36" height="31" viewBox="0 0 36 31" fill="none" xmlns="http://www.w3.org/2000/svg">
<path d="M12.8571 5.16667H23.1429V2.58333H12.8571V5.16667ZM5.78571 5.16667V31H4.5C3.26786 31 2.20982 30.556 1.32589 29.668C0.441964 28.7799 0 27.717 0 26.4792V9.6875C0 8.44965 0.441964 7.38672 1.32589 6.4987C2.20982 5.61068 3.26786 5.16667 4.5 5.16667H5.78571ZM28.2857 5.16667V31H7.71429V5.16667H10.2857V1.9375C10.2857 1.39931 10.4732 0.94184 10.8482 0.565104C11.2232 0.188368 11.6786 0 12.2143 0H23.7857C24.3214 0 24.7768 0.188368 25.1518 0.565104C25.5268 0.94184 25.7143 1.39931 25.7143 1.9375V5.16667H28.2857ZM36 9.6875V26.4792C36 27.717 35.558 28.7799 34.6741 29.668C33.7902 30.556 32.7321 31 31.5 31H30.2143V5.16667H31.5C32.7321 5.16667 33.7902 5.61068 34.6741 6.4987C35.558 7.38672 36 8.44965 36 9.6875Z" fill="#4F7DF2"/>
</svg>
