<svg width="72" height="71" viewBox="0 0 72 71" fill="none" xmlns="http://www.w3.org/2000/svg">
<g filter="url(#filter0_d_3_145529)">
<circle cx="35.9166" cy="30.5833" r="25.2913" fill="#324396"/>
</g>
<path d="M36.4792 19.4046C39.2313 19.4073 41.8949 20.3747 44.0075 22.1385C46.1197 23.9021 47.5465 26.3502 48.0397 29.057C48.5328 31.7637 48.061 34.5578 46.7064 36.9527L48.242 42.0877C48.3011 42.2896 48.2593 42.5077 48.1298 42.6734C48.0004 42.8393 47.7989 42.9325 47.5886 42.924C47.528 42.9335 47.4662 42.9335 47.4056 42.924L42.2692 41.4148L42.2694 41.4149C40.1731 42.5932 37.7658 43.1008 35.3721 42.8694C32.9782 42.6379 30.7129 41.6785 28.8815 40.1205C27.0498 38.5624 25.7399 36.4804 25.1283 34.1551C24.5167 31.8299 24.6325 29.3729 25.4605 27.1155C26.2884 24.8581 27.7886 22.9087 29.7586 21.53C31.7288 20.1513 34.0744 19.4093 36.4794 19.4043L36.4792 19.4046ZM42.3605 33.1242C42.8804 33.1242 43.3791 32.9176 43.7468 32.5501C44.1144 32.1825 44.321 31.6841 44.321 31.1642C44.321 30.6443 44.1144 30.1459 43.7468 29.7783C43.3791 29.4108 42.8804 29.2042 42.3605 29.2042C41.8405 29.2042 41.3418 29.4108 40.9743 29.7783C40.6065 30.1459 40.4 30.6443 40.4 31.1642C40.4 31.6841 40.6065 32.1825 40.9743 32.5501C41.3418 32.9176 41.8405 33.1242 42.3605 33.1242ZM36.4792 33.1242C36.9992 33.1242 37.4977 32.9176 37.8655 32.5501C38.233 32.1825 38.4397 31.6841 38.4397 31.1642C38.4397 30.6443 38.233 30.1459 37.8655 29.7783C37.4977 29.4108 36.9992 29.2042 36.4792 29.2042C35.9592 29.2042 35.4607 29.4108 35.0929 29.7783C34.7253 30.1459 34.5187 30.6443 34.5187 31.1642C34.5187 31.6841 34.7253 32.1825 35.0929 32.5501C35.4607 32.9176 35.9592 33.1242 36.4792 33.1242ZM30.5978 33.1242C31.1179 33.1242 31.6166 32.9176 31.9841 32.5501C32.3519 32.1825 32.5583 31.6841 32.5583 31.1642C32.5583 30.6443 32.3519 30.1459 31.9841 29.7783C31.6166 29.4108 31.1179 29.2042 30.5978 29.2042C30.078 29.2042 29.5793 29.4108 29.2116 29.7783C28.844 30.1459 28.6373 30.6443 28.6373 31.1642C28.6373 31.6841 28.844 32.1825 29.2116 32.5501C29.5793 32.9176 30.078 33.1242 30.5978 33.1242Z" fill="white"/>
<defs>
<filter id="filter0_d_3_145529" x="0.625244" y="0.291992" width="70.5828" height="70.583" filterUnits="userSpaceOnUse" color-interpolation-filters="sRGB">
<feFlood flood-opacity="0" result="BackgroundImageFix"/>
<feColorMatrix in="SourceAlpha" type="matrix" values="0 0 0 0 0 0 0 0 0 0 0 0 0 0 0 0 0 0 127 0" result="hardAlpha"/>
<feOffset dy="5"/>
<feGaussianBlur stdDeviation="5"/>
<feColorMatrix type="matrix" values="0 0 0 0 0.576471 0 0 0 0 0.576471 0 0 0 0 0.576471 0 0 0 0.25 0"/>
<feBlend mode="normal" in2="BackgroundImageFix" result="effect1_dropShadow_3_145529"/>
<feBlend mode="normal" in="SourceGraphic" in2="effect1_dropShadow_3_145529" result="shape"/>
</filter>
</defs>
</svg>
