<svg width="21" height="22" viewBox="0 0 21 22" fill="none" xmlns="http://www.w3.org/2000/svg">
<path d="M19.691 11.0246C19.4638 11.0246 19.278 11.2104 19.278 11.4376C19.278 16.2292 15.3745 20.1533 10.5623 20.1533C5.7501 20.1533 1.84664 16.2498 1.84664 11.4583C1.84664 6.8526 5.41961 3.09371 9.94271 2.78391L9.57102 3.07305C9.38518 3.21769 9.34383 3.48608 9.48847 3.67192C9.57102 3.77522 9.69506 3.83717 9.81896 3.83717C9.90151 3.83717 10.0048 3.81656 10.0668 3.75462L11.4711 2.68061C11.5744 2.59806 11.6363 2.47402 11.6363 2.32952C11.6363 2.18488 11.5538 2.06099 11.4505 1.99904L10.0461 1.06968C9.8603 0.945782 9.59178 0.987129 9.46786 1.19358C9.34396 1.37942 9.38531 1.64795 9.59176 1.77187L9.88089 1.95771C4.92412 2.2882 1 6.41881 1 11.4582C1 16.7248 5.27522 21 10.5418 21C15.8084 21.0001 20.1042 16.7248 20.1042 11.4582C20.1042 11.231 19.9184 11.0246 19.6912 11.0246L19.691 11.0246Z" fill="white" stroke="white" stroke-width="0.5"/>
<path d="M19.8764 9.2468C19.8764 9.53191 19.6453 9.76313 19.3601 9.76313C19.075 9.76313 18.8438 9.53191 18.8438 9.2468C18.8438 8.96155 19.075 8.73047 19.3601 8.73047C19.6453 8.73047 19.8764 8.96155 19.8764 9.2468Z" fill="white" stroke="white" stroke-width="0.5"/>
<path d="M19.2153 7.32688C19.2153 7.61213 18.9841 7.84321 18.6989 7.84321C18.4138 7.84321 18.1826 7.61213 18.1826 7.32688C18.1826 7.04177 18.4138 6.81055 18.6989 6.81055C18.9841 6.81055 19.2153 7.04177 19.2153 7.32688Z" fill="white" stroke="white" stroke-width="0.5"/>
<path d="M17.977 5.53C17.977 5.81511 17.7459 6.04633 17.4607 6.04633C17.1756 6.04633 16.9443 5.81511 16.9443 5.53C16.9443 5.24475 17.1756 5.01367 17.4607 5.01367C17.7459 5.01367 17.977 5.24475 17.977 5.53Z" fill="white" stroke="white" stroke-width="0.5"/>
<path d="M16.2612 3.98313C16.2612 4.26824 16.0301 4.49946 15.7448 4.49946C15.4597 4.49946 15.2285 4.26824 15.2285 3.98313C15.2285 3.69788 15.4597 3.4668 15.7448 3.4668C16.0301 3.4668 16.2612 3.69788 16.2612 3.98313Z" fill="white" stroke="white" stroke-width="0.5"/>
<path d="M14.2172 2.90891C14.2172 3.19416 13.986 3.42524 13.7009 3.42524C13.4157 3.42524 13.1846 3.19416 13.1846 2.90891C13.1846 2.6238 13.4157 2.39258 13.7009 2.39258C13.986 2.39258 14.2172 2.6238 14.2172 2.90891Z" fill="white"/>
<path d="M14.2172 2.90891C14.2172 3.19416 13.986 3.42524 13.7009 3.42524C13.4157 3.42524 13.1846 3.19416 13.1846 2.90891C13.1846 2.6238 13.4157 2.39258 13.7009 2.39258C13.986 2.39258 14.2172 2.6238 14.2172 2.90891" stroke="white" stroke-width="0.5"/>
<path d="M14.2187 9.39169C14.2187 9.1645 14.0328 8.9579 13.7849 8.9579L8.18785 8.95805L9.13797 8.00792C9.30321 7.84268 9.30321 7.57413 9.13797 7.40905C9.05542 7.3265 8.95212 7.28516 8.82823 7.28516C8.72493 7.28516 8.60104 7.3265 8.51849 7.40905L6.84561 9.08193C6.68037 9.24717 6.68037 9.51572 6.84561 9.6808L8.51849 11.3744C8.60104 11.457 8.70433 11.4983 8.82823 11.4983C8.95212 11.4983 9.05542 11.457 9.13797 11.3744C9.22052 11.2919 9.26187 11.1886 9.26187 11.0647C9.26187 10.9408 9.22052 10.8375 9.13797 10.755L8.18785 9.78426H13.7849C14.0119 9.82546 14.2185 9.61887 14.2185 9.39166L14.2187 9.39169Z" fill="white" stroke="white" stroke-width="0.5"/>
<path d="M12.2352 15.8577C12.3591 15.8577 12.4624 15.8164 12.5449 15.7339L14.2178 14.0402C14.3831 13.875 14.3831 13.6064 14.2178 13.4413L12.5449 11.7685C12.3797 11.6032 12.1112 11.6032 11.9461 11.7685C11.7808 11.9337 11.7808 12.2023 11.9461 12.3673L12.8962 13.3175H7.27852C7.05132 13.3175 6.84473 13.5033 6.84473 13.7512C6.84473 13.9784 7.03057 14.185 7.27852 14.185H12.8755L11.9254 15.1557C11.8429 15.2383 11.8015 15.3416 11.8015 15.4655C11.8015 15.5894 11.8429 15.6927 11.9254 15.7752C12.008 15.8164 12.1113 15.8578 12.2352 15.8578L12.2352 15.8577Z" fill="white" stroke="white" stroke-width="0.5"/>
</svg>
