<svg width="35" height="33" viewBox="0 0 35 33" fill="none" xmlns="http://www.w3.org/2000/svg">
<ellipse cx="17.0873" cy="16.9257" rx="16.9604" ry="15.9628" fill="#A2825D"/>
<path d="M24.6115 10.8738C22.3455 18.2775 17.087 25.3594 17.087 25.3594C17.087 25.3594 11.5291 17.9958 9.5625 10.8738C12.0422 8.17783 20.2934 7.25235 24.6115 10.8738Z" fill="#FFEB38"/>
<path d="M17.087 25.3594L16.6879 25.6606C16.7828 25.7863 16.9314 25.86 17.089 25.8594C17.2465 25.8588 17.3945 25.7839 17.4884 25.6575L17.087 25.3594ZM24.6115 10.8738L25.0896 11.0201C25.1483 10.8282 25.0866 10.6197 24.9328 10.4907L24.6115 10.8738ZM9.5625 10.8738L9.19449 10.5353C9.07768 10.6623 9.03461 10.8406 9.08054 11.0069L9.5625 10.8738ZM17.087 25.3594C17.4884 25.6575 17.4885 25.6574 17.4886 25.6573C17.4886 25.6572 17.4887 25.657 17.4888 25.6569C17.4891 25.6566 17.4894 25.6562 17.4897 25.6557C17.4905 25.6547 17.4916 25.6532 17.4929 25.6514C17.4957 25.6476 17.4997 25.6422 17.505 25.635C17.5155 25.6208 17.5308 25.5998 17.5509 25.5723C17.5909 25.5173 17.6495 25.4362 17.7246 25.3307C17.8749 25.1197 18.0914 24.8109 18.3579 24.4177C18.8909 23.6313 19.6246 22.5061 20.4296 21.1479C22.0369 18.4361 23.9401 14.7759 25.0896 11.0201L24.1334 10.7275C23.0169 14.3753 21.1578 17.958 19.5694 20.638C18.7765 21.9758 18.054 23.0838 17.5301 23.8566C17.2683 24.243 17.0563 24.5453 16.9101 24.7506C16.837 24.8532 16.7804 24.9315 16.7423 24.9838C16.7233 25.01 16.7089 25.0297 16.6993 25.0426C16.6945 25.0491 16.691 25.054 16.6887 25.0571C16.6875 25.0586 16.6867 25.0598 16.6862 25.0605C16.6859 25.0608 16.6857 25.0611 16.6856 25.0612C16.6856 25.0613 16.6856 25.0613 16.6855 25.0613C16.6855 25.0613 16.6856 25.0613 17.087 25.3594ZM24.9328 10.4907C22.6449 8.57188 19.3623 7.88661 16.3777 8.00516C14.8782 8.06472 13.4307 8.32756 12.1901 8.75436C10.9569 9.17862 9.89129 9.77773 9.19449 10.5353L9.93051 11.2123C10.4735 10.6219 11.3692 10.0943 12.5154 9.69997C13.6543 9.30818 15.0044 9.0605 16.4174 9.00437C19.2579 8.89155 22.26 9.55426 24.2902 11.2569L24.9328 10.4907ZM9.08054 11.0069C10.0815 14.6316 11.9889 18.298 13.6333 21.0442C14.4574 22.4206 15.2195 23.5726 15.776 24.381C16.0543 24.7854 16.2814 25.1041 16.4393 25.3222C16.5183 25.4313 16.58 25.5153 16.6221 25.5723C16.6432 25.6008 16.6594 25.6226 16.6705 25.6374C16.676 25.6448 16.6803 25.6504 16.6832 25.6543C16.6846 25.6562 16.6858 25.6577 16.6866 25.6588C16.6869 25.6593 16.6873 25.6597 16.6875 25.66C16.6876 25.6602 16.6877 25.6603 16.6878 25.6604C16.6878 25.6605 16.6879 25.6606 17.087 25.3594C17.4861 25.0582 17.4861 25.0582 17.4861 25.0582C17.4861 25.0582 17.4861 25.0581 17.486 25.0581C17.4859 25.0579 17.4857 25.0576 17.4854 25.0573C17.4849 25.0565 17.484 25.0554 17.4827 25.0537C17.4803 25.0505 17.4765 25.0455 17.4715 25.0387C17.4614 25.0252 17.4462 25.0047 17.4261 24.9776C17.3859 24.9232 17.3262 24.8421 17.2494 24.7359C17.0957 24.5235 16.8732 24.2113 16.5997 23.814C16.0527 23.0193 15.3024 21.8853 14.4912 20.5305C12.865 17.8144 11.0102 14.238 10.0445 10.7407L9.08054 11.0069Z" fill="#89673F"/>
<ellipse cx="19.5419" cy="12.4061" rx="2.11029" ry="1.98617" fill="#EB5757"/>
<ellipse cx="17.0869" cy="18.4686" rx="2.11029" ry="1.98617" fill="#EB5757"/>
<ellipse cx="14.5644" cy="14.1366" rx="2.11029" ry="1.98617" fill="#EB5757"/>
</svg>
