<svg width="42" height="43" viewBox="0 0 42 43" fill="none" xmlns="http://www.w3.org/2000/svg">
<path d="M21 42.4492C32.598 42.4492 42 33.0472 42 21.4492C42 9.85124 32.598 0.449219 21 0.449219C9.40202 0.449219 0 9.85124 0 21.4492C0 33.0472 9.40202 42.4492 21 42.4492Z" fill="white" fill-opacity="0.2"/>
<path d="M16 13.4502C13.239 13.4502 11 15.6662 11 18.4002C11 20.6072 11.875 25.8452 20.488 31.1402C20.6423 31.2341 20.8194 31.2837 21 31.2837C21.1806 31.2837 21.3577 31.2341 21.512 31.1402C30.125 25.8452 31 20.6072 31 18.4002C31 15.6662 28.761 13.4502 26 13.4502C23.239 13.4502 21 16.4502 21 16.4502C21 16.4502 18.761 13.4502 16 13.4502Z" stroke="white" stroke-width="2" stroke-linecap="round" stroke-linejoin="round"/>
</svg>
