<svg width="43" height="42" viewBox="0 0 43 42" fill="none" xmlns="http://www.w3.org/2000/svg">
<g filter="url(#filter0_d_6_275)">
<ellipse cx="21.3351" cy="19.0122" rx="16.7422" ry="16.4139" fill="#55ACEE" stroke="white"/>
<path d="M30.8536 13.0739C30.854 13.0739 30.8541 13.0744 30.8538 13.0746C30.4852 13.2421 30.1054 13.3808 29.7177 13.4897C29.446 13.5661 29.2695 13.1649 29.4565 12.9536C29.6046 12.7864 29.7392 12.607 29.8589 12.4173C30.0603 12.098 29.696 11.7832 29.35 11.9341C28.9837 12.0938 28.6061 12.2258 28.2203 12.3286C27.9293 12.4062 27.6279 12.2981 27.3995 12.1017C26.1467 11.0242 24.3629 10.818 22.8937 11.6248C22.6459 11.7608 22.4166 11.9204 22.2074 12.0998C20.4722 13.5877 18.5386 16.09 16.4865 15.0832C15.5231 14.6106 14.6248 14.0004 13.8199 13.2673C13.1535 12.6603 12.0576 12.7821 11.9962 13.6815C11.9262 14.7063 12.23 15.7338 12.8589 16.5491C13.087 16.8447 12.8856 17.3076 12.5357 17.1772C12.3515 17.1085 12.1718 17.0259 11.9984 16.9297C11.978 16.9184 11.9529 16.933 11.9529 16.9562C11.9532 18.4719 12.7533 19.8261 13.979 20.5498C14.2656 20.7191 14.2319 21.1777 13.8995 21.1582C13.6591 21.1441 13.4607 21.3702 13.5611 21.589C13.8497 22.218 14.2834 22.7524 14.8127 23.1546C15.4899 23.6692 15.7585 24.9159 14.9637 25.2189C14.0652 25.5616 13.7676 27.0009 14.7019 27.2285C17.4258 27.8919 20.3407 27.5226 22.8742 26.1004C26.5598 24.0314 28.8507 20.0641 28.8482 15.7545C28.8482 15.4203 29.0017 15.1017 29.2568 14.8857C29.8714 14.3654 30.4094 13.7553 30.8533 13.0741C30.8534 13.074 30.8535 13.0739 30.8536 13.0739Z" fill="#F1F2F2" stroke="white"/>
</g>
<defs>
<filter id="filter0_d_6_275" x="0.0928955" y="0.0982666" width="42.4844" height="41.8279" filterUnits="userSpaceOnUse" color-interpolation-filters="sRGB">
<feFlood flood-opacity="0" result="BackgroundImageFix"/>
<feColorMatrix in="SourceAlpha" type="matrix" values="0 0 0 0 0 0 0 0 0 0 0 0 0 0 0 0 0 0 127 0" result="hardAlpha"/>
<feOffset dy="2"/>
<feGaussianBlur stdDeviation="2"/>
<feComposite in2="hardAlpha" operator="out"/>
<feColorMatrix type="matrix" values="0 0 0 0 1 0 0 0 0 1 0 0 0 0 1 0 0 0 1 0"/>
<feBlend mode="normal" in2="BackgroundImageFix" result="effect1_dropShadow_6_275"/>
<feBlend mode="normal" in="SourceGraphic" in2="effect1_dropShadow_6_275" result="shape"/>
</filter>
</defs>
</svg>
