<svg width="19" height="19" viewBox="0 0 19 19" fill="none" xmlns="http://www.w3.org/2000/svg">
<path d="M1.625 16.7538V3.375C1.625 2.91087 1.80937 2.46575 2.13756 2.13756C2.46575 1.80937 2.91087 1.625 3.375 1.625H15.625C16.0891 1.625 16.5342 1.80937 16.8624 2.13756C17.1906 2.46575 17.375 2.91087 17.375 3.375V12.125C17.375 12.5891 17.1906 13.0342 16.8624 13.3624C16.5342 13.6906 16.0891 13.875 15.625 13.875H5.96587C5.70358 13.875 5.44465 13.934 5.20822 14.0476C4.9718 14.1612 4.76393 14.3265 4.6 14.5312L2.56037 17.081C2.4925 17.1661 2.39986 17.2279 2.29528 17.2581C2.19071 17.2882 2.07935 17.285 1.97663 17.2491C1.8739 17.2132 1.78489 17.1462 1.72189 17.0574C1.6589 16.9687 1.62504 16.8626 1.625 16.7538V16.7538Z" stroke="#219653" stroke-width="1.5"/>
</svg>
