<svg width="20" height="29" viewBox="0 0 20 29" fill="none" xmlns="http://www.w3.org/2000/svg">
<path d="M0 0V28.8889H20V0H0ZM13.3333 25.5556H6.66667C6.26959 25.5556 5.90279 25.3438 5.70438 25C5.50597 24.6563 5.50597 24.2326 5.70438 23.8889C5.90279 23.5451 6.26961 23.3333 6.66667 23.3333H13.3333C13.7304 23.3333 14.0972 23.5451 14.2956 23.8889C14.494 24.2326 14.494 24.6563 14.2956 25C14.0972 25.3438 13.7304 25.5556 13.3333 25.5556ZM13.3333 20H6.66667C6.26959 20 5.90279 19.7882 5.70438 19.4444C5.50597 19.1007 5.50597 18.6771 5.70438 18.3333C5.90279 17.9896 6.26961 17.7778 6.66667 17.7778H13.3333C13.7304 17.7778 14.0972 17.9896 14.2956 18.3333C14.494 18.6771 14.494 19.1007 14.2956 19.4444C14.0972 19.7882 13.7304 20 13.3333 20ZM10 13.3333C8.82121 13.3333 7.69073 12.8651 6.8574 12.0315C6.02381 11.1982 5.55556 10.0677 5.55556 8.88889C5.55556 7.7101 6.02381 6.57962 6.8574 5.74629C7.69073 4.9127 8.82121 4.44445 10 4.44445C11.1788 4.44445 12.3093 4.9127 13.1426 5.74629C13.9762 6.57962 14.4444 7.7101 14.4444 8.88889C14.4444 10.0677 13.9762 11.1982 13.1426 12.0315C12.3093 12.8651 11.1788 13.3333 10 13.3333Z" fill="#324396"/>
</svg>
