<svg width="80" height="80" viewBox="0 0 80 80" fill="none" xmlns="http://www.w3.org/2000/svg">
<path d="M70.0219 20.4284C75.1171 28.2267 76.98 37.7008 75.2167 46.8477C73.4535 55.9945 68.2024 64.0972 60.5735 69.4427C52.9447 74.7882 43.5361 76.9575 34.3368 75.492C25.1375 74.0265 16.8687 69.0411 11.2785 61.5897C5.68829 54.1383 3.21484 44.805 4.3811 35.563C5.54735 26.3211 10.2619 17.8948 17.528 12.0658C24.7941 6.23673 34.0422 3.46176 43.3171 4.32753C52.5921 5.19331 61.1668 9.63197 67.2286 16.7051" stroke="white" stroke-width="4" stroke-linecap="round" stroke-linejoin="round"/>
<path d="M57.8315 32.9582C59.6247 37.4865 59.6289 42.5274 57.8431 47.0586C56.0573 51.5899 52.6152 55.2725 48.2147 57.3599C43.8142 59.4473 38.7846 59.7831 34.1456 58.2994C29.5067 56.8157 25.6055 53.6234 23.2331 49.3698C20.8607 45.1162 20.1945 40.1196 21.3698 35.393C22.545 30.6665 25.4736 26.5637 29.5619 23.9165C33.6501 21.2693 38.5921 20.2758 43.3857 21.1374C48.1794 21.9991 52.466 24.6514 55.3765 28.5566" stroke="white" stroke-width="4" stroke-linecap="round" stroke-linejoin="round"/>
<path d="M67.2271 16.7068L40.0005 43.9335L32.1338 36.0668" stroke="white" stroke-width="4" stroke-linecap="round" stroke-linejoin="round"/>
</svg>
