<svg width="80" height="80" viewBox="0 0 80 80" fill="none" xmlns="http://www.w3.org/2000/svg">
<path d="M37.6522 15.4644H43.0409C43.7081 15.4644 44.2488 16.1315 44.2488 16.6722V47.7055C44.2488 48.3727 43.7081 48.9134 43.0409 48.9134H37.6522C36.985 48.9134 36.4443 48.2462 36.4443 47.7055V16.6722C36.4443 16.005 36.985 15.4644 37.6522 15.4644Z" fill="white"/>
<path d="M37.6528 56.5425H43.0415C43.7087 56.5425 44.2494 57.0831 44.2494 57.7503V63.3251V63.3245C44.2494 63.9916 43.7087 64.5329 43.0415 64.5329H37.6528C36.9856 64.5329 36.4443 63.9916 36.4443 63.3245V57.7503C36.4443 57.4298 36.5721 57.1229 36.7984 56.8959C37.0247 56.6696 37.3322 56.5425 37.6528 56.5425V56.5425Z" fill="white"/>
<path d="M39.9998 0.000317589C29.3909 0.000317589 19.2173 4.21476 11.7157 11.716C4.21444 19.2173 0 29.3922 0 40.0002C0 50.6081 4.21444 60.7827 11.7157 68.2843C19.217 75.7856 29.3919 80 39.9998 80C50.6077 80 60.7823 75.7856 68.2839 68.2843C75.7852 60.783 79.9996 50.6081 79.9996 40.0002C79.9879 29.3951 75.7698 19.2271 68.2709 11.7287C60.772 4.23032 50.6043 0.0119048 39.9995 0L39.9998 0.000317589ZM39.9998 73.7781C31.0414 73.7781 22.449 70.219 16.1157 63.8848C9.78237 57.5505 6.22238 48.9586 6.22238 40.0006C6.22238 31.0427 9.78142 22.4498 16.1157 16.1165C22.45 9.78317 31.0419 6.22318 39.9998 6.22318C48.9577 6.22318 57.5506 9.78222 63.8839 16.1165C70.2173 22.4508 73.7773 31.0427 73.7773 40.0006C73.7667 48.9559 70.2052 57.5419 63.8728 63.8737C57.5403 70.2062 48.9547 73.7676 39.9998 73.7781Z" fill="white"/>
</svg>
