<svg width="16" height="12" viewBox="0 0 16 12" fill="none" xmlns="http://www.w3.org/2000/svg">
<path d="M1.35232 0H9.71833C10.4676 0 11.0706 0.730267 11.0706 1.63716V9.78267C11.0706 10.6897 10.4674 11.4198 9.71833 11.4198L1.35232 11.42C0.603063 11.42 0 10.6897 0 9.78284V1.63734C0 0.730262 0.603212 0.000176818 1.35232 0.000176818V0Z" fill="#5B5B5B"/>
<path d="M14.93 1.20731C14.8382 1.21156 14.7486 1.25099 14.669 1.32242L12.0054 3.72289V7.69652L14.669 10.097V10.0968C14.8412 10.2517 15.0532 10.2515 15.2253 10.0965C15.3975 9.94121 15.5035 9.65459 15.5038 9.34428V2.07511C15.5035 1.84012 15.4423 1.61521 15.3342 1.45181C15.2262 1.2884 15.0804 1.20019 14.93 1.20745L14.93 1.20731Z" fill="#5B5B5B"/>
</svg>
