<svg width="62" height="61" viewBox="0 0 62 61" fill="none" xmlns="http://www.w3.org/2000/svg">
<g filter="url(#filter0_d_3_89128)">
<circle cx="30.6109" cy="25.5" r="20.5" fill="#324396"/>
</g>
<path d="M22.0119 16.8438H33.639C34.6803 16.8438 35.5185 17.8587 35.5185 19.1191V30.4397C35.5185 31.7004 34.6801 32.7151 33.639 32.7151L22.0119 32.7153C20.9706 32.7153 20.1324 31.7004 20.1324 30.44V19.1193C20.1324 17.8587 20.9708 16.844 22.0119 16.844V16.8438Z" fill="white"/>
<path d="M40.8827 18.5219C40.7552 18.5278 40.6305 18.5826 40.5199 18.6819L36.8181 22.018V27.5406L40.5199 30.8768V30.8765C40.7592 31.0918 41.054 31.0916 41.2931 30.876C41.5324 30.6603 41.6798 30.2619 41.6802 29.8307V19.7279C41.6798 19.4014 41.5947 19.0888 41.4445 18.8617C41.2943 18.6346 41.0917 18.512 40.8827 18.5221L40.8827 18.5219Z" fill="white"/>
<defs>
<filter id="filter0_d_3_89128" x="0.110901" y="0" width="61" height="61" filterUnits="userSpaceOnUse" color-interpolation-filters="sRGB">
<feFlood flood-opacity="0" result="BackgroundImageFix"/>
<feColorMatrix in="SourceAlpha" type="matrix" values="0 0 0 0 0 0 0 0 0 0 0 0 0 0 0 0 0 0 127 0" result="hardAlpha"/>
<feOffset dy="5"/>
<feGaussianBlur stdDeviation="5"/>
<feColorMatrix type="matrix" values="0 0 0 0 0.576471 0 0 0 0 0.576471 0 0 0 0 0.576471 0 0 0 0.25 0"/>
<feBlend mode="normal" in2="BackgroundImageFix" result="effect1_dropShadow_3_89128"/>
<feBlend mode="normal" in="SourceGraphic" in2="effect1_dropShadow_3_89128" result="shape"/>
</filter>
</defs>
</svg>
