<svg width="88" height="85" viewBox="0 0 88 85" fill="none" xmlns="http://www.w3.org/2000/svg">
<g filter="url(#filter0_d_1280_9636)">
<ellipse cx="44.4062" cy="37.5" rx="38.5" ry="37.5" fill="#FF2F6D"/>
</g>
<path d="M32.3896 26.3242H48.8161C50.2873 26.3242 51.4714 27.7581 51.4714 29.5387V45.5323C51.4714 47.3133 50.287 48.7468 48.8161 48.7468L32.3896 48.7472C30.9185 48.7472 29.7344 47.3133 29.7344 45.5326V29.5391C29.7344 27.7581 30.9188 26.3246 32.3896 26.3246V26.3242Z" fill="white"/>
<path d="M59.0471 28.6959C58.867 28.7042 58.6909 28.7816 58.5346 28.9219L53.3047 33.6352V41.4373L58.5346 46.1506V46.1502C58.8727 46.4543 59.2891 46.454 59.6269 46.1495C59.965 45.8447 60.1732 45.2819 60.1738 44.6726V30.3998C60.1732 29.9384 60.0531 29.4968 59.8408 29.1759C59.6286 28.8551 59.3424 28.6819 59.0471 28.6961L59.0471 28.6959Z" fill="white"/>
<defs>
<filter id="filter0_d_1280_9636" x="0.90625" y="0" width="87" height="85" filterUnits="userSpaceOnUse" color-interpolation-filters="sRGB">
<feFlood flood-opacity="0" result="BackgroundImageFix"/>
<feColorMatrix in="SourceAlpha" type="matrix" values="0 0 0 0 0 0 0 0 0 0 0 0 0 0 0 0 0 0 127 0" result="hardAlpha"/>
<feOffset dy="5"/>
<feGaussianBlur stdDeviation="2.5"/>
<feColorMatrix type="matrix" values="0 0 0 0 0.576471 0 0 0 0 0.576471 0 0 0 0 0.576471 0 0 0 0.25 0"/>
<feBlend mode="normal" in2="BackgroundImageFix" result="effect1_dropShadow_1280_9636"/>
<feBlend mode="normal" in="SourceGraphic" in2="effect1_dropShadow_1280_9636" result="shape"/>
</filter>
</defs>
</svg>
