<svg width="35" height="35" viewBox="0 0 68 68" fill="none" xmlns="http://www.w3.org/2000/svg">
<circle cx="34" cy="34" r="34" fill="white" fill-opacity="0.2"/>
<path d="M20.8538 22H38.5089C40.0901 22 41.3627 23.5411 41.3627 25.4549V42.6447C41.3627 44.5589 40.0898 46.0996 38.5089 46.0996L20.8538 46.1C19.2727 46.1 18 44.5589 18 42.6451V25.4553C18 23.5411 19.273 22.0004 20.8538 22.0004V22Z" fill="#FF5B7A"/>
<path d="M49.5078 24.5504C49.3142 24.5594 49.125 24.6426 48.957 24.7933L43.3359 29.8591V38.2448L48.957 43.3106V43.3102C49.3204 43.6371 49.7679 43.6367 50.131 43.3094C50.4944 42.9818 50.7182 42.377 50.7188 41.7221V26.3817C50.7182 25.8858 50.589 25.4112 50.361 25.0664C50.1329 24.7215 49.8253 24.5354 49.5078 24.5507L49.5078 24.5504Z" fill="#FF5B7A"/>
</svg>
