<svg width="33" height="29" viewBox="0 0 33 29" fill="none" xmlns="http://www.w3.org/2000/svg">
<path d="M5.21046 0.5C3.88438 0.5 2.6126 1.02679 1.67492 1.96447C0.737235 2.90216 0.210449 4.17393 0.210449 5.50002V23.5001C0.210449 24.8262 0.737235 26.0979 1.67492 27.0356C2.6126 27.9733 3.88438 28.5001 5.21046 28.5001H27.2105C28.5366 28.5001 29.8084 27.9733 30.7461 27.0356C31.6838 26.0979 32.2105 24.8262 32.2105 23.5001V5.50002C32.2105 4.17393 31.6838 2.90216 30.7461 1.96447C29.8084 1.02679 28.5366 0.5 27.2105 0.5H5.21046ZM13.7405 8.65203L21.7405 13.656C21.8821 13.7448 21.9991 13.8677 22.081 14.0134C22.1628 14.1591 22.2068 14.323 22.209 14.4901C22.2112 14.6571 22.1715 14.8221 22.0935 14.9699C22.0155 15.1177 21.9017 15.2436 21.7625 15.336L13.7625 20.6341C13.6118 20.7338 13.4369 20.7909 13.2563 20.7992C13.0758 20.8075 12.8963 20.7666 12.7371 20.6811C12.5779 20.5955 12.4449 20.4684 12.3521 20.3133C12.2594 20.1582 12.2105 19.9808 12.2105 19.8001V9.50003C12.2105 9.32152 12.2583 9.14627 12.3489 8.99247C12.4395 8.83866 12.5696 8.71192 12.7257 8.62538C12.8818 8.53885 13.0583 8.49568 13.2367 8.50037C13.4152 8.50505 13.5891 8.55742 13.7405 8.65203Z" fill="#324396"/>
</svg>
