<svg width="24" height="24" viewBox="0 0 24 24" fill="none" xmlns="http://www.w3.org/2000/svg">
<path d="M4.06345 19.7206C2.46906 18.1386 1.37963 16.1193 0.932921 13.918C0.486216 11.7168 0.702304 9.43253 1.55386 7.35411C2.40541 5.27569 3.85418 3.49647 5.71695 2.24146C7.57973 0.986451 9.77283 0.312017 12.0189 0.303452C14.265 0.294888 16.4632 0.952577 18.3355 2.19335C20.2078 3.43412 21.6701 5.20223 22.5374 7.2741C23.4048 9.34596 23.6383 11.6285 23.2084 13.8331C22.7785 16.0377 21.7045 18.0652 20.1222 19.6594C17.9993 21.7941 15.1161 22.9995 12.1055 23.011C9.09486 23.0225 6.20263 21.8391 4.06345 19.7206ZM11.153 12.6107L11.1494 15.9388C11.1499 16.061 11.1744 16.1819 11.2216 16.2946C11.2687 16.4072 11.3377 16.5095 11.4244 16.5956C11.5111 16.6816 11.6139 16.7498 11.7269 16.7961C11.84 16.8424 11.961 16.866 12.0832 16.8655C12.2054 16.8651 12.3262 16.8406 12.4389 16.7934C12.5516 16.7462 12.6539 16.6773 12.7399 16.5906C12.826 16.5039 12.8941 16.4011 12.9404 16.288C12.9868 16.175 13.0104 16.0539 13.0099 15.9317L13.0124 12.6036L16.3417 12.6072C16.4676 12.6092 16.5926 12.5861 16.7094 12.5392C16.8263 12.4923 16.9326 12.4225 17.0221 12.3341C17.1117 12.2456 17.1827 12.1401 17.231 12.0239C17.2793 11.9076 17.304 11.7829 17.3035 11.657C17.303 11.5311 17.2774 11.4065 17.2282 11.2906C17.179 11.1747 17.1072 11.0698 17.017 10.982C16.9267 10.8942 16.8199 10.8253 16.7027 10.7793C16.5855 10.7333 16.4603 10.7111 16.3345 10.7141L13.0053 10.7431L13.0106 7.41434C13.0098 7.16315 12.9092 6.92257 12.731 6.74552C12.5528 6.56848 12.3116 6.46947 12.0604 6.47028C11.8092 6.47109 11.5686 6.57165 11.3916 6.74984C11.2145 6.92803 11.1155 7.16925 11.1163 7.42044L11.1453 10.7496L7.81605 10.746C7.69167 10.7466 7.56862 10.7716 7.45392 10.8197C7.33922 10.8678 7.23512 10.938 7.14756 11.0264C7.06 11.1147 6.9907 11.2194 6.94361 11.3345C6.89652 11.4496 6.87256 11.5729 6.87311 11.6973C6.87366 11.8217 6.8987 11.9447 6.9468 12.0594C6.99491 12.1741 7.06513 12.2782 7.15347 12.3658C7.2418 12.4533 7.34652 12.5226 7.46164 12.5697C7.57675 12.6168 7.70002 12.6408 7.8244 12.6402L11.1519 12.6107L11.153 12.6107Z" fill="#577FE5"/>
</svg>
