<svg width="22" height="16" viewBox="0 0 22 16" fill="none" xmlns="http://www.w3.org/2000/svg">
<path d="M10.9999 15.9488C8.65022 15.9519 6.35886 15.2173 4.44889 13.8488C2.55966 12.4981 1.11142 10.6195 0.285889 8.44879C1.11126 6.27797 2.55954 4.39935 4.44889 3.04879C6.35926 1.68148 8.64963 0.946289 10.9989 0.946289C13.3482 0.946289 15.6385 1.68148 17.5489 3.04879C19.4378 4.39954 20.8857 6.27813 21.7109 8.44879C20.8857 10.6194 19.4378 12.498 17.5489 13.8488C15.6395 15.217 13.3489 15.9515 10.9999 15.9488ZM10.9999 3.44879C9.6916 3.46776 8.44423 4.00477 7.5313 4.94207C6.61837 5.87937 6.1144 7.14045 6.12989 8.44879C6.1144 9.75712 6.61837 11.0182 7.5313 11.9555C8.44423 12.8928 9.6916 13.4298 10.9999 13.4488C12.3083 13.4301 13.556 12.8932 14.4691 11.9558C15.3823 11.0185 15.8864 9.75729 15.8709 8.44879C15.8864 7.14028 15.3823 5.87905 14.4691 4.94172C13.556 4.00439 12.3083 3.46749 10.9999 3.44879ZM10.9999 11.4488C10.4035 11.4643 9.81597 11.3016 9.31247 10.9816C8.80897 10.6615 8.41234 10.1985 8.17327 9.65191C7.9342 9.10528 7.86355 8.49978 7.97034 7.9128C8.07714 7.32581 8.35653 6.784 8.77281 6.3566C9.1891 5.92921 9.72336 5.63564 10.3073 5.51342C10.8913 5.3912 11.4985 5.44588 12.0512 5.67047C12.6039 5.89506 13.0771 6.27936 13.4104 6.77425C13.7436 7.26915 13.9217 7.85216 13.9219 8.44879C13.9312 9.2338 13.6289 9.99048 13.0811 10.5529C12.5333 11.1153 11.7849 11.4375 10.9999 11.4488Z" fill="white"/>
</svg>
