<svg width="21" height="20" viewBox="0 0 21 20" fill="none" xmlns="http://www.w3.org/2000/svg">
<g clip-path="url(#clip0_455_21177)">
<path d="M1.0458 9.88041C1.04533 11.5608 1.48783 13.2016 2.32924 14.6478L0.965332 19.589L6.06158 18.2631C7.47114 19.0245 9.05044 19.4235 10.6553 19.4236H10.6596C15.9576 19.4236 20.2703 15.1458 20.2726 9.88793C20.2736 7.3401 19.2746 4.94428 17.4594 3.1418C15.6446 1.33948 13.2309 0.346378 10.6592 0.345215C5.36049 0.345215 1.04807 4.62273 1.04588 9.88041" fill="url(#paint0_linear_455_21177)"/>
<path d="M0.702734 9.87721C0.702188 11.6181 1.16055 13.3175 2.03195 14.8155L0.619141 19.9339L5.89812 18.5605C7.35266 19.3474 8.99031 19.7622 10.6567 19.7629H10.661C16.1491 19.7629 20.6168 15.3312 20.6191 9.88512C20.6201 7.24574 19.5851 4.7638 17.7051 2.89674C15.8248 1.02992 13.3248 0.00108527 10.661 0C5.17195 0 0.705 4.43101 0.702813 9.87721H0.702734ZM3.84648 14.5575L3.64937 14.2471C2.82078 12.9398 2.38344 11.4291 2.38406 9.87783C2.38586 5.35109 6.09867 1.66822 10.6641 1.66822C12.8751 1.66915 14.9529 2.52434 16.5157 4.07597C18.0784 5.62775 18.9384 7.69054 18.9378 9.8845C18.9358 14.4112 15.2229 18.0946 10.661 18.0946H10.6577C9.17234 18.0938 7.71555 17.698 6.44508 16.95L6.14273 16.7721L3.01008 17.5871L3.84648 14.5574V14.5575Z" fill="url(#paint1_linear_455_21177)"/>
<path d="M8.17217 5.74776C7.98576 5.33668 7.78959 5.32838 7.61232 5.32117C7.46717 5.31497 7.30123 5.31544 7.13545 5.31544C6.96951 5.31544 6.6999 5.37738 6.47201 5.62427C6.24389 5.87141 5.60107 6.46862 5.60107 7.68327C5.60107 8.898 6.49272 10.0719 6.61701 10.2368C6.74146 10.4013 8.33834 12.9737 10.8674 13.9633C12.9693 14.7857 13.397 14.6222 13.8532 14.5809C14.3094 14.5399 15.3254 13.9839 15.5326 13.4074C15.7401 12.8309 15.7401 12.3368 15.6779 12.2336C15.6157 12.1307 15.4497 12.0689 15.2009 11.9455C14.952 11.822 13.7287 11.2247 13.5007 11.1423C13.2726 11.06 13.1067 11.0189 12.9408 11.2661C12.7748 11.513 12.2983 12.0689 12.1531 12.2336C12.008 12.3986 11.8628 12.4192 11.614 12.2957C11.3651 12.1718 10.5637 11.9114 9.61303 11.0704C8.87334 10.416 8.37396 9.60784 8.22881 9.36063C8.08365 9.11381 8.21326 8.98001 8.33803 8.85699C8.44982 8.74637 8.58693 8.56869 8.71146 8.42459C8.83553 8.2804 8.87693 8.17753 8.9599 8.01288C9.04295 7.84807 9.00139 7.70389 8.93928 7.5804C8.87693 7.45691 8.39342 6.23598 8.17217 5.74784" fill="white"/>
</g>
<defs>
<linearGradient id="paint0_linear_455_21177" x1="10.619" y1="19.589" x2="10.619" y2="0.345215" gradientUnits="userSpaceOnUse">
<stop stop-color="#1FAF38"/>
<stop offset="1" stop-color="#60D669"/>
</linearGradient>
<linearGradient id="paint1_linear_455_21177" x1="10.6191" y1="19.9339" x2="10.6191" y2="0" gradientUnits="userSpaceOnUse">
<stop stop-color="#F9F9F9"/>
<stop offset="1" stop-color="white"/>
</linearGradient>
<clipPath id="clip0_455_21177">
<rect width="20" height="20" fill="white" transform="translate(0.619141)"/>
</clipPath>
</defs>
</svg>
