<svg width="19" height="18" viewBox="0 0 19 18" fill="none" xmlns="http://www.w3.org/2000/svg">
<path d="M11.5911 12.2694C11.3316 11.9323 10.7739 11.9071 10.4759 12.2189L10.3638 12.3368L13.9755 17.1429C14.0909 17.0952 14.203 17.053 14.3151 17.0024C14.6804 16.8311 14.7926 16.4154 14.5619 16.1148L11.5911 12.2694Z" fill="white"/>
<path d="M6.43871 5.06946C6.87227 4.93953 7.04493 4.47628 6.79056 4.1372L3.8786 0.272647C3.64924 -0.0296089 3.17808 -0.0917674 2.86718 0.14272C2.76985 0.218935 2.68178 0.298141 2.59082 0.374353L6.18434 5.14287L6.43871 5.06946Z" fill="white"/>
<path d="M10.2055 13.2349C9.58751 13.9269 8.44078 13.8691 7.90277 13.1219L3.98913 7.68624C3.45113 6.93614 3.81702 5.91395 4.73008 5.63012L5.09909 5.51426L1.75099 0.857422C-0.308847 3.04392 -0.62546 6.34228 1.19758 8.87343L3.56795 12.1662L4.49644 13.4549L5.69855 15.1288C7.5217 17.6627 10.8942 18.6067 13.8182 17.6106L10.5163 12.8903L10.2055 13.2349Z" fill="white"/>
<path d="M14.2434 9.43531C14.0525 9.39978 13.8686 9.49275 13.8269 9.64051C13.7852 9.78827 13.8998 9.93603 14.0872 9.96892C15.4995 10.2234 16.7001 10.8964 17.4739 11.8651C18.2478 12.8337 18.4941 13.9801 18.1714 15.0912C18.1298 15.2389 18.2443 15.3867 18.4317 15.4196C18.4595 15.425 18.4838 15.4277 18.508 15.4277C18.6676 15.4277 18.81 15.343 18.8447 15.2144C19.2091 13.9585 18.9279 12.6671 18.0569 11.5752C17.1896 10.4806 15.8361 9.71999 14.2434 9.43544L14.2434 9.43531Z" fill="white"/>
<path d="M14.1914 10.2938C14.0238 10.2532 13.8625 10.3596 13.8259 10.5287C13.7893 10.6979 13.8898 10.8671 14.0543 10.9047C14.9283 11.1083 15.6714 11.6533 16.1495 12.4365C16.6276 13.2196 16.7829 14.1468 16.5819 15.0427C16.5453 15.2118 16.6458 15.381 16.8103 15.4186C16.8347 15.4249 16.856 15.428 16.8773 15.428C17.0173 15.428 17.1423 15.331 17.1727 15.1837C17.4072 14.1219 17.2275 13.0287 16.6611 12.1046C16.1008 11.1772 15.2237 10.535 14.1914 10.2939L14.1914 10.2938Z" fill="white"/>
<path d="M14.0906 12.0087C13.9706 11.9679 13.8505 12.0747 13.8238 12.2444C13.7971 12.4142 13.8705 12.5839 13.9905 12.6217C14.7594 12.87 15.2416 13.9545 15.066 15.0419C15.0393 15.2116 15.1126 15.3814 15.2326 15.4192C15.2504 15.4254 15.266 15.4286 15.2815 15.4286C15.3837 15.4286 15.4749 15.3312 15.4971 15.1834C15.7305 13.7594 15.0994 12.3356 14.0905 12.0087L14.0906 12.0087Z" fill="white"/>
</svg>
