<svg width="22" height="17" viewBox="0 0 22 17" fill="none" xmlns="http://www.w3.org/2000/svg">
<path d="M1.90651 0H13.701C14.7573 0 15.6075 1.02954 15.6075 2.30808V13.7917C15.6075 15.0705 14.7571 16.0998 13.701 16.0998L1.90651 16.1C0.850202 16.1 0 15.0705 0 13.7919V2.30833C0 1.02953 0.850413 0.000249279 1.90651 0.000249279V0Z" fill="white"/>
<path d="M21.0474 1.70353C20.9181 1.70951 20.7917 1.7651 20.6795 1.86581L16.9243 5.25001V10.852L20.6795 14.2362V14.236C20.9222 14.4544 21.2212 14.4541 21.4638 14.2355C21.7065 14.0166 21.856 13.6125 21.8564 13.1751V2.92695C21.856 2.59566 21.7698 2.27858 21.6174 2.04821C21.465 1.81784 21.2595 1.69349 21.0474 1.70371L21.0474 1.70353Z" fill="white"/>
</svg>
